<?xml version="1.0" encoding="utf-8" standalone="no"?>
<!DOCTYPE svg PUBLIC "-//W3C//DTD SVG 1.1//EN"
  "http://www.w3.org/Graphics/SVG/1.1/DTD/svg11.dtd">
<svg xmlns:xlink="http://www.w3.org/1999/xlink" width="437.945354pt" height="231.260799pt" viewBox="0 0 437.945354 231.260799" xmlns="http://www.w3.org/2000/svg" version="1.1">
 <metadata>
  <rdf:RDF xmlns:dc="http://purl.org/dc/elements/1.1/" xmlns:cc="http://creativecommons.org/ns#" xmlns:rdf="http://www.w3.org/1999/02/22-rdf-syntax-ns#">
   <cc:Work>
    <dc:type rdf:resource="http://purl.org/dc/dcmitype/StillImage"/>
    <dc:date>2023-12-08T17:57:30.539572</dc:date>
    <dc:format>image/svg+xml</dc:format>
    <dc:creator>
     <cc:Agent>
      <dc:title>Matplotlib v3.7.0, https://matplotlib.org/</dc:title>
     </cc:Agent>
    </dc:creator>
   </cc:Work>
  </rdf:RDF>
 </metadata>
 <defs>
  <style type="text/css">*{stroke-linejoin: round; stroke-linecap: butt}</style>
 </defs>
 <g id="figure_1">
  <g id="patch_1">
   <path d="M 0 231.260799 
L 437.945354 231.260799 
L 437.945354 0 
L 0 0 
z
" style="fill: #222222"/>
  </g>
  <g id="axes_1">
   <g id="patch_2">
    <path d="M 40.145354 168.382195 
L 430.745354 168.382195 
L 430.745354 21.502195 
L 40.145354 21.502195 
z
" style="fill: #222222"/>
   </g>
   <g id="matplotlib.axis_1">
    <g id="xtick_1">
     <g id="line2d_1">
      <defs>
       <path id="m0d92030aba" d="M 0 0 
L 0 3.5 
" style="stroke: #ffffff; stroke-width: 0.8"/>
      </defs>
      <g>
       <use xlink:href="#m0d92030aba" x="84.121427" y="168.382195" style="fill: #ffffff; stroke: #ffffff; stroke-width: 0.8"/>
      </g>
     </g>
     <g id="text_1">
      <!-- $\mathdefault{2023{-}09{-}16}$ -->
      <g style="fill: #ffffff" transform="translate(33.633132 210.043896) rotate(-30) scale(0.1 -0.1)">
       <defs>
        <path id="HFBR17-32" d="M 467 2942 
C 557 3302 710 3711 1075 3872 
C 1229 3936 1395 3949 1562 3936 
C 1875 3910 2182 3782 2374 3526 
C 2515 3333 2566 3096 2541 2866 
C 2464 2198 1811 1718 1389 1359 
C 1146 1154 454 500 454 500 
L 346 397 
C 288 340 282 340 282 224 
L 282 0 
L 2970 0 
L 2970 360 
L 653 360 
C 858 559 1709 1313 1824 1403 
C 2195 1706 2611 2008 2835 2446 
C 3085 2948 2976 3580 2554 3953 
C 2298 4179 1946 4288 1606 4288 
C 1293 4288 973 4224 723 4026 
C 531 3865 371 3628 282 3384 
C 262 3346 230 3282 237 3237 
C 243 3199 282 3167 301 3141 
C 352 3077 403 3000 467 2942 
z
" transform="scale(0.015625)"/>
        <path id="HFBR17-30" d="M 947 4087 
C 762 3959 634 3785 538 3586 
C 307 3136 282 2609 282 2037 
C 282 1317 410 656 768 276 
C 1107 -77 1645 -167 2099 19 
C 2381 129 2586 366 2714 623 
C 2944 1080 2970 1626 2970 2191 
C 2970 2371 2963 2551 2944 2731 
C 2899 3162 2752 3637 2515 3901 
C 2125 4332 1427 4428 947 4087 
z
M 2234 3721 
C 2534 3400 2560 2783 2560 2198 
L 2560 1851 
C 2560 1555 2509 1170 2445 951 
C 2355 649 2208 431 1914 296 
C 1555 167 1184 289 979 572 
C 704 938 691 1587 691 2159 
C 691 2699 698 3297 960 3650 
C 1248 4036 1869 4100 2234 3721 
z
" transform="scale(0.015625)"/>
        <path id="HFBR17-33" d="M 518 3246 
C 570 3323 608 3407 666 3484 
C 800 3664 986 3805 1197 3889 
C 1530 4024 2016 4024 2278 3726 
C 2509 3461 2413 3047 2202 2802 
C 2010 2576 1760 2466 1389 2466 
C 1280 2466 1178 2434 1069 2434 
L 1069 2112 
L 1510 2112 
C 1882 2112 2125 2055 2330 1836 
C 2682 1463 2650 801 2259 461 
C 2061 294 1786 242 1530 261 
C 1030 300 589 564 294 975 
C 262 911 262 821 250 750 
C 230 647 230 647 294 564 
C 480 313 845 82 1133 -2 
C 1645 -156 2240 -86 2637 306 
C 2714 384 2784 467 2842 557 
C 3078 930 3085 1418 2822 1778 
C 2714 1926 2573 2042 2413 2132 
C 2304 2196 2176 2260 2048 2273 
C 2419 2447 2765 2741 2829 3223 
C 2886 3672 2624 3948 2355 4108 
C 1939 4352 1395 4352 966 4139 
C 768 4043 589 3902 454 3728 
C 429 3696 333 3587 333 3535 
C 333 3503 358 3471 378 3445 
L 518 3246 
z
" transform="scale(0.015625)"/>
        <path id="HFBRSY10-0" d="M 627 1797 
C 512 1759 499 1586 627 1554 
C 659 1541 698 1548 736 1548 
L 4141 1548 
C 4218 1548 4339 1522 4403 1586 
C 4474 1656 4435 1784 4333 1804 
C 4256 1816 4166 1804 4090 1804 
L 730 1804 
C 698 1804 659 1810 627 1797 
z
" transform="scale(0.015625)"/>
        <path id="HFBR17-39" d="M 2528 2109 
C 2528 2109 2534 2109 2534 2109 
C 2534 2032 2528 1948 2528 1871 
C 2515 1363 2381 762 1946 444 
C 1818 341 1619 256 1427 256 
C 1082 205 800 370 602 502 
L 435 205 
C 710 -8 1126 -168 1613 -59 
C 2048 37 2400 372 2618 751 
C 2950 1335 3034 2035 2906 2850 
C 2822 3429 2573 3987 2054 4199 
C 1773 4315 1414 4315 1139 4193 
C 870 4063 640 3838 486 3586 
C 346 3348 294 3078 294 2807 
C 294 2575 320 2350 397 2130 
C 518 1827 762 1479 1050 1383 
C 1158 1344 1267 1344 1382 1344 
C 1722 1344 2048 1498 2285 1742 
C 2362 1820 2496 2000 2528 2109 
z
M 1562 3968 
C 1850 3968 2131 3852 2298 3602 
C 2374 3480 2419 3337 2451 3196 
C 2547 2823 2560 2412 2349 2077 
C 2214 1864 1971 1665 1677 1665 
C 1466 1665 1235 1691 1062 1825 
C 806 2023 717 2311 717 2733 
C 717 3110 730 3405 934 3648 
C 1075 3840 1254 3929 1562 3968 
z
" transform="scale(0.015625)"/>
        <path id="HFBR17-31" d="M 621 3841 
L 621 3520 
C 973 3520 1216 3584 1498 3706 
L 1498 321 
L 659 321 
L 659 0 
L 2752 0 
L 2752 321 
L 1914 321 
L 1914 4288 
C 1760 4288 1786 4247 1664 4152 
C 1402 3950 1037 3841 621 3841 
z
" transform="scale(0.015625)"/>
        <path id="HFBR17-36" d="M 723 2088 
L 717 2088 
C 717 2673 819 3355 1318 3728 
C 1594 3928 1965 4030 2445 3915 
C 2547 3889 2643 3850 2739 3825 
L 2739 4050 
C 2739 4075 2746 4120 2726 4146 
C 2682 4204 2323 4262 2310 4262 
C 1754 4326 1389 4204 1050 3915 
C 640 3561 403 3041 326 2514 
C 256 2090 314 1408 397 1074 
C 531 579 787 142 1261 -25 
C 1542 -128 1888 -128 2157 1 
C 2374 105 2554 286 2694 480 
C 2918 790 2976 1166 2950 1547 
C 2938 1735 2912 1923 2835 2097 
C 2714 2376 2509 2667 2246 2796 
C 2125 2848 1997 2848 1869 2848 
C 1530 2848 1210 2700 973 2455 
C 870 2352 768 2222 723 2088 
z
M 1562 2529 
C 1805 2548 2061 2510 2246 2336 
C 2490 2105 2534 1777 2534 1460 
C 2534 1246 2541 1025 2477 823 
C 2438 719 2387 629 2330 544 
C 2189 356 2010 264 1715 225 
C 1427 225 1139 340 973 584 
C 870 725 819 899 787 1065 
C 749 1238 723 1417 736 1591 
C 768 2047 1088 2465 1562 2529 
z
" transform="scale(0.015625)"/>
       </defs>
       <use xlink:href="#HFBR17-32" transform="scale(0.996264)"/>
       <use xlink:href="#HFBR17-30" transform="translate(50.643218 0) scale(0.996264)"/>
       <use xlink:href="#HFBR17-32" transform="translate(101.286436 0) scale(0.996264)"/>
       <use xlink:href="#HFBR17-33" transform="translate(151.929653 0) scale(0.996264)"/>
       <use xlink:href="#HFBRSY10-0" transform="translate(202.572871 0) scale(0.996264)"/>
       <use xlink:href="#HFBR17-30" transform="translate(280.060339 0) scale(0.996264)"/>
       <use xlink:href="#HFBR17-39" transform="translate(330.703557 0) scale(0.996264)"/>
       <use xlink:href="#HFBRSY10-0" transform="translate(381.346775 0) scale(0.996264)"/>
       <use xlink:href="#HFBR17-31" transform="translate(458.834242 0) scale(0.996264)"/>
       <use xlink:href="#HFBR17-36" transform="translate(509.47746 0) scale(0.996264)"/>
      </g>
     </g>
    </g>
    <g id="xtick_2">
     <g id="line2d_2">
      <g>
       <use xlink:href="#m0d92030aba" x="154.615633" y="168.382195" style="fill: #ffffff; stroke: #ffffff; stroke-width: 0.8"/>
      </g>
     </g>
     <g id="text_2">
      <!-- $\mathdefault{2023{-}09{-}17}$ -->
      <g style="fill: #ffffff" transform="translate(104.127338 210.043896) rotate(-30) scale(0.1 -0.1)">
       <defs>
        <path id="HFBR17-37" d="M 230 4200 
L 230 3840 
L 2739 3840 
L 2502 3608 
C 2291 3383 2099 3144 1926 2887 
C 1350 2017 1037 980 1037 -64 
L 1466 -64 
C 1466 877 1702 1817 2150 2648 
C 2368 3067 2598 3369 2899 3723 
C 2938 3762 2995 3807 3014 3858 
C 3027 3890 3021 3935 3021 3975 
L 3021 4200 
L 230 4200 
z
" transform="scale(0.015625)"/>
       </defs>
       <use xlink:href="#HFBR17-32" transform="scale(0.996264)"/>
       <use xlink:href="#HFBR17-30" transform="translate(50.643218 0) scale(0.996264)"/>
       <use xlink:href="#HFBR17-32" transform="translate(101.286436 0) scale(0.996264)"/>
       <use xlink:href="#HFBR17-33" transform="translate(151.929653 0) scale(0.996264)"/>
       <use xlink:href="#HFBRSY10-0" transform="translate(202.572871 0) scale(0.996264)"/>
       <use xlink:href="#HFBR17-30" transform="translate(280.060339 0) scale(0.996264)"/>
       <use xlink:href="#HFBR17-39" transform="translate(330.703557 0) scale(0.996264)"/>
       <use xlink:href="#HFBRSY10-0" transform="translate(381.346775 0) scale(0.996264)"/>
       <use xlink:href="#HFBR17-31" transform="translate(458.834242 0) scale(0.996264)"/>
       <use xlink:href="#HFBR17-37" transform="translate(509.47746 0) scale(0.996264)"/>
      </g>
     </g>
    </g>
    <g id="xtick_3">
     <g id="line2d_3">
      <g>
       <use xlink:href="#m0d92030aba" x="225.109839" y="168.382195" style="fill: #ffffff; stroke: #ffffff; stroke-width: 0.8"/>
      </g>
     </g>
     <g id="text_3">
      <!-- $\mathdefault{2023{-}09{-}18}$ -->
      <g style="fill: #ffffff" transform="translate(174.621544 210.043896) rotate(-30) scale(0.1 -0.1)">
       <defs>
        <path id="HFBR17-38" d="M 1197 2304 
L 1197 2298 
C 800 2182 467 1964 307 1590 
C 141 1198 256 722 538 413 
C 838 91 1248 -64 1683 -64 
C 2323 -64 2938 410 3014 1071 
C 3027 1169 3021 1273 3008 1370 
C 2893 1870 2528 2168 2054 2298 
C 2106 2317 2163 2330 2214 2349 
C 2483 2459 2707 2619 2848 2876 
C 3059 3288 2854 3770 2509 4033 
C 2163 4297 1696 4367 1274 4277 
C 768 4168 288 3738 320 3185 
C 333 2992 416 2831 512 2716 
C 659 2536 947 2343 1197 2304 
z
M 1523 4000 
C 1805 4000 2157 3968 2362 3749 
C 2605 3486 2618 3010 2374 2740 
C 2221 2573 1997 2489 1773 2470 
C 1459 2444 1101 2496 877 2740 
C 627 3016 646 3518 915 3775 
C 1082 3929 1306 3980 1523 4000 
z
M 1517 2144 
C 1818 2144 2144 2073 2362 1852 
C 2445 1762 2509 1652 2547 1537 
C 2656 1200 2605 774 2355 515 
C 2182 341 1946 276 1709 257 
C 1421 257 1088 327 883 548 
C 602 857 544 1498 877 1860 
C 1043 2034 1280 2125 1517 2144 
z
" transform="scale(0.015625)"/>
       </defs>
       <use xlink:href="#HFBR17-32" transform="scale(0.996264)"/>
       <use xlink:href="#HFBR17-30" transform="translate(50.643218 0) scale(0.996264)"/>
       <use xlink:href="#HFBR17-32" transform="translate(101.286436 0) scale(0.996264)"/>
       <use xlink:href="#HFBR17-33" transform="translate(151.929653 0) scale(0.996264)"/>
       <use xlink:href="#HFBRSY10-0" transform="translate(202.572871 0) scale(0.996264)"/>
       <use xlink:href="#HFBR17-30" transform="translate(280.060339 0) scale(0.996264)"/>
       <use xlink:href="#HFBR17-39" transform="translate(330.703557 0) scale(0.996264)"/>
       <use xlink:href="#HFBRSY10-0" transform="translate(381.346775 0) scale(0.996264)"/>
       <use xlink:href="#HFBR17-31" transform="translate(458.834242 0) scale(0.996264)"/>
       <use xlink:href="#HFBR17-38" transform="translate(509.47746 0) scale(0.996264)"/>
      </g>
     </g>
    </g>
    <g id="xtick_4">
     <g id="line2d_4">
      <g>
       <use xlink:href="#m0d92030aba" x="295.604044" y="168.382195" style="fill: #ffffff; stroke: #ffffff; stroke-width: 0.8"/>
      </g>
     </g>
     <g id="text_4">
      <!-- $\mathdefault{2023{-}09{-}19}$ -->
      <g style="fill: #ffffff" transform="translate(245.11575 210.043896) rotate(-30) scale(0.1 -0.1)">
       <use xlink:href="#HFBR17-32" transform="scale(0.996264)"/>
       <use xlink:href="#HFBR17-30" transform="translate(50.643218 0) scale(0.996264)"/>
       <use xlink:href="#HFBR17-32" transform="translate(101.286436 0) scale(0.996264)"/>
       <use xlink:href="#HFBR17-33" transform="translate(151.929653 0) scale(0.996264)"/>
       <use xlink:href="#HFBRSY10-0" transform="translate(202.572871 0) scale(0.996264)"/>
       <use xlink:href="#HFBR17-30" transform="translate(280.060339 0) scale(0.996264)"/>
       <use xlink:href="#HFBR17-39" transform="translate(330.703557 0) scale(0.996264)"/>
       <use xlink:href="#HFBRSY10-0" transform="translate(381.346775 0) scale(0.996264)"/>
       <use xlink:href="#HFBR17-31" transform="translate(458.834242 0) scale(0.996264)"/>
       <use xlink:href="#HFBR17-39" transform="translate(509.47746 0) scale(0.996264)"/>
      </g>
     </g>
    </g>
    <g id="xtick_5">
     <g id="line2d_5">
      <g>
       <use xlink:href="#m0d92030aba" x="366.09825" y="168.382195" style="fill: #ffffff; stroke: #ffffff; stroke-width: 0.8"/>
      </g>
     </g>
     <g id="text_5">
      <!-- $\mathdefault{2023{-}09{-}20}$ -->
      <g style="fill: #ffffff" transform="translate(315.609956 210.043896) rotate(-30) scale(0.1 -0.1)">
       <use xlink:href="#HFBR17-32" transform="scale(0.996264)"/>
       <use xlink:href="#HFBR17-30" transform="translate(50.643218 0) scale(0.996264)"/>
       <use xlink:href="#HFBR17-32" transform="translate(101.286436 0) scale(0.996264)"/>
       <use xlink:href="#HFBR17-33" transform="translate(151.929653 0) scale(0.996264)"/>
       <use xlink:href="#HFBRSY10-0" transform="translate(202.572871 0) scale(0.996264)"/>
       <use xlink:href="#HFBR17-30" transform="translate(280.060339 0) scale(0.996264)"/>
       <use xlink:href="#HFBR17-39" transform="translate(330.703557 0) scale(0.996264)"/>
       <use xlink:href="#HFBRSY10-0" transform="translate(381.346775 0) scale(0.996264)"/>
       <use xlink:href="#HFBR17-32" transform="translate(458.834242 0) scale(0.996264)"/>
       <use xlink:href="#HFBR17-30" transform="translate(509.47746 0) scale(0.996264)"/>
      </g>
     </g>
    </g>
    <g id="text_6">
     <!-- Date -->
     <g style="fill: #ffffff" transform="translate(225.067705 222.400369) scale(0.1 -0.1)">
      <defs>
       <path id="HFBR17-44" d="M 512 4480 
L 512 0 
L 1805 0 
C 2010 0 2214 0 2413 19 
C 2925 71 3366 321 3661 629 
C 4486 1483 4480 2952 3667 3819 
C 3373 4133 2976 4384 2477 4448 
C 2234 4480 1984 4480 1741 4480 
L 512 4480 
z
M 954 340 
L 954 4132 
L 1779 4132 
C 1952 4132 2125 4132 2298 4119 
C 2586 4087 2867 3991 3104 3823 
C 3622 3464 3840 2827 3840 2217 
C 3840 1703 3699 1176 3322 809 
C 3066 572 2720 398 2304 353 
C 2138 340 1965 340 1798 340 
L 954 340 
z
" transform="scale(0.015625)"/>
       <path id="HFBR17-61" d="M 506 2497 
C 614 2551 704 2630 813 2683 
C 986 2762 1165 2816 1357 2816 
C 1446 2822 1549 2835 1638 2816 
C 1798 2790 1939 2693 2035 2557 
C 2131 2401 2170 2265 2170 2014 
L 2170 1729 
C 1862 1729 1555 1703 1261 1625 
C 890 1541 486 1352 352 1014 
C 218 690 358 261 646 66 
C 787 -32 954 -32 1120 -19 
C 1389 0 1658 65 1888 208 
C 1997 272 2106 357 2170 467 
L 2176 467 
L 2176 13 
L 2579 13 
L 2579 1721 
C 2579 1908 2598 2109 2560 2297 
C 2522 2555 2362 2769 2176 2918 
C 1958 3086 1709 3143 1376 3118 
C 1069 3118 832 3040 602 2929 
C 570 2916 506 2895 486 2857 
C 467 2830 480 2785 480 2752 
C 493 2667 499 2582 506 2497 
z
M 2170 1536 
L 2170 1048 
C 2170 900 2176 765 2093 637 
C 2022 534 1926 463 1824 412 
C 1459 225 902 283 742 592 
C 614 816 749 1080 934 1228 
C 1210 1440 1747 1536 2170 1536 
z
" transform="scale(0.015625)"/>
       <path id="HFBR17-74" d="M 691 3872 
L 691 3009 
L 70 3009 
L 70 2688 
L 685 2688 
L 685 961 
C 685 677 666 335 851 97 
C 960 -45 1107 -83 1331 -64 
C 1517 -64 1702 -25 1875 42 
C 1933 68 2144 161 2170 207 
C 2182 233 2099 518 2099 518 
L 1946 401 
C 1747 278 1350 149 1184 382 
C 1037 582 1075 880 1075 1112 
L 1075 2688 
L 2067 2688 
L 2067 3009 
L 1075 3009 
L 1075 3872 
L 691 3872 
z
" transform="scale(0.015625)"/>
       <path id="HFBR17-65" d="M 2675 700 
C 2528 591 2483 533 2298 436 
C 1907 224 1446 224 1114 459 
C 794 689 608 1065 608 1600 
L 2720 1600 
C 2720 2075 2611 2487 2342 2776 
C 2048 3065 1587 3155 1197 3033 
C 1050 2988 915 2911 794 2814 
C 390 2487 218 1966 224 1458 
C 237 790 691 122 1363 -20 
C 1715 -91 2086 -13 2400 147 
C 2458 179 2669 295 2694 353 
C 2714 385 2675 700 2675 700 
z
M 2381 1850 
L 640 1850 
C 717 2319 1101 2814 1619 2756 
C 2042 2718 2266 2416 2349 2037 
C 2362 1972 2368 1915 2381 1850 
z
" transform="scale(0.015625)"/>
      </defs>
      <use xlink:href="#HFBR17-44" transform="scale(0.996264)"/>
      <use xlink:href="#HFBR17-61" transform="translate(71.606187 0) scale(0.996264)"/>
      <use xlink:href="#HFBR17-74" transform="translate(118.098269 0) scale(0.996264)"/>
      <use xlink:href="#HFBR17-65" transform="translate(154.212657 0) scale(0.996264)"/>
     </g>
    </g>
   </g>
   <g id="matplotlib.axis_2">
    <g id="ytick_1">
     <g id="line2d_6">
      <defs>
       <path id="ma319e876e5" d="M 0 0 
L -3.5 0 
" style="stroke: #ffffff; stroke-width: 0.8"/>
      </defs>
      <g>
       <use xlink:href="#ma319e876e5" x="40.145354" y="161.706866" style="fill: #ffffff; stroke: #ffffff; stroke-width: 0.8"/>
      </g>
     </g>
     <g id="text_7">
      <!-- $\mathdefault{0.0}$ -->
      <g style="fill: #ffffff" transform="translate(19.778928 165.166115) scale(0.1 -0.1)">
       <defs>
        <path id="HFBRMI10-3a" d="M 685 500 
L 685 0 
L 1184 0 
L 1184 500 
L 685 500 
z
" transform="scale(0.015625)"/>
       </defs>
       <use xlink:href="#HFBR17-30" transform="scale(0.996264)"/>
       <use xlink:href="#HFBRMI10-3a" transform="translate(50.643218 0) scale(0.996264)"/>
       <use xlink:href="#HFBR17-30" transform="translate(79.700665 0) scale(0.996264)"/>
      </g>
     </g>
    </g>
    <g id="ytick_2">
     <g id="line2d_7">
      <g>
       <use xlink:href="#ma319e876e5" x="40.145354" y="130.489683" style="fill: #ffffff; stroke: #ffffff; stroke-width: 0.8"/>
      </g>
     </g>
     <g id="text_8">
      <!-- $\mathdefault{0.5}$ -->
      <g style="fill: #ffffff" transform="translate(19.778928 133.948932) scale(0.1 -0.1)">
       <defs>
        <path id="HFBR17-35" d="M 538 4245 
L 538 1949 
L 781 1949 
C 813 1949 858 1943 883 1956 
C 915 1975 934 2020 954 2046 
C 998 2103 1050 2148 1101 2193 
C 1331 2386 1773 2463 2067 2315 
C 2470 2123 2547 1614 2515 1216 
C 2496 964 2419 733 2272 585 
C 1933 224 1363 224 947 435 
C 742 538 570 699 442 891 
L 435 891 
C 416 859 269 634 269 595 
C 269 569 288 550 301 531 
C 493 306 742 132 1030 36 
C 1600 -144 2240 -3 2643 460 
C 3123 1019 3059 1930 2502 2417 
C 2336 2572 2106 2681 1830 2706 
C 1459 2758 1126 2578 928 2411 
L 928 3904 
L 2746 3904 
L 2746 4245 
L 538 4245 
z
" transform="scale(0.015625)"/>
       </defs>
       <use xlink:href="#HFBR17-30" transform="scale(0.996264)"/>
       <use xlink:href="#HFBRMI10-3a" transform="translate(50.643218 0) scale(0.996264)"/>
       <use xlink:href="#HFBR17-35" transform="translate(79.700665 0) scale(0.996264)"/>
      </g>
     </g>
    </g>
    <g id="ytick_3">
     <g id="line2d_8">
      <g>
       <use xlink:href="#ma319e876e5" x="40.145354" y="99.272499" style="fill: #ffffff; stroke: #ffffff; stroke-width: 0.8"/>
      </g>
     </g>
     <g id="text_9">
      <!-- $\mathdefault{1.0}$ -->
      <g style="fill: #ffffff" transform="translate(19.778928 102.731749) scale(0.1 -0.1)">
       <use xlink:href="#HFBR17-31" transform="scale(0.996264)"/>
       <use xlink:href="#HFBRMI10-3a" transform="translate(50.643218 0) scale(0.996264)"/>
       <use xlink:href="#HFBR17-30" transform="translate(79.700665 0) scale(0.996264)"/>
      </g>
     </g>
    </g>
    <g id="ytick_4">
     <g id="line2d_9">
      <g>
       <use xlink:href="#ma319e876e5" x="40.145354" y="68.055316" style="fill: #ffffff; stroke: #ffffff; stroke-width: 0.8"/>
      </g>
     </g>
     <g id="text_10">
      <!-- $\mathdefault{1.5}$ -->
      <g style="fill: #ffffff" transform="translate(19.778928 71.514566) scale(0.1 -0.1)">
       <use xlink:href="#HFBR17-31" transform="scale(0.996264)"/>
       <use xlink:href="#HFBRMI10-3a" transform="translate(50.643218 0) scale(0.996264)"/>
       <use xlink:href="#HFBR17-35" transform="translate(79.700665 0) scale(0.996264)"/>
      </g>
     </g>
    </g>
    <g id="ytick_5">
     <g id="line2d_10">
      <g>
       <use xlink:href="#ma319e876e5" x="40.145354" y="36.838133" style="fill: #ffffff; stroke: #ffffff; stroke-width: 0.8"/>
      </g>
     </g>
     <g id="text_11">
      <!-- $\mathdefault{2.0}$ -->
      <g style="fill: #ffffff" transform="translate(19.778928 40.297383) scale(0.1 -0.1)">
       <use xlink:href="#HFBR17-32" transform="scale(0.996264)"/>
       <use xlink:href="#HFBRMI10-3a" transform="translate(50.643218 0) scale(0.996264)"/>
       <use xlink:href="#HFBR17-30" transform="translate(79.700665 0) scale(0.996264)"/>
      </g>
     </g>
    </g>
    <g id="text_12">
     <!-- mA -->
     <g style="fill: #ffffff" transform="translate(14.118498 102.331082) rotate(-90) scale(0.1 -0.1)">
      <defs>
       <path id="HFBR17-6d" d="M 806 2391 
L 800 2391 
L 800 3033 
L 410 3033 
L 410 0 
L 819 0 
L 819 1411 
C 819 1725 800 2040 941 2328 
C 1062 2578 1274 2777 1651 2738 
C 1843 2738 2035 2687 2157 2525 
C 2272 2377 2278 2185 2278 2004 
L 2278 0 
L 2688 0 
L 2688 1411 
C 2688 1725 2669 2040 2810 2328 
C 2931 2578 3142 2777 3520 2738 
C 3712 2738 3904 2687 4026 2525 
C 4141 2377 4147 2185 4147 2004 
L 4147 0 
L 4557 0 
L 4557 1700 
C 4557 2008 4595 2354 4461 2636 
C 4326 2899 4109 3040 3757 3040 
C 3552 3059 3347 3028 3162 2934 
C 2938 2811 2771 2608 2669 2385 
C 2624 2597 2573 2741 2432 2880 
C 2285 3012 2086 3072 1894 3072 
C 1427 3110 1133 2916 934 2624 
C 883 2552 832 2475 806 2391 
z
" transform="scale(0.015625)"/>
       <path id="HFBR17-41" d="M 134 6 
L 422 6 
L 538 19 
C 730 435 864 909 1037 1344 
C 1670 1344 2362 1344 2963 1344 
L 3014 1260 
C 3123 931 3251 614 3366 291 
C 3398 193 3430 97 3482 19 
C 3622 0 3789 0 3942 0 
C 3834 314 2349 4301 2304 4409 
C 2298 4435 2285 4473 2253 4480 
C 2214 4486 2176 4480 2138 4480 
L 1926 4480 
C 1830 4480 1792 4492 1766 4391 
C 1741 4326 134 6 134 6 
z
M 2010 4043 
C 2278 3246 2566 2462 2848 1678 
L 1165 1678 
L 1722 3207 
L 2010 4043 
z
" transform="scale(0.015625)"/>
      </defs>
      <use xlink:href="#HFBR17-6d" transform="scale(0.996264)"/>
      <use xlink:href="#HFBR17-41" transform="translate(77.210126 0) scale(0.996264)"/>
     </g>
    </g>
   </g>
   <g id="line2d_11">
    <path d="M 57.899899 161.576354 
L 58.193625 161.690843 
L 60.739249 161.700231 
L 93.930271 161.573718 
L 105.679306 161.417584 
L 111.260097 161.116164 
L 123.10704 160.00335 
L 128.296197 159.27618 
L 133.093719 158.392579 
L 137.793333 157.317229 
L 142.492946 156.067985 
L 149.836093 153.801817 
L 155.906427 151.544351 
L 160.116498 149.944013 
L 160.410224 149.872774 
L 161.780944 149.326506 
L 168.634548 146.527876 
L 168.732456 146.67721 
L 169.026182 146.450098 
L 170.788537 145.734868 
L 174.704882 144.100068 
L 175.390242 143.856208 
L 175.488151 143.964069 
L 175.781877 143.660952 
L 176.858872 143.18757 
L 179.012861 142.238118 
L 179.600313 141.981599 
L 181.26476 141.296662 
L 182.439663 140.83863 
L 183.712475 140.357218 
L 191.447256 137.328903 
L 191.643073 137.524339 
L 191.83889 137.235994 
L 192.230525 137.154224 
L 193.111703 136.795807 
L 193.601246 136.5711 
L 193.894972 136.499962 
L 195.559418 135.752681 
L 197.223865 135.180974 
L 198.398768 134.824963 
L 199.182037 134.671163 
L 200.454849 134.225571 
L 200.552758 134.545265 
L 200.748575 134.239065 
L 201.238118 134.047316 
L 203.490016 133.042588 
L 204.273285 132.584916 
L 205.839823 131.980274 
L 206.133549 131.893768 
L 206.721001 131.789284 
L 207.797995 131.330547 
L 208.287539 131.176924 
L 209.266625 130.544207 
L 209.951985 130.189098 
L 216.511863 127.82379 
L 217.197223 127.575834 
L 217.588857 127.426857 
L 217.784675 127.330972 
L 217.980492 127.37237 
L 218.274218 127.214708 
L 220.036573 126.41128 
L 220.721933 126.243092 
L 221.309385 125.991954 
L 223.07174 125.149272 
L 223.463375 125.024016 
L 224.344552 124.629053 
L 225.421547 124.168848 
L 225.91109 123.866838 
L 228.162988 122.819774 
L 228.358805 122.900346 
L 230.610704 122.073679 
L 231.100247 121.82445 
L 231.393973 121.778898 
L 234.624957 120.369988 
L 235.310317 119.952777 
L 235.701952 119.792348 
L 236.485221 119.454979 
L 237.855942 118.688332 
L 239.520388 118.173149 
L 239.912023 118.010505 
L 240.303649 117.84429 
L 240.695283 117.645787 
L 241.576461 117.257633 
L 243.338816 116.512663 
L 246.080257 115.460118 
L 246.471892 115.174764 
L 246.569801 115.208795 
L 246.765618 115.042337 
L 246.961435 115.19134 
L 247.255161 114.928542 
L 248.625882 114.285354 
L 248.919607 114.110574 
L 249.800785 113.709819 
L 251.954775 112.882006 
L 252.052683 112.797599 
L 252.346409 114.536524 
L 252.835952 113.824233 
L 253.227587 113.743881 
L 254.108764 114.734557 
L 254.794125 115.328696 
L 255.773211 115.574909 
L 256.164845 115.426914 
L 256.458571 115.329413 
L 258.220926 113.59994 
L 258.514652 113.195053 
L 262.822631 108.301325 
L 264.878712 106.808196 
L 265.857799 105.614833 
L 266.543159 105.145279 
L 266.738976 105.093695 
L 267.228519 104.781739 
L 268.990874 103.851365 
L 269.2846 103.675942 
L 269.578326 103.42893 
L 270.263686 103.17274 
L 270.557412 103.132255 
L 270.753229 103.099301 
L 271.046955 102.799575 
L 272.221859 102.452188 
L 272.515585 102.431068 
L 273.005128 102.225396 
L 273.690488 102.060245 
L 274.473757 101.730884 
L 274.9633 101.553478 
L 275.452843 101.280325 
L 275.844478 101.213276 
L 276.529838 101.012758 
L 277.11729 100.738803 
L 277.411016 100.612928 
L 279.467097 99.879621 
L 279.760822 99.750741 
L 280.544091 99.67867 
L 280.837817 99.570538 
L 281.425269 99.378352 
L 282.208538 99.170787 
L 282.404355 99.158562 
L 282.79599 99.111367 
L 283.187624 99.015941 
L 283.48135 98.781103 
L 284.656253 98.710566 
L 284.852071 98.655874 
L 285.145797 98.612678 
L 285.439522 98.45215 
L 285.733248 98.396452 
L 286.124883 98.412966 
L 286.3207 98.366257 
L 286.614426 98.363888 
L 287.00606 98.428422 
L 287.201878 98.392 
L 287.691421 98.394053 
L 288.083055 98.361144 
L 289.943319 98.545004 
L 290.726588 98.393706 
L 290.922405 98.546998 
L 291.509857 98.353132 
L 291.705674 98.51147 
L 291.9994 98.400919 
L 292.293126 98.388923 
L 292.68476 98.397137 
L 292.978486 98.317096 
L 294.055481 98.555627 
L 294.251298 98.55966 
L 294.642933 98.637104 
L 295.328293 98.899754 
L 296.307379 99.329212 
L 296.503196 99.491346 
L 296.894831 99.782772 
L 297.090648 99.920518 
L 297.580191 100.340188 
L 299.342546 102.283023 
L 300.321633 103.87716 
L 302.769348 109.256001 
L 303.258891 110.933532 
L 305.021246 117.528761 
L 305.314972 118.761547 
L 306.000332 121.692532 
L 307.371053 127.57723 
L 307.762688 129.095033 
L 308.154322 130.720934 
L 309.525043 136.016117 
L 312.266484 144.684571 
L 313.049753 146.640559 
L 314.322565 149.287025 
L 315.497469 151.175135 
L 316.378646 152.306177 
L 317.945184 153.790652 
L 319.903356 154.994676 
L 321.567803 155.692603 
L 322.840615 156.082496 
L 326.365325 156.932017 
L 334.100106 158.221642 
L 334.785467 158.310604 
L 334.883375 155.479823 
L 335.079192 126.470718 
L 335.372918 116.670654 
L 335.666644 111.826283 
L 336.254096 109.583329 
L 337.233182 106.533058 
L 337.722725 105.341209 
L 338.79972 101.131397 
L 339.48508 98.64104 
L 340.366258 96.307538 
L 341.051618 94.986511 
L 341.834887 93.866438 
L 343.597242 92.166187 
L 344.47842 91.495785 
L 344.772146 91.27079 
L 345.065872 91.023614 
L 346.436592 89.574574 
L 347.31777 88.425986 
L 347.807313 87.731678 
L 348.68849 86.276068 
L 349.667577 84.657863 
L 351.234115 82.177347 
L 353.975556 77.412174 
L 354.269282 77.004335 
L 354.660916 76.246487 
L 354.856733 75.944255 
L 356.129546 73.68395 
L 356.423271 73.319913 
L 357.891901 71.037987 
L 357.989809 71.001663 
L 358.870987 69.672181 
L 359.164713 69.306756 
L 359.850073 68.336479 
L 360.339616 67.78733 
L 362.395697 65.249289 
L 362.493606 65.211263 
L 362.88524 64.738042 
L 363.178966 64.441219 
L 364.255961 63.430762 
L 364.451778 62.870531 
L 364.745504 62.534056 
L 365.430864 61.70629 
L 366.116225 60.690783 
L 366.409951 60.425126 
L 366.507859 60.404215 
L 366.899494 59.976018 
L 367.095311 59.78074 
L 367.193219 59.803451 
L 368.074397 58.711047 
L 368.270214 58.64584 
L 368.661849 58.217469 
L 368.955575 57.915001 
L 369.053483 57.950111 
L 369.445118 57.457841 
L 370.326295 56.360186 
L 370.913747 55.904207 
L 371.501199 55.488387 
L 371.697016 55.354284 
L 371.794925 55.311039 
L 372.186559 54.74496 
L 372.676102 54.26585 
L 372.871919 54.257701 
L 373.067737 53.741859 
L 373.361463 53.23574 
L 373.948914 52.377559 
L 374.144731 52.15806 
L 374.24264 52.217247 
L 374.438457 52.052149 
L 374.830092 51.857062 
L 375.221726 51.622667 
L 375.417544 51.464909 
L 375.515452 51.468147 
L 375.711269 51.224797 
L 375.907087 51.225186 
L 376.298721 50.979616 
L 376.592447 50.904685 
L 377.08199 50.585439 
L 377.76735 49.741735 
L 377.963168 49.646976 
L 378.746437 48.88168 
L 379.040162 48.173364 
L 379.23598 48.134921 
L 379.529706 47.970996 
L 379.627614 47.940354 
L 380.117157 47.336934 
L 380.410883 47.150822 
L 380.802518 47.006694 
L 380.900426 47.081583 
L 381.389969 46.554333 
L 381.585787 46.400902 
L 381.683695 46.382454 
L 381.977421 46.116365 
L 384.327228 44.352015 
L 384.91468 44.135396 
L 385.306314 43.906171 
L 385.697949 43.53891 
L 385.795857 43.592314 
L 386.2854 43.124093 
L 386.774943 42.998335 
L 386.970761 42.74985 
L 387.166578 42.798978 
L 387.460304 42.507211 
L 387.656121 42.18772 
L 387.75403 42.203376 
L 388.047755 41.854085 
L 388.341481 41.606791 
L 388.537299 41.461225 
L 388.831024 41.163386 
L 389.418476 40.580668 
L 389.614293 40.378598 
L 389.810111 40.242772 
L 390.495471 39.95504 
L 390.691288 39.990889 
L 391.180831 39.58368 
L 391.866192 39.027588 
L 392.159917 38.843272 
L 392.257826 38.888082 
L 392.649461 38.522841 
L 392.845278 38.232336 
L 393.236912 38.138459 
L 393.530638 37.829065 
L 393.726455 37.893966 
L 393.824364 37.802644 
L 394.020181 37.452426 
L 394.11809 37.429607 
L 394.705542 36.742885 
L 394.80345 36.797919 
L 394.999267 36.654117 
L 395.390902 36.467462 
L 395.684628 36.230488 
L 396.369988 36.245906 
L 396.565805 36.038904 
L 396.95744 36.027884 
L 397.153257 35.968185 
L 397.544891 35.995248 
L 397.936526 35.486525 
L 398.32816 34.971949 
L 398.523978 34.817302 
L 399.013521 34.135226 
L 399.111429 34.190013 
L 399.405155 33.90611 
L 399.503064 33.979027 
L 399.698881 33.806952 
L 399.894698 33.608677 
L 400.090516 33.377539 
L 400.286333 33.354213 
L 400.48215 33.013069 
L 400.677967 32.944887 
L 400.971693 32.734086 
L 401.069602 32.782265 
L 401.16751 32.703181 
L 401.363328 32.905877 
L 403.125683 32.259143 
L 403.3215 32.124597 
L 403.615226 31.571078 
L 403.811043 31.564079 
L 403.908952 31.550553 
L 404.104769 31.375795 
L 405.181764 30.851441 
L 405.377581 30.592067 
L 405.573398 30.568349 
L 405.769215 30.208301 
L 407.042028 29.875335 
L 407.139936 29.862574 
L 407.335753 29.614713 
L 407.531571 29.983445 
L 407.727388 29.885146 
L 407.923205 29.788881 
L 408.216931 29.710198 
L 408.412748 29.702886 
L 409.0002 29.254923 
L 409.098109 28.972706 
L 409.196017 29.028623 
L 409.587652 28.885091 
L 409.881378 28.638788 
L 410.077195 28.566172 
L 410.273012 28.436569 
L 410.468829 28.530777 
L 410.664646 28.475207 
L 411.056281 28.622379 
L 411.15419 28.579012 
L 411.350007 28.332397 
L 411.643733 28.440913 
L 412.035367 28.399849 
L 412.231184 28.202915 
L 412.329093 28.236326 
L 412.427002 28.446811 
L 412.818636 28.178559 
L 412.990808 28.199575 
L 412.990808 28.199575 
" clip-path="url(#p55d965c080)" style="fill: none; stroke: #ff8c00; stroke-width: 1.5; stroke-linecap: square"/>
   </g>
   <g id="patch_3">
    <path d="M 40.145354 168.382195 
L 40.145354 21.502195 
" style="fill: none; stroke: #ffffff; stroke-width: 0.8; stroke-linejoin: miter; stroke-linecap: square"/>
   </g>
   <g id="patch_4">
    <path d="M 40.145354 168.382195 
L 430.745354 168.382195 
" style="fill: none; stroke: #ffffff; stroke-width: 0.8; stroke-linejoin: miter; stroke-linecap: square"/>
   </g>
   <g id="text_13">
    <!-- $G$. $sulfurreducens$ $\Delta$1620-1624 Tn7::vsfGFP0 on Acetate -->
    <g style="fill: #ffffff" transform="translate(82.044753 15.502195) scale(0.12 -0.12)">
     <defs>
      <path id="HFBRMI10-47" d="M 4006 2132 
L 2701 2132 
L 2598 2119 
C 2560 2023 2541 1907 2522 1792 
L 3526 1792 
C 3494 1689 3475 1580 3456 1471 
C 3411 1260 3258 529 3251 509 
C 3226 464 3149 452 3104 439 
C 2598 291 1926 214 1485 541 
C 1318 657 1210 791 1107 984 
C 902 1369 890 1837 979 2252 
C 1178 3111 1837 3969 2739 4148 
C 3117 4225 3571 4148 3834 4020 
C 3974 3950 4090 3847 4218 3757 
L 4390 4205 
C 4230 4292 4064 4372 3891 4425 
C 3514 4544 3002 4544 2598 4441 
C 1638 4198 870 3391 589 2454 
C 442 1981 422 1449 608 981 
C 704 711 877 488 1082 315 
C 1587 -96 2266 -96 2874 40 
C 3002 72 3539 213 3610 284 
C 3635 316 3635 387 3648 432 
L 4006 2132 
z
" transform="scale(0.015625)"/>
      <path id="HFBR17-2e" d="M 634 501 
L 634 0 
L 1133 0 
L 1133 501 
L 634 501 
z
" transform="scale(0.015625)"/>
      <path id="HFBRMI10-73" d="M 384 648 
L 237 276 
C 358 202 480 133 614 79 
C 992 -64 1523 -64 1914 83 
C 2214 197 2438 426 2554 725 
C 2643 953 2637 1201 2522 1379 
C 2349 1666 2054 1741 1670 1812 
C 1478 1849 1261 1882 1139 2054 
C 1005 2238 1107 2479 1261 2619 
C 1427 2765 1690 2816 1984 2816 
C 2150 2816 2317 2789 2477 2728 
C 2586 2680 2682 2621 2784 2566 
L 2918 2916 
C 2662 3032 2490 3104 2150 3104 
C 1728 3136 1286 3053 1011 2805 
C 710 2531 544 2008 858 1697 
C 1069 1461 1395 1429 1690 1366 
C 1901 1321 2138 1258 2214 1028 
C 2240 939 2227 843 2195 760 
C 2093 455 1786 302 1382 302 
C 1133 302 890 353 666 462 
C 563 513 474 584 384 648 
z
" transform="scale(0.015625)"/>
      <path id="HFBRMI10-75" d="M 1158 3008 
C 1126 2802 1075 2605 1030 2399 
C 986 2195 730 979 698 831 
C 659 634 608 358 704 192 
C 800 -13 1043 -64 1248 -64 
C 1613 -64 1971 70 2253 294 
C 2342 364 2419 448 2496 537 
L 2381 -19 
C 2515 -19 2662 -19 2778 0 
L 2803 70 
L 3424 3008 
L 3014 3008 
C 2989 2847 2650 1293 2630 1191 
C 2566 903 2509 743 2310 544 
C 2074 308 1760 211 1434 243 
C 1312 243 1158 262 1094 384 
C 1050 461 1062 564 1075 647 
C 1101 807 1139 967 1171 1128 
C 1197 1262 1562 2956 1568 3008 
L 1158 3008 
z
" transform="scale(0.015625)"/>
      <path id="HFBRMI10-6c" d="M 1453 4448 
L 512 0 
C 646 0 794 0 909 19 
L 934 89 
C 998 409 1069 723 1139 1043 
L 1856 4448 
L 1453 4448 
z
" transform="scale(0.015625)"/>
      <path id="HFBRMI10-66" d="M 819 3009 
L 755 2688 
L 1306 2688 
C 1107 1792 922 871 730 -32 
C 864 -32 1011 -32 1126 -13 
L 1146 32 
C 1286 720 1440 1389 1581 2077 
C 1632 2270 1651 2495 1715 2675 
L 1779 2688 
L 2502 2688 
L 2566 3009 
L 1766 3009 
C 1824 3195 1850 3393 1888 3579 
C 1907 3669 1920 3765 1958 3842 
C 2112 4111 2541 4208 2931 4144 
C 3021 4124 3110 4092 3200 4073 
L 3270 4432 
C 3040 4477 2790 4503 2554 4471 
C 2125 4413 1690 4118 1536 3714 
C 1478 3560 1389 3105 1389 3105 
C 1389 3079 1382 3034 1357 3021 
C 1325 2996 1248 3009 1210 3009 
L 819 3009 
z
" transform="scale(0.015625)"/>
      <path id="HFBRMI10-72" d="M 1382 2213 
L 1376 2213 
L 1542 3015 
L 1158 3015 
L 518 0 
L 806 0 
C 864 0 934 -19 934 64 
C 947 103 954 147 960 186 
L 1069 680 
C 1107 866 1254 1591 1293 1726 
C 1363 1931 1485 2123 1638 2271 
C 1862 2489 2195 2688 2566 2688 
C 2598 2688 2662 2688 2682 2714 
C 2707 2740 2746 2982 2765 3066 
C 2336 3066 1946 2854 1651 2559 
C 1574 2482 1421 2309 1382 2213 
z
" transform="scale(0.015625)"/>
      <path id="HFBRMI10-65" d="M 2874 702 
C 2778 638 2694 568 2592 510 
C 2291 330 1747 144 1376 356 
C 1235 433 1133 555 1056 702 
C 960 914 928 1119 960 1414 
L 998 1600 
L 3027 1600 
C 3053 1600 3091 1594 3110 1613 
C 3162 1651 3174 1998 3174 2004 
C 3187 2331 3142 2697 2861 2915 
C 2797 2959 2726 2998 2650 3030 
C 2227 3197 1747 3056 1395 2793 
C 954 2466 602 1869 563 1241 
C 538 754 717 375 1024 144 
C 1542 -234 2246 -3 2669 241 
C 2720 273 2797 311 2829 356 
C 2848 388 2874 702 2874 702 
z
M 2829 1850 
L 1082 1850 
C 1229 2216 1510 2581 1888 2722 
C 2176 2831 2560 2786 2733 2498 
C 2848 2305 2854 2062 2829 1850 
z
" transform="scale(0.015625)"/>
      <path id="HFBRMI10-64" d="M 3322 4448 
L 2938 2624 
L 2931 2624 
C 2880 2765 2714 2912 2586 2976 
C 2170 3201 1677 3028 1338 2739 
C 941 2407 685 1920 602 1415 
C 493 781 704 237 1107 32 
C 1472 -148 1920 6 2221 237 
C 2310 307 2394 391 2470 474 
L 2374 0 
C 2515 0 2656 0 2778 19 
L 2803 89 
C 2867 409 2938 723 3008 1043 
L 3725 4448 
L 3322 4448 
z
M 2810 2494 
C 2829 2456 2861 2405 2867 2353 
C 2874 2289 2842 2206 2829 2142 
C 2797 2001 2560 885 2560 885 
C 2534 731 2483 680 2381 577 
C 2221 410 2016 289 1786 269 
C 1542 250 1338 346 1210 455 
C 973 680 954 1020 998 1321 
C 1062 1802 1254 2296 1683 2565 
C 1984 2770 2579 2892 2810 2494 
z
M 2470 475 
C 2470 475 2477 475 2477 475 
C 2477 468 2470 462 2470 475 
z
" transform="scale(0.015625)"/>
      <path id="HFBRMI10-63" d="M 2918 725 
C 2842 679 2778 621 2707 576 
C 2541 465 2368 380 2176 334 
C 1888 256 1619 256 1376 377 
C 1011 576 954 1038 1011 1409 
C 1101 1960 1402 2550 1965 2736 
C 2266 2832 2656 2794 2912 2685 
C 3027 2634 3123 2557 3226 2493 
L 3360 2847 
C 3226 2921 3091 2994 2944 3037 
C 2643 3136 2144 3136 1869 3039 
C 1203 2788 704 2118 602 1415 
C 531 951 653 494 960 219 
C 1485 -243 2291 -12 2746 276 
C 2784 302 2842 328 2867 366 
C 2886 398 2906 642 2918 725 
z
" transform="scale(0.015625)"/>
      <path id="HFBRMI10-6e" d="M 1427 2398 
L 1421 2398 
L 1549 3027 
L 1158 3027 
L 518 0 
L 806 0 
C 864 0 941 -19 941 64 
C 954 109 960 154 973 199 
C 1056 572 1286 1742 1344 1935 
C 1466 2295 1734 2713 2163 2764 
C 2445 2764 2701 2693 2797 2502 
C 2893 2310 2816 2087 2778 1889 
L 2374 0 
L 2675 0 
C 2739 0 2797 -13 2797 71 
C 2835 199 2925 673 2925 673 
L 3213 2026 
C 3264 2270 3322 2565 3187 2796 
C 3072 2988 2854 3052 2643 3071 
C 2541 3084 2438 3084 2336 3065 
C 2054 3014 1792 2847 1606 2635 
C 1542 2565 1466 2488 1427 2398 
z
M 1414 2398 
C 1414 2398 1421 2398 1421 2398 
C 1421 2392 1414 2385 1414 2398 
z
" transform="scale(0.015625)"/>
      <path id="HFBR17-1" d="M 230 0 
L 4141 0 
C 4102 147 4032 288 3981 429 
L 2458 4397 
C 2451 4422 2445 4454 2419 4467 
C 2394 4493 2330 4480 2298 4480 
L 2086 4480 
C 1997 4480 1939 4499 1920 4410 
C 1485 3328 1088 2208 659 1120 
L 390 422 
C 333 282 269 141 230 0 
z
M 2157 4032 
C 2266 3635 2426 3290 2554 2912 
L 3501 422 
L 800 422 
C 1254 1619 1722 2816 2157 4032 
z
" transform="scale(0.015625)"/>
      <path id="HFBR17-2d" d="M 26 1665 
L 26 1344 
L 1811 1344 
L 1811 1665 
L 26 1665 
z
" transform="scale(0.015625)"/>
      <path id="HFBR17-34" d="M 134 1152 
L 1984 1152 
L 1984 0 
L 2387 0 
L 2387 1152 
L 3117 1152 
L 3117 1493 
L 2387 1493 
L 2387 4254 
L 2042 4254 
C 1926 4254 1894 4261 1843 4164 
C 1587 3745 237 1649 192 1591 
C 141 1500 134 1507 134 1372 
L 134 1152 
z
M 2003 3896 
L 2003 1493 
L 550 1493 
C 595 1583 659 1666 717 1756 
C 1037 2251 1798 3427 1958 3794 
C 1978 3826 1984 3864 2003 3896 
z
" transform="scale(0.015625)"/>
      <path id="HFBR17-54" d="M 192 4437 
L 192 4096 
L 2016 4096 
L 2016 0 
L 2464 0 
L 2464 4096 
L 4288 4096 
L 4288 4437 
L 192 4437 
z
" transform="scale(0.015625)"/>
      <path id="HFBR17-6e" d="M 806 2386 
L 800 2386 
L 800 3033 
L 410 3033 
L 410 0 
L 819 0 
L 819 1404 
C 819 1718 800 2040 941 2334 
C 1011 2482 1120 2610 1267 2687 
C 1389 2745 1517 2745 1651 2732 
C 1843 2732 2029 2681 2150 2520 
C 2266 2372 2272 2180 2272 2000 
L 2272 0 
L 2682 0 
L 2682 1719 
C 2682 2040 2714 2392 2560 2681 
C 2438 2912 2202 3021 1952 3053 
C 1824 3072 1690 3072 1562 3047 
C 1229 2976 922 2707 806 2386 
z
" transform="scale(0.015625)"/>
      <path id="HFBR17-3a" d="M 634 3008 
L 634 2507 
L 1133 2507 
L 1133 3008 
L 634 3008 
z
M 634 501 
L 634 0 
L 1133 0 
L 1133 501 
L 634 501 
z
" transform="scale(0.015625)"/>
      <path id="HFBR17-76" d="M 45 3040 
C 77 2912 269 2405 282 2373 
C 346 2194 1107 39 1126 19 
C 1146 -13 1203 0 1235 0 
L 1459 0 
C 1542 0 1594 -19 1613 58 
C 1818 597 2566 2733 2675 3040 
L 2278 3040 
C 1971 2175 1658 1308 1370 423 
L 704 2317 
C 608 2547 550 2809 442 3021 
C 326 3040 179 3040 45 3040 
z
" transform="scale(0.015625)"/>
      <path id="HFBR17-73" d="M 198 617 
C 186 527 166 444 154 354 
C 141 283 122 251 186 219 
C 448 65 762 -19 1133 -51 
C 1549 -90 2074 7 2278 418 
C 2336 534 2368 662 2374 791 
C 2400 1253 2035 1549 1722 1658 
C 1370 1793 890 1748 646 2018 
C 518 2166 512 2385 634 2539 
C 890 2899 1715 2744 2042 2584 
C 2093 2558 2138 2526 2195 2513 
L 2253 2860 
C 1952 2995 1690 3072 1274 3072 
C 915 3072 589 2989 384 2783 
C 179 2571 109 2217 230 1948 
C 346 1690 589 1523 851 1440 
C 1229 1305 1658 1369 1907 1061 
C 2048 881 2022 611 1862 450 
C 1555 167 902 270 544 424 
C 422 476 314 553 198 617 
z
" transform="scale(0.015625)"/>
      <path id="HFBR17-66" d="M 678 3009 
L 128 3009 
L 128 2688 
L 678 2688 
L 678 -32 
L 1082 -32 
L 1082 2688 
L 1875 2688 
L 1875 3009 
L 1075 3009 
L 1075 3570 
C 1075 3660 1056 3771 1094 3861 
C 1229 4144 1683 4196 2054 4132 
C 2131 4119 2202 4093 2278 4080 
L 2278 4441 
C 1843 4512 1363 4512 1005 4219 
C 947 4168 896 4118 851 4053 
C 717 3888 678 3704 678 3417 
L 678 3009 
z
" transform="scale(0.015625)"/>
      <path id="HFBR17-47" d="M 3974 2132 
L 2560 2132 
L 2560 1792 
L 3565 1792 
L 3565 614 
C 3565 582 3571 537 3552 511 
C 3533 473 3450 460 3411 447 
C 3117 364 2682 280 2336 344 
C 1869 421 1472 730 1229 1134 
C 742 1929 832 3044 1498 3710 
C 1696 3910 1939 4064 2240 4134 
C 2656 4237 3142 4134 3450 3987 
C 3590 3922 3712 3832 3840 3749 
L 3917 4198 
C 3744 4275 3578 4352 3392 4409 
C 3110 4486 2822 4512 2534 4512 
C 1773 4512 1184 4039 870 3586 
C 403 2884 346 1940 723 1186 
C 934 746 1280 421 1715 197 
C 2253 -64 2886 -64 3450 98 
C 3526 117 3949 251 3968 311 
C 3974 331 3974 358 3974 378 
L 3974 2132 
z
" transform="scale(0.015625)"/>
      <path id="HFBR17-46" d="M 512 4437 
L 512 0 
L 960 0 
L 960 2048 
L 3078 2048 
L 3078 2388 
L 960 2388 
L 960 4096 
L 3354 4096 
L 3354 4437 
L 512 4437 
z
" transform="scale(0.015625)"/>
      <path id="HFBR17-50" d="M 512 4480 
L 512 32 
L 960 32 
L 960 1920 
L 1862 1920 
C 2003 1920 2144 1920 2278 1920 
C 2752 1959 3149 2153 3418 2443 
C 3693 2746 3814 3210 3635 3603 
C 3430 4099 2944 4415 2323 4480 
C 2138 4480 1946 4480 1760 4480 
L 512 4480 
z
M 954 2254 
L 954 4139 
L 1830 4139 
C 2387 4139 2893 4075 3149 3690 
C 3322 3432 3347 3072 3206 2795 
C 3130 2646 3014 2531 2874 2447 
C 2560 2254 2195 2254 1843 2254 
L 954 2254 
z
" transform="scale(0.015625)"/>
      <path id="HFBR17-6f" d="M 685 2693 
C 115 2127 51 1144 544 508 
C 614 411 698 328 794 257 
C 1030 64 1376 -77 1779 -32 
C 2419 45 2861 566 2995 1112 
C 3174 1877 2797 2731 2093 3001 
C 1542 3226 992 3001 685 2693 
z
M 2285 2519 
C 2592 2242 2650 1799 2624 1407 
C 2605 1105 2522 790 2310 565 
C 1965 192 1325 192 954 552 
C 762 758 646 1053 627 1407 
C 595 1927 723 2480 1235 2686 
C 1613 2853 2048 2731 2285 2519 
z
" transform="scale(0.015625)"/>
      <path id="HFBR17-63" d="M 2714 720 
C 2592 630 2483 533 2349 456 
C 2048 296 1587 219 1242 379 
C 742 636 608 1260 678 1774 
C 691 1877 710 1979 742 2076 
C 883 2494 1235 2821 1811 2757 
C 2118 2731 2272 2680 2515 2545 
C 2560 2519 2598 2487 2650 2474 
C 2656 2551 2675 2635 2688 2712 
C 2707 2815 2707 2828 2611 2873 
C 2541 2905 2470 2943 2394 2969 
C 2099 3098 1613 3136 1280 3040 
C 826 2911 486 2519 339 2082 
C 269 1883 250 1671 250 1459 
C 256 784 717 122 1389 -13 
C 1760 -90 2189 19 2445 154 
C 2509 186 2701 302 2733 360 
C 2752 392 2714 720 2714 720 
z
" transform="scale(0.015625)"/>
     </defs>
     <use xlink:href="#HFBRMI10-47" transform="scale(0.996264)"/>
     <use xlink:href="#HFBR17-2e" transform="translate(74.220133 0) scale(0.996264)"/>
     <use xlink:href="#HFBRMI10-73" transform="translate(144.124374 0) scale(0.996264)"/>
     <use xlink:href="#HFBRMI10-75" transform="translate(192.479997 0) scale(0.996264)"/>
     <use xlink:href="#HFBRMI10-6c" transform="translate(248.833476 0) scale(0.996264)"/>
     <use xlink:href="#HFBRMI10-66" transform="translate(280.835219 0) scale(0.996264)"/>
     <use xlink:href="#HFBRMI10-75" transform="translate(334.768377 0) scale(0.996264)"/>
     <use xlink:href="#HFBRMI10-72" transform="translate(391.121855 0) scale(0.996264)"/>
     <use xlink:href="#HFBRMI10-72" transform="translate(437.028471 0) scale(0.996264)"/>
     <use xlink:href="#HFBRMI10-65" transform="translate(482.935087 0) scale(0.996264)"/>
     <use xlink:href="#HFBRMI10-64" transform="translate(535.897793 0) scale(0.996264)"/>
     <use xlink:href="#HFBRMI10-75" transform="translate(596.956983 0) scale(0.996264)"/>
     <use xlink:href="#HFBRMI10-63" transform="translate(653.310462 0) scale(0.996264)"/>
     <use xlink:href="#HFBRMI10-65" transform="translate(708.639903 0) scale(0.996264)"/>
     <use xlink:href="#HFBRMI10-6e" transform="translate(761.602608 0) scale(0.996264)"/>
     <use xlink:href="#HFBRMI10-73" transform="translate(815.60314 0) scale(0.996264)"/>
     <use xlink:href="#HFBR17-1" transform="translate(895.423975 0) scale(0.996264)"/>
     <use xlink:href="#HFBR17-31" transform="translate(963.501737 0) scale(0.996264)"/>
     <use xlink:href="#HFBR17-36" transform="translate(1014.144954 0) scale(0.996264)"/>
     <use xlink:href="#HFBR17-32" transform="translate(1064.788172 0) scale(0.996264)"/>
     <use xlink:href="#HFBR17-30" transform="translate(1115.43139 0) scale(0.996264)"/>
     <use xlink:href="#HFBR17-2d" transform="translate(1166.074608 0) scale(0.996264)"/>
     <use xlink:href="#HFBR17-31" transform="translate(1199.283282 0) scale(0.996264)"/>
     <use xlink:href="#HFBR17-36" transform="translate(1249.926499 0) scale(0.996264)"/>
     <use xlink:href="#HFBR17-32" transform="translate(1300.569717 0) scale(0.996264)"/>
     <use xlink:href="#HFBR17-34" transform="translate(1351.212935 0) scale(0.996264)"/>
     <use xlink:href="#HFBR17-54" transform="translate(1433.321364 0) scale(0.996264)"/>
     <use xlink:href="#HFBR17-6e" transform="translate(1503.059541 0) scale(0.996264)"/>
     <use xlink:href="#HFBR17-37" transform="translate(1551.212038 0) scale(0.996264)"/>
     <use xlink:href="#HFBR17-3a" transform="translate(1601.855256 0) scale(0.996264)"/>
     <use xlink:href="#HFBR17-3a" transform="translate(1629.252379 0) scale(0.996264)"/>
     <use xlink:href="#HFBR17-76" transform="translate(1656.649503 0) scale(0.996264)"/>
     <use xlink:href="#HFBR17-73" transform="translate(1698.990541 0) scale(0.996264)"/>
     <use xlink:href="#HFBR17-66" transform="translate(1737.42957 0) scale(0.996264)"/>
     <use xlink:href="#HFBR17-47" transform="translate(1767.732514 0) scale(0.996264)"/>
     <use xlink:href="#HFBR17-46" transform="translate(1835.810276 0) scale(0.996264)"/>
     <use xlink:href="#HFBR17-50" transform="translate(1891.642334 0) scale(0.996264)"/>
     <use xlink:href="#HFBR17-30" transform="translate(1954.531241 0) scale(0.996264)"/>
     <use xlink:href="#HFBR17-6f" transform="translate(2036.63967 0) scale(0.996264)"/>
     <use xlink:href="#HFBR17-6e" transform="translate(2087.282888 0) scale(0.996264)"/>
     <use xlink:href="#HFBR17-41" transform="translate(2166.900597 0) scale(0.996264)"/>
     <use xlink:href="#HFBR17-63" transform="translate(2230.412215 0) scale(0.996264)"/>
     <use xlink:href="#HFBR17-65" transform="translate(2275.243882 0) scale(0.996264)"/>
     <use xlink:href="#HFBR17-74" transform="translate(2320.07555 0) scale(0.996264)"/>
     <use xlink:href="#HFBR17-61" transform="translate(2356.189938 0) scale(0.996264)"/>
     <use xlink:href="#HFBR17-74" transform="translate(2402.68202 0) scale(0.996264)"/>
     <use xlink:href="#HFBR17-65" transform="translate(2438.796408 0) scale(0.996264)"/>
    </g>
   </g>
  </g>
 </g>
 <defs>
  <clipPath id="p55d965c080">
   <rect x="40.145354" y="21.502195" width="390.6" height="146.88"/>
  </clipPath>
 </defs>
</svg>
