<?xml version="1.0" encoding="utf-8" standalone="no"?>
<!DOCTYPE svg PUBLIC "-//W3C//DTD SVG 1.1//EN"
  "http://www.w3.org/Graphics/SVG/1.1/DTD/svg11.dtd">
<svg xmlns:xlink="http://www.w3.org/1999/xlink" width="503.679943pt" height="238.871763pt" viewBox="0 0 503.679943 238.871763" xmlns="http://www.w3.org/2000/svg" version="1.1">
 <metadata>
  <rdf:RDF xmlns:dc="http://purl.org/dc/elements/1.1/" xmlns:cc="http://creativecommons.org/ns#" xmlns:rdf="http://www.w3.org/1999/02/22-rdf-syntax-ns#">
   <cc:Work>
    <dc:type rdf:resource="http://purl.org/dc/dcmitype/StillImage"/>
    <dc:date>2023-12-11T10:15:29.955254</dc:date>
    <dc:format>image/svg+xml</dc:format>
    <dc:creator>
     <cc:Agent>
      <dc:title>Matplotlib v3.7.0, https://matplotlib.org/</dc:title>
     </cc:Agent>
    </dc:creator>
   </cc:Work>
  </rdf:RDF>
 </metadata>
 <defs>
  <style type="text/css">*{stroke-linejoin: round; stroke-linecap: butt}</style>
 </defs>
 <g id="figure_1">
  <g id="patch_1">
   <path d="M 0 238.871763 
L 503.679943 238.871763 
L 503.679943 0 
L 0 0 
z
" style="fill: #222222"/>
  </g>
  <g id="axes_1">
   <g id="patch_2">
    <path d="M 78.456805 172.53327 
L 469.056805 172.53327 
L 469.056805 25.65327 
L 78.456805 25.65327 
z
" style="fill: #222222"/>
   </g>
   <g id="matplotlib.axis_1">
    <g id="xtick_1">
     <g id="line2d_1">
      <defs>
       <path id="m7d4874fd91" d="M 0 0 
L 0 9 
" style="stroke: #ffffff; stroke-width: 1.875"/>
      </defs>
      <g>
       <use xlink:href="#m7d4874fd91" x="96.21135" y="172.53327" style="fill: #ffffff; stroke: #ffffff; stroke-width: 1.875"/>
      </g>
     </g>
     <g id="text_1">
      <!-- $\mathdefault{0}$ -->
      <g style="fill: #ffffff" transform="translate(87.36763 199.234434) rotate(-30) scale(0.165 -0.165)">
       <defs>
        <path id="HFBR17-30" d="M 947 4087 
C 762 3959 634 3785 538 3586 
C 307 3136 282 2609 282 2037 
C 282 1317 410 656 768 276 
C 1107 -77 1645 -167 2099 19 
C 2381 129 2586 366 2714 623 
C 2944 1080 2970 1626 2970 2191 
C 2970 2371 2963 2551 2944 2731 
C 2899 3162 2752 3637 2515 3901 
C 2125 4332 1427 4428 947 4087 
z
M 2234 3721 
C 2534 3400 2560 2783 2560 2198 
L 2560 1851 
C 2560 1555 2509 1170 2445 951 
C 2355 649 2208 431 1914 296 
C 1555 167 1184 289 979 572 
C 704 938 691 1587 691 2159 
C 691 2699 698 3297 960 3650 
C 1248 4036 1869 4100 2234 3721 
z
" transform="scale(0.015625)"/>
       </defs>
       <use xlink:href="#HFBR17-30" transform="scale(0.996264)"/>
      </g>
     </g>
    </g>
    <g id="xtick_2">
     <g id="line2d_2">
      <g>
       <use xlink:href="#m7d4874fd91" x="154.428342" y="172.53327" style="fill: #ffffff; stroke: #ffffff; stroke-width: 1.875"/>
      </g>
     </g>
     <g id="text_2">
      <!-- $\mathdefault{20}$ -->
      <g style="fill: #ffffff" transform="translate(138.110764 203.549467) rotate(-30) scale(0.165 -0.165)">
       <defs>
        <path id="HFBR17-32" d="M 467 2942 
C 557 3302 710 3711 1075 3872 
C 1229 3936 1395 3949 1562 3936 
C 1875 3910 2182 3782 2374 3526 
C 2515 3333 2566 3096 2541 2866 
C 2464 2198 1811 1718 1389 1359 
C 1146 1154 454 500 454 500 
L 346 397 
C 288 340 282 340 282 224 
L 282 0 
L 2970 0 
L 2970 360 
L 653 360 
C 858 559 1709 1313 1824 1403 
C 2195 1706 2611 2008 2835 2446 
C 3085 2948 2976 3580 2554 3953 
C 2298 4179 1946 4288 1606 4288 
C 1293 4288 973 4224 723 4026 
C 531 3865 371 3628 282 3384 
C 262 3346 230 3282 237 3237 
C 243 3199 282 3167 301 3141 
C 352 3077 403 3000 467 2942 
z
" transform="scale(0.015625)"/>
       </defs>
       <use xlink:href="#HFBR17-32" transform="scale(0.996264)"/>
       <use xlink:href="#HFBR17-30" transform="translate(50.643218 0) scale(0.996264)"/>
      </g>
     </g>
    </g>
    <g id="xtick_3">
     <g id="line2d_3">
      <g>
       <use xlink:href="#m7d4874fd91" x="212.645333" y="172.53327" style="fill: #ffffff; stroke: #ffffff; stroke-width: 1.875"/>
      </g>
     </g>
     <g id="text_3">
      <!-- $\mathdefault{40}$ -->
      <g style="fill: #ffffff" transform="translate(196.327756 203.549467) rotate(-30) scale(0.165 -0.165)">
       <defs>
        <path id="HFBR17-34" d="M 134 1152 
L 1984 1152 
L 1984 0 
L 2387 0 
L 2387 1152 
L 3117 1152 
L 3117 1493 
L 2387 1493 
L 2387 4254 
L 2042 4254 
C 1926 4254 1894 4261 1843 4164 
C 1587 3745 237 1649 192 1591 
C 141 1500 134 1507 134 1372 
L 134 1152 
z
M 2003 3896 
L 2003 1493 
L 550 1493 
C 595 1583 659 1666 717 1756 
C 1037 2251 1798 3427 1958 3794 
C 1978 3826 1984 3864 2003 3896 
z
" transform="scale(0.015625)"/>
       </defs>
       <use xlink:href="#HFBR17-34" transform="scale(0.996264)"/>
       <use xlink:href="#HFBR17-30" transform="translate(50.643218 0) scale(0.996264)"/>
      </g>
     </g>
    </g>
    <g id="xtick_4">
     <g id="line2d_4">
      <g>
       <use xlink:href="#m7d4874fd91" x="270.862325" y="172.53327" style="fill: #ffffff; stroke: #ffffff; stroke-width: 1.875"/>
      </g>
     </g>
     <g id="text_4">
      <!-- $\mathdefault{60}$ -->
      <g style="fill: #ffffff" transform="translate(254.544747 203.549467) rotate(-30) scale(0.165 -0.165)">
       <defs>
        <path id="HFBR17-36" d="M 723 2088 
L 717 2088 
C 717 2673 819 3355 1318 3728 
C 1594 3928 1965 4030 2445 3915 
C 2547 3889 2643 3850 2739 3825 
L 2739 4050 
C 2739 4075 2746 4120 2726 4146 
C 2682 4204 2323 4262 2310 4262 
C 1754 4326 1389 4204 1050 3915 
C 640 3561 403 3041 326 2514 
C 256 2090 314 1408 397 1074 
C 531 579 787 142 1261 -25 
C 1542 -128 1888 -128 2157 1 
C 2374 105 2554 286 2694 480 
C 2918 790 2976 1166 2950 1547 
C 2938 1735 2912 1923 2835 2097 
C 2714 2376 2509 2667 2246 2796 
C 2125 2848 1997 2848 1869 2848 
C 1530 2848 1210 2700 973 2455 
C 870 2352 768 2222 723 2088 
z
M 1562 2529 
C 1805 2548 2061 2510 2246 2336 
C 2490 2105 2534 1777 2534 1460 
C 2534 1246 2541 1025 2477 823 
C 2438 719 2387 629 2330 544 
C 2189 356 2010 264 1715 225 
C 1427 225 1139 340 973 584 
C 870 725 819 899 787 1065 
C 749 1238 723 1417 736 1591 
C 768 2047 1088 2465 1562 2529 
z
" transform="scale(0.015625)"/>
       </defs>
       <use xlink:href="#HFBR17-36" transform="scale(0.996264)"/>
       <use xlink:href="#HFBR17-30" transform="translate(50.643218 0) scale(0.996264)"/>
      </g>
     </g>
    </g>
    <g id="xtick_5">
     <g id="line2d_5">
      <g>
       <use xlink:href="#m7d4874fd91" x="329.079316" y="172.53327" style="fill: #ffffff; stroke: #ffffff; stroke-width: 1.875"/>
      </g>
     </g>
     <g id="text_5">
      <!-- $\mathdefault{80}$ -->
      <g style="fill: #ffffff" transform="translate(312.761739 203.549467) rotate(-30) scale(0.165 -0.165)">
       <defs>
        <path id="HFBR17-38" d="M 1197 2304 
L 1197 2298 
C 800 2182 467 1964 307 1590 
C 141 1198 256 722 538 413 
C 838 91 1248 -64 1683 -64 
C 2323 -64 2938 410 3014 1071 
C 3027 1169 3021 1273 3008 1370 
C 2893 1870 2528 2168 2054 2298 
C 2106 2317 2163 2330 2214 2349 
C 2483 2459 2707 2619 2848 2876 
C 3059 3288 2854 3770 2509 4033 
C 2163 4297 1696 4367 1274 4277 
C 768 4168 288 3738 320 3185 
C 333 2992 416 2831 512 2716 
C 659 2536 947 2343 1197 2304 
z
M 1523 4000 
C 1805 4000 2157 3968 2362 3749 
C 2605 3486 2618 3010 2374 2740 
C 2221 2573 1997 2489 1773 2470 
C 1459 2444 1101 2496 877 2740 
C 627 3016 646 3518 915 3775 
C 1082 3929 1306 3980 1523 4000 
z
M 1517 2144 
C 1818 2144 2144 2073 2362 1852 
C 2445 1762 2509 1652 2547 1537 
C 2656 1200 2605 774 2355 515 
C 2182 341 1946 276 1709 257 
C 1421 257 1088 327 883 548 
C 602 857 544 1498 877 1860 
C 1043 2034 1280 2125 1517 2144 
z
" transform="scale(0.015625)"/>
       </defs>
       <use xlink:href="#HFBR17-38" transform="scale(0.996264)"/>
       <use xlink:href="#HFBR17-30" transform="translate(50.643218 0) scale(0.996264)"/>
      </g>
     </g>
    </g>
    <g id="xtick_6">
     <g id="line2d_6">
      <g>
       <use xlink:href="#m7d4874fd91" x="387.296308" y="172.53327" style="fill: #ffffff; stroke: #ffffff; stroke-width: 1.875"/>
      </g>
     </g>
     <g id="text_6">
      <!-- $\mathdefault{100}$ -->
      <g style="fill: #ffffff" transform="translate(363.504873 207.864501) rotate(-30) scale(0.165 -0.165)">
       <defs>
        <path id="HFBR17-31" d="M 621 3841 
L 621 3520 
C 973 3520 1216 3584 1498 3706 
L 1498 321 
L 659 321 
L 659 0 
L 2752 0 
L 2752 321 
L 1914 321 
L 1914 4288 
C 1760 4288 1786 4247 1664 4152 
C 1402 3950 1037 3841 621 3841 
z
" transform="scale(0.015625)"/>
       </defs>
       <use xlink:href="#HFBR17-31" transform="scale(0.996264)"/>
       <use xlink:href="#HFBR17-30" transform="translate(50.643218 0) scale(0.996264)"/>
       <use xlink:href="#HFBR17-30" transform="translate(101.286436 0) scale(0.996264)"/>
      </g>
     </g>
    </g>
    <g id="xtick_7">
     <g id="line2d_7">
      <g>
       <use xlink:href="#m7d4874fd91" x="445.513299" y="172.53327" style="fill: #ffffff; stroke: #ffffff; stroke-width: 1.875"/>
      </g>
     </g>
     <g id="text_7">
      <!-- $\mathdefault{120}$ -->
      <g style="fill: #ffffff" transform="translate(421.721864 207.864501) rotate(-30) scale(0.165 -0.165)">
       <use xlink:href="#HFBR17-31" transform="scale(0.996264)"/>
       <use xlink:href="#HFBR17-32" transform="translate(50.643218 0) scale(0.996264)"/>
       <use xlink:href="#HFBR17-30" transform="translate(101.286436 0) scale(0.996264)"/>
      </g>
     </g>
    </g>
    <g id="text_8">
     <!-- Time (h) -->
     <g style="fill: #ffffff" transform="translate(240.588842 227.686707) scale(0.18 -0.18)">
      <defs>
       <path id="HFBR17-54" d="M 192 4437 
L 192 4096 
L 2016 4096 
L 2016 0 
L 2464 0 
L 2464 4096 
L 4288 4096 
L 4288 4437 
L 192 4437 
z
" transform="scale(0.015625)"/>
       <path id="HFBR17-69" d="M 410 4480 
L 410 4075 
L 813 4075 
L 813 4480 
L 410 4480 
z
M 410 3033 
L 410 0 
L 813 0 
L 813 3033 
L 410 3033 
z
" transform="scale(0.015625)"/>
       <path id="HFBR17-6d" d="M 806 2391 
L 800 2391 
L 800 3033 
L 410 3033 
L 410 0 
L 819 0 
L 819 1411 
C 819 1725 800 2040 941 2328 
C 1062 2578 1274 2777 1651 2738 
C 1843 2738 2035 2687 2157 2525 
C 2272 2377 2278 2185 2278 2004 
L 2278 0 
L 2688 0 
L 2688 1411 
C 2688 1725 2669 2040 2810 2328 
C 2931 2578 3142 2777 3520 2738 
C 3712 2738 3904 2687 4026 2525 
C 4141 2377 4147 2185 4147 2004 
L 4147 0 
L 4557 0 
L 4557 1700 
C 4557 2008 4595 2354 4461 2636 
C 4326 2899 4109 3040 3757 3040 
C 3552 3059 3347 3028 3162 2934 
C 2938 2811 2771 2608 2669 2385 
C 2624 2597 2573 2741 2432 2880 
C 2285 3012 2086 3072 1894 3072 
C 1427 3110 1133 2916 934 2624 
C 883 2552 832 2475 806 2391 
z
" transform="scale(0.015625)"/>
       <path id="HFBR17-65" d="M 2675 700 
C 2528 591 2483 533 2298 436 
C 1907 224 1446 224 1114 459 
C 794 689 608 1065 608 1600 
L 2720 1600 
C 2720 2075 2611 2487 2342 2776 
C 2048 3065 1587 3155 1197 3033 
C 1050 2988 915 2911 794 2814 
C 390 2487 218 1966 224 1458 
C 237 790 691 122 1363 -20 
C 1715 -91 2086 -13 2400 147 
C 2458 179 2669 295 2694 353 
C 2714 385 2675 700 2675 700 
z
M 2381 1850 
L 640 1850 
C 717 2319 1101 2814 1619 2756 
C 2042 2718 2266 2416 2349 2037 
C 2362 1972 2368 1915 2381 1850 
z
" transform="scale(0.015625)"/>
       <path id="HFBR17-28" d="M 2189 -1408 
C 2138 -1350 2074 -1298 2016 -1247 
C 1965 -1202 1920 -1151 1875 -1099 
C 1235 -392 902 739 954 1941 
C 979 2596 1107 3264 1414 3856 
C 1555 4119 1798 4492 2016 4678 
C 2074 4730 2138 4781 2189 4839 
L 1978 4839 
C 1946 4839 1901 4845 1869 4833 
C 1792 4794 1600 4601 1574 4575 
C 960 3959 595 3027 544 1941 
C 512 1163 640 372 986 -322 
C 1139 -630 1344 -913 1587 -1157 
C 1651 -1221 1792 -1363 1869 -1401 
C 1901 -1414 1946 -1408 1978 -1408 
L 2189 -1408 
z
" transform="scale(0.015625)"/>
       <path id="HFBR17-68" d="M 410 4460 
L 410 0 
L 819 0 
L 819 1407 
C 819 1722 800 2044 941 2339 
C 1011 2487 1120 2616 1267 2693 
C 1389 2751 1517 2751 1651 2738 
C 1843 2738 2029 2687 2150 2525 
C 2266 2377 2272 2185 2272 2004 
L 2272 0 
L 2682 0 
L 2682 1742 
C 2682 2063 2714 2416 2554 2706 
C 2426 2924 2202 3027 1965 3059 
C 1837 3072 1709 3072 1581 3053 
C 1350 3009 1152 2882 998 2710 
C 928 2627 845 2526 819 2417 
L 813 2417 
L 813 4460 
L 410 4460 
z
" transform="scale(0.015625)"/>
       <path id="HFBR17-29" d="M 320 4839 
C 371 4781 435 4730 493 4678 
C 544 4633 589 4582 634 4530 
C 1190 3888 1510 3014 1555 1941 
C 1587 1144 1466 315 1101 -405 
C 979 -656 819 -894 634 -1099 
C 589 -1151 544 -1202 493 -1247 
C 435 -1298 371 -1350 320 -1408 
L 531 -1408 
C 563 -1408 608 -1414 640 -1401 
C 717 -1363 909 -1170 934 -1144 
C 1549 -527 1914 405 1965 1491 
C 1997 2268 1869 3059 1523 3753 
C 1370 4061 1165 4344 922 4588 
C 858 4653 717 4794 640 4833 
C 608 4845 563 4839 531 4839 
L 320 4839 
z
" transform="scale(0.015625)"/>
      </defs>
      <use xlink:href="#HFBR17-54" transform="scale(0.996264)"/>
      <use xlink:href="#HFBR17-69" transform="translate(69.738177 0) scale(0.996264)"/>
      <use xlink:href="#HFBR17-6d" transform="translate(88.833136 0) scale(0.996264)"/>
      <use xlink:href="#HFBR17-65" transform="translate(166.043262 0) scale(0.996264)"/>
      <use xlink:href="#HFBR17-28" transform="translate(242.340141 0) scale(0.996264)"/>
      <use xlink:href="#HFBR17-68" transform="translate(281.36035 0) scale(0.996264)"/>
      <use xlink:href="#HFBR17-29" transform="translate(329.512847 0) scale(0.996264)"/>
     </g>
    </g>
   </g>
   <g id="matplotlib.axis_2">
    <g id="ytick_1">
     <g id="line2d_8">
      <defs>
       <path id="m5770c61c35" d="M 0 0 
L -9 0 
" style="stroke: #ffffff; stroke-width: 1.875"/>
      </defs>
      <g>
       <use xlink:href="#m5770c61c35" x="78.456805" y="169.706057" style="fill: #ffffff; stroke: #ffffff; stroke-width: 1.875"/>
      </g>
     </g>
     <g id="text_9">
      <!-- $\mathdefault{0.000}$ -->
      <g style="fill: #ffffff" transform="translate(26.642062 175.413817) scale(0.165 -0.165)">
       <defs>
        <path id="HFBRMI10-3a" d="M 685 500 
L 685 0 
L 1184 0 
L 1184 500 
L 685 500 
z
" transform="scale(0.015625)"/>
       </defs>
       <use xlink:href="#HFBR17-30" transform="scale(0.996264)"/>
       <use xlink:href="#HFBRMI10-3a" transform="translate(50.643218 0) scale(0.996264)"/>
       <use xlink:href="#HFBR17-30" transform="translate(79.700665 0) scale(0.996264)"/>
       <use xlink:href="#HFBR17-30" transform="translate(130.343883 0) scale(0.996264)"/>
       <use xlink:href="#HFBR17-30" transform="translate(180.9871 0) scale(0.996264)"/>
      </g>
     </g>
    </g>
    <g id="ytick_2">
     <g id="line2d_9">
      <g>
       <use xlink:href="#m5770c61c35" x="78.456805" y="117.316987" style="fill: #ffffff; stroke: #ffffff; stroke-width: 1.875"/>
      </g>
     </g>
     <g id="text_10">
      <!-- $\mathdefault{0.001}$ -->
      <g style="fill: #ffffff" transform="translate(26.642062 123.024747) scale(0.165 -0.165)">
       <use xlink:href="#HFBR17-30" transform="scale(0.996264)"/>
       <use xlink:href="#HFBRMI10-3a" transform="translate(50.643218 0) scale(0.996264)"/>
       <use xlink:href="#HFBR17-30" transform="translate(79.700665 0) scale(0.996264)"/>
       <use xlink:href="#HFBR17-30" transform="translate(130.343883 0) scale(0.996264)"/>
       <use xlink:href="#HFBR17-31" transform="translate(180.9871 0) scale(0.996264)"/>
      </g>
     </g>
    </g>
    <g id="ytick_3">
     <g id="line2d_10">
      <g>
       <use xlink:href="#m5770c61c35" x="78.456805" y="64.927916" style="fill: #ffffff; stroke: #ffffff; stroke-width: 1.875"/>
      </g>
     </g>
     <g id="text_11">
      <!-- $\mathdefault{0.002}$ -->
      <g style="fill: #ffffff" transform="translate(26.642062 70.635676) scale(0.165 -0.165)">
       <use xlink:href="#HFBR17-30" transform="scale(0.996264)"/>
       <use xlink:href="#HFBRMI10-3a" transform="translate(50.643218 0) scale(0.996264)"/>
       <use xlink:href="#HFBR17-30" transform="translate(79.700665 0) scale(0.996264)"/>
       <use xlink:href="#HFBR17-30" transform="translate(130.343883 0) scale(0.996264)"/>
       <use xlink:href="#HFBR17-32" transform="translate(180.9871 0) scale(0.996264)"/>
      </g>
     </g>
    </g>
    <g id="text_12">
     <!-- mA -->
     <g style="fill: #ffffff" transform="translate(19.65327 111.758224) rotate(-90) scale(0.18 -0.18)">
      <defs>
       <path id="HFBR17-41" d="M 134 6 
L 422 6 
L 538 19 
C 730 435 864 909 1037 1344 
C 1670 1344 2362 1344 2963 1344 
L 3014 1260 
C 3123 931 3251 614 3366 291 
C 3398 193 3430 97 3482 19 
C 3622 0 3789 0 3942 0 
C 3834 314 2349 4301 2304 4409 
C 2298 4435 2285 4473 2253 4480 
C 2214 4486 2176 4480 2138 4480 
L 1926 4480 
C 1830 4480 1792 4492 1766 4391 
C 1741 4326 134 6 134 6 
z
M 2010 4043 
C 2278 3246 2566 2462 2848 1678 
L 1165 1678 
L 1722 3207 
L 2010 4043 
z
" transform="scale(0.015625)"/>
      </defs>
      <use xlink:href="#HFBR17-6d" transform="scale(0.996264)"/>
      <use xlink:href="#HFBR17-41" transform="translate(77.210126 0) scale(0.996264)"/>
     </g>
    </g>
   </g>
   <g id="patch_3">
    <path d="M 78.456805 172.53327 
L 78.456805 25.65327 
" style="fill: none; stroke: #ffffff; stroke-width: 1.875; stroke-linejoin: miter; stroke-linecap: square"/>
   </g>
   <g id="patch_4">
    <path d="M 78.456805 172.53327 
L 469.056805 172.53327 
" style="fill: none; stroke: #ffffff; stroke-width: 1.875; stroke-linejoin: miter; stroke-linecap: square"/>
   </g>
   <g id="text_13">
    <!-- $G$. $sulfurreducens$ $\Delta$1620-1624 Tn7::vsfGFP0 on Lactate -->
    <g style="fill: #ffffff" transform="translate(51.033667 19.65327) scale(0.18 -0.18)">
     <defs>
      <path id="HFBRMI10-47" d="M 4006 2132 
L 2701 2132 
L 2598 2119 
C 2560 2023 2541 1907 2522 1792 
L 3526 1792 
C 3494 1689 3475 1580 3456 1471 
C 3411 1260 3258 529 3251 509 
C 3226 464 3149 452 3104 439 
C 2598 291 1926 214 1485 541 
C 1318 657 1210 791 1107 984 
C 902 1369 890 1837 979 2252 
C 1178 3111 1837 3969 2739 4148 
C 3117 4225 3571 4148 3834 4020 
C 3974 3950 4090 3847 4218 3757 
L 4390 4205 
C 4230 4292 4064 4372 3891 4425 
C 3514 4544 3002 4544 2598 4441 
C 1638 4198 870 3391 589 2454 
C 442 1981 422 1449 608 981 
C 704 711 877 488 1082 315 
C 1587 -96 2266 -96 2874 40 
C 3002 72 3539 213 3610 284 
C 3635 316 3635 387 3648 432 
L 4006 2132 
z
" transform="scale(0.015625)"/>
      <path id="HFBR17-2e" d="M 634 501 
L 634 0 
L 1133 0 
L 1133 501 
L 634 501 
z
" transform="scale(0.015625)"/>
      <path id="HFBRMI10-73" d="M 384 648 
L 237 276 
C 358 202 480 133 614 79 
C 992 -64 1523 -64 1914 83 
C 2214 197 2438 426 2554 725 
C 2643 953 2637 1201 2522 1379 
C 2349 1666 2054 1741 1670 1812 
C 1478 1849 1261 1882 1139 2054 
C 1005 2238 1107 2479 1261 2619 
C 1427 2765 1690 2816 1984 2816 
C 2150 2816 2317 2789 2477 2728 
C 2586 2680 2682 2621 2784 2566 
L 2918 2916 
C 2662 3032 2490 3104 2150 3104 
C 1728 3136 1286 3053 1011 2805 
C 710 2531 544 2008 858 1697 
C 1069 1461 1395 1429 1690 1366 
C 1901 1321 2138 1258 2214 1028 
C 2240 939 2227 843 2195 760 
C 2093 455 1786 302 1382 302 
C 1133 302 890 353 666 462 
C 563 513 474 584 384 648 
z
" transform="scale(0.015625)"/>
      <path id="HFBRMI10-75" d="M 1158 3008 
C 1126 2802 1075 2605 1030 2399 
C 986 2195 730 979 698 831 
C 659 634 608 358 704 192 
C 800 -13 1043 -64 1248 -64 
C 1613 -64 1971 70 2253 294 
C 2342 364 2419 448 2496 537 
L 2381 -19 
C 2515 -19 2662 -19 2778 0 
L 2803 70 
L 3424 3008 
L 3014 3008 
C 2989 2847 2650 1293 2630 1191 
C 2566 903 2509 743 2310 544 
C 2074 308 1760 211 1434 243 
C 1312 243 1158 262 1094 384 
C 1050 461 1062 564 1075 647 
C 1101 807 1139 967 1171 1128 
C 1197 1262 1562 2956 1568 3008 
L 1158 3008 
z
" transform="scale(0.015625)"/>
      <path id="HFBRMI10-6c" d="M 1453 4448 
L 512 0 
C 646 0 794 0 909 19 
L 934 89 
C 998 409 1069 723 1139 1043 
L 1856 4448 
L 1453 4448 
z
" transform="scale(0.015625)"/>
      <path id="HFBRMI10-66" d="M 819 3009 
L 755 2688 
L 1306 2688 
C 1107 1792 922 871 730 -32 
C 864 -32 1011 -32 1126 -13 
L 1146 32 
C 1286 720 1440 1389 1581 2077 
C 1632 2270 1651 2495 1715 2675 
L 1779 2688 
L 2502 2688 
L 2566 3009 
L 1766 3009 
C 1824 3195 1850 3393 1888 3579 
C 1907 3669 1920 3765 1958 3842 
C 2112 4111 2541 4208 2931 4144 
C 3021 4124 3110 4092 3200 4073 
L 3270 4432 
C 3040 4477 2790 4503 2554 4471 
C 2125 4413 1690 4118 1536 3714 
C 1478 3560 1389 3105 1389 3105 
C 1389 3079 1382 3034 1357 3021 
C 1325 2996 1248 3009 1210 3009 
L 819 3009 
z
" transform="scale(0.015625)"/>
      <path id="HFBRMI10-72" d="M 1382 2213 
L 1376 2213 
L 1542 3015 
L 1158 3015 
L 518 0 
L 806 0 
C 864 0 934 -19 934 64 
C 947 103 954 147 960 186 
L 1069 680 
C 1107 866 1254 1591 1293 1726 
C 1363 1931 1485 2123 1638 2271 
C 1862 2489 2195 2688 2566 2688 
C 2598 2688 2662 2688 2682 2714 
C 2707 2740 2746 2982 2765 3066 
C 2336 3066 1946 2854 1651 2559 
C 1574 2482 1421 2309 1382 2213 
z
" transform="scale(0.015625)"/>
      <path id="HFBRMI10-65" d="M 2874 702 
C 2778 638 2694 568 2592 510 
C 2291 330 1747 144 1376 356 
C 1235 433 1133 555 1056 702 
C 960 914 928 1119 960 1414 
L 998 1600 
L 3027 1600 
C 3053 1600 3091 1594 3110 1613 
C 3162 1651 3174 1998 3174 2004 
C 3187 2331 3142 2697 2861 2915 
C 2797 2959 2726 2998 2650 3030 
C 2227 3197 1747 3056 1395 2793 
C 954 2466 602 1869 563 1241 
C 538 754 717 375 1024 144 
C 1542 -234 2246 -3 2669 241 
C 2720 273 2797 311 2829 356 
C 2848 388 2874 702 2874 702 
z
M 2829 1850 
L 1082 1850 
C 1229 2216 1510 2581 1888 2722 
C 2176 2831 2560 2786 2733 2498 
C 2848 2305 2854 2062 2829 1850 
z
" transform="scale(0.015625)"/>
      <path id="HFBRMI10-64" d="M 3322 4448 
L 2938 2624 
L 2931 2624 
C 2880 2765 2714 2912 2586 2976 
C 2170 3201 1677 3028 1338 2739 
C 941 2407 685 1920 602 1415 
C 493 781 704 237 1107 32 
C 1472 -148 1920 6 2221 237 
C 2310 307 2394 391 2470 474 
L 2374 0 
C 2515 0 2656 0 2778 19 
L 2803 89 
C 2867 409 2938 723 3008 1043 
L 3725 4448 
L 3322 4448 
z
M 2810 2494 
C 2829 2456 2861 2405 2867 2353 
C 2874 2289 2842 2206 2829 2142 
C 2797 2001 2560 885 2560 885 
C 2534 731 2483 680 2381 577 
C 2221 410 2016 289 1786 269 
C 1542 250 1338 346 1210 455 
C 973 680 954 1020 998 1321 
C 1062 1802 1254 2296 1683 2565 
C 1984 2770 2579 2892 2810 2494 
z
M 2470 475 
C 2470 475 2477 475 2477 475 
C 2477 468 2470 462 2470 475 
z
" transform="scale(0.015625)"/>
      <path id="HFBRMI10-63" d="M 2918 725 
C 2842 679 2778 621 2707 576 
C 2541 465 2368 380 2176 334 
C 1888 256 1619 256 1376 377 
C 1011 576 954 1038 1011 1409 
C 1101 1960 1402 2550 1965 2736 
C 2266 2832 2656 2794 2912 2685 
C 3027 2634 3123 2557 3226 2493 
L 3360 2847 
C 3226 2921 3091 2994 2944 3037 
C 2643 3136 2144 3136 1869 3039 
C 1203 2788 704 2118 602 1415 
C 531 951 653 494 960 219 
C 1485 -243 2291 -12 2746 276 
C 2784 302 2842 328 2867 366 
C 2886 398 2906 642 2918 725 
z
" transform="scale(0.015625)"/>
      <path id="HFBRMI10-6e" d="M 1427 2398 
L 1421 2398 
L 1549 3027 
L 1158 3027 
L 518 0 
L 806 0 
C 864 0 941 -19 941 64 
C 954 109 960 154 973 199 
C 1056 572 1286 1742 1344 1935 
C 1466 2295 1734 2713 2163 2764 
C 2445 2764 2701 2693 2797 2502 
C 2893 2310 2816 2087 2778 1889 
L 2374 0 
L 2675 0 
C 2739 0 2797 -13 2797 71 
C 2835 199 2925 673 2925 673 
L 3213 2026 
C 3264 2270 3322 2565 3187 2796 
C 3072 2988 2854 3052 2643 3071 
C 2541 3084 2438 3084 2336 3065 
C 2054 3014 1792 2847 1606 2635 
C 1542 2565 1466 2488 1427 2398 
z
M 1414 2398 
C 1414 2398 1421 2398 1421 2398 
C 1421 2392 1414 2385 1414 2398 
z
" transform="scale(0.015625)"/>
      <path id="HFBR17-1" d="M 230 0 
L 4141 0 
C 4102 147 4032 288 3981 429 
L 2458 4397 
C 2451 4422 2445 4454 2419 4467 
C 2394 4493 2330 4480 2298 4480 
L 2086 4480 
C 1997 4480 1939 4499 1920 4410 
C 1485 3328 1088 2208 659 1120 
L 390 422 
C 333 282 269 141 230 0 
z
M 2157 4032 
C 2266 3635 2426 3290 2554 2912 
L 3501 422 
L 800 422 
C 1254 1619 1722 2816 2157 4032 
z
" transform="scale(0.015625)"/>
      <path id="HFBR17-2d" d="M 26 1665 
L 26 1344 
L 1811 1344 
L 1811 1665 
L 26 1665 
z
" transform="scale(0.015625)"/>
      <path id="HFBR17-6e" d="M 806 2386 
L 800 2386 
L 800 3033 
L 410 3033 
L 410 0 
L 819 0 
L 819 1404 
C 819 1718 800 2040 941 2334 
C 1011 2482 1120 2610 1267 2687 
C 1389 2745 1517 2745 1651 2732 
C 1843 2732 2029 2681 2150 2520 
C 2266 2372 2272 2180 2272 2000 
L 2272 0 
L 2682 0 
L 2682 1719 
C 2682 2040 2714 2392 2560 2681 
C 2438 2912 2202 3021 1952 3053 
C 1824 3072 1690 3072 1562 3047 
C 1229 2976 922 2707 806 2386 
z
" transform="scale(0.015625)"/>
      <path id="HFBR17-37" d="M 230 4200 
L 230 3840 
L 2739 3840 
L 2502 3608 
C 2291 3383 2099 3144 1926 2887 
C 1350 2017 1037 980 1037 -64 
L 1466 -64 
C 1466 877 1702 1817 2150 2648 
C 2368 3067 2598 3369 2899 3723 
C 2938 3762 2995 3807 3014 3858 
C 3027 3890 3021 3935 3021 3975 
L 3021 4200 
L 230 4200 
z
" transform="scale(0.015625)"/>
      <path id="HFBR17-3a" d="M 634 3008 
L 634 2507 
L 1133 2507 
L 1133 3008 
L 634 3008 
z
M 634 501 
L 634 0 
L 1133 0 
L 1133 501 
L 634 501 
z
" transform="scale(0.015625)"/>
      <path id="HFBR17-76" d="M 45 3040 
C 77 2912 269 2405 282 2373 
C 346 2194 1107 39 1126 19 
C 1146 -13 1203 0 1235 0 
L 1459 0 
C 1542 0 1594 -19 1613 58 
C 1818 597 2566 2733 2675 3040 
L 2278 3040 
C 1971 2175 1658 1308 1370 423 
L 704 2317 
C 608 2547 550 2809 442 3021 
C 326 3040 179 3040 45 3040 
z
" transform="scale(0.015625)"/>
      <path id="HFBR17-73" d="M 198 617 
C 186 527 166 444 154 354 
C 141 283 122 251 186 219 
C 448 65 762 -19 1133 -51 
C 1549 -90 2074 7 2278 418 
C 2336 534 2368 662 2374 791 
C 2400 1253 2035 1549 1722 1658 
C 1370 1793 890 1748 646 2018 
C 518 2166 512 2385 634 2539 
C 890 2899 1715 2744 2042 2584 
C 2093 2558 2138 2526 2195 2513 
L 2253 2860 
C 1952 2995 1690 3072 1274 3072 
C 915 3072 589 2989 384 2783 
C 179 2571 109 2217 230 1948 
C 346 1690 589 1523 851 1440 
C 1229 1305 1658 1369 1907 1061 
C 2048 881 2022 611 1862 450 
C 1555 167 902 270 544 424 
C 422 476 314 553 198 617 
z
" transform="scale(0.015625)"/>
      <path id="HFBR17-66" d="M 678 3009 
L 128 3009 
L 128 2688 
L 678 2688 
L 678 -32 
L 1082 -32 
L 1082 2688 
L 1875 2688 
L 1875 3009 
L 1075 3009 
L 1075 3570 
C 1075 3660 1056 3771 1094 3861 
C 1229 4144 1683 4196 2054 4132 
C 2131 4119 2202 4093 2278 4080 
L 2278 4441 
C 1843 4512 1363 4512 1005 4219 
C 947 4168 896 4118 851 4053 
C 717 3888 678 3704 678 3417 
L 678 3009 
z
" transform="scale(0.015625)"/>
      <path id="HFBR17-47" d="M 3974 2132 
L 2560 2132 
L 2560 1792 
L 3565 1792 
L 3565 614 
C 3565 582 3571 537 3552 511 
C 3533 473 3450 460 3411 447 
C 3117 364 2682 280 2336 344 
C 1869 421 1472 730 1229 1134 
C 742 1929 832 3044 1498 3710 
C 1696 3910 1939 4064 2240 4134 
C 2656 4237 3142 4134 3450 3987 
C 3590 3922 3712 3832 3840 3749 
L 3917 4198 
C 3744 4275 3578 4352 3392 4409 
C 3110 4486 2822 4512 2534 4512 
C 1773 4512 1184 4039 870 3586 
C 403 2884 346 1940 723 1186 
C 934 746 1280 421 1715 197 
C 2253 -64 2886 -64 3450 98 
C 3526 117 3949 251 3968 311 
C 3974 331 3974 358 3974 378 
L 3974 2132 
z
" transform="scale(0.015625)"/>
      <path id="HFBR17-46" d="M 512 4437 
L 512 0 
L 960 0 
L 960 2048 
L 3078 2048 
L 3078 2388 
L 960 2388 
L 960 4096 
L 3354 4096 
L 3354 4437 
L 512 4437 
z
" transform="scale(0.015625)"/>
      <path id="HFBR17-50" d="M 512 4480 
L 512 32 
L 960 32 
L 960 1920 
L 1862 1920 
C 2003 1920 2144 1920 2278 1920 
C 2752 1959 3149 2153 3418 2443 
C 3693 2746 3814 3210 3635 3603 
C 3430 4099 2944 4415 2323 4480 
C 2138 4480 1946 4480 1760 4480 
L 512 4480 
z
M 954 2254 
L 954 4139 
L 1830 4139 
C 2387 4139 2893 4075 3149 3690 
C 3322 3432 3347 3072 3206 2795 
C 3130 2646 3014 2531 2874 2447 
C 2560 2254 2195 2254 1843 2254 
L 954 2254 
z
" transform="scale(0.015625)"/>
      <path id="HFBR17-6f" d="M 685 2693 
C 115 2127 51 1144 544 508 
C 614 411 698 328 794 257 
C 1030 64 1376 -77 1779 -32 
C 2419 45 2861 566 2995 1112 
C 3174 1877 2797 2731 2093 3001 
C 1542 3226 992 3001 685 2693 
z
M 2285 2519 
C 2592 2242 2650 1799 2624 1407 
C 2605 1105 2522 790 2310 565 
C 1965 192 1325 192 954 552 
C 762 758 646 1053 627 1407 
C 595 1927 723 2480 1235 2686 
C 1613 2853 2048 2731 2285 2519 
z
" transform="scale(0.015625)"/>
      <path id="HFBR17-4c" d="M 512 4448 
L 512 0 
L 3168 0 
L 3168 341 
L 960 341 
L 960 4448 
L 512 4448 
z
" transform="scale(0.015625)"/>
      <path id="HFBR17-61" d="M 506 2497 
C 614 2551 704 2630 813 2683 
C 986 2762 1165 2816 1357 2816 
C 1446 2822 1549 2835 1638 2816 
C 1798 2790 1939 2693 2035 2557 
C 2131 2401 2170 2265 2170 2014 
L 2170 1729 
C 1862 1729 1555 1703 1261 1625 
C 890 1541 486 1352 352 1014 
C 218 690 358 261 646 66 
C 787 -32 954 -32 1120 -19 
C 1389 0 1658 65 1888 208 
C 1997 272 2106 357 2170 467 
L 2176 467 
L 2176 13 
L 2579 13 
L 2579 1721 
C 2579 1908 2598 2109 2560 2297 
C 2522 2555 2362 2769 2176 2918 
C 1958 3086 1709 3143 1376 3118 
C 1069 3118 832 3040 602 2929 
C 570 2916 506 2895 486 2857 
C 467 2830 480 2785 480 2752 
C 493 2667 499 2582 506 2497 
z
M 2170 1536 
L 2170 1048 
C 2170 900 2176 765 2093 637 
C 2022 534 1926 463 1824 412 
C 1459 225 902 283 742 592 
C 614 816 749 1080 934 1228 
C 1210 1440 1747 1536 2170 1536 
z
" transform="scale(0.015625)"/>
      <path id="HFBR17-63" d="M 2714 720 
C 2592 630 2483 533 2349 456 
C 2048 296 1587 219 1242 379 
C 742 636 608 1260 678 1774 
C 691 1877 710 1979 742 2076 
C 883 2494 1235 2821 1811 2757 
C 2118 2731 2272 2680 2515 2545 
C 2560 2519 2598 2487 2650 2474 
C 2656 2551 2675 2635 2688 2712 
C 2707 2815 2707 2828 2611 2873 
C 2541 2905 2470 2943 2394 2969 
C 2099 3098 1613 3136 1280 3040 
C 826 2911 486 2519 339 2082 
C 269 1883 250 1671 250 1459 
C 256 784 717 122 1389 -13 
C 1760 -90 2189 19 2445 154 
C 2509 186 2701 302 2733 360 
C 2752 392 2714 720 2714 720 
z
" transform="scale(0.015625)"/>
      <path id="HFBR17-74" d="M 691 3872 
L 691 3009 
L 70 3009 
L 70 2688 
L 685 2688 
L 685 961 
C 685 677 666 335 851 97 
C 960 -45 1107 -83 1331 -64 
C 1517 -64 1702 -25 1875 42 
C 1933 68 2144 161 2170 207 
C 2182 233 2099 518 2099 518 
L 1946 401 
C 1747 278 1350 149 1184 382 
C 1037 582 1075 880 1075 1112 
L 1075 2688 
L 2067 2688 
L 2067 3009 
L 1075 3009 
L 1075 3872 
L 691 3872 
z
" transform="scale(0.015625)"/>
     </defs>
     <use xlink:href="#HFBRMI10-47" transform="scale(0.996264)"/>
     <use xlink:href="#HFBR17-2e" transform="translate(74.220133 0) scale(0.996264)"/>
     <use xlink:href="#HFBRMI10-73" transform="translate(144.124374 0) scale(0.996264)"/>
     <use xlink:href="#HFBRMI10-75" transform="translate(192.479997 0) scale(0.996264)"/>
     <use xlink:href="#HFBRMI10-6c" transform="translate(248.833476 0) scale(0.996264)"/>
     <use xlink:href="#HFBRMI10-66" transform="translate(280.835219 0) scale(0.996264)"/>
     <use xlink:href="#HFBRMI10-75" transform="translate(334.768377 0) scale(0.996264)"/>
     <use xlink:href="#HFBRMI10-72" transform="translate(391.121855 0) scale(0.996264)"/>
     <use xlink:href="#HFBRMI10-72" transform="translate(437.028471 0) scale(0.996264)"/>
     <use xlink:href="#HFBRMI10-65" transform="translate(482.935087 0) scale(0.996264)"/>
     <use xlink:href="#HFBRMI10-64" transform="translate(535.897793 0) scale(0.996264)"/>
     <use xlink:href="#HFBRMI10-75" transform="translate(596.956983 0) scale(0.996264)"/>
     <use xlink:href="#HFBRMI10-63" transform="translate(653.310462 0) scale(0.996264)"/>
     <use xlink:href="#HFBRMI10-65" transform="translate(708.639903 0) scale(0.996264)"/>
     <use xlink:href="#HFBRMI10-6e" transform="translate(761.602608 0) scale(0.996264)"/>
     <use xlink:href="#HFBRMI10-73" transform="translate(815.60314 0) scale(0.996264)"/>
     <use xlink:href="#HFBR17-1" transform="translate(895.423975 0) scale(0.996264)"/>
     <use xlink:href="#HFBR17-31" transform="translate(963.501737 0) scale(0.996264)"/>
     <use xlink:href="#HFBR17-36" transform="translate(1014.144954 0) scale(0.996264)"/>
     <use xlink:href="#HFBR17-32" transform="translate(1064.788172 0) scale(0.996264)"/>
     <use xlink:href="#HFBR17-30" transform="translate(1115.43139 0) scale(0.996264)"/>
     <use xlink:href="#HFBR17-2d" transform="translate(1166.074608 0) scale(0.996264)"/>
     <use xlink:href="#HFBR17-31" transform="translate(1199.283282 0) scale(0.996264)"/>
     <use xlink:href="#HFBR17-36" transform="translate(1249.926499 0) scale(0.996264)"/>
     <use xlink:href="#HFBR17-32" transform="translate(1300.569717 0) scale(0.996264)"/>
     <use xlink:href="#HFBR17-34" transform="translate(1351.212935 0) scale(0.996264)"/>
     <use xlink:href="#HFBR17-54" transform="translate(1433.321364 0) scale(0.996264)"/>
     <use xlink:href="#HFBR17-6e" transform="translate(1503.059541 0) scale(0.996264)"/>
     <use xlink:href="#HFBR17-37" transform="translate(1551.212038 0) scale(0.996264)"/>
     <use xlink:href="#HFBR17-3a" transform="translate(1601.855256 0) scale(0.996264)"/>
     <use xlink:href="#HFBR17-3a" transform="translate(1629.252379 0) scale(0.996264)"/>
     <use xlink:href="#HFBR17-76" transform="translate(1656.649503 0) scale(0.996264)"/>
     <use xlink:href="#HFBR17-73" transform="translate(1698.990541 0) scale(0.996264)"/>
     <use xlink:href="#HFBR17-66" transform="translate(1737.42957 0) scale(0.996264)"/>
     <use xlink:href="#HFBR17-47" transform="translate(1767.732514 0) scale(0.996264)"/>
     <use xlink:href="#HFBR17-46" transform="translate(1835.810276 0) scale(0.996264)"/>
     <use xlink:href="#HFBR17-50" transform="translate(1891.642334 0) scale(0.996264)"/>
     <use xlink:href="#HFBR17-30" transform="translate(1954.531241 0) scale(0.996264)"/>
     <use xlink:href="#HFBR17-6f" transform="translate(2036.63967 0) scale(0.996264)"/>
     <use xlink:href="#HFBR17-6e" transform="translate(2087.282888 0) scale(0.996264)"/>
     <use xlink:href="#HFBR17-4c" transform="translate(2166.900597 0) scale(0.996264)"/>
     <use xlink:href="#HFBR17-61" transform="translate(2219.826925 0) scale(0.996264)"/>
     <use xlink:href="#HFBR17-63" transform="translate(2266.319007 0) scale(0.996264)"/>
     <use xlink:href="#HFBR17-74" transform="translate(2311.150675 0) scale(0.996264)"/>
     <use xlink:href="#HFBR17-61" transform="translate(2347.265063 0) scale(0.996264)"/>
     <use xlink:href="#HFBR17-74" transform="translate(2393.757145 0) scale(0.996264)"/>
     <use xlink:href="#HFBR17-65" transform="translate(2429.871533 0) scale(0.996264)"/>
    </g>
   </g>
   <g id="line2d_11">
    <path d="M 96.21135 53.055623 
L 96.405407 146.152721 
L 96.502435 142.121519 
L 96.696492 151.728638 
L 96.79352 162.446896 
L 96.890549 151.768202 
L 96.987577 156.379532 
L 97.084605 147.670204 
L 97.181634 148.994938 
L 97.37569 143.32262 
L 97.472719 143.564783 
L 97.666775 160.188518 
L 97.763803 154.365309 
L 97.860832 156.968582 
L 97.95786 146.655084 
L 98.054888 146.988382 
L 98.151917 149.393941 
L 98.345973 162.093652 
L 98.443002 158.837425 
L 98.637058 162.578333 
L 98.734087 162.423839 
L 98.831115 162.59042 
L 99.025172 150.541343 
L 99.1222 150.996882 
L 99.219228 161.663297 
L 99.413285 152.022917 
L 99.510313 152.149415 
L 99.607342 152.558759 
L 99.70437 154.993705 
L 99.801398 163.185964 
L 99.995455 158.64686 
L 100.189511 153.848103 
L 100.28654 154.133214 
L 100.771681 155.259252 
L 100.965738 155.247219 
L 101.062766 155.063693 
L 101.256823 155.544281 
L 101.353851 155.747425 
L 101.644936 155.329622 
L 101.838993 155.644557 
L 102.324134 156.071692 
L 102.518191 156.061132 
L 102.712248 156.264685 
L 103.100361 156.459998 
L 103.488474 156.799682 
L 103.585503 156.513916 
L 103.682531 156.559647 
L 103.779559 156.584122 
L 103.973616 157.227662 
L 104.070644 157.066838 
L 104.264701 157.020261 
L 104.555786 157.332304 
L 104.749842 157.155954 
L 104.846871 157.583771 
L 104.943899 157.422484 
L 105.137956 157.716927 
L 105.234984 157.657334 
L 105.526069 158.049925 
L 105.623097 158.025477 
L 105.817154 158.44729 
L 106.690409 161.55429 
L 106.981494 161.99444 
L 107.17555 162.122902 
L 107.272579 162.240941 
L 107.369607 162.154172 
L 107.466635 161.884095 
L 107.563664 161.920713 
L 107.660692 161.94126 
L 107.75772 161.60275 
L 107.854749 161.649163 
L 107.951777 161.703953 
L 108.242862 161.171713 
L 108.630975 161.966308 
L 108.728004 161.734814 
L 108.825032 161.854572 
L 108.92206 161.769194 
L 109.019089 161.891162 
L 109.213145 161.771459 
L 109.310173 161.82745 
L 109.698287 161.264704 
L 109.892343 161.338785 
L 109.989372 161.198644 
L 110.377485 161.779645 
L 110.474513 161.679314 
L 110.571542 161.362197 
L 110.862627 161.639886 
L 110.959655 161.410984 
L 111.153712 161.784202 
L 111.25074 161.689246 
L 111.347768 161.844613 
L 111.541825 161.504793 
L 111.638853 161.39996 
L 112.123995 161.791487 
L 112.318051 161.403589 
L 112.99725 163.198843 
L 113.482391 163.877636 
L 113.57942 163.749938 
L 113.870504 163.718504 
L 114.452674 163.606059 
L 114.646731 163.794987 
L 114.840788 163.590888 
L 115.131873 163.780389 
L 115.228901 163.684479 
L 115.325929 164.127903 
L 115.519986 163.887186 
L 115.714043 163.908415 
L 115.908099 163.589005 
L 116.102156 164.195982 
L 116.199184 164.130004 
L 116.296212 164.315467 
L 116.490269 163.953109 
L 116.587297 164.057996 
L 116.684326 163.95169 
L 116.781354 163.594217 
L 116.878382 163.736404 
L 117.072439 163.59479 
L 117.266496 163.88664 
L 117.460552 163.563411 
L 117.557581 163.640521 
L 117.654609 163.437459 
L 117.751637 163.48791 
L 117.848666 163.59449 
L 117.945694 163.485509 
L 118.236779 163.88634 
L 118.333807 163.897937 
L 118.430835 164.051993 
L 118.624892 163.719678 
L 118.72192 163.895809 
L 118.818949 163.956847 
L 119.013005 163.867185 
L 119.207062 164.241767 
L 119.30409 164.148422 
L 119.401119 164.235382 
L 119.498147 164.036249 
L 119.692204 164.400981 
L 119.789232 164.302615 
L 119.88626 164.391977 
L 120.080317 164.225887 
L 120.274374 164.365728 
L 120.371402 164.13527 
L 120.565458 164.206296 
L 121.0506 164.098625 
L 121.244657 164.352958 
L 121.729798 164.840367 
L 121.826827 164.807706 
L 121.923855 164.443138 
L 122.020883 164.519948 
L 122.603053 163.983478 
L 122.991166 164.19047 
L 123.088195 164.104082 
L 123.476308 164.645791 
L 123.767393 164.615012 
L 123.96145 164.67586 
L 124.252535 165.372716 
L 124.349563 165.207091 
L 124.640648 165.218278 
L 124.737676 165.076282 
L 124.834705 165.250448 
L 124.931733 165.135165 
L 125.028761 165.276588 
L 125.125789 165.214239 
L 125.222818 165.469282 
L 125.416874 165.264091 
L 125.707959 165.47302 
L 125.804988 165.396182 
L 125.902016 165.472801 
L 126.096073 165.319618 
L 126.290129 165.782224 
L 126.581214 165.552777 
L 126.678243 165.498068 
L 126.872299 165.604811 
L 126.969328 165.545928 
L 127.066356 165.856906 
L 127.163384 163.252187 
L 128.521781 33.364617 
L 128.715837 32.329633 
L 128.812866 32.369198 
L 129.492064 37.216579 
L 129.880177 39.634116 
L 129.977205 39.607403 
L 130.26829 41.749106 
L 130.365319 41.955252 
L 130.559375 42.6168 
L 130.656404 42.645996 
L 130.753432 42.534833 
L 130.947489 43.409594 
L 131.044517 43.401327 
L 131.335602 44.280044 
L 131.529659 44.553886 
L 131.626687 44.658064 
L 131.723715 45.111366 
L 131.820744 44.973817 
L 131.917772 45.312873 
L 132.111828 45.213334 
L 132.305885 45.787485 
L 132.402913 45.767348 
L 132.59697 46.746042 
L 132.693998 47.07009 
L 132.791027 47.012353 
L 132.888055 47.0905 
L 133.082112 47.695675 
L 133.276168 46.40805 
L 133.373197 46.4549 
L 133.567253 46.918734 
L 133.664282 46.966185 
L 134.052395 48.516928 
L 134.149423 48.418372 
L 134.246451 48.631884 
L 134.34348 48.452043 
L 134.440508 49.080357 
L 134.537536 48.921962 
L 134.634565 49.757267 
L 134.731593 49.315207 
L 134.828621 49.451064 
L 135.022678 49.951025 
L 135.119706 49.917545 
L 135.410791 50.705646 
L 135.50782 50.620868 
L 135.895933 51.395981 
L 135.992961 51.271748 
L 136.478103 52.78893 
L 136.575131 52.677931 
L 136.866216 53.304771 
L 136.963244 52.694111 
L 137.060273 52.84563 
L 137.254329 53.486032 
L 137.351358 53.488133 
L 137.448386 53.214564 
L 137.545414 53.597768 
L 137.642443 53.473508 
L 137.739471 53.835374 
L 137.836499 53.704729 
L 138.127584 54.46991 
L 138.224613 54.425706 
L 138.515698 55.166193 
L 138.612726 54.966432 
L 138.806782 55.46241 
L 139.097867 56.064939 
L 139.194896 55.931565 
L 139.291924 56.183987 
L 139.388952 55.786567 
L 139.680037 56.554749 
L 139.777066 56.119292 
L 139.874094 56.428933 
L 139.971122 56.375535 
L 140.068151 56.010558 
L 140.262207 56.491173 
L 140.359236 56.491937 
L 140.456264 56.869684 
L 140.553292 56.748916 
L 140.650321 56.438975 
L 140.747349 56.808891 
L 140.844377 56.594832 
L 141.038434 56.815494 
L 141.135462 57.235998 
L 141.329519 57.073537 
L 141.523575 57.66185 
L 141.620604 57.134549 
L 142.105745 58.575194 
L 142.202774 58.193845 
L 142.299802 58.618005 
L 142.39683 58.20948 
L 142.590887 58.725075 
L 142.687915 58.077306 
L 142.784944 59.088225 
L 142.881972 58.990404 
L 142.979 58.627364 
L 143.076029 58.99859 
L 143.173057 58.583379 
L 143.270085 58.988958 
L 143.367113 58.909283 
L 143.56117 59.651898 
L 143.755227 59.237997 
L 143.949283 59.952017 
L 144.14334 59.511648 
L 144.240368 59.742788 
L 144.337397 59.505754 
L 144.531453 59.611515 
L 144.628482 60.147057 
L 144.822538 59.861564 
L 144.919567 60.20111 
L 145.113623 60.082962 
L 145.210652 60.368619 
L 145.30768 60.303214 
L 145.501737 60.500901 
L 145.598765 60.420135 
L 145.695793 60.988038 
L 145.792821 60.429794 
L 145.986878 60.891118 
L 146.083906 61.042719 
L 146.277963 60.902032 
L 146.47202 61.115327 
L 146.666076 61.573404 
L 146.860133 61.461613 
L 146.957161 62.180408 
L 147.151218 61.7536 
L 147.345275 61.602791 
L 147.442303 61.981002 
L 147.63636 61.866728 
L 147.733388 62.40579 
L 148.024473 62.101606 
L 148.121501 62.374138 
L 148.218529 62.162754 
L 148.315558 62.712129 
L 148.509614 62.373674 
L 148.606643 62.840455 
L 148.703671 62.437169 
L 148.897728 62.689537 
L 148.994756 62.784028 
L 149.188813 62.156833 
L 149.382869 63.010556 
L 149.479898 62.629944 
L 149.576926 62.97885 
L 149.673954 62.945725 
L 149.770983 63.014103 
L 149.868011 62.792214 
L 150.159096 63.593657 
L 150.353152 63.765805 
L 150.450181 63.622144 
L 150.644237 63.811836 
L 150.741266 63.341862 
L 150.838294 63.699363 
L 150.935322 63.647192 
L 151.032351 63.460556 
L 151.129379 63.815956 
L 151.323436 63.505769 
L 151.420464 64.121996 
L 151.517492 64.084587 
L 151.614521 63.911894 
L 151.711549 64.359984 
L 151.905606 64.11984 
L 152.099662 64.350952 
L 152.293719 63.969358 
L 152.681832 64.955664 
L 152.77886 64.752302 
L 152.972917 64.890969 
L 153.069945 64.992309 
L 153.264002 65.543895 
L 153.555087 65.280313 
L 153.652115 65.462037 
L 153.749144 65.151741 
L 153.846172 65.206122 
L 154.137257 65.088847 
L 154.234285 65.285743 
L 154.331314 64.956756 
L 154.622399 65.315839 
L 154.816455 65.888763 
L 154.913483 65.504412 
L 155.10754 65.753533 
L 155.204568 65.388174 
L 155.592682 65.760928 
L 155.68971 65.544086 
L 155.786738 65.748294 
L 155.883767 65.477863 
L 156.077823 65.866333 
L 156.27188 65.796673 
L 156.368908 66.160422 
L 156.562965 65.936977 
L 156.659993 65.910128 
L 156.951078 66.414891 
L 157.242163 66.128252 
L 157.43622 66.804071 
L 157.533248 66.969615 
L 157.630276 66.767207 
L 157.824333 67.170167 
L 157.921361 66.644038 
L 158.01839 66.71048 
L 158.115418 66.81021 
L 158.212446 66.497431 
L 158.406503 66.718256 
L 158.60056 66.361901 
L 158.697588 66.570639 
L 158.794616 66.395354 
L 158.988673 66.638554 
L 159.473814 66.861999 
L 159.570843 66.795366 
L 159.667871 66.93226 
L 159.861928 66.714081 
L 160.055984 67.227576 
L 160.153013 66.890785 
L 160.250041 66.980802 
L 160.444098 66.668923 
L 160.541126 67.603986 
L 160.638154 66.431453 
L 160.735183 66.439721 
L 160.929239 66.314806 
L 161.026268 66.781068 
L 161.414381 66.364848 
L 161.608437 66.950296 
L 161.705466 66.834931 
L 161.802494 66.408942 
L 161.996551 66.762896 
L 162.190607 66.832557 
L 162.287636 67.385726 
L 162.384664 66.9029 
L 162.675749 67.836981 
L 162.772777 67.537736 
L 162.966834 67.804511 
L 163.063862 67.946043 
L 163.257919 67.768384 
L 163.549004 68.015077 
L 163.743061 67.776052 
L 163.937117 68.37547 
L 164.034145 68.216829 
L 164.228202 68.228344 
L 164.32523 68.575067 
L 164.422259 68.497902 
L 164.519287 68.65024 
L 164.616315 68.509826 
L 164.9074 68.805251 
L 165.004429 68.639598 
L 165.101457 68.920971 
L 165.198485 68.611848 
L 165.295514 68.756027 
L 165.48957 68.760229 
L 165.586599 68.790353 
L 165.780655 68.378826 
L 165.974712 69.04092 
L 166.168768 68.946538 
L 166.459853 69.090553 
L 166.556882 68.784268 
L 166.65391 68.920862 
L 166.750938 69.319592 
L 166.944995 69.02122 
L 167.042023 69.154948 
L 167.139052 69.655537 
L 167.23608 69.307341 
L 167.333108 69.724843 
L 167.430137 69.40838 
L 167.527165 69.573515 
L 167.624193 69.349552 
L 167.721222 69.598209 
L 167.81825 69.210994 
L 168.012307 69.636655 
L 168.109335 69.661976 
L 168.206363 69.875189 
L 168.303392 69.617364 
L 168.594476 70.326963 
L 168.788533 69.788474 
L 168.885561 70.073312 
L 168.98259 69.835979 
L 169.079618 70.04136 
L 169.176646 69.756713 
L 169.370703 70.001932 
L 169.467731 69.635045 
L 169.56476 69.853578 
L 169.758816 70.50705 
L 169.952873 69.789729 
L 170.14693 69.846402 
L 170.243958 70.24385 
L 170.340986 69.879064 
L 170.535043 70.18101 
L 170.632071 70.216345 
L 170.729099 69.978439 
L 170.826128 70.039096 
L 171.020184 70.608336 
L 171.117213 70.640915 
L 171.311269 70.015111 
L 171.505326 70.366255 
L 171.602354 70.18202 
L 171.796411 70.570517 
L 171.893439 70.695815 
L 171.990468 70.310127 
L 172.378581 70.94398 
L 172.572638 70.944936 
L 172.669666 71.24167 
L 172.766694 71.163496 
L 173.057779 71.811102 
L 173.251836 71.380774 
L 173.348864 71.513193 
L 173.445892 71.421103 
L 173.542921 71.794402 
L 173.736977 71.530083 
L 173.834006 71.829001 
L 173.931034 71.588912 
L 174.028062 71.716174 
L 174.125091 71.583509 
L 174.416176 71.775029 
L 174.513204 71.710007 
L 174.610232 71.506372 
L 174.901317 71.580071 
L 174.998346 71.30672 
L 175.095374 71.776776 
L 175.28943 70.922643 
L 175.386459 70.97405 
L 175.580515 71.317935 
L 175.677544 71.210046 
L 175.774572 71.319217 
L 175.8716 71.160768 
L 175.968629 71.238205 
L 176.162685 71.543153 
L 176.259714 71.590222 
L 176.356742 71.885538 
L 176.550799 71.664576 
L 176.841884 71.704222 
L 176.938912 71.697619 
L 177.03594 71.54741 
L 177.229997 71.968814 
L 177.327025 72.171604 
L 177.521082 71.575842 
L 177.61811 71.466834 
L 177.812167 71.889712 
L 177.909195 71.929632 
L 178.006223 72.240364 
L 178.103252 72.046743 
L 178.20028 72.363888 
L 178.297308 72.192778 
L 178.394337 72.591371 
L 178.491365 72.188903 
L 178.588393 72.34839 
L 178.685422 72.869415 
L 178.78245 72.541329 
L 178.976507 72.778389 
L 179.170563 72.475733 
L 179.36462 72.497507 
L 179.655705 73.13368 
L 179.849761 72.309862 
L 180.237875 73.065438 
L 180.431931 72.245494 
L 180.52896 72.002131 
L 180.625988 72.232697 
L 180.820045 71.960438 
L 181.305186 72.422062 
L 181.402215 72.259574 
L 181.790328 72.632682 
L 181.984385 72.629708 
L 182.372498 73.250655 
L 182.566554 72.995831 
L 182.663583 73.227707 
L 182.857639 73.049366 
L 182.954668 73.103938 
L 183.051696 72.877274 
L 183.536838 73.504606 
L 183.633866 73.236766 
L 183.827923 73.554075 
L 183.924951 73.202523 
L 184.021979 73.942436 
L 184.119008 73.491917 
L 184.216036 73.938261 
L 184.313064 73.880552 
L 184.507121 73.852884 
L 184.604149 73.587118 
L 184.895234 73.935833 
L 184.992262 74.047487 
L 185.089291 73.820332 
L 185.186319 73.970377 
L 185.283347 73.806798 
L 185.380376 74.132265 
L 185.574432 73.597842 
L 185.671461 73.441984 
L 185.768489 73.584826 
L 185.865517 73.928084 
L 185.962546 73.712716 
L 186.156602 74.204545 
L 186.253631 74.053299 
L 186.350659 74.211203 
L 186.544716 74.128718 
L 186.641744 74.461088 
L 187.126885 74.071444 
L 187.320942 74.379749 
L 187.41797 74.242036 
L 187.514999 74.338356 
L 187.612027 74.174995 
L 187.709055 74.304985 
L 187.806084 74.84844 
L 187.903112 74.671736 
L 188.194197 74.962768 
L 188.291225 74.838808 
L 188.388254 75.228997 
L 188.679339 74.581965 
L 188.873395 74.905959 
L 189.067452 74.540354 
L 189.16448 75.067301 
L 189.358537 74.877145 
L 189.455565 75.304661 
L 189.649622 75.14231 
L 189.74665 75.18403 
L 189.843678 75.067355 
L 189.940707 74.595635 
L 190.037735 75.025253 
L 190.134763 74.887868 
L 190.231792 74.964814 
L 190.32882 75.278058 
L 190.619905 74.539699 
L 190.716933 75.382072 
L 190.813962 75.095269 
L 190.91099 75.156471 
L 191.008018 75.495145 
L 191.202075 75.094996 
L 191.396131 75.012838 
L 191.49316 75.109867 
L 191.687216 74.761316 
L 191.881273 75.079115 
L 191.978301 74.869559 
L 192.07533 75.24867 
L 192.172358 74.870432 
L 192.269386 75.032784 
L 192.366415 74.797415 
L 192.463443 74.966397 
L 192.560471 74.79908 
L 192.6575 75.09666 
L 192.851556 74.80923 
L 192.948585 75.014584 
L 193.045613 74.607996 
L 193.23967 74.890488 
L 193.336698 74.919138 
L 193.433726 74.693046 
L 193.724811 75.397706 
L 193.821839 75.044135 
L 194.015896 75.133251 
L 194.112924 75.161301 
L 194.209953 75.031583 
L 194.306981 75.177236 
L 194.501038 74.838917 
L 194.792123 75.246488 
L 194.889151 75.073795 
L 195.083208 75.311374 
L 195.180236 75.121954 
L 195.471321 75.719053 
L 195.568349 75.528406 
L 195.762406 76.002746 
L 195.956462 75.76915 
L 196.053491 75.942635 
L 196.247547 75.382863 
L 196.344576 75.52314 
L 196.538632 75.308017 
L 196.635661 75.759873 
L 196.732689 75.644726 
L 197.023774 76.026594 
L 197.217831 75.402509 
L 197.411887 75.927354 
L 197.508916 75.903288 
L 197.605944 76.183952 
L 197.800001 76.162014 
L 198.091085 76.126733 
L 198.285142 75.244196 
L 198.38217 75.578367 
L 198.576227 75.537956 
L 198.673255 75.104491 
L 198.867312 75.526414 
L 198.96434 75.157999 
L 199.352454 75.537438 
L 199.449482 75.195736 
L 199.837595 75.994232 
L 199.934624 75.562923 
L 200.031652 75.677442 
L 200.12868 75.350447 
L 200.322737 76.066213 
L 200.419765 76.237323 
L 200.516793 75.582351 
L 200.71085 76.037535 
L 200.904907 76.104086 
L 201.001935 76.047304 
L 201.098963 76.339291 
L 201.195992 76.159285 
L 201.29302 76.44145 
L 201.390048 76.266901 
L 201.487077 76.415391 
L 201.584105 76.319099 
L 201.778162 76.592969 
L 201.972218 76.088505 
L 202.069247 76.169654 
L 202.166275 75.892237 
L 202.45736 76.49212 
L 202.554388 76.463196 
L 202.651416 76.755757 
L 202.748445 76.617908 
L 202.845473 76.123049 
L 202.942501 76.5074 
L 203.136558 76.28873 
L 203.233586 76.532885 
L 203.427643 76.241471 
L 203.6217 76.499241 
L 203.718728 76.47714 
L 203.815756 76.68102 
L 203.912785 76.540552 
L 204.009813 76.795485 
L 204.300898 76.479704 
L 204.397926 76.828801 
L 204.494955 76.338118 
L 204.78604 77.010853 
L 204.980096 75.254946 
L 205.077124 74.714329 
L 205.174153 75.12411 
L 205.271181 74.195787 
L 205.368209 74.290769 
L 205.659294 74.081349 
L 205.853351 73.62098 
L 205.950379 74.053899 
L 206.047408 73.806798 
L 206.241464 74.008796 
L 206.338493 73.950977 
L 206.532549 74.411346 
L 206.726606 73.949258 
L 207.017691 74.592934 
L 207.114719 74.539044 
L 207.308776 74.655146 
L 207.502832 74.544665 
L 207.696889 74.911389 
L 207.890946 74.915154 
L 207.987974 74.519753 
L 208.085002 74.55779 
L 208.182031 74.487501 
L 208.279059 74.761343 
L 208.376087 74.611243 
L 208.473116 75.143538 
L 208.570144 74.853815 
L 208.764201 75.129977 
L 208.861229 74.975129 
L 209.055286 75.302506 
L 209.346371 74.788465 
L 209.443399 75.049783 
L 209.540427 74.970053 
L 209.637455 75.543086 
L 209.734484 75.022797 
L 209.92854 75.444993 
L 210.025569 75.372167 
L 210.122597 75.581478 
L 210.316654 75.211507 
L 210.413682 75.403464 
L 210.607739 75.228397 
L 210.704767 75.420463 
L 210.801795 75.162938 
L 210.898824 75.484203 
L 211.09288 75.43869 
L 211.189909 75.771142 
L 211.286937 75.447367 
L 211.480994 76.32 
L 211.578022 75.740118 
L 211.67505 75.783394 
L 211.966135 76.459213 
L 212.160192 76.121685 
L 212.25722 76.183051 
L 212.354248 75.933412 
L 212.548305 76.375936 
L 212.742362 75.978898 
L 212.83939 76.02482 
L 213.033447 75.983345 
L 213.130475 76.334379 
L 213.227503 75.988721 
L 213.324532 76.103868 
L 213.42156 76.003428 
L 213.615617 76.232221 
L 213.712645 76.259561 
L 213.809673 76.061793 
L 213.906702 76.426088 
L 214.00373 75.983891 
L 214.100758 76.027467 
L 214.5859 76.747653 
L 214.682928 76.708579 
L 214.876985 76.303819 
L 215.071041 76.671552 
L 215.16807 76.398529 
L 215.653211 76.924329 
L 216.720523 72.979869 
L 216.817551 73.322008 
L 216.914579 72.995668 
L 217.011608 73.03897 
L 217.108636 73.343864 
L 217.205664 73.27041 
L 217.302693 73.818913 
L 217.399721 73.325992 
L 217.496749 73.50526 
L 217.690806 73.28097 
L 217.787834 73.106039 
L 218.078919 73.876241 
L 218.467033 74.375301 
L 218.564061 75.120945 
L 218.661089 74.910734 
L 218.855146 75.67234 
L 218.952174 75.429958 
L 219.728401 76.561235 
L 219.825429 76.271731 
L 220.019486 76.809428 
L 220.116514 76.667186 
L 220.213542 77.091456 
L 220.407599 76.848884 
L 220.504627 77.118005 
L 220.601656 76.967632 
L 220.795712 77.04245 
L 220.89274 77.066135 
L 220.989769 76.970634 
L 221.086797 77.147556 
L 221.377882 76.94905 
L 221.47491 76.328922 
L 221.571939 76.544372 
L 221.668967 76.096227 
L 221.765995 76.381611 
L 221.863024 76.107633 
L 222.05708 76.461696 
L 222.154109 76.287257 
L 222.251137 76.563854 
L 222.445194 76.367941 
L 222.542222 76.500578 
L 222.63925 76.396755 
L 222.833307 76.522871 
L 222.930335 76.526036 
L 223.027364 76.416537 
L 223.124392 76.77824 
L 223.318448 76.392935 
L 223.415477 76.84168 
L 223.609533 76.812566 
L 223.80359 77.148293 
L 223.997647 77.058467 
L 224.191703 77.391766 
L 224.288732 77.04125 
L 224.579817 77.499572 
L 224.676845 77.301476 
L 224.870902 77.474606 
L 225.161987 77.435287 
L 225.259015 77.12338 
L 225.453071 77.536299 
L 225.647128 77.381615 
L 225.744156 77.306278 
L 225.841185 77.584214 
L 225.938213 77.54986 
L 226.13227 77.67936 
L 226.229298 77.547214 
L 226.326326 77.760563 
L 226.423355 77.650546 
L 226.520383 77.830142 
L 226.617411 77.496953 
L 226.71444 77.529914 
L 227.005525 77.692621 
L 227.102553 78.186251 
L 227.199581 77.654066 
L 227.490666 78.17872 
L 227.781751 77.866951 
L 227.975808 78.221587 
L 228.072836 77.934265 
L 228.169864 78.338289 
L 228.460949 78.012849 
L 228.557978 77.974485 
L 228.655006 78.168079 
L 228.752034 78.025782 
L 228.946091 78.216184 
L 229.043119 78.235884 
L 229.140148 78.13037 
L 229.334204 78.413707 
L 229.431233 78.142812 
L 229.819346 78.819531 
L 230.013402 78.420065 
L 230.304487 78.928184 
L 230.401516 78.710415 
L 230.498544 78.850283 
L 230.692601 78.683047 
L 230.789629 79.083796 
L 230.886657 78.866818 
L 231.080714 79.060712 
L 231.177742 78.71227 
L 231.274771 78.771481 
L 231.371799 79.348552 
L 231.468827 78.959208 
L 231.565856 79.189175 
L 231.662884 79.107044 
L 231.856941 79.194031 
L 232.050997 79.199652 
L 232.148025 79.55276 
L 232.342082 79.284321 
L 232.536139 79.374146 
L 232.633167 79.215587 
L 232.827224 79.521054 
L 232.924252 79.536825 
L 233.118309 79.267894 
L 233.409394 79.608123 
L 233.506422 79.566976 
L 233.60345 79.810776 
L 233.700479 79.762262 
L 234.18562 80.038887 
L 234.573733 79.902566 
L 234.670762 79.844693 
L 234.76779 80.161838 
L 234.864818 80.075396 
L 234.961847 79.758415 
L 235.252932 80.059242 
L 235.34996 79.949171 
L 235.544017 80.165903 
L 235.641045 80.133324 
L 235.738073 79.717813 
L 235.93213 80.270872 
L 236.126187 80.397152 
L 236.223215 80.361789 
L 236.320243 80.567935 
L 236.417272 80.270054 
L 236.611328 80.309455 
L 236.805385 80.876457 
L 236.999441 80.849171 
L 237.193498 81.300208 
L 237.290526 81.067104 
L 237.387555 81.269321 
L 237.581611 81.19996 
L 237.775668 81.187272 
L 237.872696 80.871901 
L 238.066753 81.063557 
L 238.163781 81.099766 
L 238.26081 81.759895 
L 238.357838 81.508919 
L 238.454866 81.590777 
L 238.551895 81.435083 
L 238.648923 81.560326 
L 238.940008 81.329186 
L 239.134064 82.742272 
L 239.231093 82.036712 
L 239.522178 82.375003 
L 239.716234 82.141626 
L 239.910291 82.557082 
L 240.104348 82.273008 
L 240.395433 82.960178 
L 240.492461 82.596129 
L 240.589489 82.724482 
L 240.783546 82.422726 
L 240.880574 82.527013 
L 240.977603 82.198463 
L 241.074631 82.542184 
L 241.268687 82.201519 
L 241.365716 82.296283 
L 241.462744 82.152813 
L 241.753829 82.718724 
L 241.850857 82.587997 
L 242.044914 82.508868 
L 242.238971 82.965608 
L 242.335999 82.960778 
L 242.530056 82.874309 
L 242.627084 82.820119 
L 242.724112 83.104439 
L 242.821141 83.029948 
L 242.918169 82.595064 
L 243.112226 82.935757 
L 243.209254 82.764592 
L 243.403311 83.226598 
L 243.500339 82.975977 
L 243.597367 83.246326 
L 243.791424 82.829478 
L 244.082509 83.172108 
L 244.179537 82.770186 
L 244.276565 82.826204 
L 244.373594 82.647235 
L 244.56765 82.905306 
L 244.664679 82.930027 
L 244.858735 83.499076 
L 245.052792 81.255623 
L 245.14982 81.575742 
L 245.246849 81.313742 
L 245.537934 81.929969 
L 245.634962 81.879353 
L 245.829018 81.670315 
L 246.023075 81.770128 
L 246.120103 81.204926 
L 246.508217 82.248996 
L 246.702273 81.776949 
L 246.799302 81.889476 
L 246.89633 81.760359 
L 247.090387 82.148775 
L 247.187415 82.165583 
L 247.381472 82.711412 
L 247.4785 82.731358 
L 247.575528 82.187876 
L 247.672557 82.359232 
L 247.769585 82.27017 
L 248.06067 83.128833 
L 248.157698 82.869016 
L 248.254726 82.962525 
L 248.448783 82.757225 
L 248.739868 83.717882 
L 249.030953 83.799631 
L 249.127981 83.840396 
L 249.419066 84.697858 
L 249.613123 83.744268 
L 249.710151 83.953169 
L 249.80718 83.619516 
L 250.001236 84.213559 
L 250.098265 84.055191 
L 250.195293 84.369635 
L 250.389349 84.045887 
L 250.486378 84.165782 
L 250.583406 84.599983 
L 250.680434 84.355937 
L 250.777463 84.507402 
L 250.874491 84.273861 
L 250.971519 84.625387 
L 251.068548 84.451275 
L 251.456661 85.238448 
L 251.553689 85.012302 
L 251.747746 84.984197 
L 251.844774 85.139154 
L 251.941803 84.878682 
L 252.135859 85.303197 
L 252.232888 85.220657 
L 252.329916 85.191734 
L 252.621001 85.956369 
L 252.718029 85.630984 
L 252.815057 85.927828 
L 252.912086 85.663127 
L 253.106142 86.284974 
L 253.203171 85.965182 
L 253.300199 86.304374 
L 253.494256 85.861823 
L 253.688312 86.08505 
L 253.882369 86.25013 
L 254.076426 86.19021 
L 254.367511 86.92513 
L 254.464539 86.656827 
L 254.658596 86.808401 
L 254.755624 86.706515 
L 255.046709 87.319931 
L 255.143737 87.235536 
L 255.337794 87.746111 
L 255.434822 87.723463 
L 255.725907 87.205221 
L 256.016992 87.730203 
L 256.502134 88.522097 
L 256.599162 88.373033 
L 256.69619 88.217831 
L 256.793219 88.854685 
L 256.890247 88.779048 
L 256.987275 89.2219 
L 257.084304 88.721039 
L 257.27836 89.064214 
L 257.375388 89.059548 
L 257.472417 89.41312 
L 257.569445 89.186947 
L 257.666473 89.436395 
L 257.763502 89.102306 
L 258.054587 89.761507 
L 258.151615 89.695803 
L 258.248643 89.88394 
L 258.4427 89.790812 
L 258.927842 90.372277 
L 259.02487 90.036386 
L 259.218927 90.326163 
L 259.315955 90.006999 
L 259.510011 90.258276 
L 259.60704 90.187933 
L 259.898125 91.304229 
L 260.092181 90.966347 
L 260.286238 91.208646 
L 260.577323 91.544509 
L 260.674351 91.442269 
L 260.77138 91.59799 
L 260.868408 91.400112 
L 260.965436 91.76981 
L 261.062465 91.714992 
L 261.159493 92.063625 
L 261.256521 92.009571 
L 261.35355 92.058059 
L 261.450578 92.234408 
L 261.547606 92.039913 
L 261.741663 92.186085 
L 261.935719 92.246932 
L 262.032748 92.431413 
L 262.129776 92.355448 
L 262.226804 92.425546 
L 262.323833 92.695077 
L 262.420861 92.538346 
L 262.808974 92.845723 
L 262.906003 92.911346 
L 263.100059 93.26006 
L 263.294116 93.089005 
L 263.391144 93.25433 
L 263.488173 93.078772 
L 263.876286 93.481268 
L 263.973314 93.37226 
L 264.167371 93.76496 
L 264.264399 93.544244 
L 264.458456 94.039621 
L 264.555484 93.994026 
L 264.652512 94.420751 
L 264.749541 94.29188 
L 264.943597 94.355456 
L 265.040626 94.29368 
L 265.234682 94.363533 
L 265.525767 94.434913 
L 265.622796 94.597401 
L 265.719824 94.372346 
L 266.010909 94.819918 
L 266.49605 95.172016 
L 266.593079 95.469378 
L 266.690107 95.146313 
L 266.884164 95.760165 
L 267.07822 95.239085 
L 267.272277 95.69809 
L 267.369305 95.48354 
L 267.563362 96.03589 
L 267.757419 96.43593 
L 267.854447 96.319337 
L 268.24256 96.275597 
L 268.339589 96.060175 
L 268.630673 96.625758 
L 268.82473 96.507091 
L 268.921758 96.50027 
L 269.018787 96.717002 
L 269.309872 96.341111 
L 269.503928 96.586957 
L 269.600957 96.497159 
L 269.697985 96.80721 
L 269.795013 96.596589 
L 269.892042 97.143673 
L 269.98907 97.032783 
L 270.086098 97.275164 
L 270.280155 97.199337 
L 270.668268 97.14059 
L 270.862325 97.419343 
L 270.959353 97.34207 
L 271.250438 97.88034 
L 271.347466 97.69324 
L 271.444495 98.342592 
L 271.73558 97.538938 
L 272.89992 95.405502 
L 272.996948 95.791326 
L 273.093976 95.728432 
L 273.288033 95.077606 
L 273.482089 94.426454 
L 273.676146 94.457069 
L 273.773174 94.069472 
L 273.870203 94.213132 
L 274.258316 93.369559 
L 274.452373 92.343907 
L 274.646429 92.379242 
L 275.034543 91.39239 
L 275.228599 91.581072 
L 275.616712 90.944163 
L 275.713741 91.038491 
L 275.810769 91.325785 
L 276.004826 90.75971 
L 276.101854 90.890355 
L 276.295911 90.479401 
L 276.392939 90.854611 
L 276.586996 90.646146 
L 276.781052 90.858076 
L 276.878081 90.442211 
L 276.975101 90.549035 
L 277.072129 90.396616 
L 277.266186 91.014452 
L 277.363214 90.637796 
L 277.460242 90.665492 
L 277.654299 90.774963 
L 277.751327 90.992296 
L 277.848356 90.78274 
L 277.945384 90.960453 
L 278.042412 90.463903 
L 278.139441 90.547098 
L 278.236469 90.78012 
L 278.333497 90.482976 
L 278.624582 90.949075 
L 278.915667 90.685711 
L 279.109724 90.940398 
L 279.303781 90.714279 
L 279.594865 90.62489 
L 279.788922 90.736544 
L 279.88595 91.107934 
L 280.080007 90.717471 
L 280.177035 90.828907 
L 280.371092 91.327668 
L 280.565149 91.012351 
L 280.662177 91.363849 
L 280.759205 91.21555 
L 280.856234 91.364749 
L 281.147319 91.027222 
L 281.438404 91.560608 
L 281.535432 91.144579 
L 282.21463 92.075958 
L 282.311658 91.870604 
L 282.408687 91.988971 
L 282.602743 91.679275 
L 282.893828 92.206249 
L 283.37897 92.797427 
L 283.670055 92.462246 
L 283.96114 92.627244 
L 284.058168 92.501101 
L 284.54331 92.941224 
L 284.640338 92.742036 
L 284.834395 92.971566 
L 285.12548 93.021308 
L 285.222508 93.26298 
L 285.319536 93.026301 
L 285.513593 93.546863 
L 285.804678 93.675626 
L 285.998735 94.104316 
L 286.095763 94.058966 
L 286.483876 94.873835 
L 286.774961 94.866031 
L 287.163074 95.287654 
L 287.260103 95.267981 
L 287.357131 95.504114 
L 287.454159 95.255429 
L 287.648216 95.511781 
L 287.745244 95.493145 
L 287.842273 95.606354 
L 288.230386 96.852314 
L 288.424443 96.751465 
L 288.521471 96.964923 
L 288.715527 96.068715 
L 288.909584 93.408987 
L 289.297697 90.800475 
L 289.491754 90.248289 
L 289.588782 90.689285 
L 289.685811 90.028282 
L 289.782839 90.059798 
L 289.879867 89.586904 
L 289.976896 89.769257 
L 290.267981 89.300429 
L 290.559066 89.536753 
L 290.656094 89.221845 
L 290.85015 89.496506 
L 291.141235 89.098622 
L 291.529349 89.192977 
L 291.626377 89.47525 
L 291.723405 89.137668 
L 292.111519 90.058188 
L 292.208547 90.277376 
L 292.305575 90.041543 
L 292.499632 90.559213 
L 292.790717 90.749178 
L 292.887745 90.74765 
L 292.984774 91.187609 
L 293.081802 91.124906 
L 293.275858 90.934286 
L 293.469915 91.44216 
L 293.566943 91.331761 
L 293.663972 91.412527 
L 293.761 91.348596 
L 293.858028 91.682822 
L 294.052085 90.911775 
L 294.149113 91.048014 
L 294.34317 91.014834 
L 294.537227 91.20589 
L 294.634255 90.786969 
L 294.731283 91.108425 
L 294.828312 91.007139 
L 295.022368 90.652449 
L 295.216425 91.298635 
L 295.410481 91.101603 
L 295.604538 91.426115 
L 295.701566 91.333261 
L 295.798595 90.994015 
L 295.895623 91.109107 
L 295.992651 90.914749 
L 296.08968 91.156284 
L 296.186708 91.092326 
L 296.380765 91.300382 
L 296.477793 91.2827 
L 296.574821 90.8888 
L 296.865906 91.175112 
L 296.962935 91.01699 
L 297.059963 91.263873 
L 297.25402 91.09028 
L 297.351048 91.18911 
L 297.448076 90.939525 
L 297.545105 91.272632 
L 297.642133 91.201334 
L 297.933218 91.790738 
L 298.030246 91.548466 
L 298.127274 91.731282 
L 298.224303 92.476134 
L 298.612416 91.100621 
L 298.709444 91.157867 
L 299.000529 90.869509 
L 299.097558 90.837612 
L 299.582699 91.811339 
L 299.679728 91.506882 
L 300.164869 92.173424 
L 300.261897 92.231243 
L 300.455954 92.737097 
L 300.552982 92.70621 
L 300.941096 93.278806 
L 301.232181 94.321758 
L 301.329209 94.415239 
L 301.523266 94.830232 
L 301.620294 94.79637 
L 301.814351 95.080471 
L 301.911379 94.87449 
L 302.008407 95.04268 
L 302.299492 94.781554 
L 302.493549 95.534428 
L 302.784634 94.78712 
L 303.657889 95.516556 
L 303.851945 95.283616 
L 303.948974 95.301488 
L 304.14303 95.988904 
L 304.240059 95.544633 
L 304.434115 95.793918 
L 304.628172 95.963773 
L 304.822228 95.964237 
L 304.919257 95.948738 
L 305.210342 96.260754 
L 305.404398 96.169209 
L 305.501427 96.388943 
L 305.598455 96.229484 
L 305.986568 96.869122 
L 306.083597 96.733347 
L 306.277653 96.827401 
L 306.47171 97.396123 
L 306.568738 97.331373 
L 306.665767 97.264495 
L 306.859823 97.647918 
L 306.956851 97.616621 
L 307.150908 97.769777 
L 307.247936 97.74874 
L 307.441993 97.981052 
L 307.539021 98.053442 
L 307.63605 97.889808 
L 307.733078 98.062119 
L 307.927135 97.918404 
L 308.024163 98.035597 
L 308.121191 97.559157 
L 308.21822 97.951529 
L 308.412276 97.708929 
L 308.606333 98.090469 
L 308.80039 97.803775 
L 308.897418 97.840966 
L 308.994446 97.69002 
L 309.091474 98.113908 
L 309.188503 97.76945 
L 309.382559 98.090333 
L 309.576616 98.246299 
L 309.770673 99.009734 
L 309.867701 98.852266 
L 309.964729 98.93246 
L 310.061758 98.08051 
L 310.158786 98.142313 
L 310.255814 98.123513 
L 310.352843 98.31446 
L 310.546899 98.047876 
L 310.643928 97.582213 
L 310.740956 97.623388 
L 310.837984 97.528405 
L 310.935013 97.825959 
L 311.129069 97.656322 
L 311.323126 97.868743 
L 311.420154 97.829915 
L 311.517182 98.089159 
L 311.614211 98.03688 
L 311.808267 97.723773 
L 312.002324 98.204279 
L 312.099352 97.997451 
L 312.681522 98.542707 
L 312.875579 98.195793 
L 312.972607 98.50085 
L 313.069636 98.448925 
L 313.263692 98.440657 
L 313.457749 98.215466 
L 313.651805 98.221906 
L 313.845862 98.416946 
L 313.94289 98.202205 
L 314.039919 98.612641 
L 314.136947 98.499813 
L 314.233975 98.630541 
L 314.331004 98.958573 
L 314.428032 98.724977 
L 314.52506 98.817722 
L 314.719117 98.761268 
L 315.010202 99.052873 
L 315.398315 99.881848 
L 315.592372 99.453704 
L 315.786429 100.089712 
L 315.883457 100.206251 
L 316.077513 100.707904 
L 316.174542 100.723566 
L 316.27157 100.624054 
L 316.465627 101.34001 
L 316.950768 101.996511 
L 317.144825 101.728181 
L 317.532938 101.368361 
L 317.629967 101.554724 
L 317.824023 101.394664 
L 318.01808 101.440232 
L 318.212136 101.154002 
L 318.406193 101.337391 
L 318.503221 101.463261 
L 318.794306 102.155779 
L 319.279448 103.535958 
L 319.376476 103.488945 
L 319.667561 103.778967 
L 320.249731 104.546849 
L 320.34676 104.867787 
L 320.443788 104.51869 
L 320.637844 104.60284 
L 320.831901 104.719651 
L 321.025958 105.143812 
L 321.122986 105.130142 
L 321.220014 104.749366 
L 321.317043 105.089895 
L 321.414071 104.965362 
L 321.705156 105.330666 
L 321.802184 105.233201 
L 322.093269 105.844816 
L 322.190298 105.638288 
L 322.384354 105.97235 
L 322.966524 106.275989 
L 323.257609 106.684869 
L 323.451666 106.462543 
L 323.645722 106.656273 
L 323.742751 106.572724 
L 323.839779 106.659684 
L 324.033836 106.964741 
L 324.227892 106.979285 
L 324.324921 106.824873 
L 324.421949 107.229033 
L 324.518977 107.067227 
L 324.713034 107.280495 
L 324.810062 106.88875 
L 325.392232 107.320277 
L 325.48926 107.285242 
L 325.683317 108.032551 
L 325.780345 107.886352 
L 325.877374 108.086959 
L 326.07143 107.785885 
L 326.459544 108.521815 
L 326.556572 108.322191 
L 326.750629 108.627521 
L 326.847657 108.512074 
L 327.041714 108.125296 
L 327.138742 108.496358 
L 327.23577 108.3957 
L 327.332798 108.651533 
L 327.429827 108.598653 
L 327.720912 108.571776 
L 327.81794 109.019594 
L 327.914968 108.802615 
L 328.011997 109.238427 
L 328.206053 109.081041 
L 328.594167 109.364434 
L 328.788223 108.903874 
L 328.885252 108.945676 
L 329.079308 108.901773 
L 329.176337 109.168111 
L 329.370393 109.061805 
L 329.467422 109.329699 
L 329.56445 109.25267 
L 329.758506 109.851734 
L 329.952563 109.656939 
L 330.049591 109.644306 
L 330.14662 109.822838 
L 330.243648 109.646762 
L 330.340676 110.016323 
L 330.534733 109.861966 
L 330.825818 110.343973 
L 330.922846 110.258731 
L 331.116903 110.597159 
L 331.31096 110.263179 
L 331.796101 110.72865 
L 331.893129 110.529299 
L 332.087186 110.921753 
L 332.378271 110.248526 
L 332.475299 110.227134 
L 332.669356 110.394725 
L 332.766384 110.245225 
L 332.863413 110.562288 
L 332.960441 110.335432 
L 333.348554 110.572029 
L 333.445583 110.295949 
L 333.833696 110.567117 
L 333.930724 110.430033 
L 334.221809 110.964865 
L 334.318837 110.87564 
L 334.609922 111.232595 
L 334.803979 110.878178 
L 334.998036 111.264029 
L 335.095064 111.255079 
L 335.192092 111.071608 
L 335.386149 111.273497 
L 335.483177 111.150819 
L 335.677234 111.607041 
L 335.871291 111.823036 
L 335.968319 111.737549 
L 336.356432 112.093495 
L 336.45346 112.320787 
L 336.647517 112.011255 
L 336.938602 112.213771 
L 337.132659 112.554246 
L 337.423744 112.660061 
L 337.520772 112.425429 
L 337.811857 112.659652 
L 337.908885 112.538693 
L 338.19997 112.695232 
L 338.296999 112.551108 
L 338.491055 112.93112 
L 338.588084 112.870408 
L 338.685112 112.726011 
L 338.78214 112.927272 
L 338.879168 112.717634 
L 339.073225 112.866534 
L 339.170253 112.664727 
L 339.36431 112.937423 
L 339.461338 112.466549 
L 339.558367 112.543905 
L 339.752423 113.020509 
L 339.849452 112.912975 
L 339.94648 112.576047 
L 340.431622 113.350451 
L 340.625678 113.075135 
L 340.722707 113.327176 
L 340.819735 113.171755 
L 341.013791 113.437411 
L 341.11082 113.22207 
L 341.304876 113.637854 
L 341.401905 113.435092 
L 341.595961 113.573595 
L 341.790018 113.268893 
L 341.887046 113.468872 
L 341.984075 113.673407 
L 342.081103 113.51845 
L 342.566245 113.988588 
L 342.663273 113.980866 
L 342.85733 114.251079 
L 342.954358 114.341505 
L 343.148415 113.684868 
L 343.536528 113.986787 
L 343.633556 114.334956 
L 343.827613 114.088563 
L 343.924641 114.402516 
L 344.021669 114.251297 
L 344.118698 114.427728 
L 344.215726 114.205075 
L 344.409783 114.65412 
L 344.603839 114.861166 
L 344.797896 114.736878 
L 344.894924 114.767902 
L 345.088981 115.147669 
L 345.283038 114.809077 
L 345.380066 115.09176 
L 345.574122 114.910826 
L 345.768179 114.988946 
L 345.962236 115.321944 
L 346.059264 115.41971 
L 346.156292 115.266335 
L 346.350349 115.543179 
L 346.544406 115.42705 
L 346.835491 115.849928 
L 347.223604 115.982483 
L 347.320632 115.884799 
L 347.514689 116.322084 
L 347.611717 116.281237 
L 347.708746 116.41502 
L 347.805774 116.358948 
L 347.902802 116.465363 
L 347.99983 116.380613 
L 348.193887 116.782508 
L 348.290915 116.566403 
L 348.484972 116.710473 
L 348.582 116.770175 
L 348.776057 116.425744 
L 348.970114 116.715821 
L 349.16417 116.996675 
L 349.261199 116.893098 
L 349.552284 117.312292 
L 349.74634 117.053212 
L 349.843369 117.455871 
L 349.940397 117.278212 
L 350.037425 117.756672 
L 350.231482 117.461656 
L 350.425538 117.68551 
L 350.619595 118.021045 
L 350.813652 117.791707 
L 351.201765 118.421958 
L 351.49285 118.416883 
L 351.589878 119.115513 
L 351.686907 119.082824 
L 351.783935 119.355712 
L 351.880963 119.272953 
L 352.07502 119.588979 
L 352.172048 119.263103 
L 352.560161 119.798727 
L 352.65719 119.687564 
L 352.754218 119.858428 
L 352.948275 119.704181 
L 353.045303 119.65201 
L 353.142331 119.926207 
L 353.23936 119.712121 
L 353.336388 120.401447 
L 353.433416 120.162558 
L 353.530445 120.286573 
L 353.724501 119.980288 
L 353.918558 120.081519 
L 354.015586 120.019306 
L 354.209643 120.146077 
L 354.306671 119.987764 
L 354.694784 120.551165 
L 354.791813 120.612012 
L 354.985869 120.849046 
L 355.373983 120.781322 
L 355.568039 120.162312 
L 355.665068 120.19964 
L 355.859124 119.983889 
L 356.053181 120.238658 
L 356.247238 120.358417 
L 356.441294 120.638316 
L 356.538323 120.300079 
L 356.635351 120.493073 
L 356.829408 120.421147 
L 356.926436 120.641208 
L 357.217521 120.208398 
L 357.314549 120.279833 
L 357.411577 120.667239 
L 357.605634 120.17339 
L 357.702662 120.355961 
L 357.799691 120.243897 
L 357.896719 120.534657 
L 358.090776 119.944352 
L 358.381861 117.92036 
L 358.672946 117.172042 
L 358.769974 116.911243 
L 358.867002 117.323671 
L 359.061059 116.873861 
L 359.158087 117.005953 
L 359.255115 117.65484 
L 359.5462 116.661058 
L 359.643229 116.565175 
L 359.837285 117.263287 
L 359.934314 116.957111 
L 360.031342 117.057878 
L 360.12837 116.93973 
L 360.225399 117.500293 
L 360.322427 117.363563 
L 360.419455 117.791871 
L 360.516484 117.554783 
L 360.613512 117.686738 
L 360.904597 116.904667 
L 361.098654 116.983305 
L 361.195682 116.923849 
L 361.29271 117.197173 
L 361.680823 116.786246 
L 361.777852 116.804255 
L 361.87488 116.999213 
L 361.971908 116.764335 
L 362.068937 116.967807 
L 362.262993 116.757705 
L 362.360022 116.759533 
L 362.554078 116.375401 
L 362.651107 116.585885 
L 362.942192 116.325304 
L 363.233277 116.798552 
L 363.330305 116.589187 
L 363.62139 116.89539 
L 363.912475 117.102409 
L 364.106531 116.995993 
L 364.20356 117.135015 
L 364.300588 116.940384 
L 364.494645 117.091412 
L 364.591673 117.021697 
L 364.688701 116.697157 
L 364.882758 116.932226 
L 365.173843 116.79656 
L 365.270871 116.889687 
L 365.561956 116.189065 
L 365.658985 116.420341 
L 365.756013 116.04977 
L 365.95007 116.317282 
L 366.047098 116.260691 
L 366.435211 116.545502 
L 366.532239 116.464353 
L 366.726296 116.652708 
L 366.823324 116.914272 
L 367.017381 116.645914 
L 367.211438 116.914954 
L 367.502523 116.678685 
L 367.599551 116.931107 
L 367.696579 116.720896 
L 367.793608 116.812468 
L 367.987664 116.660921 
L 368.084693 116.661713 
L 368.181721 116.487055 
L 368.278749 116.55718 
L 368.569834 116.109363 
L 368.666862 116.502172 
L 368.763891 116.455676 
L 368.860919 116.24833 
L 369.152004 116.397585 
L 369.249032 116.355782 
L 369.443089 116.629488 
L 369.734174 116.200143 
L 369.831202 116.009905 
L 369.928231 116.208384 
L 370.219316 115.805806 
L 370.413372 115.964365 
L 370.510401 115.898278 
L 370.607429 116.031461 
L 370.704457 115.639771 
L 370.898514 114.180763 
L 371.286627 113.757284 
L 371.577712 114.246822 
L 371.771769 114.711639 
L 371.868797 114.61461 
L 372.062854 114.971319 
L 372.159882 114.752868 
L 372.450967 116.121996 
L 372.645024 116.022102 
L 372.742052 116.297636 
L 373.033137 115.495128 
L 373.130165 115.940053 
L 373.324222 115.467706 
L 373.518278 115.157246 
L 373.809363 114.147228 
L 374.294505 113.242671 
L 374.682618 112.925581 
L 374.876675 112.681917 
L 374.973703 112.836956 
L 375.16776 112.642571 
L 375.264788 112.789751 
L 375.458845 112.634494 
L 375.652901 112.662626 
L 375.74993 112.783257 
L 376.235071 112.361962 
L 376.429128 112.969347 
L 376.623185 112.94228 
L 376.720213 113.226736 
L 376.817241 112.918514 
L 376.91427 113.276533 
L 377.011298 113.100729 
L 377.205355 113.567811 
L 377.399411 112.960561 
L 377.593468 113.046758 
L 377.787524 112.783202 
L 377.981581 113.082175 
L 378.078609 112.868771 
L 378.272666 112.968283 
L 378.369694 112.966591 
L 378.466723 112.839903 
L 378.660779 112.963863 
L 378.757808 112.67193 
L 378.854836 112.805522 
L 378.951864 112.564833 
L 379.048893 112.643389 
L 379.631063 111.65299 
L 379.728091 111.813786 
L 379.922147 111.330661 
L 380.116204 111.485209 
L 380.310261 111.523573 
L 380.407289 111.706171 
L 380.601346 111.359257 
L 380.989459 110.868573 
L 381.183516 111.350225 
L 381.377572 111.380703 
L 381.474601 110.962437 
L 381.571629 111.021975 
L 381.765686 110.6621 
L 381.862714 110.841724 
L 382.153799 110.596286 
L 382.250827 110.664201 
L 382.347855 110.427086 
L 382.444884 110.488261 
L 382.63894 110.245225 
L 382.735969 110.259823 
L 382.930025 110.415298 
L 383.124082 110.456418 
L 383.318139 110.177446 
L 383.706252 110.542997 
L 383.997337 110.378571 
L 384.191394 110.628729 
L 384.482478 110.243206 
L 384.579507 110.436991 
L 384.676535 110.397371 
L 384.773563 110.213846 
L 384.870592 110.308474 
L 384.96762 110.051822 
L 385.064648 110.117035 
L 385.646818 109.689191 
L 385.840875 109.775169 
L 385.937903 109.745455 
L 386.228988 110.124348 
L 386.423045 109.977195 
L 386.520073 109.977549 
L 386.811158 109.633992 
L 386.908186 109.742372 
L 387.005215 109.37131 
L 387.2963 109.733831 
L 387.393328 109.638248 
L 387.587385 109.704417 
L 387.781441 109.132312 
L 387.87847 109.207348 
L 387.975498 109.261183 
L 388.072526 109.005596 
L 388.169555 109.20462 
L 388.363611 109.102106 
L 388.557668 109.069991 
L 388.654696 108.924857 
L 388.848753 109.111356 
L 388.945781 109.016783 
L 389.042809 109.114767 
L 389.333894 108.836041 
L 389.527951 108.7329 
L 389.624979 108.991161 
L 389.819036 108.794511 
L 389.916064 108.961529 
L 390.013093 108.713554 
L 390.207149 109.19758 
L 390.304178 108.942511 
L 390.401206 109.013973 
L 390.498234 108.675981 
L 390.692291 109.0895 
L 390.886348 108.698438 
L 390.983376 109.05482 
L 391.177432 108.586674 
L 391.274461 108.536468 
L 391.468517 109.099869 
L 391.565546 108.910641 
L 391.662574 109.009007 
L 391.759602 108.877215 
L 392.050687 109.534725 
L 392.147716 109.296874 
L 392.341772 109.427028 
L 392.438801 109.325142 
L 392.535829 109.438406 
L 392.826914 109.294936 
L 393.020971 109.650036 
L 393.117999 109.325142 
L 393.215027 109.414749 
L 393.409084 108.948213 
L 393.700169 109.191877 
L 393.797197 109.093211 
L 394.088282 109.3333 
L 394.282339 109.062623 
L 394.379367 108.977055 
L 394.573424 109.238372 
L 394.670452 109.028925 
L 394.864509 109.260829 
L 394.961537 109.025242 
L 395.058565 109.176242 
L 395.252622 108.944011 
L 395.34965 109.218617 
L 395.543707 108.926958 
L 395.640735 108.962593 
L 395.737763 108.869057 
L 395.834792 109.289397 
L 395.93182 109.137278 
L 396.222905 109.222628 
L 396.416962 108.933424 
L 396.51399 109.381979 
L 396.611018 109.307815 
L 396.708047 109.372674 
L 396.902103 109.053264 
L 396.999132 109.157278 
L 397.09616 109.380532 
L 397.387245 108.951024 
L 397.67833 108.930368 
L 397.872387 109.165792 
L 397.969415 108.877652 
L 398.2605 109.06598 
L 398.357528 108.831184 
L 398.648613 108.984695 
L 398.745641 108.815358 
L 398.84267 109.055065 
L 398.939698 108.909904 
L 399.133755 109.13957 
L 399.230783 108.952306 
L 399.327811 109.187593 
L 399.42484 108.820842 
L 399.618896 109.391256 
L 399.812953 109.023877 
L 400.104038 109.232642 
L 400.201066 109.001312 
L 400.395123 109.257063 
L 400.492151 109.070645 
L 400.589179 109.195206 
L 400.686208 108.999374 
L 400.783236 109.055829 
L 400.880264 109.289588 
L 400.977293 108.835631 
L 401.171349 109.171658 
L 401.268378 109.177361 
L 401.365406 109.305114 
L 401.656491 108.676036 
L 401.850548 108.931705 
L 402.044604 108.936153 
L 402.141633 108.742259 
L 402.238661 109.014136 
L 402.335689 108.928185 
L 402.529746 109.076539 
L 402.626774 109.114849 
L 402.820831 109.318975 
L 402.917859 109.151303 
L 403.014887 109.338812 
L 403.111916 109.243529 
L 403.305972 109.429729 
L 403.500029 109.497289 
L 403.694086 109.223365 
L 403.888142 109.726982 
L 404.082199 109.689355 
L 404.179227 109.595218 
L 404.373284 109.959104 
L 404.470312 110.007373 
L 404.664369 109.490549 
L 404.761397 109.560265 
L 404.955454 109.514043 
L 405.14951 109.442853 
L 405.343567 109.650281 
L 405.440595 109.38981 
L 405.634652 109.527576 
L 405.73168 109.560238 
L 405.925737 109.702698 
L 406.022765 109.74229 
L 406.119794 109.969391 
L 406.507907 109.671346 
L 406.798992 109.944806 
L 406.89602 109.735305 
L 406.993049 109.850451 
L 407.090077 109.764664 
L 407.187105 109.828895 
L 407.575218 109.507003 
L 407.672247 109.864967 
L 407.769275 109.702998 
L 407.963332 109.797462 
L 408.157388 109.670882 
L 408.545502 109.752577 
L 408.64253 109.620949 
L 408.739558 109.688673 
L 408.836587 109.442171 
L 408.933615 109.732549 
L 409.127672 109.530523 
L 409.2247 109.460644 
L 409.418756 109.719588 
L 409.515785 109.707145 
L 409.612813 109.880029 
L 409.709841 109.788239 
L 410.194983 110.298323 
L 410.38904 109.983389 
L 410.583096 110.171362 
L 410.680125 110.02661 
L 410.97121 110.444576 
L 411.068238 110.581934 
L 411.165266 110.439474 
L 411.359323 110.497811 
L 411.650408 110.342035 
L 411.941493 110.316141 
L 412.135549 110.628893 
L 412.232578 110.380727 
L 412.329606 110.652686 
L 412.426634 110.599015 
L 412.523663 110.538877 
L 412.814748 109.191577 
L 413.008804 109.09463 
L 413.299889 109.516798 
L 413.493946 109.439443 
L 413.590974 109.422471 
L 414.270172 110.124866 
L 414.561257 109.951 
L 414.755314 110.119491 
L 414.852342 110.042899 
L 414.949371 110.261706 
L 415.046399 110.209999 
L 415.240456 110.181157 
L 415.434512 110.421083 
L 415.628569 110.156927 
L 415.725597 110.476855 
L 415.822626 110.446759 
L 415.919654 110.292702 
L 416.016682 110.546517 
L 416.113711 110.450306 
L 416.307767 110.711488 
L 416.501824 110.581743 
L 416.598852 110.605154 
L 416.889937 110.357015 
L 416.986965 110.469761 
L 417.181022 110.841887 
L 417.86022 110.649357 
L 418.054277 110.976871 
L 418.151305 110.789689 
L 418.248334 110.855667 
L 418.345362 110.585072 
L 418.44239 110.836894 
L 418.636447 110.552001 
L 418.927532 110.456746 
L 419.02456 110.588319 
L 419.121588 110.35617 
L 419.315645 110.568973 
L 419.412673 110.165495 
L 420.091872 111.027732 
L 420.382957 110.687367 
L 420.577013 110.824561 
L 421.062155 110.811409 
L 421.35324 110.791899 
L 421.450268 110.899897 
L 421.547296 110.790671 
L 421.644325 110.908056 
L 422.032438 110.543078 
L 422.129466 110.566599 
L 422.420551 111.018755 
L 422.51758 110.796593 
L 422.711636 110.983556 
L 423.002721 110.819404 
L 423.196778 111.104651 
L 423.293806 111.107325 
L 423.390834 111.386133 
L 423.584891 111.02986 
L 423.778948 110.757464 
L 423.973004 111.012697 
L 424.264089 110.66753 
L 424.361118 110.62199 
L 424.555174 110.674952 
L 424.652203 110.606764 
L 424.749231 110.675579 
L 424.846259 110.4929 
L 425.040316 110.712115 
L 425.234373 110.796674 
L 425.428429 110.58529 
L 425.622486 110.652659 
L 425.719514 110.561606 
L 426.010599 110.803114 
L 426.398712 110.763003 
L 426.592769 110.493391 
L 426.689797 110.44856 
L 426.786826 110.262906 
L 426.883854 110.421001 
L 427.174939 109.806657 
L 427.368996 110.003171 
L 427.466024 109.835308 
L 427.563052 109.933401 
L 427.66008 109.835608 
L 427.854137 109.977058 
L 428.533335 106.243 
L 428.727392 105.4376 
L 428.921449 105.103811 
L 429.40659 104.152512 
L 429.503619 104.300129 
L 429.600647 104.176006 
L 429.794704 104.908116 
L 429.891732 104.5755 
L 430.085788 105.040207 
L 430.182817 105.009319 
L 430.376873 105.56478 
L 430.862015 106.228375 
L 430.959043 106.499815 
L 431.056072 106.398284 
L 431.832298 107.738026 
L 431.929327 107.674668 
L 432.123383 108.072879 
L 432.220411 107.943762 
L 432.31744 107.905316 
L 432.608525 108.565937 
L 432.705553 108.473465 
L 432.802581 108.566264 
L 432.89961 108.827145 
L 432.996638 109.415486 
L 433.48178 107.920596 
L 433.966921 106.301501 
L 434.258006 106.259481 
L 434.452063 106.139177 
L 434.743148 106.390181 
L 434.937204 106.372745 
L 435.034233 106.406716 
L 435.519374 107.309745 
L 435.616403 107.290563 
L 435.713431 107.131841 
L 435.810459 107.683699 
L 435.907488 107.425001 
L 436.198573 107.959615 
L 436.295601 107.875138 
L 436.683714 108.366013 
L 437.071827 108.699338 
L 437.168856 108.447679 
L 437.265884 108.486398 
L 437.459941 108.436219 
L 437.653997 108.787635 
L 437.751026 108.715982 
L 438.236167 108.326311 
L 438.333196 108.779368 
L 438.430224 108.512183 
L 438.527252 108.713226 
L 438.721309 108.243116 
L 438.818337 108.45843 
L 439.109422 107.819693 
L 439.20645 107.847252 
L 439.497535 107.416979 
L 439.691592 107.44361 
L 439.885649 107.594774 
L 439.982677 107.575565 
L 440.079705 107.131131 
L 440.176734 107.172606 
L 440.273762 107.025753 
L 440.564847 107.501375 
L 440.758904 107.348464 
L 441.049989 107.8908 
L 441.147017 107.820539 
L 441.53513 107.731341 
L 441.729187 107.91151 
L 441.923243 108.393599 
L 442.020272 108.538651 
L 442.1173 108.123058 
L 442.214328 108.493793 
L 442.311357 108.464979 
L 442.505413 108.459576 
L 442.602442 108.353925 
L 442.69947 108.52127 
L 442.893527 108.921391 
L 443.184612 108.686377 
L 443.28164 109.076157 
L 443.475697 108.745751 
L 443.572725 109.175096 
L 443.766781 108.910231 
L 444.057866 109.086008 
L 444.44598 108.232393 
L 444.834093 107.695269 
L 444.931121 107.860185 
L 445.125178 107.452478 
L 445.416263 107.699989 
L 445.513291 107.5539 
L 445.61032 107.727166 
L 445.804376 107.426311 
L 445.901404 107.321833 
L 446.483574 108.328494 
L 446.580603 108.130507 
L 446.774659 108.68444 
L 446.968716 108.568447 
L 447.259801 108.659064 
L 447.550886 108.589567 
L 447.841971 108.954489 
L 447.938999 108.717783 
L 448.036028 108.843271 
L 448.133056 113.211538 
L 448.327112 125.258241 
L 448.812254 135.872158 
L 448.909282 135.850629 
L 449.103339 136.641758 
L 449.200367 136.329471 
L 449.394424 136.60454 
L 449.491452 136.604731 
L 449.685509 135.850765 
L 450.073622 135.872894 
L 450.170651 135.815485 
L 450.267679 136.034345 
L 450.364707 135.61245 
L 450.461735 135.730598 
L 450.558764 135.518177 
L 450.655792 135.852648 
L 450.946877 135.482759 
L 451.043905 135.596296 
L 451.237962 135.280843 
L 451.302259 135.274576 
L 451.302259 135.274576 
" clip-path="url(#p51080ce228)" style="fill: none; stroke: #ff8c00; stroke-width: 2.25; stroke-linecap: round"/>
   </g>
  </g>
 </g>
 <defs>
  <clipPath id="p51080ce228">
   <rect x="78.456805" y="25.65327" width="390.6" height="146.88"/>
  </clipPath>
 </defs>
</svg>
