<?xml version="1.0" encoding="utf-8" standalone="no"?>
<!DOCTYPE svg PUBLIC "-//W3C//DTD SVG 1.1//EN"
  "http://www.w3.org/Graphics/SVG/1.1/DTD/svg11.dtd">
<svg xmlns:xlink="http://www.w3.org/1999/xlink" width="453.636375pt" height="231.260799pt" viewBox="0 0 453.636375 231.260799" xmlns="http://www.w3.org/2000/svg" version="1.1">
 <metadata>
  <rdf:RDF xmlns:dc="http://purl.org/dc/elements/1.1/" xmlns:cc="http://creativecommons.org/ns#" xmlns:rdf="http://www.w3.org/1999/02/22-rdf-syntax-ns#">
   <cc:Work>
    <dc:type rdf:resource="http://purl.org/dc/dcmitype/StillImage"/>
    <dc:date>2023-12-08T17:57:31.555520</dc:date>
    <dc:format>image/svg+xml</dc:format>
    <dc:creator>
     <cc:Agent>
      <dc:title>Matplotlib v3.7.0, https://matplotlib.org/</dc:title>
     </cc:Agent>
    </dc:creator>
   </cc:Work>
  </rdf:RDF>
 </metadata>
 <defs>
  <style type="text/css">*{stroke-linejoin: round; stroke-linecap: butt}</style>
 </defs>
 <g id="figure_1">
  <g id="patch_1">
   <path d="M 0 231.260799 
L 453.636375 231.260799 
L 453.636375 0 
L 0 0 
z
" style="fill: #222222"/>
  </g>
  <g id="axes_1">
   <g id="patch_2">
    <path d="M 55.836375 168.382195 
L 446.436375 168.382195 
L 446.436375 21.502195 
L 55.836375 21.502195 
z
" style="fill: #222222"/>
   </g>
   <g id="matplotlib.axis_1">
    <g id="xtick_1">
     <g id="line2d_1">
      <defs>
       <path id="md75ea21efd" d="M 0 0 
L 0 3.5 
" style="stroke: #ffffff; stroke-width: 0.8"/>
      </defs>
      <g>
       <use xlink:href="#md75ea21efd" x="99.571029" y="168.382195" style="fill: #ffffff; stroke: #ffffff; stroke-width: 0.8"/>
      </g>
     </g>
     <g id="text_1">
      <!-- $\mathdefault{2023{-}09{-}16}$ -->
      <g style="fill: #ffffff" transform="translate(49.082735 210.043896) rotate(-30) scale(0.1 -0.1)">
       <defs>
        <path id="HFBR17-32" d="M 467 2942 
C 557 3302 710 3711 1075 3872 
C 1229 3936 1395 3949 1562 3936 
C 1875 3910 2182 3782 2374 3526 
C 2515 3333 2566 3096 2541 2866 
C 2464 2198 1811 1718 1389 1359 
C 1146 1154 454 500 454 500 
L 346 397 
C 288 340 282 340 282 224 
L 282 0 
L 2970 0 
L 2970 360 
L 653 360 
C 858 559 1709 1313 1824 1403 
C 2195 1706 2611 2008 2835 2446 
C 3085 2948 2976 3580 2554 3953 
C 2298 4179 1946 4288 1606 4288 
C 1293 4288 973 4224 723 4026 
C 531 3865 371 3628 282 3384 
C 262 3346 230 3282 237 3237 
C 243 3199 282 3167 301 3141 
C 352 3077 403 3000 467 2942 
z
" transform="scale(0.015625)"/>
        <path id="HFBR17-30" d="M 947 4087 
C 762 3959 634 3785 538 3586 
C 307 3136 282 2609 282 2037 
C 282 1317 410 656 768 276 
C 1107 -77 1645 -167 2099 19 
C 2381 129 2586 366 2714 623 
C 2944 1080 2970 1626 2970 2191 
C 2970 2371 2963 2551 2944 2731 
C 2899 3162 2752 3637 2515 3901 
C 2125 4332 1427 4428 947 4087 
z
M 2234 3721 
C 2534 3400 2560 2783 2560 2198 
L 2560 1851 
C 2560 1555 2509 1170 2445 951 
C 2355 649 2208 431 1914 296 
C 1555 167 1184 289 979 572 
C 704 938 691 1587 691 2159 
C 691 2699 698 3297 960 3650 
C 1248 4036 1869 4100 2234 3721 
z
" transform="scale(0.015625)"/>
        <path id="HFBR17-33" d="M 518 3246 
C 570 3323 608 3407 666 3484 
C 800 3664 986 3805 1197 3889 
C 1530 4024 2016 4024 2278 3726 
C 2509 3461 2413 3047 2202 2802 
C 2010 2576 1760 2466 1389 2466 
C 1280 2466 1178 2434 1069 2434 
L 1069 2112 
L 1510 2112 
C 1882 2112 2125 2055 2330 1836 
C 2682 1463 2650 801 2259 461 
C 2061 294 1786 242 1530 261 
C 1030 300 589 564 294 975 
C 262 911 262 821 250 750 
C 230 647 230 647 294 564 
C 480 313 845 82 1133 -2 
C 1645 -156 2240 -86 2637 306 
C 2714 384 2784 467 2842 557 
C 3078 930 3085 1418 2822 1778 
C 2714 1926 2573 2042 2413 2132 
C 2304 2196 2176 2260 2048 2273 
C 2419 2447 2765 2741 2829 3223 
C 2886 3672 2624 3948 2355 4108 
C 1939 4352 1395 4352 966 4139 
C 768 4043 589 3902 454 3728 
C 429 3696 333 3587 333 3535 
C 333 3503 358 3471 378 3445 
L 518 3246 
z
" transform="scale(0.015625)"/>
        <path id="HFBRSY10-0" d="M 627 1797 
C 512 1759 499 1586 627 1554 
C 659 1541 698 1548 736 1548 
L 4141 1548 
C 4218 1548 4339 1522 4403 1586 
C 4474 1656 4435 1784 4333 1804 
C 4256 1816 4166 1804 4090 1804 
L 730 1804 
C 698 1804 659 1810 627 1797 
z
" transform="scale(0.015625)"/>
        <path id="HFBR17-39" d="M 2528 2109 
C 2528 2109 2534 2109 2534 2109 
C 2534 2032 2528 1948 2528 1871 
C 2515 1363 2381 762 1946 444 
C 1818 341 1619 256 1427 256 
C 1082 205 800 370 602 502 
L 435 205 
C 710 -8 1126 -168 1613 -59 
C 2048 37 2400 372 2618 751 
C 2950 1335 3034 2035 2906 2850 
C 2822 3429 2573 3987 2054 4199 
C 1773 4315 1414 4315 1139 4193 
C 870 4063 640 3838 486 3586 
C 346 3348 294 3078 294 2807 
C 294 2575 320 2350 397 2130 
C 518 1827 762 1479 1050 1383 
C 1158 1344 1267 1344 1382 1344 
C 1722 1344 2048 1498 2285 1742 
C 2362 1820 2496 2000 2528 2109 
z
M 1562 3968 
C 1850 3968 2131 3852 2298 3602 
C 2374 3480 2419 3337 2451 3196 
C 2547 2823 2560 2412 2349 2077 
C 2214 1864 1971 1665 1677 1665 
C 1466 1665 1235 1691 1062 1825 
C 806 2023 717 2311 717 2733 
C 717 3110 730 3405 934 3648 
C 1075 3840 1254 3929 1562 3968 
z
" transform="scale(0.015625)"/>
        <path id="HFBR17-31" d="M 621 3841 
L 621 3520 
C 973 3520 1216 3584 1498 3706 
L 1498 321 
L 659 321 
L 659 0 
L 2752 0 
L 2752 321 
L 1914 321 
L 1914 4288 
C 1760 4288 1786 4247 1664 4152 
C 1402 3950 1037 3841 621 3841 
z
" transform="scale(0.015625)"/>
        <path id="HFBR17-36" d="M 723 2088 
L 717 2088 
C 717 2673 819 3355 1318 3728 
C 1594 3928 1965 4030 2445 3915 
C 2547 3889 2643 3850 2739 3825 
L 2739 4050 
C 2739 4075 2746 4120 2726 4146 
C 2682 4204 2323 4262 2310 4262 
C 1754 4326 1389 4204 1050 3915 
C 640 3561 403 3041 326 2514 
C 256 2090 314 1408 397 1074 
C 531 579 787 142 1261 -25 
C 1542 -128 1888 -128 2157 1 
C 2374 105 2554 286 2694 480 
C 2918 790 2976 1166 2950 1547 
C 2938 1735 2912 1923 2835 2097 
C 2714 2376 2509 2667 2246 2796 
C 2125 2848 1997 2848 1869 2848 
C 1530 2848 1210 2700 973 2455 
C 870 2352 768 2222 723 2088 
z
M 1562 2529 
C 1805 2548 2061 2510 2246 2336 
C 2490 2105 2534 1777 2534 1460 
C 2534 1246 2541 1025 2477 823 
C 2438 719 2387 629 2330 544 
C 2189 356 2010 264 1715 225 
C 1427 225 1139 340 973 584 
C 870 725 819 899 787 1065 
C 749 1238 723 1417 736 1591 
C 768 2047 1088 2465 1562 2529 
z
" transform="scale(0.015625)"/>
       </defs>
       <use xlink:href="#HFBR17-32" transform="scale(0.996264)"/>
       <use xlink:href="#HFBR17-30" transform="translate(50.643218 0) scale(0.996264)"/>
       <use xlink:href="#HFBR17-32" transform="translate(101.286436 0) scale(0.996264)"/>
       <use xlink:href="#HFBR17-33" transform="translate(151.929653 0) scale(0.996264)"/>
       <use xlink:href="#HFBRSY10-0" transform="translate(202.572871 0) scale(0.996264)"/>
       <use xlink:href="#HFBR17-30" transform="translate(280.060339 0) scale(0.996264)"/>
       <use xlink:href="#HFBR17-39" transform="translate(330.703557 0) scale(0.996264)"/>
       <use xlink:href="#HFBRSY10-0" transform="translate(381.346775 0) scale(0.996264)"/>
       <use xlink:href="#HFBR17-31" transform="translate(458.834242 0) scale(0.996264)"/>
       <use xlink:href="#HFBR17-36" transform="translate(509.47746 0) scale(0.996264)"/>
      </g>
     </g>
    </g>
    <g id="xtick_2">
     <g id="line2d_2">
      <g>
       <use xlink:href="#md75ea21efd" x="169.431419" y="168.382195" style="fill: #ffffff; stroke: #ffffff; stroke-width: 0.8"/>
      </g>
     </g>
     <g id="text_2">
      <!-- $\mathdefault{2023{-}09{-}17}$ -->
      <g style="fill: #ffffff" transform="translate(118.943125 210.043896) rotate(-30) scale(0.1 -0.1)">
       <defs>
        <path id="HFBR17-37" d="M 230 4200 
L 230 3840 
L 2739 3840 
L 2502 3608 
C 2291 3383 2099 3144 1926 2887 
C 1350 2017 1037 980 1037 -64 
L 1466 -64 
C 1466 877 1702 1817 2150 2648 
C 2368 3067 2598 3369 2899 3723 
C 2938 3762 2995 3807 3014 3858 
C 3027 3890 3021 3935 3021 3975 
L 3021 4200 
L 230 4200 
z
" transform="scale(0.015625)"/>
       </defs>
       <use xlink:href="#HFBR17-32" transform="scale(0.996264)"/>
       <use xlink:href="#HFBR17-30" transform="translate(50.643218 0) scale(0.996264)"/>
       <use xlink:href="#HFBR17-32" transform="translate(101.286436 0) scale(0.996264)"/>
       <use xlink:href="#HFBR17-33" transform="translate(151.929653 0) scale(0.996264)"/>
       <use xlink:href="#HFBRSY10-0" transform="translate(202.572871 0) scale(0.996264)"/>
       <use xlink:href="#HFBR17-30" transform="translate(280.060339 0) scale(0.996264)"/>
       <use xlink:href="#HFBR17-39" transform="translate(330.703557 0) scale(0.996264)"/>
       <use xlink:href="#HFBRSY10-0" transform="translate(381.346775 0) scale(0.996264)"/>
       <use xlink:href="#HFBR17-31" transform="translate(458.834242 0) scale(0.996264)"/>
       <use xlink:href="#HFBR17-37" transform="translate(509.47746 0) scale(0.996264)"/>
      </g>
     </g>
    </g>
    <g id="xtick_3">
     <g id="line2d_3">
      <g>
       <use xlink:href="#md75ea21efd" x="239.291809" y="168.382195" style="fill: #ffffff; stroke: #ffffff; stroke-width: 0.8"/>
      </g>
     </g>
     <g id="text_3">
      <!-- $\mathdefault{2023{-}09{-}18}$ -->
      <g style="fill: #ffffff" transform="translate(188.803515 210.043896) rotate(-30) scale(0.1 -0.1)">
       <defs>
        <path id="HFBR17-38" d="M 1197 2304 
L 1197 2298 
C 800 2182 467 1964 307 1590 
C 141 1198 256 722 538 413 
C 838 91 1248 -64 1683 -64 
C 2323 -64 2938 410 3014 1071 
C 3027 1169 3021 1273 3008 1370 
C 2893 1870 2528 2168 2054 2298 
C 2106 2317 2163 2330 2214 2349 
C 2483 2459 2707 2619 2848 2876 
C 3059 3288 2854 3770 2509 4033 
C 2163 4297 1696 4367 1274 4277 
C 768 4168 288 3738 320 3185 
C 333 2992 416 2831 512 2716 
C 659 2536 947 2343 1197 2304 
z
M 1523 4000 
C 1805 4000 2157 3968 2362 3749 
C 2605 3486 2618 3010 2374 2740 
C 2221 2573 1997 2489 1773 2470 
C 1459 2444 1101 2496 877 2740 
C 627 3016 646 3518 915 3775 
C 1082 3929 1306 3980 1523 4000 
z
M 1517 2144 
C 1818 2144 2144 2073 2362 1852 
C 2445 1762 2509 1652 2547 1537 
C 2656 1200 2605 774 2355 515 
C 2182 341 1946 276 1709 257 
C 1421 257 1088 327 883 548 
C 602 857 544 1498 877 1860 
C 1043 2034 1280 2125 1517 2144 
z
" transform="scale(0.015625)"/>
       </defs>
       <use xlink:href="#HFBR17-32" transform="scale(0.996264)"/>
       <use xlink:href="#HFBR17-30" transform="translate(50.643218 0) scale(0.996264)"/>
       <use xlink:href="#HFBR17-32" transform="translate(101.286436 0) scale(0.996264)"/>
       <use xlink:href="#HFBR17-33" transform="translate(151.929653 0) scale(0.996264)"/>
       <use xlink:href="#HFBRSY10-0" transform="translate(202.572871 0) scale(0.996264)"/>
       <use xlink:href="#HFBR17-30" transform="translate(280.060339 0) scale(0.996264)"/>
       <use xlink:href="#HFBR17-39" transform="translate(330.703557 0) scale(0.996264)"/>
       <use xlink:href="#HFBRSY10-0" transform="translate(381.346775 0) scale(0.996264)"/>
       <use xlink:href="#HFBR17-31" transform="translate(458.834242 0) scale(0.996264)"/>
       <use xlink:href="#HFBR17-38" transform="translate(509.47746 0) scale(0.996264)"/>
      </g>
     </g>
    </g>
    <g id="xtick_4">
     <g id="line2d_4">
      <g>
       <use xlink:href="#md75ea21efd" x="309.152199" y="168.382195" style="fill: #ffffff; stroke: #ffffff; stroke-width: 0.8"/>
      </g>
     </g>
     <g id="text_4">
      <!-- $\mathdefault{2023{-}09{-}19}$ -->
      <g style="fill: #ffffff" transform="translate(258.663904 210.043896) rotate(-30) scale(0.1 -0.1)">
       <use xlink:href="#HFBR17-32" transform="scale(0.996264)"/>
       <use xlink:href="#HFBR17-30" transform="translate(50.643218 0) scale(0.996264)"/>
       <use xlink:href="#HFBR17-32" transform="translate(101.286436 0) scale(0.996264)"/>
       <use xlink:href="#HFBR17-33" transform="translate(151.929653 0) scale(0.996264)"/>
       <use xlink:href="#HFBRSY10-0" transform="translate(202.572871 0) scale(0.996264)"/>
       <use xlink:href="#HFBR17-30" transform="translate(280.060339 0) scale(0.996264)"/>
       <use xlink:href="#HFBR17-39" transform="translate(330.703557 0) scale(0.996264)"/>
       <use xlink:href="#HFBRSY10-0" transform="translate(381.346775 0) scale(0.996264)"/>
       <use xlink:href="#HFBR17-31" transform="translate(458.834242 0) scale(0.996264)"/>
       <use xlink:href="#HFBR17-39" transform="translate(509.47746 0) scale(0.996264)"/>
      </g>
     </g>
    </g>
    <g id="xtick_5">
     <g id="line2d_5">
      <g>
       <use xlink:href="#md75ea21efd" x="379.012588" y="168.382195" style="fill: #ffffff; stroke: #ffffff; stroke-width: 0.8"/>
      </g>
     </g>
     <g id="text_5">
      <!-- $\mathdefault{2023{-}09{-}20}$ -->
      <g style="fill: #ffffff" transform="translate(328.524294 210.043896) rotate(-30) scale(0.1 -0.1)">
       <use xlink:href="#HFBR17-32" transform="scale(0.996264)"/>
       <use xlink:href="#HFBR17-30" transform="translate(50.643218 0) scale(0.996264)"/>
       <use xlink:href="#HFBR17-32" transform="translate(101.286436 0) scale(0.996264)"/>
       <use xlink:href="#HFBR17-33" transform="translate(151.929653 0) scale(0.996264)"/>
       <use xlink:href="#HFBRSY10-0" transform="translate(202.572871 0) scale(0.996264)"/>
       <use xlink:href="#HFBR17-30" transform="translate(280.060339 0) scale(0.996264)"/>
       <use xlink:href="#HFBR17-39" transform="translate(330.703557 0) scale(0.996264)"/>
       <use xlink:href="#HFBRSY10-0" transform="translate(381.346775 0) scale(0.996264)"/>
       <use xlink:href="#HFBR17-32" transform="translate(458.834242 0) scale(0.996264)"/>
       <use xlink:href="#HFBR17-30" transform="translate(509.47746 0) scale(0.996264)"/>
      </g>
     </g>
    </g>
    <g id="text_6">
     <!-- Date -->
     <g style="fill: #ffffff" transform="translate(240.758726 222.400369) scale(0.1 -0.1)">
      <defs>
       <path id="HFBR17-44" d="M 512 4480 
L 512 0 
L 1805 0 
C 2010 0 2214 0 2413 19 
C 2925 71 3366 321 3661 629 
C 4486 1483 4480 2952 3667 3819 
C 3373 4133 2976 4384 2477 4448 
C 2234 4480 1984 4480 1741 4480 
L 512 4480 
z
M 954 340 
L 954 4132 
L 1779 4132 
C 1952 4132 2125 4132 2298 4119 
C 2586 4087 2867 3991 3104 3823 
C 3622 3464 3840 2827 3840 2217 
C 3840 1703 3699 1176 3322 809 
C 3066 572 2720 398 2304 353 
C 2138 340 1965 340 1798 340 
L 954 340 
z
" transform="scale(0.015625)"/>
       <path id="HFBR17-61" d="M 506 2497 
C 614 2551 704 2630 813 2683 
C 986 2762 1165 2816 1357 2816 
C 1446 2822 1549 2835 1638 2816 
C 1798 2790 1939 2693 2035 2557 
C 2131 2401 2170 2265 2170 2014 
L 2170 1729 
C 1862 1729 1555 1703 1261 1625 
C 890 1541 486 1352 352 1014 
C 218 690 358 261 646 66 
C 787 -32 954 -32 1120 -19 
C 1389 0 1658 65 1888 208 
C 1997 272 2106 357 2170 467 
L 2176 467 
L 2176 13 
L 2579 13 
L 2579 1721 
C 2579 1908 2598 2109 2560 2297 
C 2522 2555 2362 2769 2176 2918 
C 1958 3086 1709 3143 1376 3118 
C 1069 3118 832 3040 602 2929 
C 570 2916 506 2895 486 2857 
C 467 2830 480 2785 480 2752 
C 493 2667 499 2582 506 2497 
z
M 2170 1536 
L 2170 1048 
C 2170 900 2176 765 2093 637 
C 2022 534 1926 463 1824 412 
C 1459 225 902 283 742 592 
C 614 816 749 1080 934 1228 
C 1210 1440 1747 1536 2170 1536 
z
" transform="scale(0.015625)"/>
       <path id="HFBR17-74" d="M 691 3872 
L 691 3009 
L 70 3009 
L 70 2688 
L 685 2688 
L 685 961 
C 685 677 666 335 851 97 
C 960 -45 1107 -83 1331 -64 
C 1517 -64 1702 -25 1875 42 
C 1933 68 2144 161 2170 207 
C 2182 233 2099 518 2099 518 
L 1946 401 
C 1747 278 1350 149 1184 382 
C 1037 582 1075 880 1075 1112 
L 1075 2688 
L 2067 2688 
L 2067 3009 
L 1075 3009 
L 1075 3872 
L 691 3872 
z
" transform="scale(0.015625)"/>
       <path id="HFBR17-65" d="M 2675 700 
C 2528 591 2483 533 2298 436 
C 1907 224 1446 224 1114 459 
C 794 689 608 1065 608 1600 
L 2720 1600 
C 2720 2075 2611 2487 2342 2776 
C 2048 3065 1587 3155 1197 3033 
C 1050 2988 915 2911 794 2814 
C 390 2487 218 1966 224 1458 
C 237 790 691 122 1363 -20 
C 1715 -91 2086 -13 2400 147 
C 2458 179 2669 295 2694 353 
C 2714 385 2675 700 2675 700 
z
M 2381 1850 
L 640 1850 
C 717 2319 1101 2814 1619 2756 
C 2042 2718 2266 2416 2349 2037 
C 2362 1972 2368 1915 2381 1850 
z
" transform="scale(0.015625)"/>
      </defs>
      <use xlink:href="#HFBR17-44" transform="scale(0.996264)"/>
      <use xlink:href="#HFBR17-61" transform="translate(71.606187 0) scale(0.996264)"/>
      <use xlink:href="#HFBR17-74" transform="translate(118.098269 0) scale(0.996264)"/>
      <use xlink:href="#HFBR17-65" transform="translate(154.212657 0) scale(0.996264)"/>
     </g>
    </g>
   </g>
   <g id="matplotlib.axis_2">
    <g id="ytick_1">
     <g id="line2d_6">
      <defs>
       <path id="mfb64a9125b" d="M 0 0 
L -3.5 0 
" style="stroke: #ffffff; stroke-width: 0.8"/>
      </defs>
      <g>
       <use xlink:href="#mfb64a9125b" x="55.836375" y="165.554982" style="fill: #ffffff; stroke: #ffffff; stroke-width: 0.8"/>
      </g>
     </g>
     <g id="text_7">
      <!-- $\mathdefault{0.0000}$ -->
      <g style="fill: #ffffff" transform="translate(19.778928 169.014232) scale(0.1 -0.1)">
       <defs>
        <path id="HFBRMI10-3a" d="M 685 500 
L 685 0 
L 1184 0 
L 1184 500 
L 685 500 
z
" transform="scale(0.015625)"/>
       </defs>
       <use xlink:href="#HFBR17-30" transform="scale(0.996264)"/>
       <use xlink:href="#HFBRMI10-3a" transform="translate(50.643218 0) scale(0.996264)"/>
       <use xlink:href="#HFBR17-30" transform="translate(79.700665 0) scale(0.996264)"/>
       <use xlink:href="#HFBR17-30" transform="translate(130.343883 0) scale(0.996264)"/>
       <use xlink:href="#HFBR17-30" transform="translate(180.9871 0) scale(0.996264)"/>
       <use xlink:href="#HFBR17-30" transform="translate(231.630318 0) scale(0.996264)"/>
      </g>
     </g>
    </g>
    <g id="ytick_2">
     <g id="line2d_7">
      <g>
       <use xlink:href="#mfb64a9125b" x="55.836375" y="139.360447" style="fill: #ffffff; stroke: #ffffff; stroke-width: 0.8"/>
      </g>
     </g>
     <g id="text_8">
      <!-- $\mathdefault{0.0005}$ -->
      <g style="fill: #ffffff" transform="translate(19.778928 142.819696) scale(0.1 -0.1)">
       <defs>
        <path id="HFBR17-35" d="M 538 4245 
L 538 1949 
L 781 1949 
C 813 1949 858 1943 883 1956 
C 915 1975 934 2020 954 2046 
C 998 2103 1050 2148 1101 2193 
C 1331 2386 1773 2463 2067 2315 
C 2470 2123 2547 1614 2515 1216 
C 2496 964 2419 733 2272 585 
C 1933 224 1363 224 947 435 
C 742 538 570 699 442 891 
L 435 891 
C 416 859 269 634 269 595 
C 269 569 288 550 301 531 
C 493 306 742 132 1030 36 
C 1600 -144 2240 -3 2643 460 
C 3123 1019 3059 1930 2502 2417 
C 2336 2572 2106 2681 1830 2706 
C 1459 2758 1126 2578 928 2411 
L 928 3904 
L 2746 3904 
L 2746 4245 
L 538 4245 
z
" transform="scale(0.015625)"/>
       </defs>
       <use xlink:href="#HFBR17-30" transform="scale(0.996264)"/>
       <use xlink:href="#HFBRMI10-3a" transform="translate(50.643218 0) scale(0.996264)"/>
       <use xlink:href="#HFBR17-30" transform="translate(79.700665 0) scale(0.996264)"/>
       <use xlink:href="#HFBR17-30" transform="translate(130.343883 0) scale(0.996264)"/>
       <use xlink:href="#HFBR17-30" transform="translate(180.9871 0) scale(0.996264)"/>
       <use xlink:href="#HFBR17-35" transform="translate(231.630318 0) scale(0.996264)"/>
      </g>
     </g>
    </g>
    <g id="ytick_3">
     <g id="line2d_8">
      <g>
       <use xlink:href="#mfb64a9125b" x="55.836375" y="113.165912" style="fill: #ffffff; stroke: #ffffff; stroke-width: 0.8"/>
      </g>
     </g>
     <g id="text_9">
      <!-- $\mathdefault{0.0010}$ -->
      <g style="fill: #ffffff" transform="translate(19.778928 116.625161) scale(0.1 -0.1)">
       <use xlink:href="#HFBR17-30" transform="scale(0.996264)"/>
       <use xlink:href="#HFBRMI10-3a" transform="translate(50.643218 0) scale(0.996264)"/>
       <use xlink:href="#HFBR17-30" transform="translate(79.700665 0) scale(0.996264)"/>
       <use xlink:href="#HFBR17-30" transform="translate(130.343883 0) scale(0.996264)"/>
       <use xlink:href="#HFBR17-31" transform="translate(180.9871 0) scale(0.996264)"/>
       <use xlink:href="#HFBR17-30" transform="translate(231.630318 0) scale(0.996264)"/>
      </g>
     </g>
    </g>
    <g id="ytick_4">
     <g id="line2d_9">
      <g>
       <use xlink:href="#mfb64a9125b" x="55.836375" y="86.971377" style="fill: #ffffff; stroke: #ffffff; stroke-width: 0.8"/>
      </g>
     </g>
     <g id="text_10">
      <!-- $\mathdefault{0.0015}$ -->
      <g style="fill: #ffffff" transform="translate(19.778928 90.430626) scale(0.1 -0.1)">
       <use xlink:href="#HFBR17-30" transform="scale(0.996264)"/>
       <use xlink:href="#HFBRMI10-3a" transform="translate(50.643218 0) scale(0.996264)"/>
       <use xlink:href="#HFBR17-30" transform="translate(79.700665 0) scale(0.996264)"/>
       <use xlink:href="#HFBR17-30" transform="translate(130.343883 0) scale(0.996264)"/>
       <use xlink:href="#HFBR17-31" transform="translate(180.9871 0) scale(0.996264)"/>
       <use xlink:href="#HFBR17-35" transform="translate(231.630318 0) scale(0.996264)"/>
      </g>
     </g>
    </g>
    <g id="ytick_5">
     <g id="line2d_10">
      <g>
       <use xlink:href="#mfb64a9125b" x="55.836375" y="60.776842" style="fill: #ffffff; stroke: #ffffff; stroke-width: 0.8"/>
      </g>
     </g>
     <g id="text_11">
      <!-- $\mathdefault{0.0020}$ -->
      <g style="fill: #ffffff" transform="translate(19.778928 64.236091) scale(0.1 -0.1)">
       <use xlink:href="#HFBR17-30" transform="scale(0.996264)"/>
       <use xlink:href="#HFBRMI10-3a" transform="translate(50.643218 0) scale(0.996264)"/>
       <use xlink:href="#HFBR17-30" transform="translate(79.700665 0) scale(0.996264)"/>
       <use xlink:href="#HFBR17-30" transform="translate(130.343883 0) scale(0.996264)"/>
       <use xlink:href="#HFBR17-32" transform="translate(180.9871 0) scale(0.996264)"/>
       <use xlink:href="#HFBR17-30" transform="translate(231.630318 0) scale(0.996264)"/>
      </g>
     </g>
    </g>
    <g id="ytick_6">
     <g id="line2d_11">
      <g>
       <use xlink:href="#mfb64a9125b" x="55.836375" y="34.582306" style="fill: #ffffff; stroke: #ffffff; stroke-width: 0.8"/>
      </g>
     </g>
     <g id="text_12">
      <!-- $\mathdefault{0.0025}$ -->
      <g style="fill: #ffffff" transform="translate(19.778928 38.041556) scale(0.1 -0.1)">
       <use xlink:href="#HFBR17-30" transform="scale(0.996264)"/>
       <use xlink:href="#HFBRMI10-3a" transform="translate(50.643218 0) scale(0.996264)"/>
       <use xlink:href="#HFBR17-30" transform="translate(79.700665 0) scale(0.996264)"/>
       <use xlink:href="#HFBR17-30" transform="translate(130.343883 0) scale(0.996264)"/>
       <use xlink:href="#HFBR17-32" transform="translate(180.9871 0) scale(0.996264)"/>
       <use xlink:href="#HFBR17-35" transform="translate(231.630318 0) scale(0.996264)"/>
      </g>
     </g>
    </g>
    <g id="text_13">
     <!-- mA -->
     <g style="fill: #ffffff" transform="translate(14.118498 102.331082) rotate(-90) scale(0.1 -0.1)">
      <defs>
       <path id="HFBR17-6d" d="M 806 2391 
L 800 2391 
L 800 3033 
L 410 3033 
L 410 0 
L 819 0 
L 819 1411 
C 819 1725 800 2040 941 2328 
C 1062 2578 1274 2777 1651 2738 
C 1843 2738 2035 2687 2157 2525 
C 2272 2377 2278 2185 2278 2004 
L 2278 0 
L 2688 0 
L 2688 1411 
C 2688 1725 2669 2040 2810 2328 
C 2931 2578 3142 2777 3520 2738 
C 3712 2738 3904 2687 4026 2525 
C 4141 2377 4147 2185 4147 2004 
L 4147 0 
L 4557 0 
L 4557 1700 
C 4557 2008 4595 2354 4461 2636 
C 4326 2899 4109 3040 3757 3040 
C 3552 3059 3347 3028 3162 2934 
C 2938 2811 2771 2608 2669 2385 
C 2624 2597 2573 2741 2432 2880 
C 2285 3012 2086 3072 1894 3072 
C 1427 3110 1133 2916 934 2624 
C 883 2552 832 2475 806 2391 
z
" transform="scale(0.015625)"/>
       <path id="HFBR17-41" d="M 134 6 
L 422 6 
L 538 19 
C 730 435 864 909 1037 1344 
C 1670 1344 2362 1344 2963 1344 
L 3014 1260 
C 3123 931 3251 614 3366 291 
C 3398 193 3430 97 3482 19 
C 3622 0 3789 0 3942 0 
C 3834 314 2349 4301 2304 4409 
C 2298 4435 2285 4473 2253 4480 
C 2214 4486 2176 4480 2138 4480 
L 1926 4480 
C 1830 4480 1792 4492 1766 4391 
C 1741 4326 134 6 134 6 
z
M 2010 4043 
C 2278 3246 2566 2462 2848 1678 
L 1165 1678 
L 1722 3207 
L 2010 4043 
z
" transform="scale(0.015625)"/>
      </defs>
      <use xlink:href="#HFBR17-6d" transform="scale(0.996264)"/>
      <use xlink:href="#HFBR17-41" transform="translate(77.210126 0) scale(0.996264)"/>
     </g>
    </g>
   </g>
   <g id="line2d_12">
    <path d="M 73.590921 48.904548 
L 73.784977 142.001647 
L 73.882006 137.970444 
L 74.076062 147.577563 
L 74.173091 158.295821 
L 74.270119 147.617128 
L 74.367147 152.228457 
L 74.464176 143.519129 
L 74.561204 144.843863 
L 74.75526 139.171546 
L 74.852289 139.413709 
L 75.046345 156.037443 
L 75.143374 150.214234 
L 75.240402 152.817507 
L 75.33743 142.504009 
L 75.434459 142.837307 
L 75.531487 145.242866 
L 75.725544 157.942577 
L 75.822572 154.686351 
L 76.016629 158.427258 
L 76.113657 158.272765 
L 76.210685 158.439345 
L 76.404742 146.390268 
L 76.50177 146.845808 
L 76.598799 157.512223 
L 76.792855 147.871842 
L 76.889883 147.99834 
L 76.986912 148.407684 
L 77.08394 150.84263 
L 77.180968 159.034889 
L 77.375025 154.495785 
L 77.569082 149.697028 
L 77.66611 149.98214 
L 78.151252 151.108177 
L 78.345308 151.096144 
L 78.442337 150.912619 
L 78.636393 151.393206 
L 78.733422 151.596351 
L 79.024507 151.178548 
L 79.218563 151.493482 
L 79.703705 151.920617 
L 79.897761 151.910057 
L 80.091818 152.113611 
L 80.479931 152.308924 
L 80.868045 152.648607 
L 80.965073 152.362841 
L 81.062101 152.408572 
L 81.15913 152.433048 
L 81.353186 153.076587 
L 81.450214 152.915764 
L 81.644271 152.869187 
L 81.935356 153.181229 
L 82.129413 153.00488 
L 82.226441 153.432697 
L 82.323469 153.271409 
L 82.517526 153.565852 
L 82.614554 153.50626 
L 82.905639 153.89885 
L 83.002668 153.874402 
L 83.196724 154.296216 
L 84.069979 157.403215 
L 84.361064 157.843365 
L 84.555121 157.971828 
L 84.652149 158.089867 
L 84.749177 158.003097 
L 84.846206 157.733021 
L 84.943234 157.769638 
L 85.040262 157.790185 
L 85.137291 157.451675 
L 85.234319 157.498089 
L 85.331347 157.552879 
L 85.622432 157.020639 
L 86.010545 157.815233 
L 86.107574 157.583739 
L 86.204602 157.703497 
L 86.30163 157.61812 
L 86.398659 157.740088 
L 86.592715 157.620384 
L 86.689744 157.676375 
L 87.077857 157.113629 
L 87.271914 157.187711 
L 87.368942 157.04757 
L 87.757055 157.62857 
L 87.854084 157.52824 
L 87.951112 157.211122 
L 88.242197 157.488811 
L 88.339225 157.259909 
L 88.533282 157.633127 
L 88.63031 157.538172 
L 88.727338 157.693538 
L 88.921395 157.353718 
L 89.018423 157.248886 
L 89.503565 157.640412 
L 89.697622 157.252515 
L 90.37682 159.047768 
L 90.861961 159.726561 
L 90.95899 159.598863 
L 91.250075 159.56743 
L 91.832245 159.454984 
L 92.026301 159.643912 
L 92.220358 159.439813 
L 92.511443 159.629314 
L 92.608471 159.533404 
L 92.7055 159.976828 
L 92.899556 159.736111 
L 93.093613 159.75734 
L 93.287669 159.43793 
L 93.481726 160.044907 
L 93.578754 159.978929 
L 93.675783 160.164392 
L 93.869839 159.802034 
L 93.966868 159.906922 
L 94.063896 159.800616 
L 94.160924 159.443142 
L 94.257953 159.585329 
L 94.452009 159.443715 
L 94.646066 159.735566 
L 94.840123 159.412336 
L 94.937151 159.489446 
L 95.034179 159.286384 
L 95.131207 159.336836 
L 95.228236 159.443415 
L 95.325264 159.334435 
L 95.616349 159.735266 
L 95.713377 159.746862 
L 95.810406 159.900919 
L 96.004462 159.568603 
L 96.101491 159.744734 
L 96.198519 159.805773 
L 96.392576 159.716111 
L 96.586632 160.090693 
L 96.683661 159.997347 
L 96.780689 160.084308 
L 96.877717 159.885175 
L 97.071774 160.249906 
L 97.168802 160.15154 
L 97.265831 160.240902 
L 97.459887 160.074812 
L 97.653944 160.214653 
L 97.750972 159.984196 
L 97.945029 160.055221 
L 98.43017 159.94755 
L 98.624227 160.201883 
L 99.109369 160.689292 
L 99.206397 160.656631 
L 99.303425 160.292063 
L 99.400454 160.368873 
L 99.982623 159.832404 
L 100.370737 160.039395 
L 100.467765 159.953008 
L 100.855878 160.494716 
L 101.146963 160.463937 
L 101.34102 160.524785 
L 101.632105 161.221642 
L 101.729133 161.056016 
L 102.020218 161.067203 
L 102.117246 160.925207 
L 102.214275 161.099373 
L 102.311303 160.98409 
L 102.408331 161.125513 
L 102.50536 161.063165 
L 102.602388 161.318207 
L 102.796445 161.113016 
L 103.08753 161.321945 
L 103.184558 161.245108 
L 103.281586 161.321727 
L 103.475643 161.168543 
L 103.6697 161.63115 
L 103.960785 161.401702 
L 104.057813 161.346994 
L 104.251869 161.453736 
L 104.348898 161.394853 
L 104.445926 161.705831 
L 104.542954 159.101112 
L 105.901351 29.213543 
L 106.095408 28.178559 
L 106.192436 28.218123 
L 106.871634 33.065504 
L 107.259747 35.483041 
L 107.356776 35.456328 
L 107.647861 37.598032 
L 107.744889 37.804177 
L 107.938946 38.465726 
L 108.035974 38.494922 
L 108.133002 38.383759 
L 108.327059 39.25852 
L 108.424087 39.250252 
L 108.715172 40.12897 
L 108.909229 40.402812 
L 109.006257 40.506989 
L 109.103285 40.960291 
L 109.200314 40.822743 
L 109.297342 41.161798 
L 109.491399 41.062259 
L 109.685455 41.636411 
L 109.782484 41.616273 
L 109.97654 42.594967 
L 110.073569 42.919015 
L 110.170597 42.861278 
L 110.267625 42.939425 
L 110.461682 43.544601 
L 110.655739 42.256975 
L 110.752767 42.303825 
L 110.946824 42.76766 
L 111.043852 42.81511 
L 111.431965 44.365854 
L 111.528993 44.267297 
L 111.626022 44.48081 
L 111.72305 44.300968 
L 111.820078 44.929282 
L 111.917107 44.770887 
L 112.014135 45.606192 
L 112.111163 45.164132 
L 112.208192 45.299989 
L 112.402248 45.79995 
L 112.499277 45.76647 
L 112.790362 46.554571 
L 112.88739 46.469793 
L 113.275503 47.244906 
L 113.372531 47.120673 
L 113.857673 48.637855 
L 113.954701 48.526856 
L 114.245786 49.153696 
L 114.342815 48.543036 
L 114.439843 48.694555 
L 114.6339 49.334957 
L 114.730928 49.337058 
L 114.827956 49.063489 
L 114.924985 49.446693 
L 115.022013 49.322433 
L 115.119041 49.6843 
L 115.21607 49.553654 
L 115.507155 50.318835 
L 115.604183 50.274632 
L 115.895268 51.015118 
L 115.992296 50.815358 
L 116.186353 51.311335 
L 116.477438 51.913864 
L 116.574466 51.78049 
L 116.671494 52.032913 
L 116.768523 51.635492 
L 117.059608 52.403674 
L 117.156636 51.968217 
L 117.253664 52.277859 
L 117.350693 52.22446 
L 117.447721 51.859483 
L 117.641778 52.340098 
L 117.738806 52.340862 
L 117.835834 52.718609 
L 117.932862 52.597841 
L 118.029891 52.2879 
L 118.126919 52.657816 
L 118.223947 52.443757 
L 118.418004 52.664419 
L 118.515032 53.084923 
L 118.709089 52.922463 
L 118.903146 53.510775 
L 119.000174 52.983474 
L 119.485316 54.424119 
L 119.582344 54.04277 
L 119.679372 54.466931 
L 119.776401 54.058405 
L 119.970457 54.574001 
L 120.067486 53.926232 
L 120.164514 54.93715 
L 120.261542 54.83933 
L 120.35857 54.47629 
L 120.455599 54.847515 
L 120.552627 54.432305 
L 120.649655 54.837884 
L 120.746684 54.758208 
L 120.94074 55.500824 
L 121.134797 55.086922 
L 121.328854 55.800942 
L 121.52291 55.360574 
L 121.619939 55.591713 
L 121.716967 55.35468 
L 121.911024 55.46044 
L 122.008052 55.995982 
L 122.202109 55.710489 
L 122.299137 56.050036 
L 122.493193 55.931887 
L 122.590222 56.217544 
L 122.68725 56.15214 
L 122.881307 56.349827 
L 122.978335 56.26906 
L 123.075363 56.836963 
L 123.172392 56.278719 
L 123.366448 56.740043 
L 123.463477 56.891644 
L 123.657533 56.750958 
L 123.85159 56.964252 
L 124.045647 57.422329 
L 124.239703 57.310539 
L 124.336732 58.029333 
L 124.530788 57.602526 
L 124.724845 57.451716 
L 124.821873 57.829927 
L 125.01593 57.715653 
L 125.112958 58.254715 
L 125.404043 57.950531 
L 125.501071 58.223063 
L 125.5981 58.011679 
L 125.695128 58.561055 
L 125.889185 58.222599 
L 125.986213 58.689381 
L 126.083241 58.286094 
L 126.277298 58.538462 
L 126.374326 58.632953 
L 126.568383 58.005758 
L 126.76244 58.859481 
L 126.859468 58.478869 
L 126.956496 58.827775 
L 127.053524 58.79465 
L 127.150553 58.863029 
L 127.247581 58.641139 
L 127.538666 59.442583 
L 127.732723 59.61473 
L 127.829751 59.471069 
L 128.023808 59.660761 
L 128.120836 59.190788 
L 128.217864 59.548288 
L 128.314893 59.496118 
L 128.411921 59.309482 
L 128.508949 59.664882 
L 128.703006 59.354695 
L 128.800034 59.970921 
L 128.897063 59.933512 
L 128.994091 59.760819 
L 129.091119 60.208909 
L 129.285176 59.968765 
L 129.479232 60.199878 
L 129.673289 59.818283 
L 130.061402 60.804589 
L 130.158431 60.601227 
L 130.352487 60.739894 
L 130.449516 60.841234 
L 130.643572 61.39282 
L 130.934657 61.129238 
L 131.031686 61.310962 
L 131.128714 61.000667 
L 131.225742 61.055047 
L 131.516827 60.937772 
L 131.613855 61.134668 
L 131.710884 60.805681 
L 132.001969 61.164764 
L 132.196025 61.737688 
L 132.293054 61.353338 
L 132.48711 61.602459 
L 132.584139 61.237099 
L 132.972252 61.609853 
L 133.06928 61.393011 
L 133.166309 61.59722 
L 133.263337 61.326788 
L 133.457394 61.715259 
L 133.65145 61.645598 
L 133.748479 62.009347 
L 133.942535 61.785902 
L 134.039563 61.759053 
L 134.330648 62.263816 
L 134.621733 61.977177 
L 134.81579 62.652996 
L 134.912818 62.81854 
L 135.009847 62.616133 
L 135.203903 63.019092 
L 135.300932 62.492964 
L 135.39796 62.559405 
L 135.494988 62.659135 
L 135.592017 62.346356 
L 135.786073 62.567182 
L 135.98013 62.210827 
L 136.077158 62.419564 
L 136.174186 62.244279 
L 136.368243 62.487479 
L 136.853385 62.710924 
L 136.950413 62.644292 
L 137.047441 62.781185 
L 137.241498 62.563007 
L 137.435555 63.076502 
L 137.532583 62.739711 
L 137.629611 62.829727 
L 137.823668 62.517848 
L 137.920696 63.452912 
L 138.017725 62.280379 
L 138.114753 62.288646 
L 138.30881 62.163731 
L 138.405838 62.629994 
L 138.793951 62.213774 
L 138.988008 62.799221 
L 139.085036 62.683856 
L 139.182064 62.257868 
L 139.376121 62.611821 
L 139.570178 62.681482 
L 139.667206 63.234651 
L 139.764234 62.751826 
L 140.055319 63.685907 
L 140.152348 63.386661 
L 140.346404 63.653436 
L 140.443433 63.794968 
L 140.637489 63.61731 
L 140.928574 63.864002 
L 141.122631 63.624977 
L 141.316687 64.224395 
L 141.413716 64.065755 
L 141.607772 64.077269 
L 141.704801 64.423992 
L 141.801829 64.346827 
L 141.898857 64.499165 
L 141.995886 64.358751 
L 142.286971 64.654177 
L 142.383999 64.488523 
L 142.481027 64.769896 
L 142.578056 64.460773 
L 142.675084 64.604953 
L 142.869141 64.609155 
L 142.966169 64.639278 
L 143.160225 64.227751 
L 143.354282 64.889846 
L 143.548339 64.795463 
L 143.839424 64.939479 
L 143.936452 64.633194 
L 144.03348 64.769787 
L 144.130509 65.168517 
L 144.324565 64.870145 
L 144.421594 65.003874 
L 144.518622 65.504462 
L 144.61565 65.156266 
L 144.712679 65.573768 
L 144.809707 65.257306 
L 144.906735 65.422441 
L 145.003764 65.198477 
L 145.100792 65.447134 
L 145.19782 65.059919 
L 145.391877 65.48558 
L 145.488905 65.510902 
L 145.585933 65.724114 
L 145.682962 65.466289 
L 145.974047 66.175888 
L 146.168103 65.637399 
L 146.265132 65.922238 
L 146.36216 65.684904 
L 146.459188 65.890286 
L 146.556217 65.605638 
L 146.750273 65.850858 
L 146.847302 65.48397 
L 146.94433 65.702504 
L 147.138387 66.355975 
L 147.332443 65.638655 
L 147.5265 65.695328 
L 147.623528 66.092775 
L 147.720556 65.727989 
L 147.914613 66.029935 
L 148.011641 66.065271 
L 148.10867 65.827364 
L 148.205698 65.888021 
L 148.399755 66.457261 
L 148.496783 66.489841 
L 148.69084 65.864037 
L 148.884896 66.21518 
L 148.981925 66.030945 
L 149.175981 66.419443 
L 149.27301 66.54474 
L 149.370038 66.159053 
L 149.758151 66.792906 
L 149.952208 66.793861 
L 150.049236 67.090596 
L 150.146264 67.012421 
L 150.437349 67.660027 
L 150.631406 67.2297 
L 150.728434 67.362119 
L 150.825463 67.270029 
L 150.922491 67.643328 
L 151.116548 67.379009 
L 151.213576 67.677927 
L 151.310604 67.437837 
L 151.407633 67.565099 
L 151.504661 67.432435 
L 151.795746 67.623955 
L 151.892774 67.558932 
L 151.989803 67.355297 
L 152.280887 67.428996 
L 152.377916 67.155646 
L 152.474944 67.625701 
L 152.669001 66.771568 
L 152.766029 66.822975 
L 152.960086 67.16686 
L 153.057114 67.058971 
L 153.154142 67.168143 
L 153.251171 67.009693 
L 153.348199 67.08713 
L 153.542256 67.392078 
L 153.639284 67.439147 
L 153.736312 67.734463 
L 153.930369 67.513501 
L 154.221454 67.553148 
L 154.318482 67.546544 
L 154.41551 67.396335 
L 154.609567 67.81774 
L 154.706595 68.020529 
L 154.900652 67.424767 
L 154.99768 67.31576 
L 155.191737 67.738638 
L 155.288765 67.778557 
L 155.385794 68.08929 
L 155.482822 67.895668 
L 155.57985 68.212813 
L 155.676879 68.041703 
L 155.773907 68.440297 
L 155.870935 68.037828 
L 155.967964 68.197315 
L 156.064992 68.718341 
L 156.16202 68.390254 
L 156.356077 68.627315 
L 156.550134 68.324659 
L 156.74419 68.346433 
L 157.035275 68.982605 
L 157.229332 68.158787 
L 157.617445 68.914363 
L 157.811502 68.09442 
L 157.90853 67.851056 
L 158.005558 68.081622 
L 158.199615 67.809363 
L 158.684757 68.270987 
L 158.781785 68.108499 
L 159.169898 68.481607 
L 159.363955 68.478633 
L 159.752068 69.09958 
L 159.946125 68.844757 
L 160.043153 69.076633 
L 160.23721 68.898292 
L 160.334238 68.952864 
L 160.431266 68.726199 
L 160.916408 69.353531 
L 161.013436 69.085692 
L 161.207493 69.403 
L 161.304521 69.051448 
L 161.401549 69.791362 
L 161.498578 69.340843 
L 161.595606 69.787187 
L 161.692634 69.729477 
L 161.886691 69.701809 
L 161.983719 69.436044 
L 162.274804 69.784758 
L 162.371833 69.896413 
L 162.468861 69.669257 
L 162.565889 69.819302 
L 162.662918 69.655723 
L 162.759946 69.98119 
L 162.954003 69.446767 
L 163.051031 69.290909 
L 163.148059 69.433751 
L 163.245088 69.777009 
L 163.342116 69.561641 
L 163.536172 70.053471 
L 163.633201 69.902224 
L 163.730229 70.060128 
L 163.924286 69.977643 
L 164.021314 70.310013 
L 164.506456 69.92037 
L 164.700512 70.228674 
L 164.797541 70.090962 
L 164.894569 70.187281 
L 164.991597 70.02392 
L 165.088626 70.15391 
L 165.185654 70.697365 
L 165.282682 70.520661 
L 165.573767 70.811693 
L 165.670796 70.687733 
L 165.767824 71.077923 
L 166.058909 70.43089 
L 166.252965 70.754884 
L 166.447022 70.389279 
L 166.54405 70.916226 
L 166.738107 70.72607 
L 166.835135 71.153586 
L 167.029192 70.991235 
L 167.12622 71.032955 
L 167.223249 70.91628 
L 167.320277 70.44456 
L 167.417305 70.874178 
L 167.514334 70.736793 
L 167.611362 70.81374 
L 167.70839 71.126983 
L 167.999475 70.388624 
L 168.096503 71.230997 
L 168.193532 70.944194 
L 168.29056 71.005396 
L 168.387588 71.34407 
L 168.581645 70.943921 
L 168.775702 70.861763 
L 168.87273 70.958792 
L 169.066787 70.610241 
L 169.260843 70.928041 
L 169.357872 70.718484 
L 169.4549 71.097596 
L 169.551928 70.719358 
L 169.648957 70.881709 
L 169.745985 70.64634 
L 169.843013 70.815322 
L 169.940042 70.648005 
L 170.03707 70.945586 
L 170.231127 70.658155 
L 170.328155 70.863509 
L 170.425183 70.456921 
L 170.61924 70.739413 
L 170.716268 70.768063 
L 170.813296 70.541971 
L 171.104381 71.246632 
L 171.20141 70.89306 
L 171.395466 70.982176 
L 171.492495 71.010226 
L 171.589523 70.880509 
L 171.686551 71.026161 
L 171.880608 70.687842 
L 172.171693 71.095413 
L 172.268721 70.92272 
L 172.462778 71.160299 
L 172.559806 70.97088 
L 172.850891 71.567979 
L 172.947919 71.377331 
L 173.141976 71.851671 
L 173.336033 71.618076 
L 173.433061 71.79156 
L 173.627118 71.231788 
L 173.724146 71.372065 
L 173.918203 71.156943 
L 174.015231 71.608798 
L 174.112259 71.493652 
L 174.403344 71.875519 
L 174.597401 71.251434 
L 174.791458 71.77628 
L 174.888486 71.752213 
L 174.985514 72.032877 
L 175.179571 72.010939 
L 175.470656 71.975658 
L 175.664712 71.093121 
L 175.761741 71.427292 
L 175.955797 71.386882 
L 176.052826 70.953417 
L 176.246882 71.37534 
L 176.343911 71.006924 
L 176.732024 71.386363 
L 176.829052 71.044661 
L 177.217165 71.843158 
L 177.314194 71.411848 
L 177.411222 71.526367 
L 177.50825 71.199372 
L 177.702307 71.915138 
L 177.799335 72.086248 
L 177.896364 71.431276 
L 178.09042 71.886461 
L 178.284477 71.953011 
L 178.381505 71.896229 
L 178.478534 72.188216 
L 178.575562 72.008211 
L 178.67259 72.290375 
L 178.769619 72.115826 
L 178.866647 72.264317 
L 178.963675 72.168025 
L 179.157732 72.441894 
L 179.351789 71.937431 
L 179.448817 72.018579 
L 179.545845 71.741163 
L 179.83693 72.341045 
L 179.933958 72.312122 
L 180.030987 72.604682 
L 180.128015 72.466833 
L 180.225043 71.971975 
L 180.322072 72.356325 
L 180.516128 72.137655 
L 180.613157 72.38181 
L 180.807213 72.090396 
L 181.00127 72.348166 
L 181.098298 72.326065 
L 181.195327 72.529946 
L 181.292355 72.389478 
L 181.389383 72.64441 
L 181.680468 72.32863 
L 181.777496 72.677727 
L 181.874525 72.187043 
L 182.16561 72.859779 
L 182.359666 71.103871 
L 182.456695 70.563255 
L 182.553723 70.973035 
L 182.650751 70.044712 
L 182.74778 70.139694 
L 183.038865 69.930274 
L 183.232921 69.469905 
L 183.32995 69.902825 
L 183.426978 69.655723 
L 183.621035 69.857721 
L 183.718063 69.799902 
L 183.91212 70.260271 
L 184.106176 69.798183 
L 184.397261 70.441859 
L 184.494289 70.387969 
L 184.688346 70.504071 
L 184.882403 70.39359 
L 185.076459 70.760314 
L 185.270516 70.764079 
L 185.367544 70.368678 
L 185.464573 70.406715 
L 185.561601 70.336426 
L 185.658629 70.610268 
L 185.755658 70.460168 
L 185.852686 70.992463 
L 185.949714 70.70274 
L 186.143771 70.978902 
L 186.240799 70.824054 
L 186.434856 71.151431 
L 186.725941 70.63739 
L 186.822969 70.898708 
L 186.919997 70.818979 
L 187.017026 71.392011 
L 187.114054 70.871722 
L 187.308111 71.293918 
L 187.405139 71.221092 
L 187.502167 71.430403 
L 187.696224 71.060432 
L 187.793252 71.252389 
L 187.987309 71.077322 
L 188.084337 71.269388 
L 188.181366 71.011863 
L 188.278394 71.333128 
L 188.472451 71.287615 
L 188.569479 71.620068 
L 188.666507 71.296292 
L 188.860564 72.168925 
L 188.957592 71.589043 
L 189.05462 71.632319 
L 189.345705 72.308138 
L 189.539762 71.970611 
L 189.63679 72.031977 
L 189.733819 71.782337 
L 189.927875 72.224861 
L 190.121932 71.827823 
L 190.21896 71.873745 
L 190.413017 71.832271 
L 190.510045 72.183305 
L 190.607074 71.837646 
L 190.704102 71.952793 
L 190.80113 71.852353 
L 190.995187 72.081146 
L 191.092215 72.108487 
L 191.189243 71.910718 
L 191.286272 72.275013 
L 191.3833 71.832816 
L 191.480328 71.876392 
L 191.96547 72.596578 
L 192.062498 72.557505 
L 192.256555 72.152744 
L 192.450612 72.520477 
L 192.54764 72.247454 
L 193.032782 72.773255 
L 194.100093 68.828794 
L 194.197121 69.170933 
L 194.29415 68.844593 
L 194.391178 68.887896 
L 194.488206 69.192789 
L 194.585235 69.119335 
L 194.682263 69.667838 
L 194.779291 69.174917 
L 194.87632 69.354186 
L 195.070376 69.129895 
L 195.167405 68.954965 
L 195.458489 69.725166 
L 195.846603 70.224226 
L 195.943631 70.96987 
L 196.040659 70.759659 
L 196.234716 71.521265 
L 196.331744 71.278884 
L 197.107971 72.41016 
L 197.204999 72.120656 
L 197.399056 72.658354 
L 197.496084 72.516112 
L 197.593113 72.940381 
L 197.787169 72.697809 
L 197.884197 72.966931 
L 197.981226 72.816558 
L 198.175282 72.891376 
L 198.272311 72.91506 
L 198.369339 72.819559 
L 198.466367 72.996481 
L 198.757452 72.797976 
L 198.854481 72.177847 
L 198.951509 72.393298 
L 199.048537 71.945153 
L 199.145566 72.230537 
L 199.242594 71.956558 
L 199.436651 72.310621 
L 199.533679 72.136182 
L 199.630707 72.41278 
L 199.824764 72.216866 
L 199.921792 72.349504 
L 200.01882 72.24568 
L 200.212877 72.371796 
L 200.309905 72.374961 
L 200.406934 72.265463 
L 200.503962 72.627166 
L 200.698019 72.24186 
L 200.795047 72.690606 
L 200.989104 72.661491 
L 201.18316 72.997218 
L 201.377217 72.907393 
L 201.571274 73.240691 
L 201.668302 72.890175 
L 201.959387 73.348498 
L 202.056415 73.150402 
L 202.250472 73.323531 
L 202.541557 73.284212 
L 202.638585 72.972306 
L 202.832642 73.385224 
L 203.026698 73.23054 
L 203.123727 73.155204 
L 203.220755 73.433139 
L 203.317783 73.398786 
L 203.51184 73.528285 
L 203.608868 73.396139 
L 203.705897 73.609488 
L 203.802925 73.499471 
L 203.899953 73.679067 
L 203.996982 73.345878 
L 204.09401 73.37884 
L 204.385095 73.541546 
L 204.482123 74.035176 
L 204.579151 73.502991 
L 204.870236 74.027646 
L 205.161321 73.715876 
L 205.355378 74.070512 
L 205.452406 73.783191 
L 205.549435 74.187214 
L 205.84052 73.861774 
L 205.937548 73.82341 
L 206.034576 74.017004 
L 206.131605 73.874708 
L 206.325661 74.065109 
L 206.42269 74.08481 
L 206.519718 73.979295 
L 206.713775 74.262632 
L 206.810803 73.991737 
L 207.198916 74.668457 
L 207.392973 74.26899 
L 207.684058 74.777109 
L 207.781086 74.55934 
L 207.878114 74.699208 
L 208.072171 74.531972 
L 208.169199 74.932721 
L 208.266228 74.715743 
L 208.460284 74.909637 
L 208.557313 74.561195 
L 208.654341 74.620406 
L 208.751369 75.197477 
L 208.848398 74.808134 
L 208.945426 75.0381 
L 209.042454 74.955969 
L 209.236511 75.042957 
L 209.430567 75.048578 
L 209.527596 75.401685 
L 209.721652 75.133246 
L 209.915709 75.223071 
L 210.012737 75.064513 
L 210.206794 75.369979 
L 210.303822 75.38575 
L 210.497879 75.11682 
L 210.788964 75.457049 
L 210.885992 75.415901 
L 210.983021 75.659702 
L 211.080049 75.611187 
L 211.56519 75.887812 
L 211.953304 75.751492 
L 212.050332 75.693618 
L 212.14736 76.010763 
L 212.244389 75.924321 
L 212.341417 75.60734 
L 212.632502 75.908168 
L 212.72953 75.798096 
L 212.923587 76.014829 
L 213.020615 75.982249 
L 213.117644 75.566738 
L 213.3117 76.119798 
L 213.505757 76.246077 
L 213.602785 76.210715 
L 213.699813 76.41686 
L 213.796842 76.118979 
L 213.990898 76.15838 
L 214.184955 76.725383 
L 214.379012 76.698097 
L 214.573068 77.149134 
L 214.670097 76.91603 
L 214.767125 77.118246 
L 214.961182 77.048885 
L 215.155238 77.036197 
L 215.252267 76.720826 
L 215.446323 76.912482 
L 215.543352 76.948691 
L 215.64038 77.608821 
L 215.737408 77.357844 
L 215.834437 77.439702 
L 215.931465 77.284008 
L 216.028493 77.409251 
L 216.319578 77.178112 
L 216.513635 78.591197 
L 216.610663 77.885637 
L 216.901748 78.223928 
L 217.095805 77.990551 
L 217.289861 78.406008 
L 217.483918 78.121933 
L 217.775003 78.809103 
L 217.872031 78.445054 
L 217.96906 78.573407 
L 218.163116 78.271652 
L 218.260144 78.375938 
L 218.357173 78.047388 
L 218.454201 78.391109 
L 218.648258 78.050444 
L 218.745286 78.145208 
L 218.842314 78.001739 
L 219.133399 78.56765 
L 219.230428 78.436923 
L 219.424484 78.357793 
L 219.618541 78.814533 
L 219.715569 78.809703 
L 219.909626 78.723234 
L 220.006654 78.669044 
L 220.103683 78.953364 
L 220.200711 78.878873 
L 220.297739 78.44399 
L 220.491796 78.784683 
L 220.588824 78.613517 
L 220.782881 79.075524 
L 220.879909 78.824902 
L 220.976937 79.095251 
L 221.170994 78.678403 
L 221.462079 79.021033 
L 221.559107 78.619111 
L 221.656136 78.675129 
L 221.753164 78.49616 
L 221.947221 78.754231 
L 222.044249 78.778952 
L 222.238306 79.348001 
L 222.432362 77.104548 
L 222.529391 77.424668 
L 222.626419 77.162668 
L 222.917504 77.778894 
L 223.014532 77.728279 
L 223.208589 77.519241 
L 223.402645 77.619053 
L 223.499674 77.053851 
L 223.887787 78.097922 
L 224.081844 77.625874 
L 224.178872 77.738402 
L 224.2759 77.609284 
L 224.469957 77.9977 
L 224.566985 78.014508 
L 224.761042 78.560337 
L 224.85807 78.580283 
L 224.955099 78.036801 
L 225.052127 78.208157 
L 225.149155 78.119096 
L 225.44024 78.977758 
L 225.537268 78.717941 
L 225.634297 78.81145 
L 225.828353 78.60615 
L 226.119438 79.566808 
L 226.410523 79.648556 
L 226.507552 79.689322 
L 226.798637 80.546783 
L 226.992693 79.593193 
L 227.089722 79.802095 
L 227.18675 79.468442 
L 227.380806 80.062485 
L 227.477835 79.904117 
L 227.574863 80.21856 
L 227.76892 79.894812 
L 227.865948 80.014707 
L 227.962976 80.448909 
L 228.060005 80.204863 
L 228.157033 80.356327 
L 228.254061 80.122787 
L 228.35109 80.474312 
L 228.448118 80.3002 
L 228.836231 81.087373 
L 228.93326 80.861227 
L 229.127316 80.833122 
L 229.224345 80.988079 
L 229.321373 80.727607 
L 229.51543 81.152123 
L 229.612458 81.069583 
L 229.709486 81.040659 
L 230.000571 81.805294 
L 230.097599 81.479909 
L 230.194628 81.776753 
L 230.291656 81.512052 
L 230.485713 82.133899 
L 230.582741 81.814108 
L 230.679769 82.1533 
L 230.873826 81.710748 
L 231.067883 81.933975 
L 231.261939 82.099055 
L 231.455996 82.039135 
L 231.747081 82.774056 
L 231.844109 82.505753 
L 232.038166 82.657326 
L 232.135194 82.55544 
L 232.426279 83.168856 
L 232.523307 83.084461 
L 232.717364 83.595036 
L 232.814392 83.572389 
L 233.105477 83.054146 
L 233.396562 83.579128 
L 233.881704 84.371022 
L 233.978732 84.221959 
L 234.075761 84.066756 
L 234.172789 84.70361 
L 234.269817 84.627974 
L 234.366845 85.070825 
L 234.463874 84.569964 
L 234.65793 84.913139 
L 234.754959 84.908474 
L 234.851987 85.262045 
L 234.949015 85.035872 
L 235.046044 85.28532 
L 235.143072 84.951231 
L 235.434157 85.610433 
L 235.531185 85.544728 
L 235.628214 85.732865 
L 235.82227 85.639738 
L 236.307412 86.221202 
L 236.40444 85.885311 
L 236.598497 86.175089 
L 236.695525 85.855925 
L 236.889582 86.107201 
L 236.98661 86.036858 
L 237.277695 87.153154 
L 237.471752 86.815272 
L 237.665808 87.057572 
L 237.956893 87.393435 
L 238.053922 87.291194 
L 238.15095 87.446915 
L 238.247978 87.249037 
L 238.345007 87.618735 
L 238.442035 87.563917 
L 238.539063 87.91255 
L 238.636092 87.858497 
L 238.73312 87.906984 
L 238.830148 88.083333 
L 238.927176 87.888839 
L 239.121233 88.03501 
L 239.31529 88.095857 
L 239.412318 88.280338 
L 239.509346 88.204374 
L 239.606375 88.274471 
L 239.703403 88.544002 
L 239.800431 88.387272 
L 240.188545 88.694648 
L 240.285573 88.760271 
L 240.47963 89.108986 
L 240.673686 88.93793 
L 240.770715 89.103256 
L 240.867743 88.927698 
L 241.255856 89.330193 
L 241.352884 89.221186 
L 241.546941 89.613885 
L 241.643969 89.393169 
L 241.838026 89.888546 
L 241.935054 89.842951 
L 242.032083 90.269676 
L 242.129111 90.140805 
L 242.323168 90.204381 
L 242.420196 90.142606 
L 242.614253 90.212458 
L 242.905338 90.283838 
L 243.002366 90.446326 
L 243.099394 90.221271 
L 243.390479 90.668843 
L 243.875621 91.020941 
L 243.972649 91.318304 
L 244.069677 90.995238 
L 244.263734 91.60909 
L 244.457791 91.08801 
L 244.651847 91.547015 
L 244.748876 91.332465 
L 244.942932 91.884815 
L 245.136989 92.284855 
L 245.234017 92.168262 
L 245.62213 92.124522 
L 245.719159 91.9091 
L 246.010244 92.474683 
L 246.2043 92.356017 
L 246.301329 92.349195 
L 246.398357 92.565928 
L 246.689442 92.190036 
L 246.883499 92.435883 
L 246.980527 92.346085 
L 247.077555 92.656135 
L 247.174584 92.445515 
L 247.271612 92.992598 
L 247.36864 92.881708 
L 247.465669 93.12409 
L 247.659725 93.048262 
L 248.047838 92.989515 
L 248.241895 93.268269 
L 248.338923 93.190995 
L 248.630008 93.729265 
L 248.727037 93.542165 
L 248.824065 94.191517 
L 249.11515 93.387863 
L 250.27949 91.254427 
L 250.376518 91.640251 
L 250.473546 91.577357 
L 250.667603 90.926532 
L 250.86166 90.275379 
L 251.055716 90.305994 
L 251.152745 89.918397 
L 251.249773 90.062058 
L 251.637886 89.218484 
L 251.831943 88.192832 
L 252.026 88.228167 
L 252.414113 87.241315 
L 252.608169 87.429998 
L 252.996283 86.793089 
L 253.093311 86.887416 
L 253.190339 87.17471 
L 253.384396 86.608635 
L 253.481424 86.739281 
L 253.675481 86.328327 
L 253.772509 86.703536 
L 253.966566 86.495071 
L 254.160623 86.707001 
L 254.257651 86.291136 
L 254.354671 86.39796 
L 254.451699 86.245541 
L 254.645756 86.863377 
L 254.742784 86.486722 
L 254.839813 86.514417 
L 255.033869 86.623888 
L 255.130898 86.841221 
L 255.227926 86.631665 
L 255.324954 86.809378 
L 255.421983 86.312828 
L 255.519011 86.396023 
L 255.616039 86.629045 
L 255.713068 86.331901 
L 256.004153 86.798 
L 256.295238 86.534636 
L 256.489294 86.789323 
L 256.683351 86.563204 
L 256.974436 86.473815 
L 257.168492 86.58547 
L 257.265521 86.956859 
L 257.459577 86.566397 
L 257.556606 86.677833 
L 257.750662 87.176593 
L 257.944719 86.861276 
L 258.041747 87.212774 
L 258.138776 87.064475 
L 258.235804 87.213675 
L 258.526889 86.876147 
L 258.817974 87.409533 
L 258.915002 86.993504 
L 259.5942 87.924884 
L 259.691229 87.719529 
L 259.788257 87.837896 
L 259.982314 87.5282 
L 260.273399 88.055174 
L 260.75854 88.646352 
L 261.049625 88.311171 
L 261.34071 88.476169 
L 261.437738 88.350026 
L 261.92288 88.790149 
L 262.019908 88.590961 
L 262.213965 88.820491 
L 262.50505 88.870233 
L 262.602078 89.111905 
L 262.699107 88.875227 
L 262.893163 89.395789 
L 263.184248 89.524551 
L 263.378305 89.953241 
L 263.475333 89.907892 
L 263.863446 90.72276 
L 264.154531 90.714956 
L 264.542645 91.136579 
L 264.639673 91.116906 
L 264.736701 91.353039 
L 264.83373 91.104354 
L 265.027786 91.360706 
L 265.124815 91.34207 
L 265.221843 91.455279 
L 265.609956 92.701239 
L 265.804013 92.60039 
L 265.901041 92.813848 
L 266.095098 91.91764 
L 266.289154 89.257913 
L 266.677268 86.649401 
L 266.871324 86.097214 
L 266.968353 86.53821 
L 267.065381 85.877208 
L 267.162409 85.908723 
L 267.259438 85.43583 
L 267.356466 85.618182 
L 267.647551 85.149354 
L 267.938636 85.385678 
L 268.035664 85.070771 
L 268.229721 85.345431 
L 268.520806 84.947547 
L 268.908919 85.041902 
L 269.005947 85.324175 
L 269.102976 84.986593 
L 269.491089 85.907113 
L 269.588117 86.126301 
L 269.685146 85.890469 
L 269.879202 86.408138 
L 270.170287 86.598103 
L 270.267315 86.596575 
L 270.364344 87.036534 
L 270.461372 86.973831 
L 270.655429 86.783211 
L 270.849485 87.291085 
L 270.946514 87.180686 
L 271.043542 87.261452 
L 271.14057 87.197521 
L 271.237599 87.531747 
L 271.431655 86.7607 
L 271.528684 86.896939 
L 271.72274 86.863759 
L 271.916797 87.054816 
L 272.013825 86.635894 
L 272.110854 86.95735 
L 272.207882 86.856065 
L 272.401938 86.501374 
L 272.595995 87.147561 
L 272.790052 86.950529 
L 272.984108 87.275041 
L 273.081137 87.182187 
L 273.178165 86.84294 
L 273.275193 86.958032 
L 273.372222 86.763674 
L 273.46925 87.00521 
L 273.566278 86.941252 
L 273.760335 87.149307 
L 273.857363 87.131626 
L 273.954392 86.737725 
L 274.245477 87.024037 
L 274.342505 86.865915 
L 274.439533 87.112798 
L 274.63359 86.939205 
L 274.730618 87.038035 
L 274.827646 86.78845 
L 274.924675 87.121557 
L 275.021703 87.050259 
L 275.312788 87.639663 
L 275.409816 87.397391 
L 275.506845 87.580207 
L 275.603873 88.32506 
L 275.991986 86.949546 
L 276.089015 87.006792 
L 276.3801 86.718434 
L 276.477128 86.686537 
L 276.962269 87.660264 
L 277.059298 87.355807 
L 277.544439 88.022349 
L 277.641468 88.080168 
L 277.835524 88.586023 
L 277.932553 88.555135 
L 278.320666 89.127731 
L 278.611751 90.170683 
L 278.708779 90.264165 
L 278.902836 90.679157 
L 278.999864 90.645295 
L 279.193921 90.929397 
L 279.290949 90.723415 
L 279.387977 90.891606 
L 279.679062 90.630479 
L 279.873119 91.383354 
L 280.164204 90.636045 
L 281.037459 91.365481 
L 281.231516 91.132541 
L 281.328544 91.150413 
L 281.5226 91.837829 
L 281.619629 91.393559 
L 281.813685 91.642843 
L 282.007742 91.812698 
L 282.201799 91.813162 
L 282.298827 91.797664 
L 282.589912 92.109679 
L 282.783969 92.018134 
L 282.880997 92.237868 
L 282.978025 92.078409 
L 283.366139 92.718047 
L 283.463167 92.582272 
L 283.657224 92.676327 
L 283.85128 93.245048 
L 283.948308 93.180299 
L 284.045337 93.113421 
L 284.239393 93.496843 
L 284.336422 93.465546 
L 284.530478 93.618702 
L 284.627507 93.597665 
L 284.821563 93.829978 
L 284.918592 93.902367 
L 285.01562 93.738734 
L 285.112648 93.911044 
L 285.306705 93.767329 
L 285.403733 93.884522 
L 285.500762 93.408082 
L 285.59779 93.800454 
L 285.791847 93.557855 
L 285.985903 93.939394 
L 286.17996 93.652701 
L 286.276988 93.689892 
L 286.374016 93.538946 
L 286.471045 93.962833 
L 286.568073 93.618375 
L 286.76213 93.939258 
L 286.956186 94.095225 
L 287.150243 94.858659 
L 287.247271 94.701192 
L 287.3443 94.781385 
L 287.441328 93.929435 
L 287.538356 93.991238 
L 287.635385 93.972438 
L 287.732413 94.163385 
L 287.92647 93.896801 
L 288.023498 93.431139 
L 288.120526 93.472313 
L 288.217555 93.377331 
L 288.314583 93.674884 
L 288.508639 93.505247 
L 288.702696 93.717669 
L 288.799724 93.678841 
L 288.896753 93.938085 
L 288.993781 93.885805 
L 289.187838 93.572698 
L 289.381894 94.053204 
L 289.478923 93.846377 
L 290.061093 94.391632 
L 290.255149 94.044718 
L 290.352178 94.349776 
L 290.449206 94.29785 
L 290.643262 94.289583 
L 290.837319 94.064392 
L 291.031376 94.070831 
L 291.225432 94.265871 
L 291.322461 94.051131 
L 291.419489 94.461566 
L 291.516517 94.348739 
L 291.613546 94.479466 
L 291.710574 94.807498 
L 291.807602 94.573903 
L 291.904631 94.666648 
L 292.098687 94.610193 
L 292.389772 94.901798 
L 292.777886 95.730773 
L 292.971942 95.302629 
L 293.165999 95.938638 
L 293.263027 96.055176 
L 293.457084 96.556829 
L 293.554112 96.572491 
L 293.65114 96.472979 
L 293.845197 97.188936 
L 294.330339 97.845436 
L 294.524395 97.577106 
L 294.912509 97.217286 
L 295.009537 97.403649 
L 295.203593 97.24359 
L 295.39765 97.289157 
L 295.591707 97.002927 
L 295.785763 97.186316 
L 295.882792 97.312187 
L 296.173877 98.004705 
L 296.659018 99.384884 
L 296.756047 99.33787 
L 297.047132 99.627893 
L 297.629301 100.395775 
L 297.72633 100.716712 
L 297.823358 100.367615 
L 298.017415 100.451765 
L 298.211471 100.568577 
L 298.405528 100.992737 
L 298.502556 100.979067 
L 298.599585 100.598291 
L 298.696613 100.93882 
L 298.793641 100.814287 
L 299.084726 101.179591 
L 299.181755 101.082126 
L 299.47284 101.693741 
L 299.569868 101.487213 
L 299.763924 101.821276 
L 300.346094 102.124914 
L 300.637179 102.533794 
L 300.831236 102.311468 
L 301.025293 102.505199 
L 301.122321 102.421649 
L 301.219349 102.508609 
L 301.413406 102.813667 
L 301.607463 102.82821 
L 301.704491 102.673799 
L 301.801519 103.077959 
L 301.898548 102.916153 
L 302.092604 103.12942 
L 302.189632 102.737675 
L 302.771802 103.169203 
L 302.868831 103.134168 
L 303.062887 103.881476 
L 303.159916 103.735278 
L 303.256944 103.935884 
L 303.451001 103.634811 
L 303.839114 104.370741 
L 303.936142 104.171117 
L 304.130199 104.476447 
L 304.227227 104.361 
L 304.421284 103.974221 
L 304.518312 104.345283 
L 304.61534 104.244625 
L 304.712369 104.500458 
L 304.809397 104.447578 
L 305.100482 104.420701 
L 305.19751 104.868519 
L 305.294539 104.651541 
L 305.391567 105.087352 
L 305.585624 104.929967 
L 305.973737 105.213359 
L 306.167794 104.752799 
L 306.264822 104.794601 
L 306.458879 104.750698 
L 306.555907 105.017036 
L 306.749963 104.91073 
L 306.846992 105.178624 
L 306.94402 105.101596 
L 307.138077 105.700659 
L 307.332133 105.505865 
L 307.429162 105.493231 
L 307.52619 105.671763 
L 307.623218 105.495687 
L 307.720247 105.865248 
L 307.914303 105.710891 
L 308.205388 106.192898 
L 308.302417 106.107657 
L 308.496473 106.446085 
L 308.69053 106.112104 
L 309.175671 106.577576 
L 309.2727 106.378224 
L 309.466756 106.770679 
L 309.757841 106.097452 
L 309.85487 106.07606 
L 310.048926 106.24365 
L 310.145955 106.09415 
L 310.242983 106.411213 
L 310.340011 106.184358 
L 310.728125 106.420954 
L 310.825153 106.144875 
L 311.213266 106.416043 
L 311.310294 106.278958 
L 311.601379 106.81379 
L 311.698408 106.724565 
L 311.989493 107.08152 
L 312.183549 106.727103 
L 312.377606 107.112954 
L 312.474634 107.104004 
L 312.571663 106.920533 
L 312.765719 107.122422 
L 312.862748 106.999744 
L 313.056804 107.455966 
L 313.250861 107.671962 
L 313.347889 107.586475 
L 313.736002 107.94242 
L 313.833031 108.169712 
L 314.027087 107.86018 
L 314.318172 108.062697 
L 314.512229 108.403171 
L 314.803314 108.508986 
L 314.900342 108.274354 
L 315.191427 108.508577 
L 315.288456 108.387618 
L 315.579541 108.544158 
L 315.676569 108.400033 
L 315.870625 108.780045 
L 315.967654 108.719334 
L 316.064682 108.574936 
L 316.16171 108.776198 
L 316.258739 108.56656 
L 316.452795 108.715459 
L 316.549824 108.513652 
L 316.74388 108.786348 
L 316.840909 108.315474 
L 316.937937 108.39283 
L 317.131994 108.869434 
L 317.229022 108.7619 
L 317.32605 108.424973 
L 317.811192 109.199376 
L 318.005248 108.92406 
L 318.102277 109.176101 
L 318.199305 109.02068 
L 318.393362 109.286336 
L 318.49039 109.070995 
L 318.684447 109.486779 
L 318.781475 109.284017 
L 318.975532 109.422521 
L 319.169588 109.117818 
L 319.266617 109.317797 
L 319.363645 109.522333 
L 319.460673 109.367376 
L 319.945815 109.837513 
L 320.042843 109.829791 
L 320.2369 110.100004 
L 320.333928 110.19043 
L 320.527985 109.533793 
L 320.916098 109.835712 
L 321.013126 110.183881 
L 321.207183 109.937489 
L 321.304211 110.251441 
L 321.40124 110.100222 
L 321.498268 110.276653 
L 321.595296 110.054 
L 321.789353 110.503045 
L 321.98341 110.710091 
L 322.177466 110.585804 
L 322.274495 110.616828 
L 322.468551 110.996594 
L 322.662608 110.658002 
L 322.759636 110.940685 
L 322.953693 110.759752 
L 323.147749 110.837871 
L 323.341806 111.170869 
L 323.438834 111.268635 
L 323.535863 111.115261 
L 323.729919 111.392104 
L 323.923976 111.275975 
L 324.215061 111.698853 
L 324.603174 111.831408 
L 324.700203 111.733724 
L 324.894259 112.17101 
L 324.991287 112.130162 
L 325.088316 112.263946 
L 325.185344 112.207873 
L 325.282372 112.314288 
L 325.379401 112.229538 
L 325.573457 112.631433 
L 325.670486 112.415328 
L 325.864542 112.559398 
L 325.961571 112.6191 
L 326.155627 112.274669 
L 326.349684 112.564746 
L 326.543741 112.845601 
L 326.640769 112.742023 
L 326.931854 113.161218 
L 327.12591 112.902137 
L 327.222939 113.304796 
L 327.319967 113.127137 
L 327.416995 113.605597 
L 327.611052 113.310581 
L 327.805109 113.534435 
L 327.999165 113.869971 
L 328.193222 113.640632 
L 328.581335 114.270884 
L 328.87242 114.265808 
L 328.969449 114.964438 
L 329.066477 114.93175 
L 329.163505 115.204637 
L 329.260533 115.121879 
L 329.45459 115.437905 
L 329.551618 115.112028 
L 329.939732 115.647652 
L 330.03676 115.536489 
L 330.133788 115.707354 
L 330.327845 115.553106 
L 330.424873 115.500935 
L 330.521902 115.775132 
L 330.61893 115.561046 
L 330.715958 116.250372 
L 330.812987 116.011483 
L 330.910015 116.135498 
L 331.104072 115.829213 
L 331.298128 115.930444 
L 331.395157 115.868232 
L 331.589213 115.995002 
L 331.686241 115.836689 
L 332.074355 116.40009 
L 332.171383 116.460938 
L 332.36544 116.697971 
L 332.753553 116.630247 
L 332.94761 116.011238 
L 333.044638 116.048565 
L 333.238695 115.832815 
L 333.432751 116.087584 
L 333.626808 116.207342 
L 333.820864 116.487241 
L 333.917893 116.149004 
L 334.014921 116.341998 
L 334.208978 116.270072 
L 334.306006 116.490134 
L 334.597091 116.057324 
L 334.694119 116.128758 
L 334.791148 116.516165 
L 334.985204 116.022316 
L 335.082233 116.204886 
L 335.179261 116.092823 
L 335.276289 116.383582 
L 335.470346 115.793277 
L 335.761431 113.769286 
L 336.052516 113.020968 
L 336.149544 112.760168 
L 336.246572 113.172596 
L 336.440629 112.722786 
L 336.537657 112.854878 
L 336.634686 113.503766 
L 336.925771 112.509983 
L 337.022799 112.4141 
L 337.216856 113.112212 
L 337.313884 112.806036 
L 337.410912 112.906803 
L 337.507941 112.788655 
L 337.604969 113.349218 
L 337.701997 113.212488 
L 337.799026 113.640796 
L 337.896054 113.403708 
L 337.993082 113.535663 
L 338.284167 112.753592 
L 338.478224 112.832231 
L 338.575252 112.772774 
L 338.67228 113.046098 
L 339.060394 112.635171 
L 339.157422 112.65318 
L 339.25445 112.848138 
L 339.351479 112.613261 
L 339.448507 112.816732 
L 339.642564 112.60663 
L 339.739592 112.608458 
L 339.933649 112.224326 
L 340.030677 112.43481 
L 340.321762 112.174229 
L 340.612847 112.647477 
L 340.709875 112.438112 
L 341.00096 112.744315 
L 341.292045 112.951334 
L 341.486102 112.844919 
L 341.58313 112.983941 
L 341.680158 112.78931 
L 341.874215 112.940338 
L 341.971243 112.870622 
L 342.068272 112.546083 
L 342.262328 112.781151 
L 342.553413 112.645485 
L 342.650442 112.738612 
L 342.941526 112.03799 
L 343.038555 112.269266 
L 343.135583 111.898696 
L 343.32964 112.166207 
L 343.426668 112.109616 
L 343.814781 112.394427 
L 343.91181 112.313279 
L 344.105866 112.501634 
L 344.202895 112.763197 
L 344.396951 112.494839 
L 344.591008 112.763879 
L 344.882093 112.52761 
L 344.979121 112.780033 
L 345.07615 112.569821 
L 345.173178 112.661393 
L 345.367234 112.509847 
L 345.464263 112.510638 
L 345.561291 112.335981 
L 345.658319 112.406106 
L 345.949404 111.958288 
L 346.046433 112.351097 
L 346.143461 112.304602 
L 346.240489 112.097256 
L 346.531574 112.24651 
L 346.628603 112.204708 
L 346.822659 112.478413 
L 347.113744 112.049069 
L 347.210773 111.858831 
L 347.307801 112.057309 
L 347.598886 111.654732 
L 347.792942 111.81329 
L 347.889971 111.747204 
L 347.986999 111.880387 
L 348.084027 111.488696 
L 348.278084 110.029688 
L 348.666197 109.60621 
L 348.957282 110.095747 
L 349.151339 110.560564 
L 349.248367 110.463535 
L 349.442424 110.820245 
L 349.539452 110.601793 
L 349.830537 111.970921 
L 350.024594 111.871028 
L 350.121622 112.146561 
L 350.412707 111.344053 
L 350.509735 111.788979 
L 350.703792 111.316631 
L 350.897849 111.006171 
L 351.188934 109.996154 
L 351.674075 109.091596 
L 352.062188 108.774506 
L 352.256245 108.530842 
L 352.353273 108.685881 
L 352.54733 108.491496 
L 352.644358 108.638676 
L 352.838415 108.483419 
L 353.032472 108.511551 
L 353.1295 108.632182 
L 353.614642 108.210887 
L 353.808698 108.818273 
L 354.002755 108.791205 
L 354.099783 109.075661 
L 354.196812 108.767439 
L 354.29384 109.125458 
L 354.390868 108.949655 
L 354.584925 109.416736 
L 354.778981 108.809487 
L 354.973038 108.895683 
L 355.167095 108.632128 
L 355.361151 108.9311 
L 355.45818 108.717697 
L 355.652236 108.817208 
L 355.749265 108.815517 
L 355.846293 108.688828 
L 356.04035 108.812788 
L 356.137378 108.520856 
L 356.234406 108.654448 
L 356.331435 108.413758 
L 356.428463 108.492314 
L 357.010633 107.501915 
L 357.107661 107.662712 
L 357.301718 107.179586 
L 357.495774 107.334134 
L 357.689831 107.372498 
L 357.786859 107.555096 
L 357.980916 107.208182 
L 358.369029 106.717498 
L 358.563086 107.19915 
L 358.757143 107.229629 
L 358.854171 106.811362 
L 358.951199 106.8709 
L 359.145256 106.511025 
L 359.242284 106.690649 
L 359.533369 106.445212 
L 359.630397 106.513126 
L 359.727426 106.276011 
L 359.824454 106.337186 
L 360.018511 106.09415 
L 360.115539 106.108748 
L 360.309596 106.264224 
L 360.503652 106.305344 
L 360.697709 106.026372 
L 361.085822 106.391922 
L 361.376907 106.227497 
L 361.570964 106.477655 
L 361.862049 106.092131 
L 361.959077 106.285916 
L 362.056105 106.246297 
L 362.153134 106.062771 
L 362.250162 106.157399 
L 362.34719 105.900747 
L 362.444219 105.965961 
L 363.026389 105.538117 
L 363.220445 105.624095 
L 363.317474 105.59438 
L 363.608558 105.973273 
L 363.802615 105.82612 
L 363.899643 105.826475 
L 364.190728 105.482917 
L 364.287757 105.591297 
L 364.384785 105.220235 
L 364.67587 105.582756 
L 364.772898 105.487174 
L 364.966955 105.553342 
L 365.161012 104.981237 
L 365.25804 105.056273 
L 365.355068 105.110109 
L 365.452097 104.854521 
L 365.549125 105.053545 
L 365.743181 104.951032 
L 365.937238 104.918916 
L 366.034266 104.773782 
L 366.228323 104.960281 
L 366.325351 104.865708 
L 366.42238 104.963692 
L 366.713465 104.684966 
L 366.907521 104.581825 
L 367.00455 104.840087 
L 367.198606 104.643437 
L 367.295635 104.810454 
L 367.392663 104.562479 
L 367.58672 105.046505 
L 367.683748 104.791436 
L 367.780776 104.862898 
L 367.877805 104.524906 
L 368.071861 104.938425 
L 368.265918 104.547363 
L 368.362946 104.903745 
L 368.557003 104.435599 
L 368.654031 104.385393 
L 368.848088 104.948794 
L 368.945116 104.759566 
L 369.042144 104.857932 
L 369.139173 104.726141 
L 369.430258 105.383651 
L 369.527286 105.145799 
L 369.721343 105.275953 
L 369.818371 105.174067 
L 369.915399 105.287331 
L 370.206484 105.143862 
L 370.400541 105.498961 
L 370.497569 105.174067 
L 370.594597 105.263674 
L 370.788654 104.797139 
L 371.079739 105.040802 
L 371.176767 104.942136 
L 371.467852 105.182226 
L 371.661909 104.911549 
L 371.758937 104.82598 
L 371.952994 105.087298 
L 372.050022 104.877851 
L 372.244079 105.109754 
L 372.341107 104.874167 
L 372.438136 105.025168 
L 372.632192 104.792937 
L 372.72922 105.067543 
L 372.923277 104.775883 
L 373.020305 104.811518 
L 373.117334 104.717982 
L 373.214362 105.138322 
L 373.31139 104.986203 
L 373.602475 105.071554 
L 373.796532 104.78235 
L 373.89356 105.230904 
L 373.990589 105.156741 
L 374.087617 105.221599 
L 374.281674 104.90219 
L 374.378702 105.006204 
L 374.47573 105.229458 
L 374.766815 104.799949 
L 375.0579 104.779294 
L 375.251957 105.014717 
L 375.348985 104.726577 
L 375.64007 104.914905 
L 375.737098 104.680109 
L 376.028183 104.83362 
L 376.125212 104.664283 
L 376.22224 104.903991 
L 376.319268 104.758829 
L 376.513325 104.988495 
L 376.610353 104.801232 
L 376.707382 105.036518 
L 376.80441 104.669768 
L 376.998467 105.240181 
L 377.192523 104.872803 
L 377.483608 105.081568 
L 377.580636 104.850237 
L 377.774693 105.105989 
L 377.871721 104.919571 
L 377.96875 105.044131 
L 378.065778 104.8483 
L 378.162806 104.904755 
L 378.259835 105.138513 
L 378.356863 104.684557 
L 378.55092 105.020583 
L 378.647948 105.026286 
L 378.744976 105.154039 
L 379.036061 104.524961 
L 379.230118 104.780631 
L 379.424174 104.785078 
L 379.521203 104.591184 
L 379.618231 104.863062 
L 379.715259 104.777111 
L 379.909316 104.925465 
L 380.006344 104.963774 
L 380.200401 105.1679 
L 380.297429 105.000228 
L 380.394458 105.187737 
L 380.491486 105.092455 
L 380.685543 105.278654 
L 380.879599 105.346214 
L 381.073656 105.07229 
L 381.267713 105.575908 
L 381.461769 105.53828 
L 381.558798 105.444144 
L 381.752854 105.808029 
L 381.849882 105.856298 
L 382.043939 105.339475 
L 382.140967 105.40919 
L 382.335024 105.362968 
L 382.529081 105.291779 
L 382.723137 105.499207 
L 382.820166 105.238735 
L 383.014222 105.376502 
L 383.111251 105.409163 
L 383.305307 105.551623 
L 383.402336 105.591215 
L 383.499364 105.818316 
L 383.887477 105.520272 
L 384.178562 105.793732 
L 384.27559 105.58423 
L 384.372619 105.699377 
L 384.469647 105.61359 
L 384.566675 105.677821 
L 384.954789 105.355928 
L 385.051817 105.713893 
L 385.148845 105.551923 
L 385.342902 105.646387 
L 385.536959 105.519808 
L 385.925072 105.601502 
L 386.0221 105.469874 
L 386.119129 105.537598 
L 386.216157 105.291097 
L 386.313185 105.581474 
L 386.507242 105.379449 
L 386.60427 105.309569 
L 386.798327 105.568513 
L 386.895355 105.556071 
L 386.992383 105.728955 
L 387.089412 105.637165 
L 387.574553 106.147249 
L 387.76861 105.832314 
L 387.962667 106.020287 
L 388.059695 105.875535 
L 388.35078 106.293501 
L 388.447808 106.430859 
L 388.544836 106.288399 
L 388.738893 106.346736 
L 389.029978 106.190961 
L 389.321063 106.165066 
L 389.51512 106.477818 
L 389.612148 106.229652 
L 389.709176 106.501612 
L 389.806205 106.44794 
L 389.903233 106.387802 
L 390.194318 105.040502 
L 390.388375 104.943555 
L 390.67946 105.365724 
L 390.873516 105.288368 
L 390.970544 105.271396 
L 391.649743 105.973792 
L 391.940828 105.799925 
L 392.134884 105.968416 
L 392.231913 105.891825 
L 392.328941 106.110631 
L 392.425969 106.058924 
L 392.620026 106.030083 
L 392.814083 106.270008 
L 393.008139 106.005853 
L 393.105167 106.325781 
L 393.202196 106.295684 
L 393.299224 106.141628 
L 393.396252 106.395442 
L 393.493281 106.299232 
L 393.687337 106.560413 
L 393.881394 106.430668 
L 393.978422 106.454079 
L 394.269507 106.205941 
L 394.366536 106.318686 
L 394.560592 106.690813 
L 395.239791 106.498283 
L 395.433847 106.825796 
L 395.530875 106.638614 
L 395.627904 106.704592 
L 395.724932 106.433997 
L 395.82196 106.685819 
L 396.016017 106.400926 
L 396.307102 106.305671 
L 396.40413 106.437244 
L 396.501159 106.205095 
L 396.695215 106.417898 
L 396.792244 106.01442 
L 397.471442 106.876657 
L 397.762527 106.536292 
L 397.956583 106.673486 
L 398.441725 106.660334 
L 398.73281 106.640825 
L 398.829838 106.748823 
L 398.926867 106.639597 
L 399.023895 106.756981 
L 399.412008 106.392004 
L 399.509037 106.415524 
L 399.800122 106.86768 
L 399.89715 106.645518 
L 400.091206 106.832481 
L 400.382291 106.668329 
L 400.576348 106.953577 
L 400.673376 106.95625 
L 400.770405 107.235059 
L 400.964461 106.878786 
L 401.158518 106.60639 
L 401.352575 106.861623 
L 401.64366 106.516455 
L 401.740688 106.470915 
L 401.934745 106.523877 
L 402.031773 106.455689 
L 402.128801 106.524504 
L 402.225829 106.341825 
L 402.419886 106.56104 
L 402.613943 106.6456 
L 402.807999 106.434215 
L 403.002056 106.501584 
L 403.099084 106.410531 
L 403.390169 106.652039 
L 403.778283 106.611929 
L 403.972339 106.342316 
L 404.069368 106.297485 
L 404.166396 106.111831 
L 404.263424 106.269926 
L 404.554509 105.655583 
L 404.748566 105.852096 
L 404.845594 105.684233 
L 404.942622 105.782326 
L 405.039651 105.684533 
L 405.233707 105.825984 
L 405.912906 102.091925 
L 406.106962 101.286525 
L 406.301019 100.952736 
L 406.78616 100.001438 
L 406.883189 100.149055 
L 406.980217 100.024931 
L 407.174274 100.757041 
L 407.271302 100.424425 
L 407.465359 100.889132 
L 407.562387 100.858244 
L 407.756444 101.413705 
L 408.241585 102.0773 
L 408.338614 102.348741 
L 408.435642 102.24721 
L 409.211868 103.586951 
L 409.308897 103.523593 
L 409.502953 103.921805 
L 409.599982 103.792687 
L 409.69701 103.754241 
L 409.988095 104.414862 
L 410.085123 104.32239 
L 410.182152 104.41519 
L 410.27918 104.676071 
L 410.376208 105.264411 
L 410.86135 103.769522 
L 411.346491 102.150426 
L 411.637576 102.108406 
L 411.831633 101.988102 
L 412.122718 102.239106 
L 412.316775 102.22167 
L 412.413803 102.255641 
L 412.898945 103.15867 
L 412.995973 103.139488 
L 413.093001 102.980766 
L 413.19003 103.532625 
L 413.287058 103.273926 
L 413.578143 103.80854 
L 413.675171 103.724063 
L 414.063284 104.214938 
L 414.451398 104.548263 
L 414.548426 104.296605 
L 414.645454 104.335323 
L 414.839511 104.285145 
L 415.033568 104.636561 
L 415.130596 104.564908 
L 415.615738 104.175237 
L 415.712766 104.628293 
L 415.809794 104.361109 
L 415.906822 104.562152 
L 416.100879 104.092042 
L 416.197907 104.307355 
L 416.488992 103.668618 
L 416.586021 103.696177 
L 416.877106 103.265904 
L 417.071162 103.292535 
L 417.265219 103.4437 
L 417.362247 103.42449 
L 417.459276 102.980056 
L 417.556304 103.021531 
L 417.653332 102.874678 
L 417.944417 103.3503 
L 418.138474 103.197389 
L 418.429559 103.739725 
L 418.526587 103.669464 
L 418.9147 103.580266 
L 419.108757 103.760435 
L 419.302814 104.242524 
L 419.399842 104.387576 
L 419.49687 103.971983 
L 419.593899 104.342718 
L 419.690927 104.313904 
L 419.884984 104.308501 
L 419.982012 104.20285 
L 420.07904 104.370195 
L 420.273097 104.770316 
L 420.564182 104.535302 
L 420.66121 104.925083 
L 420.855267 104.594677 
L 420.952295 105.024021 
L 421.146352 104.759157 
L 421.437437 104.934933 
L 421.82555 104.081318 
L 422.213663 103.544194 
L 422.310692 103.70911 
L 422.504748 103.301403 
L 422.795833 103.548914 
L 422.892861 103.402825 
L 422.98989 103.576091 
L 423.183946 103.275236 
L 423.280975 103.170758 
L 423.863145 104.17742 
L 423.960173 103.979433 
L 424.15423 104.533365 
L 424.348286 104.417372 
L 424.639371 104.507989 
L 424.930456 104.438492 
L 425.221541 104.803414 
L 425.318569 104.566709 
L 425.415598 104.692197 
L 425.512626 109.060463 
L 425.706683 121.107166 
L 426.191824 131.721083 
L 426.288853 131.699554 
L 426.482909 132.490684 
L 426.579938 132.178396 
L 426.773994 132.453466 
L 426.871023 132.453657 
L 427.065079 131.699691 
L 427.453192 131.72182 
L 427.550221 131.66441 
L 427.647249 131.883271 
L 427.744277 131.461375 
L 427.841306 131.579523 
L 427.938334 131.367102 
L 428.035362 131.701573 
L 428.326447 131.331685 
L 428.423476 131.445222 
L 428.617532 131.129769 
L 428.68183 131.123502 
L 428.68183 131.123502 
" clip-path="url(#p72fab4e721)" style="fill: none; stroke: #ff8c00; stroke-width: 1.5; stroke-linecap: square"/>
   </g>
   <g id="patch_3">
    <path d="M 55.836375 168.382195 
L 55.836375 21.502195 
" style="fill: none; stroke: #ffffff; stroke-width: 0.8; stroke-linejoin: miter; stroke-linecap: square"/>
   </g>
   <g id="patch_4">
    <path d="M 55.836375 168.382195 
L 446.436375 168.382195 
" style="fill: none; stroke: #ffffff; stroke-width: 0.8; stroke-linejoin: miter; stroke-linecap: square"/>
   </g>
   <g id="text_14">
    <!-- $G$. $sulfurreducens$ $\Delta$1620-1624 Tn7::vsfGFP0 on Lactate -->
    <g style="fill: #ffffff" transform="translate(98.233891 15.502195) scale(0.12 -0.12)">
     <defs>
      <path id="HFBRMI10-47" d="M 4006 2132 
L 2701 2132 
L 2598 2119 
C 2560 2023 2541 1907 2522 1792 
L 3526 1792 
C 3494 1689 3475 1580 3456 1471 
C 3411 1260 3258 529 3251 509 
C 3226 464 3149 452 3104 439 
C 2598 291 1926 214 1485 541 
C 1318 657 1210 791 1107 984 
C 902 1369 890 1837 979 2252 
C 1178 3111 1837 3969 2739 4148 
C 3117 4225 3571 4148 3834 4020 
C 3974 3950 4090 3847 4218 3757 
L 4390 4205 
C 4230 4292 4064 4372 3891 4425 
C 3514 4544 3002 4544 2598 4441 
C 1638 4198 870 3391 589 2454 
C 442 1981 422 1449 608 981 
C 704 711 877 488 1082 315 
C 1587 -96 2266 -96 2874 40 
C 3002 72 3539 213 3610 284 
C 3635 316 3635 387 3648 432 
L 4006 2132 
z
" transform="scale(0.015625)"/>
      <path id="HFBR17-2e" d="M 634 501 
L 634 0 
L 1133 0 
L 1133 501 
L 634 501 
z
" transform="scale(0.015625)"/>
      <path id="HFBRMI10-73" d="M 384 648 
L 237 276 
C 358 202 480 133 614 79 
C 992 -64 1523 -64 1914 83 
C 2214 197 2438 426 2554 725 
C 2643 953 2637 1201 2522 1379 
C 2349 1666 2054 1741 1670 1812 
C 1478 1849 1261 1882 1139 2054 
C 1005 2238 1107 2479 1261 2619 
C 1427 2765 1690 2816 1984 2816 
C 2150 2816 2317 2789 2477 2728 
C 2586 2680 2682 2621 2784 2566 
L 2918 2916 
C 2662 3032 2490 3104 2150 3104 
C 1728 3136 1286 3053 1011 2805 
C 710 2531 544 2008 858 1697 
C 1069 1461 1395 1429 1690 1366 
C 1901 1321 2138 1258 2214 1028 
C 2240 939 2227 843 2195 760 
C 2093 455 1786 302 1382 302 
C 1133 302 890 353 666 462 
C 563 513 474 584 384 648 
z
" transform="scale(0.015625)"/>
      <path id="HFBRMI10-75" d="M 1158 3008 
C 1126 2802 1075 2605 1030 2399 
C 986 2195 730 979 698 831 
C 659 634 608 358 704 192 
C 800 -13 1043 -64 1248 -64 
C 1613 -64 1971 70 2253 294 
C 2342 364 2419 448 2496 537 
L 2381 -19 
C 2515 -19 2662 -19 2778 0 
L 2803 70 
L 3424 3008 
L 3014 3008 
C 2989 2847 2650 1293 2630 1191 
C 2566 903 2509 743 2310 544 
C 2074 308 1760 211 1434 243 
C 1312 243 1158 262 1094 384 
C 1050 461 1062 564 1075 647 
C 1101 807 1139 967 1171 1128 
C 1197 1262 1562 2956 1568 3008 
L 1158 3008 
z
" transform="scale(0.015625)"/>
      <path id="HFBRMI10-6c" d="M 1453 4448 
L 512 0 
C 646 0 794 0 909 19 
L 934 89 
C 998 409 1069 723 1139 1043 
L 1856 4448 
L 1453 4448 
z
" transform="scale(0.015625)"/>
      <path id="HFBRMI10-66" d="M 819 3009 
L 755 2688 
L 1306 2688 
C 1107 1792 922 871 730 -32 
C 864 -32 1011 -32 1126 -13 
L 1146 32 
C 1286 720 1440 1389 1581 2077 
C 1632 2270 1651 2495 1715 2675 
L 1779 2688 
L 2502 2688 
L 2566 3009 
L 1766 3009 
C 1824 3195 1850 3393 1888 3579 
C 1907 3669 1920 3765 1958 3842 
C 2112 4111 2541 4208 2931 4144 
C 3021 4124 3110 4092 3200 4073 
L 3270 4432 
C 3040 4477 2790 4503 2554 4471 
C 2125 4413 1690 4118 1536 3714 
C 1478 3560 1389 3105 1389 3105 
C 1389 3079 1382 3034 1357 3021 
C 1325 2996 1248 3009 1210 3009 
L 819 3009 
z
" transform="scale(0.015625)"/>
      <path id="HFBRMI10-72" d="M 1382 2213 
L 1376 2213 
L 1542 3015 
L 1158 3015 
L 518 0 
L 806 0 
C 864 0 934 -19 934 64 
C 947 103 954 147 960 186 
L 1069 680 
C 1107 866 1254 1591 1293 1726 
C 1363 1931 1485 2123 1638 2271 
C 1862 2489 2195 2688 2566 2688 
C 2598 2688 2662 2688 2682 2714 
C 2707 2740 2746 2982 2765 3066 
C 2336 3066 1946 2854 1651 2559 
C 1574 2482 1421 2309 1382 2213 
z
" transform="scale(0.015625)"/>
      <path id="HFBRMI10-65" d="M 2874 702 
C 2778 638 2694 568 2592 510 
C 2291 330 1747 144 1376 356 
C 1235 433 1133 555 1056 702 
C 960 914 928 1119 960 1414 
L 998 1600 
L 3027 1600 
C 3053 1600 3091 1594 3110 1613 
C 3162 1651 3174 1998 3174 2004 
C 3187 2331 3142 2697 2861 2915 
C 2797 2959 2726 2998 2650 3030 
C 2227 3197 1747 3056 1395 2793 
C 954 2466 602 1869 563 1241 
C 538 754 717 375 1024 144 
C 1542 -234 2246 -3 2669 241 
C 2720 273 2797 311 2829 356 
C 2848 388 2874 702 2874 702 
z
M 2829 1850 
L 1082 1850 
C 1229 2216 1510 2581 1888 2722 
C 2176 2831 2560 2786 2733 2498 
C 2848 2305 2854 2062 2829 1850 
z
" transform="scale(0.015625)"/>
      <path id="HFBRMI10-64" d="M 3322 4448 
L 2938 2624 
L 2931 2624 
C 2880 2765 2714 2912 2586 2976 
C 2170 3201 1677 3028 1338 2739 
C 941 2407 685 1920 602 1415 
C 493 781 704 237 1107 32 
C 1472 -148 1920 6 2221 237 
C 2310 307 2394 391 2470 474 
L 2374 0 
C 2515 0 2656 0 2778 19 
L 2803 89 
C 2867 409 2938 723 3008 1043 
L 3725 4448 
L 3322 4448 
z
M 2810 2494 
C 2829 2456 2861 2405 2867 2353 
C 2874 2289 2842 2206 2829 2142 
C 2797 2001 2560 885 2560 885 
C 2534 731 2483 680 2381 577 
C 2221 410 2016 289 1786 269 
C 1542 250 1338 346 1210 455 
C 973 680 954 1020 998 1321 
C 1062 1802 1254 2296 1683 2565 
C 1984 2770 2579 2892 2810 2494 
z
M 2470 475 
C 2470 475 2477 475 2477 475 
C 2477 468 2470 462 2470 475 
z
" transform="scale(0.015625)"/>
      <path id="HFBRMI10-63" d="M 2918 725 
C 2842 679 2778 621 2707 576 
C 2541 465 2368 380 2176 334 
C 1888 256 1619 256 1376 377 
C 1011 576 954 1038 1011 1409 
C 1101 1960 1402 2550 1965 2736 
C 2266 2832 2656 2794 2912 2685 
C 3027 2634 3123 2557 3226 2493 
L 3360 2847 
C 3226 2921 3091 2994 2944 3037 
C 2643 3136 2144 3136 1869 3039 
C 1203 2788 704 2118 602 1415 
C 531 951 653 494 960 219 
C 1485 -243 2291 -12 2746 276 
C 2784 302 2842 328 2867 366 
C 2886 398 2906 642 2918 725 
z
" transform="scale(0.015625)"/>
      <path id="HFBRMI10-6e" d="M 1427 2398 
L 1421 2398 
L 1549 3027 
L 1158 3027 
L 518 0 
L 806 0 
C 864 0 941 -19 941 64 
C 954 109 960 154 973 199 
C 1056 572 1286 1742 1344 1935 
C 1466 2295 1734 2713 2163 2764 
C 2445 2764 2701 2693 2797 2502 
C 2893 2310 2816 2087 2778 1889 
L 2374 0 
L 2675 0 
C 2739 0 2797 -13 2797 71 
C 2835 199 2925 673 2925 673 
L 3213 2026 
C 3264 2270 3322 2565 3187 2796 
C 3072 2988 2854 3052 2643 3071 
C 2541 3084 2438 3084 2336 3065 
C 2054 3014 1792 2847 1606 2635 
C 1542 2565 1466 2488 1427 2398 
z
M 1414 2398 
C 1414 2398 1421 2398 1421 2398 
C 1421 2392 1414 2385 1414 2398 
z
" transform="scale(0.015625)"/>
      <path id="HFBR17-1" d="M 230 0 
L 4141 0 
C 4102 147 4032 288 3981 429 
L 2458 4397 
C 2451 4422 2445 4454 2419 4467 
C 2394 4493 2330 4480 2298 4480 
L 2086 4480 
C 1997 4480 1939 4499 1920 4410 
C 1485 3328 1088 2208 659 1120 
L 390 422 
C 333 282 269 141 230 0 
z
M 2157 4032 
C 2266 3635 2426 3290 2554 2912 
L 3501 422 
L 800 422 
C 1254 1619 1722 2816 2157 4032 
z
" transform="scale(0.015625)"/>
      <path id="HFBR17-2d" d="M 26 1665 
L 26 1344 
L 1811 1344 
L 1811 1665 
L 26 1665 
z
" transform="scale(0.015625)"/>
      <path id="HFBR17-34" d="M 134 1152 
L 1984 1152 
L 1984 0 
L 2387 0 
L 2387 1152 
L 3117 1152 
L 3117 1493 
L 2387 1493 
L 2387 4254 
L 2042 4254 
C 1926 4254 1894 4261 1843 4164 
C 1587 3745 237 1649 192 1591 
C 141 1500 134 1507 134 1372 
L 134 1152 
z
M 2003 3896 
L 2003 1493 
L 550 1493 
C 595 1583 659 1666 717 1756 
C 1037 2251 1798 3427 1958 3794 
C 1978 3826 1984 3864 2003 3896 
z
" transform="scale(0.015625)"/>
      <path id="HFBR17-54" d="M 192 4437 
L 192 4096 
L 2016 4096 
L 2016 0 
L 2464 0 
L 2464 4096 
L 4288 4096 
L 4288 4437 
L 192 4437 
z
" transform="scale(0.015625)"/>
      <path id="HFBR17-6e" d="M 806 2386 
L 800 2386 
L 800 3033 
L 410 3033 
L 410 0 
L 819 0 
L 819 1404 
C 819 1718 800 2040 941 2334 
C 1011 2482 1120 2610 1267 2687 
C 1389 2745 1517 2745 1651 2732 
C 1843 2732 2029 2681 2150 2520 
C 2266 2372 2272 2180 2272 2000 
L 2272 0 
L 2682 0 
L 2682 1719 
C 2682 2040 2714 2392 2560 2681 
C 2438 2912 2202 3021 1952 3053 
C 1824 3072 1690 3072 1562 3047 
C 1229 2976 922 2707 806 2386 
z
" transform="scale(0.015625)"/>
      <path id="HFBR17-3a" d="M 634 3008 
L 634 2507 
L 1133 2507 
L 1133 3008 
L 634 3008 
z
M 634 501 
L 634 0 
L 1133 0 
L 1133 501 
L 634 501 
z
" transform="scale(0.015625)"/>
      <path id="HFBR17-76" d="M 45 3040 
C 77 2912 269 2405 282 2373 
C 346 2194 1107 39 1126 19 
C 1146 -13 1203 0 1235 0 
L 1459 0 
C 1542 0 1594 -19 1613 58 
C 1818 597 2566 2733 2675 3040 
L 2278 3040 
C 1971 2175 1658 1308 1370 423 
L 704 2317 
C 608 2547 550 2809 442 3021 
C 326 3040 179 3040 45 3040 
z
" transform="scale(0.015625)"/>
      <path id="HFBR17-73" d="M 198 617 
C 186 527 166 444 154 354 
C 141 283 122 251 186 219 
C 448 65 762 -19 1133 -51 
C 1549 -90 2074 7 2278 418 
C 2336 534 2368 662 2374 791 
C 2400 1253 2035 1549 1722 1658 
C 1370 1793 890 1748 646 2018 
C 518 2166 512 2385 634 2539 
C 890 2899 1715 2744 2042 2584 
C 2093 2558 2138 2526 2195 2513 
L 2253 2860 
C 1952 2995 1690 3072 1274 3072 
C 915 3072 589 2989 384 2783 
C 179 2571 109 2217 230 1948 
C 346 1690 589 1523 851 1440 
C 1229 1305 1658 1369 1907 1061 
C 2048 881 2022 611 1862 450 
C 1555 167 902 270 544 424 
C 422 476 314 553 198 617 
z
" transform="scale(0.015625)"/>
      <path id="HFBR17-66" d="M 678 3009 
L 128 3009 
L 128 2688 
L 678 2688 
L 678 -32 
L 1082 -32 
L 1082 2688 
L 1875 2688 
L 1875 3009 
L 1075 3009 
L 1075 3570 
C 1075 3660 1056 3771 1094 3861 
C 1229 4144 1683 4196 2054 4132 
C 2131 4119 2202 4093 2278 4080 
L 2278 4441 
C 1843 4512 1363 4512 1005 4219 
C 947 4168 896 4118 851 4053 
C 717 3888 678 3704 678 3417 
L 678 3009 
z
" transform="scale(0.015625)"/>
      <path id="HFBR17-47" d="M 3974 2132 
L 2560 2132 
L 2560 1792 
L 3565 1792 
L 3565 614 
C 3565 582 3571 537 3552 511 
C 3533 473 3450 460 3411 447 
C 3117 364 2682 280 2336 344 
C 1869 421 1472 730 1229 1134 
C 742 1929 832 3044 1498 3710 
C 1696 3910 1939 4064 2240 4134 
C 2656 4237 3142 4134 3450 3987 
C 3590 3922 3712 3832 3840 3749 
L 3917 4198 
C 3744 4275 3578 4352 3392 4409 
C 3110 4486 2822 4512 2534 4512 
C 1773 4512 1184 4039 870 3586 
C 403 2884 346 1940 723 1186 
C 934 746 1280 421 1715 197 
C 2253 -64 2886 -64 3450 98 
C 3526 117 3949 251 3968 311 
C 3974 331 3974 358 3974 378 
L 3974 2132 
z
" transform="scale(0.015625)"/>
      <path id="HFBR17-46" d="M 512 4437 
L 512 0 
L 960 0 
L 960 2048 
L 3078 2048 
L 3078 2388 
L 960 2388 
L 960 4096 
L 3354 4096 
L 3354 4437 
L 512 4437 
z
" transform="scale(0.015625)"/>
      <path id="HFBR17-50" d="M 512 4480 
L 512 32 
L 960 32 
L 960 1920 
L 1862 1920 
C 2003 1920 2144 1920 2278 1920 
C 2752 1959 3149 2153 3418 2443 
C 3693 2746 3814 3210 3635 3603 
C 3430 4099 2944 4415 2323 4480 
C 2138 4480 1946 4480 1760 4480 
L 512 4480 
z
M 954 2254 
L 954 4139 
L 1830 4139 
C 2387 4139 2893 4075 3149 3690 
C 3322 3432 3347 3072 3206 2795 
C 3130 2646 3014 2531 2874 2447 
C 2560 2254 2195 2254 1843 2254 
L 954 2254 
z
" transform="scale(0.015625)"/>
      <path id="HFBR17-6f" d="M 685 2693 
C 115 2127 51 1144 544 508 
C 614 411 698 328 794 257 
C 1030 64 1376 -77 1779 -32 
C 2419 45 2861 566 2995 1112 
C 3174 1877 2797 2731 2093 3001 
C 1542 3226 992 3001 685 2693 
z
M 2285 2519 
C 2592 2242 2650 1799 2624 1407 
C 2605 1105 2522 790 2310 565 
C 1965 192 1325 192 954 552 
C 762 758 646 1053 627 1407 
C 595 1927 723 2480 1235 2686 
C 1613 2853 2048 2731 2285 2519 
z
" transform="scale(0.015625)"/>
      <path id="HFBR17-4c" d="M 512 4448 
L 512 0 
L 3168 0 
L 3168 341 
L 960 341 
L 960 4448 
L 512 4448 
z
" transform="scale(0.015625)"/>
      <path id="HFBR17-63" d="M 2714 720 
C 2592 630 2483 533 2349 456 
C 2048 296 1587 219 1242 379 
C 742 636 608 1260 678 1774 
C 691 1877 710 1979 742 2076 
C 883 2494 1235 2821 1811 2757 
C 2118 2731 2272 2680 2515 2545 
C 2560 2519 2598 2487 2650 2474 
C 2656 2551 2675 2635 2688 2712 
C 2707 2815 2707 2828 2611 2873 
C 2541 2905 2470 2943 2394 2969 
C 2099 3098 1613 3136 1280 3040 
C 826 2911 486 2519 339 2082 
C 269 1883 250 1671 250 1459 
C 256 784 717 122 1389 -13 
C 1760 -90 2189 19 2445 154 
C 2509 186 2701 302 2733 360 
C 2752 392 2714 720 2714 720 
z
" transform="scale(0.015625)"/>
     </defs>
     <use xlink:href="#HFBRMI10-47" transform="scale(0.996264)"/>
     <use xlink:href="#HFBR17-2e" transform="translate(74.220133 0) scale(0.996264)"/>
     <use xlink:href="#HFBRMI10-73" transform="translate(144.124374 0) scale(0.996264)"/>
     <use xlink:href="#HFBRMI10-75" transform="translate(192.479997 0) scale(0.996264)"/>
     <use xlink:href="#HFBRMI10-6c" transform="translate(248.833476 0) scale(0.996264)"/>
     <use xlink:href="#HFBRMI10-66" transform="translate(280.835219 0) scale(0.996264)"/>
     <use xlink:href="#HFBRMI10-75" transform="translate(334.768377 0) scale(0.996264)"/>
     <use xlink:href="#HFBRMI10-72" transform="translate(391.121855 0) scale(0.996264)"/>
     <use xlink:href="#HFBRMI10-72" transform="translate(437.028471 0) scale(0.996264)"/>
     <use xlink:href="#HFBRMI10-65" transform="translate(482.935087 0) scale(0.996264)"/>
     <use xlink:href="#HFBRMI10-64" transform="translate(535.897793 0) scale(0.996264)"/>
     <use xlink:href="#HFBRMI10-75" transform="translate(596.956983 0) scale(0.996264)"/>
     <use xlink:href="#HFBRMI10-63" transform="translate(653.310462 0) scale(0.996264)"/>
     <use xlink:href="#HFBRMI10-65" transform="translate(708.639903 0) scale(0.996264)"/>
     <use xlink:href="#HFBRMI10-6e" transform="translate(761.602608 0) scale(0.996264)"/>
     <use xlink:href="#HFBRMI10-73" transform="translate(815.60314 0) scale(0.996264)"/>
     <use xlink:href="#HFBR17-1" transform="translate(895.423975 0) scale(0.996264)"/>
     <use xlink:href="#HFBR17-31" transform="translate(963.501737 0) scale(0.996264)"/>
     <use xlink:href="#HFBR17-36" transform="translate(1014.144954 0) scale(0.996264)"/>
     <use xlink:href="#HFBR17-32" transform="translate(1064.788172 0) scale(0.996264)"/>
     <use xlink:href="#HFBR17-30" transform="translate(1115.43139 0) scale(0.996264)"/>
     <use xlink:href="#HFBR17-2d" transform="translate(1166.074608 0) scale(0.996264)"/>
     <use xlink:href="#HFBR17-31" transform="translate(1199.283282 0) scale(0.996264)"/>
     <use xlink:href="#HFBR17-36" transform="translate(1249.926499 0) scale(0.996264)"/>
     <use xlink:href="#HFBR17-32" transform="translate(1300.569717 0) scale(0.996264)"/>
     <use xlink:href="#HFBR17-34" transform="translate(1351.212935 0) scale(0.996264)"/>
     <use xlink:href="#HFBR17-54" transform="translate(1433.321364 0) scale(0.996264)"/>
     <use xlink:href="#HFBR17-6e" transform="translate(1503.059541 0) scale(0.996264)"/>
     <use xlink:href="#HFBR17-37" transform="translate(1551.212038 0) scale(0.996264)"/>
     <use xlink:href="#HFBR17-3a" transform="translate(1601.855256 0) scale(0.996264)"/>
     <use xlink:href="#HFBR17-3a" transform="translate(1629.252379 0) scale(0.996264)"/>
     <use xlink:href="#HFBR17-76" transform="translate(1656.649503 0) scale(0.996264)"/>
     <use xlink:href="#HFBR17-73" transform="translate(1698.990541 0) scale(0.996264)"/>
     <use xlink:href="#HFBR17-66" transform="translate(1737.42957 0) scale(0.996264)"/>
     <use xlink:href="#HFBR17-47" transform="translate(1767.732514 0) scale(0.996264)"/>
     <use xlink:href="#HFBR17-46" transform="translate(1835.810276 0) scale(0.996264)"/>
     <use xlink:href="#HFBR17-50" transform="translate(1891.642334 0) scale(0.996264)"/>
     <use xlink:href="#HFBR17-30" transform="translate(1954.531241 0) scale(0.996264)"/>
     <use xlink:href="#HFBR17-6f" transform="translate(2036.63967 0) scale(0.996264)"/>
     <use xlink:href="#HFBR17-6e" transform="translate(2087.282888 0) scale(0.996264)"/>
     <use xlink:href="#HFBR17-4c" transform="translate(2166.900597 0) scale(0.996264)"/>
     <use xlink:href="#HFBR17-61" transform="translate(2219.826925 0) scale(0.996264)"/>
     <use xlink:href="#HFBR17-63" transform="translate(2266.319007 0) scale(0.996264)"/>
     <use xlink:href="#HFBR17-74" transform="translate(2311.150675 0) scale(0.996264)"/>
     <use xlink:href="#HFBR17-61" transform="translate(2347.265063 0) scale(0.996264)"/>
     <use xlink:href="#HFBR17-74" transform="translate(2393.757145 0) scale(0.996264)"/>
     <use xlink:href="#HFBR17-65" transform="translate(2429.871533 0) scale(0.996264)"/>
    </g>
   </g>
  </g>
 </g>
 <defs>
  <clipPath id="p72fab4e721">
   <rect x="55.836375" y="21.502195" width="390.6" height="146.88"/>
  </clipPath>
 </defs>
</svg>
