<?xml version="1.0" encoding="utf-8" standalone="no"?>
<!DOCTYPE svg PUBLIC "-//W3C//DTD SVG 1.1//EN"
  "http://www.w3.org/Graphics/SVG/1.1/DTD/svg11.dtd">
<svg xmlns:xlink="http://www.w3.org/1999/xlink" width="473.798514pt" height="238.871763pt" viewBox="0 0 473.798514 238.871763" xmlns="http://www.w3.org/2000/svg" version="1.1">
 <metadata>
  <rdf:RDF xmlns:dc="http://purl.org/dc/elements/1.1/" xmlns:cc="http://creativecommons.org/ns#" xmlns:rdf="http://www.w3.org/1999/02/22-rdf-syntax-ns#">
   <cc:Work>
    <dc:type rdf:resource="http://purl.org/dc/dcmitype/StillImage"/>
    <dc:date>2023-12-11T10:15:27.913950</dc:date>
    <dc:format>image/svg+xml</dc:format>
    <dc:creator>
     <cc:Agent>
      <dc:title>Matplotlib v3.7.0, https://matplotlib.org/</dc:title>
     </cc:Agent>
    </dc:creator>
   </cc:Work>
  </rdf:RDF>
 </metadata>
 <defs>
  <style type="text/css">*{stroke-linejoin: round; stroke-linecap: butt}</style>
 </defs>
 <g id="figure_1">
  <g id="patch_1">
   <path d="M 0 238.871763 
L 473.798514 238.871763 
L 473.798514 0 
L 0 0 
z
" style="fill: #222222"/>
  </g>
  <g id="axes_1">
   <g id="patch_2">
    <path d="M 47.772129 172.53327 
L 438.372129 172.53327 
L 438.372129 25.65327 
L 47.772129 25.65327 
z
" style="fill: #222222"/>
   </g>
   <g id="matplotlib.axis_1">
    <g id="xtick_1">
     <g id="line2d_1">
      <defs>
       <path id="me342a56613" d="M 0 0 
L 0 9 
" style="stroke: #ffffff; stroke-width: 1.875"/>
      </defs>
      <g>
       <use xlink:href="#me342a56613" x="65.526674" y="172.53327" style="fill: #ffffff; stroke: #ffffff; stroke-width: 1.875"/>
      </g>
     </g>
     <g id="text_1">
      <!-- $\mathdefault{0}$ -->
      <g style="fill: #ffffff" transform="translate(56.682954 199.234434) rotate(-30) scale(0.165 -0.165)">
       <defs>
        <path id="HFBR17-30" d="M 947 4087 
C 762 3959 634 3785 538 3586 
C 307 3136 282 2609 282 2037 
C 282 1317 410 656 768 276 
C 1107 -77 1645 -167 2099 19 
C 2381 129 2586 366 2714 623 
C 2944 1080 2970 1626 2970 2191 
C 2970 2371 2963 2551 2944 2731 
C 2899 3162 2752 3637 2515 3901 
C 2125 4332 1427 4428 947 4087 
z
M 2234 3721 
C 2534 3400 2560 2783 2560 2198 
L 2560 1851 
C 2560 1555 2509 1170 2445 951 
C 2355 649 2208 431 1914 296 
C 1555 167 1184 289 979 572 
C 704 938 691 1587 691 2159 
C 691 2699 698 3297 960 3650 
C 1248 4036 1869 4100 2234 3721 
z
" transform="scale(0.015625)"/>
       </defs>
       <use xlink:href="#HFBR17-30" transform="scale(0.996264)"/>
      </g>
     </g>
    </g>
    <g id="xtick_2">
     <g id="line2d_2">
      <g>
       <use xlink:href="#me342a56613" x="124.271846" y="172.53327" style="fill: #ffffff; stroke: #ffffff; stroke-width: 1.875"/>
      </g>
     </g>
     <g id="text_2">
      <!-- $\mathdefault{20}$ -->
      <g style="fill: #ffffff" transform="translate(107.954268 203.549467) rotate(-30) scale(0.165 -0.165)">
       <defs>
        <path id="HFBR17-32" d="M 467 2942 
C 557 3302 710 3711 1075 3872 
C 1229 3936 1395 3949 1562 3936 
C 1875 3910 2182 3782 2374 3526 
C 2515 3333 2566 3096 2541 2866 
C 2464 2198 1811 1718 1389 1359 
C 1146 1154 454 500 454 500 
L 346 397 
C 288 340 282 340 282 224 
L 282 0 
L 2970 0 
L 2970 360 
L 653 360 
C 858 559 1709 1313 1824 1403 
C 2195 1706 2611 2008 2835 2446 
C 3085 2948 2976 3580 2554 3953 
C 2298 4179 1946 4288 1606 4288 
C 1293 4288 973 4224 723 4026 
C 531 3865 371 3628 282 3384 
C 262 3346 230 3282 237 3237 
C 243 3199 282 3167 301 3141 
C 352 3077 403 3000 467 2942 
z
" transform="scale(0.015625)"/>
       </defs>
       <use xlink:href="#HFBR17-32" transform="scale(0.996264)"/>
       <use xlink:href="#HFBR17-30" transform="translate(50.643218 0) scale(0.996264)"/>
      </g>
     </g>
    </g>
    <g id="xtick_3">
     <g id="line2d_3">
      <g>
       <use xlink:href="#me342a56613" x="183.017017" y="172.53327" style="fill: #ffffff; stroke: #ffffff; stroke-width: 1.875"/>
      </g>
     </g>
     <g id="text_3">
      <!-- $\mathdefault{40}$ -->
      <g style="fill: #ffffff" transform="translate(166.69944 203.549467) rotate(-30) scale(0.165 -0.165)">
       <defs>
        <path id="HFBR17-34" d="M 134 1152 
L 1984 1152 
L 1984 0 
L 2387 0 
L 2387 1152 
L 3117 1152 
L 3117 1493 
L 2387 1493 
L 2387 4254 
L 2042 4254 
C 1926 4254 1894 4261 1843 4164 
C 1587 3745 237 1649 192 1591 
C 141 1500 134 1507 134 1372 
L 134 1152 
z
M 2003 3896 
L 2003 1493 
L 550 1493 
C 595 1583 659 1666 717 1756 
C 1037 2251 1798 3427 1958 3794 
C 1978 3826 1984 3864 2003 3896 
z
" transform="scale(0.015625)"/>
       </defs>
       <use xlink:href="#HFBR17-34" transform="scale(0.996264)"/>
       <use xlink:href="#HFBR17-30" transform="translate(50.643218 0) scale(0.996264)"/>
      </g>
     </g>
    </g>
    <g id="xtick_4">
     <g id="line2d_4">
      <g>
       <use xlink:href="#me342a56613" x="241.762189" y="172.53327" style="fill: #ffffff; stroke: #ffffff; stroke-width: 1.875"/>
      </g>
     </g>
     <g id="text_4">
      <!-- $\mathdefault{60}$ -->
      <g style="fill: #ffffff" transform="translate(225.444611 203.549467) rotate(-30) scale(0.165 -0.165)">
       <defs>
        <path id="HFBR17-36" d="M 723 2088 
L 717 2088 
C 717 2673 819 3355 1318 3728 
C 1594 3928 1965 4030 2445 3915 
C 2547 3889 2643 3850 2739 3825 
L 2739 4050 
C 2739 4075 2746 4120 2726 4146 
C 2682 4204 2323 4262 2310 4262 
C 1754 4326 1389 4204 1050 3915 
C 640 3561 403 3041 326 2514 
C 256 2090 314 1408 397 1074 
C 531 579 787 142 1261 -25 
C 1542 -128 1888 -128 2157 1 
C 2374 105 2554 286 2694 480 
C 2918 790 2976 1166 2950 1547 
C 2938 1735 2912 1923 2835 2097 
C 2714 2376 2509 2667 2246 2796 
C 2125 2848 1997 2848 1869 2848 
C 1530 2848 1210 2700 973 2455 
C 870 2352 768 2222 723 2088 
z
M 1562 2529 
C 1805 2548 2061 2510 2246 2336 
C 2490 2105 2534 1777 2534 1460 
C 2534 1246 2541 1025 2477 823 
C 2438 719 2387 629 2330 544 
C 2189 356 2010 264 1715 225 
C 1427 225 1139 340 973 584 
C 870 725 819 899 787 1065 
C 749 1238 723 1417 736 1591 
C 768 2047 1088 2465 1562 2529 
z
" transform="scale(0.015625)"/>
       </defs>
       <use xlink:href="#HFBR17-36" transform="scale(0.996264)"/>
       <use xlink:href="#HFBR17-30" transform="translate(50.643218 0) scale(0.996264)"/>
      </g>
     </g>
    </g>
    <g id="xtick_5">
     <g id="line2d_5">
      <g>
       <use xlink:href="#me342a56613" x="300.507361" y="172.53327" style="fill: #ffffff; stroke: #ffffff; stroke-width: 1.875"/>
      </g>
     </g>
     <g id="text_5">
      <!-- $\mathdefault{80}$ -->
      <g style="fill: #ffffff" transform="translate(284.189783 203.549467) rotate(-30) scale(0.165 -0.165)">
       <defs>
        <path id="HFBR17-38" d="M 1197 2304 
L 1197 2298 
C 800 2182 467 1964 307 1590 
C 141 1198 256 722 538 413 
C 838 91 1248 -64 1683 -64 
C 2323 -64 2938 410 3014 1071 
C 3027 1169 3021 1273 3008 1370 
C 2893 1870 2528 2168 2054 2298 
C 2106 2317 2163 2330 2214 2349 
C 2483 2459 2707 2619 2848 2876 
C 3059 3288 2854 3770 2509 4033 
C 2163 4297 1696 4367 1274 4277 
C 768 4168 288 3738 320 3185 
C 333 2992 416 2831 512 2716 
C 659 2536 947 2343 1197 2304 
z
M 1523 4000 
C 1805 4000 2157 3968 2362 3749 
C 2605 3486 2618 3010 2374 2740 
C 2221 2573 1997 2489 1773 2470 
C 1459 2444 1101 2496 877 2740 
C 627 3016 646 3518 915 3775 
C 1082 3929 1306 3980 1523 4000 
z
M 1517 2144 
C 1818 2144 2144 2073 2362 1852 
C 2445 1762 2509 1652 2547 1537 
C 2656 1200 2605 774 2355 515 
C 2182 341 1946 276 1709 257 
C 1421 257 1088 327 883 548 
C 602 857 544 1498 877 1860 
C 1043 2034 1280 2125 1517 2144 
z
" transform="scale(0.015625)"/>
       </defs>
       <use xlink:href="#HFBR17-38" transform="scale(0.996264)"/>
       <use xlink:href="#HFBR17-30" transform="translate(50.643218 0) scale(0.996264)"/>
      </g>
     </g>
    </g>
    <g id="xtick_6">
     <g id="line2d_6">
      <g>
       <use xlink:href="#me342a56613" x="359.252532" y="172.53327" style="fill: #ffffff; stroke: #ffffff; stroke-width: 1.875"/>
      </g>
     </g>
     <g id="text_6">
      <!-- $\mathdefault{100}$ -->
      <g style="fill: #ffffff" transform="translate(335.461097 207.864501) rotate(-30) scale(0.165 -0.165)">
       <defs>
        <path id="HFBR17-31" d="M 621 3841 
L 621 3520 
C 973 3520 1216 3584 1498 3706 
L 1498 321 
L 659 321 
L 659 0 
L 2752 0 
L 2752 321 
L 1914 321 
L 1914 4288 
C 1760 4288 1786 4247 1664 4152 
C 1402 3950 1037 3841 621 3841 
z
" transform="scale(0.015625)"/>
       </defs>
       <use xlink:href="#HFBR17-31" transform="scale(0.996264)"/>
       <use xlink:href="#HFBR17-30" transform="translate(50.643218 0) scale(0.996264)"/>
       <use xlink:href="#HFBR17-30" transform="translate(101.286436 0) scale(0.996264)"/>
      </g>
     </g>
    </g>
    <g id="xtick_7">
     <g id="line2d_7">
      <g>
       <use xlink:href="#me342a56613" x="417.997704" y="172.53327" style="fill: #ffffff; stroke: #ffffff; stroke-width: 1.875"/>
      </g>
     </g>
     <g id="text_7">
      <!-- $\mathdefault{120}$ -->
      <g style="fill: #ffffff" transform="translate(394.206269 207.864501) rotate(-30) scale(0.165 -0.165)">
       <use xlink:href="#HFBR17-31" transform="scale(0.996264)"/>
       <use xlink:href="#HFBR17-32" transform="translate(50.643218 0) scale(0.996264)"/>
       <use xlink:href="#HFBR17-30" transform="translate(101.286436 0) scale(0.996264)"/>
      </g>
     </g>
    </g>
    <g id="text_8">
     <!-- Time (h) -->
     <g style="fill: #ffffff" transform="translate(209.904166 227.686707) scale(0.18 -0.18)">
      <defs>
       <path id="HFBR17-54" d="M 192 4437 
L 192 4096 
L 2016 4096 
L 2016 0 
L 2464 0 
L 2464 4096 
L 4288 4096 
L 4288 4437 
L 192 4437 
z
" transform="scale(0.015625)"/>
       <path id="HFBR17-69" d="M 410 4480 
L 410 4075 
L 813 4075 
L 813 4480 
L 410 4480 
z
M 410 3033 
L 410 0 
L 813 0 
L 813 3033 
L 410 3033 
z
" transform="scale(0.015625)"/>
       <path id="HFBR17-6d" d="M 806 2391 
L 800 2391 
L 800 3033 
L 410 3033 
L 410 0 
L 819 0 
L 819 1411 
C 819 1725 800 2040 941 2328 
C 1062 2578 1274 2777 1651 2738 
C 1843 2738 2035 2687 2157 2525 
C 2272 2377 2278 2185 2278 2004 
L 2278 0 
L 2688 0 
L 2688 1411 
C 2688 1725 2669 2040 2810 2328 
C 2931 2578 3142 2777 3520 2738 
C 3712 2738 3904 2687 4026 2525 
C 4141 2377 4147 2185 4147 2004 
L 4147 0 
L 4557 0 
L 4557 1700 
C 4557 2008 4595 2354 4461 2636 
C 4326 2899 4109 3040 3757 3040 
C 3552 3059 3347 3028 3162 2934 
C 2938 2811 2771 2608 2669 2385 
C 2624 2597 2573 2741 2432 2880 
C 2285 3012 2086 3072 1894 3072 
C 1427 3110 1133 2916 934 2624 
C 883 2552 832 2475 806 2391 
z
" transform="scale(0.015625)"/>
       <path id="HFBR17-65" d="M 2675 700 
C 2528 591 2483 533 2298 436 
C 1907 224 1446 224 1114 459 
C 794 689 608 1065 608 1600 
L 2720 1600 
C 2720 2075 2611 2487 2342 2776 
C 2048 3065 1587 3155 1197 3033 
C 1050 2988 915 2911 794 2814 
C 390 2487 218 1966 224 1458 
C 237 790 691 122 1363 -20 
C 1715 -91 2086 -13 2400 147 
C 2458 179 2669 295 2694 353 
C 2714 385 2675 700 2675 700 
z
M 2381 1850 
L 640 1850 
C 717 2319 1101 2814 1619 2756 
C 2042 2718 2266 2416 2349 2037 
C 2362 1972 2368 1915 2381 1850 
z
" transform="scale(0.015625)"/>
       <path id="HFBR17-28" d="M 2189 -1408 
C 2138 -1350 2074 -1298 2016 -1247 
C 1965 -1202 1920 -1151 1875 -1099 
C 1235 -392 902 739 954 1941 
C 979 2596 1107 3264 1414 3856 
C 1555 4119 1798 4492 2016 4678 
C 2074 4730 2138 4781 2189 4839 
L 1978 4839 
C 1946 4839 1901 4845 1869 4833 
C 1792 4794 1600 4601 1574 4575 
C 960 3959 595 3027 544 1941 
C 512 1163 640 372 986 -322 
C 1139 -630 1344 -913 1587 -1157 
C 1651 -1221 1792 -1363 1869 -1401 
C 1901 -1414 1946 -1408 1978 -1408 
L 2189 -1408 
z
" transform="scale(0.015625)"/>
       <path id="HFBR17-68" d="M 410 4460 
L 410 0 
L 819 0 
L 819 1407 
C 819 1722 800 2044 941 2339 
C 1011 2487 1120 2616 1267 2693 
C 1389 2751 1517 2751 1651 2738 
C 1843 2738 2029 2687 2150 2525 
C 2266 2377 2272 2185 2272 2004 
L 2272 0 
L 2682 0 
L 2682 1742 
C 2682 2063 2714 2416 2554 2706 
C 2426 2924 2202 3027 1965 3059 
C 1837 3072 1709 3072 1581 3053 
C 1350 3009 1152 2882 998 2710 
C 928 2627 845 2526 819 2417 
L 813 2417 
L 813 4460 
L 410 4460 
z
" transform="scale(0.015625)"/>
       <path id="HFBR17-29" d="M 320 4839 
C 371 4781 435 4730 493 4678 
C 544 4633 589 4582 634 4530 
C 1190 3888 1510 3014 1555 1941 
C 1587 1144 1466 315 1101 -405 
C 979 -656 819 -894 634 -1099 
C 589 -1151 544 -1202 493 -1247 
C 435 -1298 371 -1350 320 -1408 
L 531 -1408 
C 563 -1408 608 -1414 640 -1401 
C 717 -1363 909 -1170 934 -1144 
C 1549 -527 1914 405 1965 1491 
C 1997 2268 1869 3059 1523 3753 
C 1370 4061 1165 4344 922 4588 
C 858 4653 717 4794 640 4833 
C 608 4845 563 4839 531 4839 
L 320 4839 
z
" transform="scale(0.015625)"/>
      </defs>
      <use xlink:href="#HFBR17-54" transform="scale(0.996264)"/>
      <use xlink:href="#HFBR17-69" transform="translate(69.738177 0) scale(0.996264)"/>
      <use xlink:href="#HFBR17-6d" transform="translate(88.833136 0) scale(0.996264)"/>
      <use xlink:href="#HFBR17-65" transform="translate(166.043262 0) scale(0.996264)"/>
      <use xlink:href="#HFBR17-28" transform="translate(242.340141 0) scale(0.996264)"/>
      <use xlink:href="#HFBR17-68" transform="translate(281.36035 0) scale(0.996264)"/>
      <use xlink:href="#HFBR17-29" transform="translate(329.512847 0) scale(0.996264)"/>
     </g>
    </g>
   </g>
   <g id="matplotlib.axis_2">
    <g id="ytick_1">
     <g id="line2d_8">
      <defs>
       <path id="m3bcba15643" d="M 0 0 
L -9 0 
" style="stroke: #ffffff; stroke-width: 1.875"/>
      </defs>
      <g>
       <use xlink:href="#m3bcba15643" x="47.772129" y="165.85794" style="fill: #ffffff; stroke: #ffffff; stroke-width: 1.875"/>
      </g>
     </g>
     <g id="text_9">
      <!-- $\mathdefault{0}$ -->
      <g style="fill: #ffffff" transform="translate(26.642062 171.5657) scale(0.165 -0.165)">
       <use xlink:href="#HFBR17-30" transform="scale(0.996264)"/>
      </g>
     </g>
    </g>
    <g id="ytick_2">
     <g id="line2d_9">
      <g>
       <use xlink:href="#m3bcba15643" x="47.772129" y="103.423574" style="fill: #ffffff; stroke: #ffffff; stroke-width: 1.875"/>
      </g>
     </g>
     <g id="text_10">
      <!-- $\mathdefault{1}$ -->
      <g style="fill: #ffffff" transform="translate(26.642062 109.131334) scale(0.165 -0.165)">
       <use xlink:href="#HFBR17-31" transform="scale(0.996264)"/>
      </g>
     </g>
    </g>
    <g id="ytick_3">
     <g id="line2d_10">
      <g>
       <use xlink:href="#m3bcba15643" x="47.772129" y="40.989208" style="fill: #ffffff; stroke: #ffffff; stroke-width: 1.875"/>
      </g>
     </g>
     <g id="text_11">
      <!-- $\mathdefault{2}$ -->
      <g style="fill: #ffffff" transform="translate(26.642062 46.696968) scale(0.165 -0.165)">
       <use xlink:href="#HFBR17-32" transform="scale(0.996264)"/>
      </g>
     </g>
    </g>
    <g id="text_12">
     <!-- mA -->
     <g style="fill: #ffffff" transform="translate(19.65327 111.758224) rotate(-90) scale(0.18 -0.18)">
      <defs>
       <path id="HFBR17-41" d="M 134 6 
L 422 6 
L 538 19 
C 730 435 864 909 1037 1344 
C 1670 1344 2362 1344 2963 1344 
L 3014 1260 
C 3123 931 3251 614 3366 291 
C 3398 193 3430 97 3482 19 
C 3622 0 3789 0 3942 0 
C 3834 314 2349 4301 2304 4409 
C 2298 4435 2285 4473 2253 4480 
C 2214 4486 2176 4480 2138 4480 
L 1926 4480 
C 1830 4480 1792 4492 1766 4391 
C 1741 4326 134 6 134 6 
z
M 2010 4043 
C 2278 3246 2566 2462 2848 1678 
L 1165 1678 
L 1722 3207 
L 2010 4043 
z
" transform="scale(0.015625)"/>
      </defs>
      <use xlink:href="#HFBR17-6d" transform="scale(0.996264)"/>
      <use xlink:href="#HFBR17-41" transform="translate(77.210126 0) scale(0.996264)"/>
     </g>
    </g>
   </g>
   <g id="patch_3">
    <path d="M 47.772129 172.53327 
L 47.772129 25.65327 
" style="fill: none; stroke: #ffffff; stroke-width: 1.875; stroke-linejoin: miter; stroke-linecap: square"/>
   </g>
   <g id="patch_4">
    <path d="M 47.772129 172.53327 
L 438.372129 172.53327 
" style="fill: none; stroke: #ffffff; stroke-width: 1.875; stroke-linejoin: miter; stroke-linecap: square"/>
   </g>
   <g id="text_13">
    <!-- $G$. $sulfurreducens$ $\Delta$1620-1624 Tn7::vsfGFP0 on Acetate -->
    <g style="fill: #ffffff" transform="translate(19.545744 19.65327) scale(0.18 -0.18)">
     <defs>
      <path id="HFBRMI10-47" d="M 4006 2132 
L 2701 2132 
L 2598 2119 
C 2560 2023 2541 1907 2522 1792 
L 3526 1792 
C 3494 1689 3475 1580 3456 1471 
C 3411 1260 3258 529 3251 509 
C 3226 464 3149 452 3104 439 
C 2598 291 1926 214 1485 541 
C 1318 657 1210 791 1107 984 
C 902 1369 890 1837 979 2252 
C 1178 3111 1837 3969 2739 4148 
C 3117 4225 3571 4148 3834 4020 
C 3974 3950 4090 3847 4218 3757 
L 4390 4205 
C 4230 4292 4064 4372 3891 4425 
C 3514 4544 3002 4544 2598 4441 
C 1638 4198 870 3391 589 2454 
C 442 1981 422 1449 608 981 
C 704 711 877 488 1082 315 
C 1587 -96 2266 -96 2874 40 
C 3002 72 3539 213 3610 284 
C 3635 316 3635 387 3648 432 
L 4006 2132 
z
" transform="scale(0.015625)"/>
      <path id="HFBR17-2e" d="M 634 501 
L 634 0 
L 1133 0 
L 1133 501 
L 634 501 
z
" transform="scale(0.015625)"/>
      <path id="HFBRMI10-73" d="M 384 648 
L 237 276 
C 358 202 480 133 614 79 
C 992 -64 1523 -64 1914 83 
C 2214 197 2438 426 2554 725 
C 2643 953 2637 1201 2522 1379 
C 2349 1666 2054 1741 1670 1812 
C 1478 1849 1261 1882 1139 2054 
C 1005 2238 1107 2479 1261 2619 
C 1427 2765 1690 2816 1984 2816 
C 2150 2816 2317 2789 2477 2728 
C 2586 2680 2682 2621 2784 2566 
L 2918 2916 
C 2662 3032 2490 3104 2150 3104 
C 1728 3136 1286 3053 1011 2805 
C 710 2531 544 2008 858 1697 
C 1069 1461 1395 1429 1690 1366 
C 1901 1321 2138 1258 2214 1028 
C 2240 939 2227 843 2195 760 
C 2093 455 1786 302 1382 302 
C 1133 302 890 353 666 462 
C 563 513 474 584 384 648 
z
" transform="scale(0.015625)"/>
      <path id="HFBRMI10-75" d="M 1158 3008 
C 1126 2802 1075 2605 1030 2399 
C 986 2195 730 979 698 831 
C 659 634 608 358 704 192 
C 800 -13 1043 -64 1248 -64 
C 1613 -64 1971 70 2253 294 
C 2342 364 2419 448 2496 537 
L 2381 -19 
C 2515 -19 2662 -19 2778 0 
L 2803 70 
L 3424 3008 
L 3014 3008 
C 2989 2847 2650 1293 2630 1191 
C 2566 903 2509 743 2310 544 
C 2074 308 1760 211 1434 243 
C 1312 243 1158 262 1094 384 
C 1050 461 1062 564 1075 647 
C 1101 807 1139 967 1171 1128 
C 1197 1262 1562 2956 1568 3008 
L 1158 3008 
z
" transform="scale(0.015625)"/>
      <path id="HFBRMI10-6c" d="M 1453 4448 
L 512 0 
C 646 0 794 0 909 19 
L 934 89 
C 998 409 1069 723 1139 1043 
L 1856 4448 
L 1453 4448 
z
" transform="scale(0.015625)"/>
      <path id="HFBRMI10-66" d="M 819 3009 
L 755 2688 
L 1306 2688 
C 1107 1792 922 871 730 -32 
C 864 -32 1011 -32 1126 -13 
L 1146 32 
C 1286 720 1440 1389 1581 2077 
C 1632 2270 1651 2495 1715 2675 
L 1779 2688 
L 2502 2688 
L 2566 3009 
L 1766 3009 
C 1824 3195 1850 3393 1888 3579 
C 1907 3669 1920 3765 1958 3842 
C 2112 4111 2541 4208 2931 4144 
C 3021 4124 3110 4092 3200 4073 
L 3270 4432 
C 3040 4477 2790 4503 2554 4471 
C 2125 4413 1690 4118 1536 3714 
C 1478 3560 1389 3105 1389 3105 
C 1389 3079 1382 3034 1357 3021 
C 1325 2996 1248 3009 1210 3009 
L 819 3009 
z
" transform="scale(0.015625)"/>
      <path id="HFBRMI10-72" d="M 1382 2213 
L 1376 2213 
L 1542 3015 
L 1158 3015 
L 518 0 
L 806 0 
C 864 0 934 -19 934 64 
C 947 103 954 147 960 186 
L 1069 680 
C 1107 866 1254 1591 1293 1726 
C 1363 1931 1485 2123 1638 2271 
C 1862 2489 2195 2688 2566 2688 
C 2598 2688 2662 2688 2682 2714 
C 2707 2740 2746 2982 2765 3066 
C 2336 3066 1946 2854 1651 2559 
C 1574 2482 1421 2309 1382 2213 
z
" transform="scale(0.015625)"/>
      <path id="HFBRMI10-65" d="M 2874 702 
C 2778 638 2694 568 2592 510 
C 2291 330 1747 144 1376 356 
C 1235 433 1133 555 1056 702 
C 960 914 928 1119 960 1414 
L 998 1600 
L 3027 1600 
C 3053 1600 3091 1594 3110 1613 
C 3162 1651 3174 1998 3174 2004 
C 3187 2331 3142 2697 2861 2915 
C 2797 2959 2726 2998 2650 3030 
C 2227 3197 1747 3056 1395 2793 
C 954 2466 602 1869 563 1241 
C 538 754 717 375 1024 144 
C 1542 -234 2246 -3 2669 241 
C 2720 273 2797 311 2829 356 
C 2848 388 2874 702 2874 702 
z
M 2829 1850 
L 1082 1850 
C 1229 2216 1510 2581 1888 2722 
C 2176 2831 2560 2786 2733 2498 
C 2848 2305 2854 2062 2829 1850 
z
" transform="scale(0.015625)"/>
      <path id="HFBRMI10-64" d="M 3322 4448 
L 2938 2624 
L 2931 2624 
C 2880 2765 2714 2912 2586 2976 
C 2170 3201 1677 3028 1338 2739 
C 941 2407 685 1920 602 1415 
C 493 781 704 237 1107 32 
C 1472 -148 1920 6 2221 237 
C 2310 307 2394 391 2470 474 
L 2374 0 
C 2515 0 2656 0 2778 19 
L 2803 89 
C 2867 409 2938 723 3008 1043 
L 3725 4448 
L 3322 4448 
z
M 2810 2494 
C 2829 2456 2861 2405 2867 2353 
C 2874 2289 2842 2206 2829 2142 
C 2797 2001 2560 885 2560 885 
C 2534 731 2483 680 2381 577 
C 2221 410 2016 289 1786 269 
C 1542 250 1338 346 1210 455 
C 973 680 954 1020 998 1321 
C 1062 1802 1254 2296 1683 2565 
C 1984 2770 2579 2892 2810 2494 
z
M 2470 475 
C 2470 475 2477 475 2477 475 
C 2477 468 2470 462 2470 475 
z
" transform="scale(0.015625)"/>
      <path id="HFBRMI10-63" d="M 2918 725 
C 2842 679 2778 621 2707 576 
C 2541 465 2368 380 2176 334 
C 1888 256 1619 256 1376 377 
C 1011 576 954 1038 1011 1409 
C 1101 1960 1402 2550 1965 2736 
C 2266 2832 2656 2794 2912 2685 
C 3027 2634 3123 2557 3226 2493 
L 3360 2847 
C 3226 2921 3091 2994 2944 3037 
C 2643 3136 2144 3136 1869 3039 
C 1203 2788 704 2118 602 1415 
C 531 951 653 494 960 219 
C 1485 -243 2291 -12 2746 276 
C 2784 302 2842 328 2867 366 
C 2886 398 2906 642 2918 725 
z
" transform="scale(0.015625)"/>
      <path id="HFBRMI10-6e" d="M 1427 2398 
L 1421 2398 
L 1549 3027 
L 1158 3027 
L 518 0 
L 806 0 
C 864 0 941 -19 941 64 
C 954 109 960 154 973 199 
C 1056 572 1286 1742 1344 1935 
C 1466 2295 1734 2713 2163 2764 
C 2445 2764 2701 2693 2797 2502 
C 2893 2310 2816 2087 2778 1889 
L 2374 0 
L 2675 0 
C 2739 0 2797 -13 2797 71 
C 2835 199 2925 673 2925 673 
L 3213 2026 
C 3264 2270 3322 2565 3187 2796 
C 3072 2988 2854 3052 2643 3071 
C 2541 3084 2438 3084 2336 3065 
C 2054 3014 1792 2847 1606 2635 
C 1542 2565 1466 2488 1427 2398 
z
M 1414 2398 
C 1414 2398 1421 2398 1421 2398 
C 1421 2392 1414 2385 1414 2398 
z
" transform="scale(0.015625)"/>
      <path id="HFBR17-1" d="M 230 0 
L 4141 0 
C 4102 147 4032 288 3981 429 
L 2458 4397 
C 2451 4422 2445 4454 2419 4467 
C 2394 4493 2330 4480 2298 4480 
L 2086 4480 
C 1997 4480 1939 4499 1920 4410 
C 1485 3328 1088 2208 659 1120 
L 390 422 
C 333 282 269 141 230 0 
z
M 2157 4032 
C 2266 3635 2426 3290 2554 2912 
L 3501 422 
L 800 422 
C 1254 1619 1722 2816 2157 4032 
z
" transform="scale(0.015625)"/>
      <path id="HFBR17-2d" d="M 26 1665 
L 26 1344 
L 1811 1344 
L 1811 1665 
L 26 1665 
z
" transform="scale(0.015625)"/>
      <path id="HFBR17-6e" d="M 806 2386 
L 800 2386 
L 800 3033 
L 410 3033 
L 410 0 
L 819 0 
L 819 1404 
C 819 1718 800 2040 941 2334 
C 1011 2482 1120 2610 1267 2687 
C 1389 2745 1517 2745 1651 2732 
C 1843 2732 2029 2681 2150 2520 
C 2266 2372 2272 2180 2272 2000 
L 2272 0 
L 2682 0 
L 2682 1719 
C 2682 2040 2714 2392 2560 2681 
C 2438 2912 2202 3021 1952 3053 
C 1824 3072 1690 3072 1562 3047 
C 1229 2976 922 2707 806 2386 
z
" transform="scale(0.015625)"/>
      <path id="HFBR17-37" d="M 230 4200 
L 230 3840 
L 2739 3840 
L 2502 3608 
C 2291 3383 2099 3144 1926 2887 
C 1350 2017 1037 980 1037 -64 
L 1466 -64 
C 1466 877 1702 1817 2150 2648 
C 2368 3067 2598 3369 2899 3723 
C 2938 3762 2995 3807 3014 3858 
C 3027 3890 3021 3935 3021 3975 
L 3021 4200 
L 230 4200 
z
" transform="scale(0.015625)"/>
      <path id="HFBR17-3a" d="M 634 3008 
L 634 2507 
L 1133 2507 
L 1133 3008 
L 634 3008 
z
M 634 501 
L 634 0 
L 1133 0 
L 1133 501 
L 634 501 
z
" transform="scale(0.015625)"/>
      <path id="HFBR17-76" d="M 45 3040 
C 77 2912 269 2405 282 2373 
C 346 2194 1107 39 1126 19 
C 1146 -13 1203 0 1235 0 
L 1459 0 
C 1542 0 1594 -19 1613 58 
C 1818 597 2566 2733 2675 3040 
L 2278 3040 
C 1971 2175 1658 1308 1370 423 
L 704 2317 
C 608 2547 550 2809 442 3021 
C 326 3040 179 3040 45 3040 
z
" transform="scale(0.015625)"/>
      <path id="HFBR17-73" d="M 198 617 
C 186 527 166 444 154 354 
C 141 283 122 251 186 219 
C 448 65 762 -19 1133 -51 
C 1549 -90 2074 7 2278 418 
C 2336 534 2368 662 2374 791 
C 2400 1253 2035 1549 1722 1658 
C 1370 1793 890 1748 646 2018 
C 518 2166 512 2385 634 2539 
C 890 2899 1715 2744 2042 2584 
C 2093 2558 2138 2526 2195 2513 
L 2253 2860 
C 1952 2995 1690 3072 1274 3072 
C 915 3072 589 2989 384 2783 
C 179 2571 109 2217 230 1948 
C 346 1690 589 1523 851 1440 
C 1229 1305 1658 1369 1907 1061 
C 2048 881 2022 611 1862 450 
C 1555 167 902 270 544 424 
C 422 476 314 553 198 617 
z
" transform="scale(0.015625)"/>
      <path id="HFBR17-66" d="M 678 3009 
L 128 3009 
L 128 2688 
L 678 2688 
L 678 -32 
L 1082 -32 
L 1082 2688 
L 1875 2688 
L 1875 3009 
L 1075 3009 
L 1075 3570 
C 1075 3660 1056 3771 1094 3861 
C 1229 4144 1683 4196 2054 4132 
C 2131 4119 2202 4093 2278 4080 
L 2278 4441 
C 1843 4512 1363 4512 1005 4219 
C 947 4168 896 4118 851 4053 
C 717 3888 678 3704 678 3417 
L 678 3009 
z
" transform="scale(0.015625)"/>
      <path id="HFBR17-47" d="M 3974 2132 
L 2560 2132 
L 2560 1792 
L 3565 1792 
L 3565 614 
C 3565 582 3571 537 3552 511 
C 3533 473 3450 460 3411 447 
C 3117 364 2682 280 2336 344 
C 1869 421 1472 730 1229 1134 
C 742 1929 832 3044 1498 3710 
C 1696 3910 1939 4064 2240 4134 
C 2656 4237 3142 4134 3450 3987 
C 3590 3922 3712 3832 3840 3749 
L 3917 4198 
C 3744 4275 3578 4352 3392 4409 
C 3110 4486 2822 4512 2534 4512 
C 1773 4512 1184 4039 870 3586 
C 403 2884 346 1940 723 1186 
C 934 746 1280 421 1715 197 
C 2253 -64 2886 -64 3450 98 
C 3526 117 3949 251 3968 311 
C 3974 331 3974 358 3974 378 
L 3974 2132 
z
" transform="scale(0.015625)"/>
      <path id="HFBR17-46" d="M 512 4437 
L 512 0 
L 960 0 
L 960 2048 
L 3078 2048 
L 3078 2388 
L 960 2388 
L 960 4096 
L 3354 4096 
L 3354 4437 
L 512 4437 
z
" transform="scale(0.015625)"/>
      <path id="HFBR17-50" d="M 512 4480 
L 512 32 
L 960 32 
L 960 1920 
L 1862 1920 
C 2003 1920 2144 1920 2278 1920 
C 2752 1959 3149 2153 3418 2443 
C 3693 2746 3814 3210 3635 3603 
C 3430 4099 2944 4415 2323 4480 
C 2138 4480 1946 4480 1760 4480 
L 512 4480 
z
M 954 2254 
L 954 4139 
L 1830 4139 
C 2387 4139 2893 4075 3149 3690 
C 3322 3432 3347 3072 3206 2795 
C 3130 2646 3014 2531 2874 2447 
C 2560 2254 2195 2254 1843 2254 
L 954 2254 
z
" transform="scale(0.015625)"/>
      <path id="HFBR17-6f" d="M 685 2693 
C 115 2127 51 1144 544 508 
C 614 411 698 328 794 257 
C 1030 64 1376 -77 1779 -32 
C 2419 45 2861 566 2995 1112 
C 3174 1877 2797 2731 2093 3001 
C 1542 3226 992 3001 685 2693 
z
M 2285 2519 
C 2592 2242 2650 1799 2624 1407 
C 2605 1105 2522 790 2310 565 
C 1965 192 1325 192 954 552 
C 762 758 646 1053 627 1407 
C 595 1927 723 2480 1235 2686 
C 1613 2853 2048 2731 2285 2519 
z
" transform="scale(0.015625)"/>
      <path id="HFBR17-63" d="M 2714 720 
C 2592 630 2483 533 2349 456 
C 2048 296 1587 219 1242 379 
C 742 636 608 1260 678 1774 
C 691 1877 710 1979 742 2076 
C 883 2494 1235 2821 1811 2757 
C 2118 2731 2272 2680 2515 2545 
C 2560 2519 2598 2487 2650 2474 
C 2656 2551 2675 2635 2688 2712 
C 2707 2815 2707 2828 2611 2873 
C 2541 2905 2470 2943 2394 2969 
C 2099 3098 1613 3136 1280 3040 
C 826 2911 486 2519 339 2082 
C 269 1883 250 1671 250 1459 
C 256 784 717 122 1389 -13 
C 1760 -90 2189 19 2445 154 
C 2509 186 2701 302 2733 360 
C 2752 392 2714 720 2714 720 
z
" transform="scale(0.015625)"/>
      <path id="HFBR17-74" d="M 691 3872 
L 691 3009 
L 70 3009 
L 70 2688 
L 685 2688 
L 685 961 
C 685 677 666 335 851 97 
C 960 -45 1107 -83 1331 -64 
C 1517 -64 1702 -25 1875 42 
C 1933 68 2144 161 2170 207 
C 2182 233 2099 518 2099 518 
L 1946 401 
C 1747 278 1350 149 1184 382 
C 1037 582 1075 880 1075 1112 
L 1075 2688 
L 2067 2688 
L 2067 3009 
L 1075 3009 
L 1075 3872 
L 691 3872 
z
" transform="scale(0.015625)"/>
      <path id="HFBR17-61" d="M 506 2497 
C 614 2551 704 2630 813 2683 
C 986 2762 1165 2816 1357 2816 
C 1446 2822 1549 2835 1638 2816 
C 1798 2790 1939 2693 2035 2557 
C 2131 2401 2170 2265 2170 2014 
L 2170 1729 
C 1862 1729 1555 1703 1261 1625 
C 890 1541 486 1352 352 1014 
C 218 690 358 261 646 66 
C 787 -32 954 -32 1120 -19 
C 1389 0 1658 65 1888 208 
C 1997 272 2106 357 2170 467 
L 2176 467 
L 2176 13 
L 2579 13 
L 2579 1721 
C 2579 1908 2598 2109 2560 2297 
C 2522 2555 2362 2769 2176 2918 
C 1958 3086 1709 3143 1376 3118 
C 1069 3118 832 3040 602 2929 
C 570 2916 506 2895 486 2857 
C 467 2830 480 2785 480 2752 
C 493 2667 499 2582 506 2497 
z
M 2170 1536 
L 2170 1048 
C 2170 900 2176 765 2093 637 
C 2022 534 1926 463 1824 412 
C 1459 225 902 283 742 592 
C 614 816 749 1080 934 1228 
C 1210 1440 1747 1536 2170 1536 
z
" transform="scale(0.015625)"/>
     </defs>
     <use xlink:href="#HFBRMI10-47" transform="scale(0.996264)"/>
     <use xlink:href="#HFBR17-2e" transform="translate(74.220133 0) scale(0.996264)"/>
     <use xlink:href="#HFBRMI10-73" transform="translate(144.124374 0) scale(0.996264)"/>
     <use xlink:href="#HFBRMI10-75" transform="translate(192.479997 0) scale(0.996264)"/>
     <use xlink:href="#HFBRMI10-6c" transform="translate(248.833476 0) scale(0.996264)"/>
     <use xlink:href="#HFBRMI10-66" transform="translate(280.835219 0) scale(0.996264)"/>
     <use xlink:href="#HFBRMI10-75" transform="translate(334.768377 0) scale(0.996264)"/>
     <use xlink:href="#HFBRMI10-72" transform="translate(391.121855 0) scale(0.996264)"/>
     <use xlink:href="#HFBRMI10-72" transform="translate(437.028471 0) scale(0.996264)"/>
     <use xlink:href="#HFBRMI10-65" transform="translate(482.935087 0) scale(0.996264)"/>
     <use xlink:href="#HFBRMI10-64" transform="translate(535.897793 0) scale(0.996264)"/>
     <use xlink:href="#HFBRMI10-75" transform="translate(596.956983 0) scale(0.996264)"/>
     <use xlink:href="#HFBRMI10-63" transform="translate(653.310462 0) scale(0.996264)"/>
     <use xlink:href="#HFBRMI10-65" transform="translate(708.639903 0) scale(0.996264)"/>
     <use xlink:href="#HFBRMI10-6e" transform="translate(761.602608 0) scale(0.996264)"/>
     <use xlink:href="#HFBRMI10-73" transform="translate(815.60314 0) scale(0.996264)"/>
     <use xlink:href="#HFBR17-1" transform="translate(895.423975 0) scale(0.996264)"/>
     <use xlink:href="#HFBR17-31" transform="translate(963.501737 0) scale(0.996264)"/>
     <use xlink:href="#HFBR17-36" transform="translate(1014.144954 0) scale(0.996264)"/>
     <use xlink:href="#HFBR17-32" transform="translate(1064.788172 0) scale(0.996264)"/>
     <use xlink:href="#HFBR17-30" transform="translate(1115.43139 0) scale(0.996264)"/>
     <use xlink:href="#HFBR17-2d" transform="translate(1166.074608 0) scale(0.996264)"/>
     <use xlink:href="#HFBR17-31" transform="translate(1199.283282 0) scale(0.996264)"/>
     <use xlink:href="#HFBR17-36" transform="translate(1249.926499 0) scale(0.996264)"/>
     <use xlink:href="#HFBR17-32" transform="translate(1300.569717 0) scale(0.996264)"/>
     <use xlink:href="#HFBR17-34" transform="translate(1351.212935 0) scale(0.996264)"/>
     <use xlink:href="#HFBR17-54" transform="translate(1433.321364 0) scale(0.996264)"/>
     <use xlink:href="#HFBR17-6e" transform="translate(1503.059541 0) scale(0.996264)"/>
     <use xlink:href="#HFBR17-37" transform="translate(1551.212038 0) scale(0.996264)"/>
     <use xlink:href="#HFBR17-3a" transform="translate(1601.855256 0) scale(0.996264)"/>
     <use xlink:href="#HFBR17-3a" transform="translate(1629.252379 0) scale(0.996264)"/>
     <use xlink:href="#HFBR17-76" transform="translate(1656.649503 0) scale(0.996264)"/>
     <use xlink:href="#HFBR17-73" transform="translate(1698.990541 0) scale(0.996264)"/>
     <use xlink:href="#HFBR17-66" transform="translate(1737.42957 0) scale(0.996264)"/>
     <use xlink:href="#HFBR17-47" transform="translate(1767.732514 0) scale(0.996264)"/>
     <use xlink:href="#HFBR17-46" transform="translate(1835.810276 0) scale(0.996264)"/>
     <use xlink:href="#HFBR17-50" transform="translate(1891.642334 0) scale(0.996264)"/>
     <use xlink:href="#HFBR17-30" transform="translate(1954.531241 0) scale(0.996264)"/>
     <use xlink:href="#HFBR17-6f" transform="translate(2036.63967 0) scale(0.996264)"/>
     <use xlink:href="#HFBR17-6e" transform="translate(2087.282888 0) scale(0.996264)"/>
     <use xlink:href="#HFBR17-41" transform="translate(2166.900597 0) scale(0.996264)"/>
     <use xlink:href="#HFBR17-63" transform="translate(2230.412215 0) scale(0.996264)"/>
     <use xlink:href="#HFBR17-65" transform="translate(2275.243882 0) scale(0.996264)"/>
     <use xlink:href="#HFBR17-74" transform="translate(2320.07555 0) scale(0.996264)"/>
     <use xlink:href="#HFBR17-61" transform="translate(2356.189938 0) scale(0.996264)"/>
     <use xlink:href="#HFBR17-74" transform="translate(2402.68202 0) scale(0.996264)"/>
     <use xlink:href="#HFBR17-65" transform="translate(2438.796408 0) scale(0.996264)"/>
    </g>
   </g>
   <g id="line2d_11">
    <path d="M 65.526674 165.727429 
L 65.8204 165.841918 
L 68.366024 165.851306 
L 101.557046 165.724793 
L 113.30608 165.568659 
L 118.886872 165.267239 
L 130.733815 164.154425 
L 135.922972 163.427255 
L 140.720494 162.543654 
L 145.420108 161.468304 
L 150.119721 160.21906 
L 157.462868 157.952891 
L 163.533202 155.695425 
L 167.743273 154.095087 
L 168.036999 154.023849 
L 169.407719 153.47758 
L 176.261323 150.678951 
L 176.359231 150.828284 
L 176.652957 150.601172 
L 178.415312 149.885942 
L 182.331657 148.251142 
L 183.017017 148.007283 
L 183.114926 148.115144 
L 183.408652 147.812026 
L 184.485647 147.338645 
L 186.639636 146.389192 
L 187.227088 146.132674 
L 188.891535 145.447736 
L 190.066438 144.989705 
L 191.33925 144.508293 
L 199.074031 141.479977 
L 199.269848 141.675414 
L 199.465665 141.387068 
L 199.8573 141.305299 
L 200.738478 140.946882 
L 201.228021 140.722175 
L 201.521746 140.651037 
L 203.186193 139.903755 
L 204.85064 139.332049 
L 206.025543 138.976038 
L 206.808812 138.822238 
L 208.081624 138.376646 
L 208.179533 138.69634 
L 208.37535 138.390139 
L 208.864893 138.198391 
L 211.116791 137.193663 
L 211.90006 136.735991 
L 213.466598 136.131349 
L 213.760324 136.044843 
L 214.347776 135.940359 
L 215.42477 135.481621 
L 215.914314 135.327999 
L 216.8934 134.695282 
L 217.57876 134.340173 
L 224.138638 131.974864 
L 224.823998 131.726909 
L 225.215632 131.577932 
L 225.41145 131.482047 
L 225.607267 131.523444 
L 225.900993 131.365783 
L 227.663348 130.562355 
L 228.348708 130.394167 
L 228.93616 130.143029 
L 230.698515 129.300347 
L 231.090149 129.175091 
L 231.971327 128.780127 
L 233.048322 128.319923 
L 233.537865 128.017913 
L 235.789763 126.970849 
L 235.98558 127.051421 
L 238.237479 126.224754 
L 238.727022 125.975525 
L 239.020748 125.929973 
L 242.251732 124.521063 
L 242.937092 124.103851 
L 243.328727 123.943423 
L 244.111996 123.606054 
L 245.482717 122.839407 
L 247.147163 122.324224 
L 247.538798 122.16158 
L 247.930424 121.995365 
L 248.322058 121.796861 
L 249.203236 121.408708 
L 250.965591 120.663738 
L 253.707032 119.611193 
L 254.098667 119.325839 
L 254.196575 119.35987 
L 254.392393 119.193412 
L 254.58821 119.342415 
L 254.881936 119.079616 
L 256.252656 118.436429 
L 256.546382 118.261648 
L 257.42756 117.860893 
L 259.58155 117.033081 
L 259.679458 116.948673 
L 259.973184 118.687599 
L 260.462727 117.975308 
L 260.854362 117.894956 
L 261.735539 118.885632 
L 262.4209 119.479771 
L 263.399986 119.725984 
L 263.79162 119.577989 
L 264.085346 119.480487 
L 265.847701 117.751015 
L 266.141427 117.346127 
L 270.449406 112.4524 
L 272.505487 110.959271 
L 273.484573 109.765908 
L 274.169934 109.296353 
L 274.365751 109.24477 
L 274.855294 108.932814 
L 276.617649 108.00244 
L 276.911375 107.827016 
L 277.205101 107.580005 
L 277.890461 107.323815 
L 278.184187 107.28333 
L 278.380004 107.250376 
L 278.67373 106.95065 
L 279.848634 106.603262 
L 280.14236 106.582143 
L 280.631903 106.376471 
L 281.317263 106.21132 
L 282.100532 105.881959 
L 282.590075 105.704552 
L 283.079618 105.431399 
L 283.471253 105.364351 
L 284.156613 105.163833 
L 284.744065 104.889878 
L 285.037791 104.764003 
L 287.093872 104.030696 
L 287.387597 103.901816 
L 288.170866 103.829744 
L 288.464592 103.721612 
L 289.052044 103.529427 
L 289.835313 103.321861 
L 290.03113 103.309637 
L 290.422765 103.262441 
L 290.814399 103.167016 
L 291.108125 102.932178 
L 292.283028 102.86164 
L 292.478846 102.806949 
L 292.772571 102.763753 
L 293.066297 102.603225 
L 293.360023 102.547527 
L 293.751658 102.564041 
L 293.947475 102.517332 
L 294.241201 102.514962 
L 294.632835 102.579496 
L 294.828652 102.543074 
L 295.318196 102.545128 
L 295.70983 102.512219 
L 297.570094 102.696078 
L 298.353363 102.544781 
L 298.54918 102.698073 
L 299.136632 102.504207 
L 299.332449 102.662545 
L 299.626175 102.551994 
L 299.919901 102.539997 
L 300.311535 102.548212 
L 300.605261 102.468171 
L 301.682256 102.706702 
L 301.878073 102.710735 
L 302.269708 102.788179 
L 302.955068 103.050829 
L 303.934154 103.480286 
L 304.129971 103.642421 
L 304.521606 103.933846 
L 304.717423 104.071592 
L 305.206966 104.491262 
L 306.969321 106.434097 
L 307.948407 108.028235 
L 310.396123 113.407075 
L 310.885666 115.084607 
L 312.648021 121.679836 
L 312.941747 122.912622 
L 313.627107 125.843607 
L 314.997828 131.728305 
L 315.389463 133.246108 
L 315.781097 134.872009 
L 317.151818 140.167192 
L 319.893259 148.835646 
L 320.676528 150.791633 
L 321.94934 153.4381 
L 323.124243 155.32621 
L 324.005421 156.457252 
L 325.571959 157.941727 
L 327.530131 159.145751 
L 329.194578 159.843677 
L 330.46739 160.233571 
L 333.9921 161.083092 
L 341.726881 162.372717 
L 342.412241 162.461679 
L 342.51015 159.630898 
L 342.705967 130.621793 
L 342.999693 120.821729 
L 343.293419 115.977358 
L 343.880871 113.734403 
L 344.859957 110.684132 
L 345.3495 109.492284 
L 346.426495 105.282472 
L 347.111855 102.792115 
L 347.993033 100.458613 
L 348.678393 99.137585 
L 349.461662 98.017513 
L 351.224017 96.317262 
L 352.105195 95.64686 
L 352.398921 95.421865 
L 352.692646 95.174689 
L 354.063367 93.725649 
L 354.944545 92.57706 
L 355.434088 91.882753 
L 356.315265 90.427142 
L 357.294352 88.808938 
L 358.86089 86.328422 
L 361.602331 81.563249 
L 361.896057 81.15541 
L 362.287691 80.397562 
L 362.483508 80.095329 
L 363.75632 77.835024 
L 364.050046 77.470988 
L 365.518676 75.189061 
L 365.616584 75.152738 
L 366.497762 73.823256 
L 366.791488 73.457831 
L 367.476848 72.487554 
L 367.966391 71.938405 
L 370.022472 69.400364 
L 370.120381 69.362337 
L 370.512015 68.889116 
L 370.805741 68.592294 
L 371.882736 67.581837 
L 372.078553 67.021606 
L 372.372279 66.685131 
L 373.057639 65.857365 
L 373.743 64.841858 
L 374.036726 64.5762 
L 374.134634 64.555289 
L 374.526269 64.127093 
L 374.722086 63.931815 
L 374.819994 63.954526 
L 375.701172 62.862122 
L 375.896989 62.796915 
L 376.288624 62.368544 
L 376.58235 62.066075 
L 376.680258 62.101185 
L 377.071893 61.608916 
L 377.95307 60.51126 
L 378.540522 60.055282 
L 379.127974 59.639462 
L 379.323791 59.505359 
L 379.4217 59.462114 
L 379.813334 58.896034 
L 380.302877 58.416924 
L 380.498694 58.408776 
L 380.694512 57.892933 
L 380.988237 57.386814 
L 381.575689 56.528633 
L 381.771506 56.309135 
L 381.869415 56.368322 
L 382.065232 56.203224 
L 382.456867 56.008137 
L 382.848501 55.773742 
L 383.044318 55.615983 
L 383.142227 55.619222 
L 383.338044 55.375872 
L 383.533862 55.376261 
L 383.925496 55.130691 
L 384.219222 55.05576 
L 384.708765 54.736514 
L 385.394125 53.89281 
L 385.589943 53.798051 
L 386.373212 53.032755 
L 386.666937 52.324439 
L 386.862755 52.285996 
L 387.15648 52.122071 
L 387.254389 52.091429 
L 387.743932 51.488009 
L 388.037658 51.301897 
L 388.429293 51.157768 
L 388.527201 51.232658 
L 389.016744 50.705407 
L 389.212561 50.551976 
L 389.31047 50.533529 
L 389.604196 50.26744 
L 391.954003 48.50309 
L 392.541455 48.286471 
L 392.933089 48.057245 
L 393.324724 47.689985 
L 393.422632 47.743389 
L 393.912175 47.275168 
L 394.401718 47.149409 
L 394.597536 46.900925 
L 394.793353 46.950053 
L 395.087079 46.658286 
L 395.282896 46.338795 
L 395.380805 46.354451 
L 395.67453 46.00516 
L 395.968256 45.757866 
L 396.164073 45.6123 
L 396.457799 45.314461 
L 397.045251 44.731742 
L 397.241068 44.529673 
L 397.436886 44.393847 
L 398.122246 44.106114 
L 398.318063 44.141964 
L 398.807606 43.734755 
L 399.492967 43.178663 
L 399.786692 42.994346 
L 399.884601 43.039157 
L 400.276235 42.673915 
L 400.472053 42.383411 
L 400.863687 42.289534 
L 401.157413 41.98014 
L 401.35323 42.045041 
L 401.451139 41.953719 
L 401.646956 41.6035 
L 401.744865 41.580682 
L 402.332316 40.89396 
L 402.430225 40.948994 
L 402.626042 40.805191 
L 403.017677 40.618537 
L 403.311403 40.381563 
L 403.996763 40.396981 
L 404.19258 40.189979 
L 404.584215 40.178959 
L 404.780032 40.11926 
L 405.171666 40.146323 
L 405.563301 39.6376 
L 405.954935 39.123024 
L 406.150753 38.968377 
L 406.640296 38.286301 
L 406.738204 38.341088 
L 407.03193 38.057185 
L 407.129839 38.130102 
L 407.325656 37.958026 
L 407.521473 37.759752 
L 407.717291 37.528614 
L 407.913108 37.505288 
L 408.108925 37.164144 
L 408.304742 37.095962 
L 408.598468 36.885161 
L 408.696377 36.93334 
L 408.794285 36.854256 
L 408.990103 37.056952 
L 410.752458 36.410217 
L 410.948275 36.275672 
L 411.242001 35.722153 
L 411.437818 35.715154 
L 411.535727 35.701627 
L 411.731544 35.52687 
L 412.808539 35.002516 
L 413.004356 34.743141 
L 413.200173 34.719424 
L 413.39599 34.359375 
L 414.668803 34.02641 
L 414.766711 34.013648 
L 414.962528 33.765788 
L 415.158346 34.134519 
L 415.354163 34.036221 
L 415.54998 33.939956 
L 415.843706 33.861273 
L 416.039523 33.853961 
L 416.626975 33.405997 
L 416.724884 33.123781 
L 416.822792 33.179697 
L 417.214427 33.036166 
L 417.508152 32.789863 
L 417.70397 32.717247 
L 417.899787 32.587644 
L 418.095604 32.681852 
L 418.291421 32.626281 
L 418.683056 32.773454 
L 418.780965 32.730087 
L 418.976782 32.483471 
L 419.270508 32.591988 
L 419.662142 32.550923 
L 419.857959 32.35399 
L 419.955868 32.387401 
L 420.053777 32.597885 
L 420.445411 32.329633 
L 420.617583 32.35065 
L 420.617583 32.35065 
" clip-path="url(#p98d7884f07)" style="fill: none; stroke: #ff8c00; stroke-width: 2.25; stroke-linecap: round"/>
   </g>
  </g>
 </g>
 <defs>
  <clipPath id="p98d7884f07">
   <rect x="47.772129" y="25.65327" width="390.6" height="146.88"/>
  </clipPath>
 </defs>
</svg>
