<?xml version="1.0" encoding="utf-8" standalone="no"?>
<!DOCTYPE svg PUBLIC "-//W3C//DTD SVG 1.1//EN"
  "http://www.w3.org/Graphics/SVG/1.1/DTD/svg11.dtd">
<svg xmlns:xlink="http://www.w3.org/1999/xlink" width="487.461788pt" height="231.260799pt" viewBox="0 0 487.461788 231.260799" xmlns="http://www.w3.org/2000/svg" version="1.1">
 <metadata>
  <rdf:RDF xmlns:dc="http://purl.org/dc/elements/1.1/" xmlns:cc="http://creativecommons.org/ns#" xmlns:rdf="http://www.w3.org/1999/02/22-rdf-syntax-ns#">
   <cc:Work>
    <dc:type rdf:resource="http://purl.org/dc/dcmitype/StillImage"/>
    <dc:date>2023-12-08T17:57:32.718074</dc:date>
    <dc:format>image/svg+xml</dc:format>
    <dc:creator>
     <cc:Agent>
      <dc:title>Matplotlib v3.7.0, https://matplotlib.org/</dc:title>
     </cc:Agent>
    </dc:creator>
   </cc:Work>
  </rdf:RDF>
 </metadata>
 <defs>
  <style type="text/css">*{stroke-linejoin: round; stroke-linecap: butt}</style>
 </defs>
 <g id="figure_1">
  <g id="patch_1">
   <path d="M 0 231.260799 
L 487.461788 231.260799 
L 487.461788 0 
L 0 0 
z
" style="fill: #222222"/>
  </g>
  <g id="axes_1">
   <g id="patch_2">
    <path d="M 48.430894 168.382195 
L 439.030894 168.382195 
L 439.030894 21.502195 
L 48.430894 21.502195 
z
" style="fill: #222222"/>
   </g>
   <g id="matplotlib.axis_1">
    <g id="xtick_1">
     <g id="line2d_1">
      <defs>
       <path id="mf627f6815b" d="M 0 0 
L 0 3.5 
" style="stroke: #ffffff; stroke-width: 0.8"/>
      </defs>
      <g>
       <use xlink:href="#mf627f6815b" x="92.075504" y="168.382195" style="fill: #ffffff; stroke: #ffffff; stroke-width: 0.8"/>
      </g>
     </g>
     <g id="text_1">
      <!-- $\mathdefault{2023{-}09{-}16}$ -->
      <g style="fill: #ffffff" transform="translate(41.58721 210.043896) rotate(-30) scale(0.1 -0.1)">
       <defs>
        <path id="HFBR17-32" d="M 467 2942 
C 557 3302 710 3711 1075 3872 
C 1229 3936 1395 3949 1562 3936 
C 1875 3910 2182 3782 2374 3526 
C 2515 3333 2566 3096 2541 2866 
C 2464 2198 1811 1718 1389 1359 
C 1146 1154 454 500 454 500 
L 346 397 
C 288 340 282 340 282 224 
L 282 0 
L 2970 0 
L 2970 360 
L 653 360 
C 858 559 1709 1313 1824 1403 
C 2195 1706 2611 2008 2835 2446 
C 3085 2948 2976 3580 2554 3953 
C 2298 4179 1946 4288 1606 4288 
C 1293 4288 973 4224 723 4026 
C 531 3865 371 3628 282 3384 
C 262 3346 230 3282 237 3237 
C 243 3199 282 3167 301 3141 
C 352 3077 403 3000 467 2942 
z
" transform="scale(0.015625)"/>
        <path id="HFBR17-30" d="M 947 4087 
C 762 3959 634 3785 538 3586 
C 307 3136 282 2609 282 2037 
C 282 1317 410 656 768 276 
C 1107 -77 1645 -167 2099 19 
C 2381 129 2586 366 2714 623 
C 2944 1080 2970 1626 2970 2191 
C 2970 2371 2963 2551 2944 2731 
C 2899 3162 2752 3637 2515 3901 
C 2125 4332 1427 4428 947 4087 
z
M 2234 3721 
C 2534 3400 2560 2783 2560 2198 
L 2560 1851 
C 2560 1555 2509 1170 2445 951 
C 2355 649 2208 431 1914 296 
C 1555 167 1184 289 979 572 
C 704 938 691 1587 691 2159 
C 691 2699 698 3297 960 3650 
C 1248 4036 1869 4100 2234 3721 
z
" transform="scale(0.015625)"/>
        <path id="HFBR17-33" d="M 518 3246 
C 570 3323 608 3407 666 3484 
C 800 3664 986 3805 1197 3889 
C 1530 4024 2016 4024 2278 3726 
C 2509 3461 2413 3047 2202 2802 
C 2010 2576 1760 2466 1389 2466 
C 1280 2466 1178 2434 1069 2434 
L 1069 2112 
L 1510 2112 
C 1882 2112 2125 2055 2330 1836 
C 2682 1463 2650 801 2259 461 
C 2061 294 1786 242 1530 261 
C 1030 300 589 564 294 975 
C 262 911 262 821 250 750 
C 230 647 230 647 294 564 
C 480 313 845 82 1133 -2 
C 1645 -156 2240 -86 2637 306 
C 2714 384 2784 467 2842 557 
C 3078 930 3085 1418 2822 1778 
C 2714 1926 2573 2042 2413 2132 
C 2304 2196 2176 2260 2048 2273 
C 2419 2447 2765 2741 2829 3223 
C 2886 3672 2624 3948 2355 4108 
C 1939 4352 1395 4352 966 4139 
C 768 4043 589 3902 454 3728 
C 429 3696 333 3587 333 3535 
C 333 3503 358 3471 378 3445 
L 518 3246 
z
" transform="scale(0.015625)"/>
        <path id="HFBRSY10-0" d="M 627 1797 
C 512 1759 499 1586 627 1554 
C 659 1541 698 1548 736 1548 
L 4141 1548 
C 4218 1548 4339 1522 4403 1586 
C 4474 1656 4435 1784 4333 1804 
C 4256 1816 4166 1804 4090 1804 
L 730 1804 
C 698 1804 659 1810 627 1797 
z
" transform="scale(0.015625)"/>
        <path id="HFBR17-39" d="M 2528 2109 
C 2528 2109 2534 2109 2534 2109 
C 2534 2032 2528 1948 2528 1871 
C 2515 1363 2381 762 1946 444 
C 1818 341 1619 256 1427 256 
C 1082 205 800 370 602 502 
L 435 205 
C 710 -8 1126 -168 1613 -59 
C 2048 37 2400 372 2618 751 
C 2950 1335 3034 2035 2906 2850 
C 2822 3429 2573 3987 2054 4199 
C 1773 4315 1414 4315 1139 4193 
C 870 4063 640 3838 486 3586 
C 346 3348 294 3078 294 2807 
C 294 2575 320 2350 397 2130 
C 518 1827 762 1479 1050 1383 
C 1158 1344 1267 1344 1382 1344 
C 1722 1344 2048 1498 2285 1742 
C 2362 1820 2496 2000 2528 2109 
z
M 1562 3968 
C 1850 3968 2131 3852 2298 3602 
C 2374 3480 2419 3337 2451 3196 
C 2547 2823 2560 2412 2349 2077 
C 2214 1864 1971 1665 1677 1665 
C 1466 1665 1235 1691 1062 1825 
C 806 2023 717 2311 717 2733 
C 717 3110 730 3405 934 3648 
C 1075 3840 1254 3929 1562 3968 
z
" transform="scale(0.015625)"/>
        <path id="HFBR17-31" d="M 621 3841 
L 621 3520 
C 973 3520 1216 3584 1498 3706 
L 1498 321 
L 659 321 
L 659 0 
L 2752 0 
L 2752 321 
L 1914 321 
L 1914 4288 
C 1760 4288 1786 4247 1664 4152 
C 1402 3950 1037 3841 621 3841 
z
" transform="scale(0.015625)"/>
        <path id="HFBR17-36" d="M 723 2088 
L 717 2088 
C 717 2673 819 3355 1318 3728 
C 1594 3928 1965 4030 2445 3915 
C 2547 3889 2643 3850 2739 3825 
L 2739 4050 
C 2739 4075 2746 4120 2726 4146 
C 2682 4204 2323 4262 2310 4262 
C 1754 4326 1389 4204 1050 3915 
C 640 3561 403 3041 326 2514 
C 256 2090 314 1408 397 1074 
C 531 579 787 142 1261 -25 
C 1542 -128 1888 -128 2157 1 
C 2374 105 2554 286 2694 480 
C 2918 790 2976 1166 2950 1547 
C 2938 1735 2912 1923 2835 2097 
C 2714 2376 2509 2667 2246 2796 
C 2125 2848 1997 2848 1869 2848 
C 1530 2848 1210 2700 973 2455 
C 870 2352 768 2222 723 2088 
z
M 1562 2529 
C 1805 2548 2061 2510 2246 2336 
C 2490 2105 2534 1777 2534 1460 
C 2534 1246 2541 1025 2477 823 
C 2438 719 2387 629 2330 544 
C 2189 356 2010 264 1715 225 
C 1427 225 1139 340 973 584 
C 870 725 819 899 787 1065 
C 749 1238 723 1417 736 1591 
C 768 2047 1088 2465 1562 2529 
z
" transform="scale(0.015625)"/>
       </defs>
       <use xlink:href="#HFBR17-32" transform="scale(0.996264)"/>
       <use xlink:href="#HFBR17-30" transform="translate(50.643218 0) scale(0.996264)"/>
       <use xlink:href="#HFBR17-32" transform="translate(101.286436 0) scale(0.996264)"/>
       <use xlink:href="#HFBR17-33" transform="translate(151.929653 0) scale(0.996264)"/>
       <use xlink:href="#HFBRSY10-0" transform="translate(202.572871 0) scale(0.996264)"/>
       <use xlink:href="#HFBR17-30" transform="translate(280.060339 0) scale(0.996264)"/>
       <use xlink:href="#HFBR17-39" transform="translate(330.703557 0) scale(0.996264)"/>
       <use xlink:href="#HFBRSY10-0" transform="translate(381.346775 0) scale(0.996264)"/>
       <use xlink:href="#HFBR17-31" transform="translate(458.834242 0) scale(0.996264)"/>
       <use xlink:href="#HFBR17-36" transform="translate(509.47746 0) scale(0.996264)"/>
      </g>
     </g>
    </g>
    <g id="xtick_2">
     <g id="line2d_2">
      <g>
       <use xlink:href="#mf627f6815b" x="161.706768" y="168.382195" style="fill: #ffffff; stroke: #ffffff; stroke-width: 0.8"/>
      </g>
     </g>
     <g id="text_2">
      <!-- $\mathdefault{2023{-}09{-}17}$ -->
      <g style="fill: #ffffff" transform="translate(111.218474 210.043896) rotate(-30) scale(0.1 -0.1)">
       <defs>
        <path id="HFBR17-37" d="M 230 4200 
L 230 3840 
L 2739 3840 
L 2502 3608 
C 2291 3383 2099 3144 1926 2887 
C 1350 2017 1037 980 1037 -64 
L 1466 -64 
C 1466 877 1702 1817 2150 2648 
C 2368 3067 2598 3369 2899 3723 
C 2938 3762 2995 3807 3014 3858 
C 3027 3890 3021 3935 3021 3975 
L 3021 4200 
L 230 4200 
z
" transform="scale(0.015625)"/>
       </defs>
       <use xlink:href="#HFBR17-32" transform="scale(0.996264)"/>
       <use xlink:href="#HFBR17-30" transform="translate(50.643218 0) scale(0.996264)"/>
       <use xlink:href="#HFBR17-32" transform="translate(101.286436 0) scale(0.996264)"/>
       <use xlink:href="#HFBR17-33" transform="translate(151.929653 0) scale(0.996264)"/>
       <use xlink:href="#HFBRSY10-0" transform="translate(202.572871 0) scale(0.996264)"/>
       <use xlink:href="#HFBR17-30" transform="translate(280.060339 0) scale(0.996264)"/>
       <use xlink:href="#HFBR17-39" transform="translate(330.703557 0) scale(0.996264)"/>
       <use xlink:href="#HFBRSY10-0" transform="translate(381.346775 0) scale(0.996264)"/>
       <use xlink:href="#HFBR17-31" transform="translate(458.834242 0) scale(0.996264)"/>
       <use xlink:href="#HFBR17-37" transform="translate(509.47746 0) scale(0.996264)"/>
      </g>
     </g>
    </g>
    <g id="xtick_3">
     <g id="line2d_3">
      <g>
       <use xlink:href="#mf627f6815b" x="231.338032" y="168.382195" style="fill: #ffffff; stroke: #ffffff; stroke-width: 0.8"/>
      </g>
     </g>
     <g id="text_3">
      <!-- $\mathdefault{2023{-}09{-}18}$ -->
      <g style="fill: #ffffff" transform="translate(180.849738 210.043896) rotate(-30) scale(0.1 -0.1)">
       <defs>
        <path id="HFBR17-38" d="M 1197 2304 
L 1197 2298 
C 800 2182 467 1964 307 1590 
C 141 1198 256 722 538 413 
C 838 91 1248 -64 1683 -64 
C 2323 -64 2938 410 3014 1071 
C 3027 1169 3021 1273 3008 1370 
C 2893 1870 2528 2168 2054 2298 
C 2106 2317 2163 2330 2214 2349 
C 2483 2459 2707 2619 2848 2876 
C 3059 3288 2854 3770 2509 4033 
C 2163 4297 1696 4367 1274 4277 
C 768 4168 288 3738 320 3185 
C 333 2992 416 2831 512 2716 
C 659 2536 947 2343 1197 2304 
z
M 1523 4000 
C 1805 4000 2157 3968 2362 3749 
C 2605 3486 2618 3010 2374 2740 
C 2221 2573 1997 2489 1773 2470 
C 1459 2444 1101 2496 877 2740 
C 627 3016 646 3518 915 3775 
C 1082 3929 1306 3980 1523 4000 
z
M 1517 2144 
C 1818 2144 2144 2073 2362 1852 
C 2445 1762 2509 1652 2547 1537 
C 2656 1200 2605 774 2355 515 
C 2182 341 1946 276 1709 257 
C 1421 257 1088 327 883 548 
C 602 857 544 1498 877 1860 
C 1043 2034 1280 2125 1517 2144 
z
" transform="scale(0.015625)"/>
       </defs>
       <use xlink:href="#HFBR17-32" transform="scale(0.996264)"/>
       <use xlink:href="#HFBR17-30" transform="translate(50.643218 0) scale(0.996264)"/>
       <use xlink:href="#HFBR17-32" transform="translate(101.286436 0) scale(0.996264)"/>
       <use xlink:href="#HFBR17-33" transform="translate(151.929653 0) scale(0.996264)"/>
       <use xlink:href="#HFBRSY10-0" transform="translate(202.572871 0) scale(0.996264)"/>
       <use xlink:href="#HFBR17-30" transform="translate(280.060339 0) scale(0.996264)"/>
       <use xlink:href="#HFBR17-39" transform="translate(330.703557 0) scale(0.996264)"/>
       <use xlink:href="#HFBRSY10-0" transform="translate(381.346775 0) scale(0.996264)"/>
       <use xlink:href="#HFBR17-31" transform="translate(458.834242 0) scale(0.996264)"/>
       <use xlink:href="#HFBR17-38" transform="translate(509.47746 0) scale(0.996264)"/>
      </g>
     </g>
    </g>
    <g id="xtick_4">
     <g id="line2d_4">
      <g>
       <use xlink:href="#mf627f6815b" x="300.969296" y="168.382195" style="fill: #ffffff; stroke: #ffffff; stroke-width: 0.8"/>
      </g>
     </g>
     <g id="text_4">
      <!-- $\mathdefault{2023{-}09{-}19}$ -->
      <g style="fill: #ffffff" transform="translate(250.481002 210.043896) rotate(-30) scale(0.1 -0.1)">
       <use xlink:href="#HFBR17-32" transform="scale(0.996264)"/>
       <use xlink:href="#HFBR17-30" transform="translate(50.643218 0) scale(0.996264)"/>
       <use xlink:href="#HFBR17-32" transform="translate(101.286436 0) scale(0.996264)"/>
       <use xlink:href="#HFBR17-33" transform="translate(151.929653 0) scale(0.996264)"/>
       <use xlink:href="#HFBRSY10-0" transform="translate(202.572871 0) scale(0.996264)"/>
       <use xlink:href="#HFBR17-30" transform="translate(280.060339 0) scale(0.996264)"/>
       <use xlink:href="#HFBR17-39" transform="translate(330.703557 0) scale(0.996264)"/>
       <use xlink:href="#HFBRSY10-0" transform="translate(381.346775 0) scale(0.996264)"/>
       <use xlink:href="#HFBR17-31" transform="translate(458.834242 0) scale(0.996264)"/>
       <use xlink:href="#HFBR17-39" transform="translate(509.47746 0) scale(0.996264)"/>
      </g>
     </g>
    </g>
    <g id="xtick_5">
     <g id="line2d_5">
      <g>
       <use xlink:href="#mf627f6815b" x="370.60056" y="168.382195" style="fill: #ffffff; stroke: #ffffff; stroke-width: 0.8"/>
      </g>
     </g>
     <g id="text_5">
      <!-- $\mathdefault{2023{-}09{-}20}$ -->
      <g style="fill: #ffffff" transform="translate(320.112266 210.043896) rotate(-30) scale(0.1 -0.1)">
       <use xlink:href="#HFBR17-32" transform="scale(0.996264)"/>
       <use xlink:href="#HFBR17-30" transform="translate(50.643218 0) scale(0.996264)"/>
       <use xlink:href="#HFBR17-32" transform="translate(101.286436 0) scale(0.996264)"/>
       <use xlink:href="#HFBR17-33" transform="translate(151.929653 0) scale(0.996264)"/>
       <use xlink:href="#HFBRSY10-0" transform="translate(202.572871 0) scale(0.996264)"/>
       <use xlink:href="#HFBR17-30" transform="translate(280.060339 0) scale(0.996264)"/>
       <use xlink:href="#HFBR17-39" transform="translate(330.703557 0) scale(0.996264)"/>
       <use xlink:href="#HFBRSY10-0" transform="translate(381.346775 0) scale(0.996264)"/>
       <use xlink:href="#HFBR17-32" transform="translate(458.834242 0) scale(0.996264)"/>
       <use xlink:href="#HFBR17-30" transform="translate(509.47746 0) scale(0.996264)"/>
      </g>
     </g>
    </g>
    <g id="text_6">
     <!-- Date -->
     <g style="fill: #ffffff" transform="translate(233.353245 222.400369) scale(0.1 -0.1)">
      <defs>
       <path id="HFBR17-44" d="M 512 4480 
L 512 0 
L 1805 0 
C 2010 0 2214 0 2413 19 
C 2925 71 3366 321 3661 629 
C 4486 1483 4480 2952 3667 3819 
C 3373 4133 2976 4384 2477 4448 
C 2234 4480 1984 4480 1741 4480 
L 512 4480 
z
M 954 340 
L 954 4132 
L 1779 4132 
C 1952 4132 2125 4132 2298 4119 
C 2586 4087 2867 3991 3104 3823 
C 3622 3464 3840 2827 3840 2217 
C 3840 1703 3699 1176 3322 809 
C 3066 572 2720 398 2304 353 
C 2138 340 1965 340 1798 340 
L 954 340 
z
" transform="scale(0.015625)"/>
       <path id="HFBR17-61" d="M 506 2497 
C 614 2551 704 2630 813 2683 
C 986 2762 1165 2816 1357 2816 
C 1446 2822 1549 2835 1638 2816 
C 1798 2790 1939 2693 2035 2557 
C 2131 2401 2170 2265 2170 2014 
L 2170 1729 
C 1862 1729 1555 1703 1261 1625 
C 890 1541 486 1352 352 1014 
C 218 690 358 261 646 66 
C 787 -32 954 -32 1120 -19 
C 1389 0 1658 65 1888 208 
C 1997 272 2106 357 2170 467 
L 2176 467 
L 2176 13 
L 2579 13 
L 2579 1721 
C 2579 1908 2598 2109 2560 2297 
C 2522 2555 2362 2769 2176 2918 
C 1958 3086 1709 3143 1376 3118 
C 1069 3118 832 3040 602 2929 
C 570 2916 506 2895 486 2857 
C 467 2830 480 2785 480 2752 
C 493 2667 499 2582 506 2497 
z
M 2170 1536 
L 2170 1048 
C 2170 900 2176 765 2093 637 
C 2022 534 1926 463 1824 412 
C 1459 225 902 283 742 592 
C 614 816 749 1080 934 1228 
C 1210 1440 1747 1536 2170 1536 
z
" transform="scale(0.015625)"/>
       <path id="HFBR17-74" d="M 691 3872 
L 691 3009 
L 70 3009 
L 70 2688 
L 685 2688 
L 685 961 
C 685 677 666 335 851 97 
C 960 -45 1107 -83 1331 -64 
C 1517 -64 1702 -25 1875 42 
C 1933 68 2144 161 2170 207 
C 2182 233 2099 518 2099 518 
L 1946 401 
C 1747 278 1350 149 1184 382 
C 1037 582 1075 880 1075 1112 
L 1075 2688 
L 2067 2688 
L 2067 3009 
L 1075 3009 
L 1075 3872 
L 691 3872 
z
" transform="scale(0.015625)"/>
       <path id="HFBR17-65" d="M 2675 700 
C 2528 591 2483 533 2298 436 
C 1907 224 1446 224 1114 459 
C 794 689 608 1065 608 1600 
L 2720 1600 
C 2720 2075 2611 2487 2342 2776 
C 2048 3065 1587 3155 1197 3033 
C 1050 2988 915 2911 794 2814 
C 390 2487 218 1966 224 1458 
C 237 790 691 122 1363 -20 
C 1715 -91 2086 -13 2400 147 
C 2458 179 2669 295 2694 353 
C 2714 385 2675 700 2675 700 
z
M 2381 1850 
L 640 1850 
C 717 2319 1101 2814 1619 2756 
C 2042 2718 2266 2416 2349 2037 
C 2362 1972 2368 1915 2381 1850 
z
" transform="scale(0.015625)"/>
      </defs>
      <use xlink:href="#HFBR17-44" transform="scale(0.996264)"/>
      <use xlink:href="#HFBR17-61" transform="translate(71.606187 0) scale(0.996264)"/>
      <use xlink:href="#HFBR17-74" transform="translate(118.098269 0) scale(0.996264)"/>
      <use xlink:href="#HFBR17-65" transform="translate(154.212657 0) scale(0.996264)"/>
     </g>
    </g>
   </g>
   <g id="matplotlib.axis_2">
    <g id="ytick_1">
     <g id="line2d_6">
      <defs>
       <path id="m84d07afb2b" d="M 0 0 
L -3.5 0 
" style="stroke: #ffffff; stroke-width: 0.8"/>
      </defs>
      <g>
       <use xlink:href="#m84d07afb2b" x="48.430894" y="161.750886" style="fill: #ffffff; stroke: #ffffff; stroke-width: 0.8"/>
      </g>
     </g>
     <g id="text_7">
      <!-- $\mathdefault{0.0}$ -->
      <g style="fill: #ffffff" transform="translate(28.064468 165.210135) scale(0.1 -0.1)">
       <defs>
        <path id="HFBRMI10-3a" d="M 685 500 
L 685 0 
L 1184 0 
L 1184 500 
L 685 500 
z
" transform="scale(0.015625)"/>
       </defs>
       <use xlink:href="#HFBR17-30" transform="scale(0.996264)"/>
       <use xlink:href="#HFBRMI10-3a" transform="translate(50.643218 0) scale(0.996264)"/>
       <use xlink:href="#HFBR17-30" transform="translate(79.700665 0) scale(0.996264)"/>
      </g>
     </g>
    </g>
    <g id="ytick_2">
     <g id="line2d_7">
      <g>
       <use xlink:href="#m84d07afb2b" x="48.430894" y="140.209744" style="fill: #ffffff; stroke: #ffffff; stroke-width: 0.8"/>
      </g>
     </g>
     <g id="text_8">
      <!-- $\mathdefault{0.2}$ -->
      <g style="fill: #ffffff" transform="translate(28.064468 143.668993) scale(0.1 -0.1)">
       <use xlink:href="#HFBR17-30" transform="scale(0.996264)"/>
       <use xlink:href="#HFBRMI10-3a" transform="translate(50.643218 0) scale(0.996264)"/>
       <use xlink:href="#HFBR17-32" transform="translate(79.700665 0) scale(0.996264)"/>
      </g>
     </g>
    </g>
    <g id="ytick_3">
     <g id="line2d_8">
      <g>
       <use xlink:href="#m84d07afb2b" x="48.430894" y="118.668602" style="fill: #ffffff; stroke: #ffffff; stroke-width: 0.8"/>
      </g>
     </g>
     <g id="text_9">
      <!-- $\mathdefault{0.4}$ -->
      <g style="fill: #ffffff" transform="translate(28.064468 122.127851) scale(0.1 -0.1)">
       <defs>
        <path id="HFBR17-34" d="M 134 1152 
L 1984 1152 
L 1984 0 
L 2387 0 
L 2387 1152 
L 3117 1152 
L 3117 1493 
L 2387 1493 
L 2387 4254 
L 2042 4254 
C 1926 4254 1894 4261 1843 4164 
C 1587 3745 237 1649 192 1591 
C 141 1500 134 1507 134 1372 
L 134 1152 
z
M 2003 3896 
L 2003 1493 
L 550 1493 
C 595 1583 659 1666 717 1756 
C 1037 2251 1798 3427 1958 3794 
C 1978 3826 1984 3864 2003 3896 
z
" transform="scale(0.015625)"/>
       </defs>
       <use xlink:href="#HFBR17-30" transform="scale(0.996264)"/>
       <use xlink:href="#HFBRMI10-3a" transform="translate(50.643218 0) scale(0.996264)"/>
       <use xlink:href="#HFBR17-34" transform="translate(79.700665 0) scale(0.996264)"/>
      </g>
     </g>
    </g>
    <g id="ytick_4">
     <g id="line2d_9">
      <g>
       <use xlink:href="#m84d07afb2b" x="48.430894" y="97.12746" style="fill: #ffffff; stroke: #ffffff; stroke-width: 0.8"/>
      </g>
     </g>
     <g id="text_10">
      <!-- $\mathdefault{0.6}$ -->
      <g style="fill: #ffffff" transform="translate(28.064468 100.586709) scale(0.1 -0.1)">
       <use xlink:href="#HFBR17-30" transform="scale(0.996264)"/>
       <use xlink:href="#HFBRMI10-3a" transform="translate(50.643218 0) scale(0.996264)"/>
       <use xlink:href="#HFBR17-36" transform="translate(79.700665 0) scale(0.996264)"/>
      </g>
     </g>
    </g>
    <g id="ytick_5">
     <g id="line2d_10">
      <g>
       <use xlink:href="#m84d07afb2b" x="48.430894" y="75.586318" style="fill: #ffffff; stroke: #ffffff; stroke-width: 0.8"/>
      </g>
     </g>
     <g id="text_11">
      <!-- $\mathdefault{0.8}$ -->
      <g style="fill: #ffffff" transform="translate(28.064468 79.045567) scale(0.1 -0.1)">
       <use xlink:href="#HFBR17-30" transform="scale(0.996264)"/>
       <use xlink:href="#HFBRMI10-3a" transform="translate(50.643218 0) scale(0.996264)"/>
       <use xlink:href="#HFBR17-38" transform="translate(79.700665 0) scale(0.996264)"/>
      </g>
     </g>
    </g>
    <g id="ytick_6">
     <g id="line2d_11">
      <g>
       <use xlink:href="#m84d07afb2b" x="48.430894" y="54.045175" style="fill: #ffffff; stroke: #ffffff; stroke-width: 0.8"/>
      </g>
     </g>
     <g id="text_12">
      <!-- $\mathdefault{1.0}$ -->
      <g style="fill: #ffffff" transform="translate(28.064468 57.504425) scale(0.1 -0.1)">
       <use xlink:href="#HFBR17-31" transform="scale(0.996264)"/>
       <use xlink:href="#HFBRMI10-3a" transform="translate(50.643218 0) scale(0.996264)"/>
       <use xlink:href="#HFBR17-30" transform="translate(79.700665 0) scale(0.996264)"/>
      </g>
     </g>
    </g>
    <g id="ytick_7">
     <g id="line2d_12">
      <g>
       <use xlink:href="#m84d07afb2b" x="48.430894" y="32.504033" style="fill: #ffffff; stroke: #ffffff; stroke-width: 0.8"/>
      </g>
     </g>
     <g id="text_13">
      <!-- $\mathdefault{1.2}$ -->
      <g style="fill: #ffffff" transform="translate(28.064468 35.963282) scale(0.1 -0.1)">
       <use xlink:href="#HFBR17-31" transform="scale(0.996264)"/>
       <use xlink:href="#HFBRMI10-3a" transform="translate(50.643218 0) scale(0.996264)"/>
       <use xlink:href="#HFBR17-32" transform="translate(79.700665 0) scale(0.996264)"/>
      </g>
     </g>
    </g>
    <g id="text_14">
     <!-- mA -->
     <g style="fill: #ffffff" transform="translate(22.404039 102.331082) rotate(-90) scale(0.1 -0.1)">
      <defs>
       <path id="HFBR17-6d" d="M 806 2391 
L 800 2391 
L 800 3033 
L 410 3033 
L 410 0 
L 819 0 
L 819 1411 
C 819 1725 800 2040 941 2328 
C 1062 2578 1274 2777 1651 2738 
C 1843 2738 2035 2687 2157 2525 
C 2272 2377 2278 2185 2278 2004 
L 2278 0 
L 2688 0 
L 2688 1411 
C 2688 1725 2669 2040 2810 2328 
C 2931 2578 3142 2777 3520 2738 
C 3712 2738 3904 2687 4026 2525 
C 4141 2377 4147 2185 4147 2004 
L 4147 0 
L 4557 0 
L 4557 1700 
C 4557 2008 4595 2354 4461 2636 
C 4326 2899 4109 3040 3757 3040 
C 3552 3059 3347 3028 3162 2934 
C 2938 2811 2771 2608 2669 2385 
C 2624 2597 2573 2741 2432 2880 
C 2285 3012 2086 3072 1894 3072 
C 1427 3110 1133 2916 934 2624 
C 883 2552 832 2475 806 2391 
z
" transform="scale(0.015625)"/>
       <path id="HFBR17-41" d="M 134 6 
L 422 6 
L 538 19 
C 730 435 864 909 1037 1344 
C 1670 1344 2362 1344 2963 1344 
L 3014 1260 
C 3123 931 3251 614 3366 291 
C 3398 193 3430 97 3482 19 
C 3622 0 3789 0 3942 0 
C 3834 314 2349 4301 2304 4409 
C 2298 4435 2285 4473 2253 4480 
C 2214 4486 2176 4480 2138 4480 
L 1926 4480 
C 1830 4480 1792 4492 1766 4391 
C 1741 4326 134 6 134 6 
z
M 2010 4043 
C 2278 3246 2566 2462 2848 1678 
L 1165 1678 
L 1722 3207 
L 2010 4043 
z
" transform="scale(0.015625)"/>
      </defs>
      <use xlink:href="#HFBR17-6d" transform="scale(0.996264)"/>
      <use xlink:href="#HFBR17-41" transform="translate(77.210126 0) scale(0.996264)"/>
     </g>
    </g>
   </g>
   <g id="line2d_13">
    <path d="M 66.185439 161.480662 
L 66.47557 161.587477 
L 68.216351 161.640083 
L 75.469608 161.694839 
L 81.465633 161.606843 
L 85.430747 161.475747 
L 94.231365 161.265297 
L 94.424785 161.059345 
L 95.198466 161.100727 
L 98.293189 161.123168 
L 104.095794 160.976503 
L 120.246379 160.051858 
L 132.14172 159.055425 
L 139.008136 158.243929 
L 144.423901 157.432859 
L 151.483738 156.117301 
L 161.928427 153.614349 
L 168.504714 151.73856 
L 169.568525 151.387579 
L 175.66126 149.390424 
L 179.046113 148.229938 
L 183.881618 146.471426 
L 185.138849 146.03803 
L 186.20266 145.541032 
L 197.51774 140.825261 
L 197.71116 140.754267 
L 208.54269 135.881259 
L 209.122951 135.5808 
L 209.896632 135.251634 
L 210.380182 134.995611 
L 210.960443 134.696264 
L 213.668325 133.365012 
L 214.248586 133.02826 
L 214.635426 132.859822 
L 214.828846 132.879845 
L 216.569628 132.052761 
L 217.149888 131.735986 
L 217.633439 131.540066 
L 218.407119 131.129159 
L 218.79396 130.941524 
L 219.27751 130.675857 
L 219.37422 130.771496 
L 219.761061 130.444927 
L 220.824872 130.090444 
L 221.985393 129.480264 
L 222.178813 129.501974 
L 222.468943 129.385942 
L 222.855784 129.206851 
L 223.532754 128.748236 
L 224.403145 128.319033 
L 225.273536 127.849235 
L 225.660376 127.780928 
L 225.853796 127.718192 
L 226.047216 127.808042 
L 227.401158 127.352645 
L 228.561679 127.046508 
L 229.91562 126.419102 
L 231.172851 126.109467 
L 231.366271 126.03011 
L 231.559692 126.056359 
L 232.720213 125.499639 
L 232.913633 125.456401 
L 234.074154 124.991981 
L 234.847835 124.853248 
L 235.331385 124.813623 
L 235.814935 124.69457 
L 237.459007 124.183861 
L 237.942557 124.030233 
L 240.2636 123.495644 
L 240.94057 123.337211 
L 241.810961 123.184524 
L 242.487932 122.978178 
L 242.971482 122.814532 
L 243.358322 122.79326 
L 243.455032 122.926037 
L 243.745163 122.679292 
L 244.808974 122.418877 
L 245.099104 122.370786 
L 245.485944 122.316364 
L 246.066205 122.260915 
L 246.453037 122.122343 
L 246.743167 122.097686 
L 247.903689 121.90846 
L 248.193819 121.846013 
L 249.45105 121.807316 
L 249.64447 121.946222 
L 251.095121 121.64861 
L 251.385252 121.504271 
L 251.675382 121.368736 
L 252.062222 121.09501 
L 252.352353 120.704363 
L 252.642483 120.594209 
L 252.932613 120.495275 
L 253.126033 120.413597 
L 253.319453 120.814983 
L 253.512874 120.841018 
L 253.803004 120.804014 
L 255.060235 120.235051 
L 255.350365 120.59062 
L 256.704307 120.433505 
L 256.897727 120.175438 
L 257.284567 119.999007 
L 257.768118 119.9325 
L 257.961538 119.863882 
L 258.251668 118.805563 
L 258.541798 118.496302 
L 259.315479 118.631373 
L 259.799029 118.784905 
L 261.056261 118.806015 
L 261.539811 118.652547 
L 262.700332 118.557884 
L 263.183883 118.39754 
L 263.377303 118.557176 
L 263.957563 118.394189 
L 264.247694 118.174941 
L 264.537824 118.128361 
L 264.924664 118.025656 
L 265.118084 117.936329 
L 265.408215 117.84828 
L 265.504925 117.780916 
L 265.698345 117.490705 
L 266.181895 117.344159 
L 266.762156 117.06666 
L 266.955576 117.026362 
L 267.245706 116.913605 
L 267.729257 116.71321 
L 268.793068 116.369259 
L 269.373328 116.113777 
L 269.856879 115.994576 
L 270.437139 115.933135 
L 271.21082 115.717897 
L 271.69437 115.588757 
L 272.661471 115.314352 
L 273.725282 114.815108 
L 273.918702 114.904481 
L 274.789093 114.383072 
L 274.982513 114.230054 
L 275.369354 114.408721 
L 275.562774 114.140619 
L 275.659484 114.157868 
L 275.852904 114.318277 
L 277.400266 113.885859 
L 278.657497 113.408254 
L 278.947627 112.813232 
L 279.044337 112.79034 
L 279.237757 113.075135 
L 279.624598 112.912786 
L 280.011438 112.718672 
L 280.591699 112.394994 
L 281.171959 112.260822 
L 281.365379 112.325373 
L 282.42919 112.053426 
L 283.009451 111.965472 
L 284.460102 111.46347 
L 284.653522 111.50369 
L 285.427203 111.012585 
L 285.620623 110.871723 
L 285.910753 110.671258 
L 286.104174 110.948023 
L 286.781144 110.976171 
L 287.264695 110.828478 
L 287.458115 110.843252 
L 287.651535 110.647468 
L 287.844955 110.712764 
L 288.231796 110.795787 
L 289.102186 110.796899 
L 290.165997 111.054556 
L 290.552838 111.016562 
L 290.842968 110.932769 
L 291.133098 110.885921 
L 291.326518 110.704832 
L 291.713359 110.52703 
L 292.48704 109.963229 
L 292.68046 110.509269 
L 292.87388 110.531673 
L 293.16401 110.439841 
L 293.647561 110.354234 
L 294.421241 110.108812 
L 294.614661 109.850411 
L 294.711372 109.469768 
L 295.001502 110.22113 
L 295.678472 110.628513 
L 296.548863 110.684352 
L 297.129124 110.335495 
L 297.322544 110.110705 
L 297.419254 110.286619 
L 297.612674 110.784843 
L 297.902804 110.749756 
L 298.676485 110.506767 
L 299.160036 110.306391 
L 299.450166 110.033865 
L 299.643586 110.76774 
L 300.030426 110.963497 
L 300.513977 111.185584 
L 300.707397 111.494731 
L 301.190948 111.710977 
L 301.481078 111.759356 
L 301.771208 111.919842 
L 302.061338 111.980487 
L 302.544889 112.075249 
L 302.738309 111.993156 
L 302.931729 112.247057 
L 304.09225 112.529725 
L 304.38238 112.194434 
L 304.575801 112.142525 
L 305.349481 111.52638 
L 305.639612 111.489978 
L 308.444204 108.517432 
L 309.508015 106.99428 
L 311.635637 104.801112 
L 311.925767 104.215252 
L 312.699448 103.087093 
L 313.279709 102.207596 
L 313.376419 102.438331 
L 313.473129 102.392384 
L 313.763259 102.247532 
L 315.504041 100.475495 
L 316.181011 99.378853 
L 316.374431 99.697147 
L 318.985604 97.885825 
L 319.179024 97.573165 
L 320.339545 96.818494 
L 320.919806 96.102203 
L 321.306646 95.854059 
L 321.983617 95.192839 
L 322.273747 94.80592 
L 323.047428 94.542646 
L 323.530978 94.325695 
L 324.304659 94.00565 
L 324.981629 93.508308 
L 325.46518 93.114751 
L 325.56189 93.24961 
L 325.85202 92.987881 
L 326.14215 92.471815 
L 326.432281 92.357986 
L 328.269772 90.515113 
L 328.850033 89.696461 
L 329.140163 89.19287 
L 329.333583 89.266021 
L 329.430293 89.260294 
L 329.527004 89.570454 
L 329.623714 89.527674 
L 329.913844 89.335193 
L 330.203974 88.595881 
L 330.687525 87.900887 
L 330.977655 87.345926 
L 331.074365 87.464045 
L 331.267785 87.450758 
L 331.557915 87.301459 
L 331.944756 87.079417 
L 332.428306 86.486239 
L 333.008567 86.100015 
L 333.201987 86.173395 
L 333.492117 85.946813 
L 333.878958 85.59506 
L 334.362508 84.968615 
L 334.846058 83.98863 
L 335.232899 83.584055 
L 335.523029 83.836966 
L 335.619739 83.777455 
L 335.813159 83.577788 
L 336.10329 83.591072 
L 336.49013 83.573647 
L 337.070391 83.11033 
L 337.360521 82.564045 
L 337.553941 82.513852 
L 337.747361 82.222159 
L 338.521042 81.55514 
L 338.714462 81.588719 
L 339.971693 80.9621 
L 341.132214 79.740112 
L 341.228924 79.66187 
L 341.325634 79.323857 
L 341.519055 77.683293 
L 342.099315 76.528762 
L 342.872996 75.822855 
L 343.066416 76.079883 
L 343.259836 76.117638 
L 343.453256 76.255313 
L 343.840097 75.994617 
L 344.033517 75.911518 
L 344.903908 75.121217 
L 345.000618 74.961693 
L 345.194038 75.246775 
L 345.580878 74.748012 
L 345.774299 75.015009 
L 346.064429 74.774406 
L 346.83811 73.506382 
L 346.93482 73.58982 
L 347.12824 74.071429 
L 347.41837 73.787666 
L 347.80521 73.022731 
L 348.095341 73.109461 
L 348.192051 73.363735 
L 348.288761 73.244867 
L 348.578891 72.556049 
L 348.772311 73.072556 
L 349.159152 72.919492 
L 349.545992 72.271091 
L 349.836122 71.804539 
L 350.319673 71.187012 
L 350.513093 71.259427 
L 351.190064 70.57596 
L 351.383484 70.599606 
L 352.544005 70.042024 
L 352.737425 69.776201 
L 352.930845 69.438449 
L 353.220975 70.037261 
L 353.414396 70.060141 
L 353.607816 70.106635 
L 354.284786 69.962264 
L 354.574917 69.372553 
L 354.768337 69.106144 
L 354.961757 69.152314 
L 355.155177 69.070472 
L 355.638728 68.850212 
L 355.928858 68.795219 
L 356.122278 68.777611 
L 356.702539 68.002849 
L 357.282799 67.590979 
L 357.476219 67.785823 
L 358.34661 67.827209 
L 358.54003 67.71482 
L 358.73345 67.682606 
L 359.023581 67.525575 
L 359.797261 66.710633 
L 359.893972 66.737989 
L 360.087392 66.561238 
L 360.377522 66.4608 
L 360.570942 66.242261 
L 360.861072 65.998881 
L 361.247913 65.484565 
L 361.441333 65.698643 
L 362.118304 65.279003 
L 362.698564 65.427283 
L 362.891984 65.318441 
L 363.762375 64.267288 
L 364.052505 64.501849 
L 364.342636 64.376766 
L 365.019606 63.523502 
L 365.116316 63.488255 
L 365.309736 63.622265 
L 365.503157 63.602982 
L 365.696577 63.538024 
L 365.793287 63.478416 
L 365.986707 63.57767 
L 366.470258 63.509171 
L 366.760388 63.854827 
L 367.050518 63.598808 
L 367.340648 63.175368 
L 367.727489 63.664523 
L 367.920909 63.560755 
L 368.211039 63.414334 
L 368.501169 63.399666 
L 368.98472 62.747465 
L 369.66169 61.684288 
L 369.855111 61.971335 
L 370.048531 61.856351 
L 370.338661 62.456399 
L 370.532081 62.393355 
L 370.628791 62.456162 
L 370.822212 62.0977 
L 370.918922 62.191437 
L 371.015632 62.235832 
L 371.112342 62.102507 
L 371.305762 62.539523 
L 371.402472 62.463187 
L 371.595892 62.67881 
L 372.176153 62.469701 
L 372.272863 62.51563 
L 372.562993 62.347599 
L 372.949834 62.523078 
L 373.143254 62.366984 
L 373.433384 62.375965 
L 374.110355 61.643109 
L 374.303775 61.833963 
L 374.497195 61.831248 
L 374.980745 61.702671 
L 375.077455 61.795911 
L 375.270876 61.623532 
L 375.561006 61.749614 
L 375.851136 61.697025 
L 376.044556 61.716109 
L 376.528107 61.52807 
L 376.721527 61.498799 
L 377.108367 61.466787 
L 377.591918 61.575532 
L 377.978758 61.622527 
L 378.462309 61.339256 
L 378.559019 61.181494 
L 378.752439 61.576312 
L 378.849149 61.431493 
L 379.52612 60.147658 
L 379.71954 60.085708 
L 379.81625 60.377074 
L 379.91296 60.326954 
L 380.20309 60.636653 
L 380.589931 60.392899 
L 380.686641 60.470595 
L 380.880061 60.42488 
L 381.073481 60.358203 
L 381.363611 59.943485 
L 382.234002 59.404904 
L 382.330712 59.414127 
L 382.620842 59.070683 
L 382.814263 59.127468 
L 383.201103 59.151861 
L 383.394523 59.081226 
L 383.587943 59.064424 
L 383.974784 58.079198 
L 384.941885 56.706122 
L 385.135305 56.496074 
L 385.328725 56.216641 
L 385.618855 55.003595 
L 385.812275 54.975824 
L 386.005696 55.300996 
L 386.489246 55.207454 
L 386.876086 54.602631 
L 387.069507 54.672318 
L 387.746477 54.003687 
L 388.326738 52.874925 
L 388.616868 52.378717 
L 388.810288 52.512904 
L 389.100418 51.859551 
L 389.197128 51.972375 
L 389.390549 51.913774 
L 389.487259 51.47804 
L 389.583969 51.510249 
L 389.874099 51.515737 
L 390.067519 51.522429 
L 390.260939 51.503893 
L 390.8412 51.076855 
L 391.22804 50.696853 
L 392.098431 49.66532 
L 392.388561 49.01072 
L 392.581982 49.211336 
L 392.968822 48.283881 
L 393.742503 48.424504 
L 394.516183 46.523149 
L 394.806314 46.288397 
L 394.999734 46.142943 
L 395.096444 46.34495 
L 395.579994 45.394792 
L 395.676704 45.253928 
L 395.870125 45.281339 
L 395.966835 45.183943 
L 396.063545 45.254587 
L 396.353675 44.916491 
L 396.643805 44.406972 
L 396.740515 44.322491 
L 396.933936 43.879824 
L 397.224066 43.476437 
L 397.804326 42.28569 
L 397.997747 42.396413 
L 398.287877 41.723468 
L 398.481297 41.610195 
L 398.674717 41.752991 
L 398.868137 41.257986 
L 398.964847 41.050974 
L 399.158268 41.421571 
L 399.835238 41.969661 
L 399.931948 41.826497 
L 400.125369 41.212941 
L 400.512209 41.03824 
L 400.802339 41.357252 
L 401.189179 41.01513 
L 401.47931 40.93274 
L 401.67273 41.048869 
L 402.446411 40.696558 
L 402.639831 39.874426 
L 402.736541 40.166975 
L 403.026671 39.967968 
L 403.316801 39.30899 
L 403.413512 39.315325 
L 403.606932 39.638776 
L 403.993772 39.310124 
L 404.283902 39.586373 
L 405.154293 39.063015 
L 405.347713 38.628359 
L 405.541133 38.594558 
L 405.637844 38.62827 
L 406.024684 37.575789 
L 406.218104 37.6579 
L 406.314814 37.48343 
L 406.508234 37.588271 
L 406.895075 37.237332 
L 407.185205 36.483903 
L 407.572045 35.482928 
L 407.765466 36.158927 
L 408.055596 35.981478 
L 408.249016 35.696627 
L 408.345726 35.376823 
L 408.539146 35.565157 
L 408.732566 35.485115 
L 408.925987 35.321518 
L 409.119407 35.467752 
L 409.409537 35.417226 
L 409.699667 35.2969 
L 409.796377 35.304065 
L 409.989798 35.11707 
L 410.473348 35.04079 
L 410.666768 34.776988 
L 411.053609 35.078604 
L 411.440449 34.579197 
L 411.633869 35.032734 
L 411.730579 34.982084 
L 412.21413 35.306469 
L 412.40755 35.337137 
L 412.50426 35.254599 
L 412.69768 34.650014 
L 412.8911 34.774658 
L 413.08452 34.786396 
L 413.277941 34.661897 
L 413.761491 34.610373 
L 413.858201 34.519012 
L 414.148331 33.4524 
L 414.825302 32.154679 
L 414.922012 31.607486 
L 415.308852 32.105955 
L 415.792403 32.26838 
L 415.889113 31.757327 
L 416.082533 28.627795 
L 416.662794 28.359916 
L 417.146344 28.799603 
L 417.339764 28.713657 
L 418.016735 29.177198 
L 418.306865 29.309683 
L 418.500285 29.338419 
L 418.693706 28.999813 
L 418.790416 29.054427 
L 419.080546 28.879298 
L 419.273966 28.974696 
L 419.370676 28.898999 
L 419.564096 29.160433 
L 419.757517 28.716383 
L 419.854227 28.665628 
L 420.047647 28.852865 
L 420.434487 29.207839 
L 420.627907 28.237371 
L 420.918038 28.218591 
L 421.276349 28.592304 
L 421.276349 28.592304 
" clip-path="url(#p0c43156a1d)" style="fill: none; stroke: #ff8c00; stroke-width: 1.5; stroke-linecap: square"/>
   </g>
   <g id="patch_3">
    <path d="M 48.430894 168.382195 
L 48.430894 21.502195 
" style="fill: none; stroke: #ffffff; stroke-width: 0.8; stroke-linejoin: miter; stroke-linecap: square"/>
   </g>
   <g id="patch_4">
    <path d="M 48.430894 168.382195 
L 439.030894 168.382195 
" style="fill: none; stroke: #ffffff; stroke-width: 0.8; stroke-linejoin: miter; stroke-linecap: square"/>
   </g>
   <g id="text_15">
    <!-- $S$. $oneidensis$ Tn7::mRFP and $G$. $sulfurreducens$ $\Delta$1620-1624 Tn7::vsfGFP0 on Lactate -->
    <g style="fill: #ffffff" transform="translate(7.2 15.502195) scale(0.12 -0.12)">
     <defs>
      <path id="HFBRMI10-53" d="M 544 766 
L 371 316 
C 499 228 634 140 774 73 
C 1357 -192 2106 -192 2701 108 
C 3245 388 3738 973 3616 1615 
C 3533 1978 3328 2213 3008 2360 
C 2893 2411 2771 2436 2650 2468 
C 2490 2512 2003 2627 1894 2678 
C 1702 2767 1536 2926 1491 3136 
C 1421 3474 1677 3778 1946 3951 
C 2234 4135 2573 4192 2912 4192 
C 3226 4192 3443 4093 3661 3940 
C 3725 3894 3776 3834 3840 3787 
L 4013 4237 
C 3846 4327 3686 4416 3507 4468 
C 2854 4647 2131 4525 1658 4166 
C 1280 3883 966 3414 1082 2919 
C 1120 2759 1190 2636 1286 2527 
C 1581 2199 2029 2142 2432 2039 
C 2547 2007 2662 1981 2771 1936 
C 2970 1839 3136 1672 3194 1454 
C 3296 1030 2976 632 2630 426 
C 2112 125 1434 202 922 484 
C 832 535 749 593 666 657 
C 621 696 589 734 544 766 
z
" transform="scale(0.015625)"/>
      <path id="HFBR17-2e" d="M 634 501 
L 634 0 
L 1133 0 
L 1133 501 
L 634 501 
z
" transform="scale(0.015625)"/>
      <path id="HFBRMI10-6f" d="M 1901 3020 
C 1197 2789 678 2109 563 1391 
C 499 968 595 494 928 205 
C 1120 32 1402 -64 1754 -64 
C 2618 19 3322 782 3437 1629 
C 3494 2071 3386 2552 3034 2847 
C 2765 3058 2368 3174 1901 3020 
z
M 2835 2572 
C 3053 2367 3085 2040 3046 1757 
C 2976 1161 2682 533 2080 327 
C 1824 250 1555 250 1331 366 
C 998 545 928 956 966 1302 
C 1018 1796 1210 2315 1645 2591 
C 1965 2803 2541 2867 2835 2572 
z
" transform="scale(0.015625)"/>
      <path id="HFBRMI10-6e" d="M 1427 2398 
L 1421 2398 
L 1549 3027 
L 1158 3027 
L 518 0 
L 806 0 
C 864 0 941 -19 941 64 
C 954 109 960 154 973 199 
C 1056 572 1286 1742 1344 1935 
C 1466 2295 1734 2713 2163 2764 
C 2445 2764 2701 2693 2797 2502 
C 2893 2310 2816 2087 2778 1889 
L 2374 0 
L 2675 0 
C 2739 0 2797 -13 2797 71 
C 2835 199 2925 673 2925 673 
L 3213 2026 
C 3264 2270 3322 2565 3187 2796 
C 3072 2988 2854 3052 2643 3071 
C 2541 3084 2438 3084 2336 3065 
C 2054 3014 1792 2847 1606 2635 
C 1542 2565 1466 2488 1427 2398 
z
M 1414 2398 
C 1414 2398 1421 2398 1421 2398 
C 1421 2392 1414 2385 1414 2398 
z
" transform="scale(0.015625)"/>
      <path id="HFBRMI10-65" d="M 2874 702 
C 2778 638 2694 568 2592 510 
C 2291 330 1747 144 1376 356 
C 1235 433 1133 555 1056 702 
C 960 914 928 1119 960 1414 
L 998 1600 
L 3027 1600 
C 3053 1600 3091 1594 3110 1613 
C 3162 1651 3174 1998 3174 2004 
C 3187 2331 3142 2697 2861 2915 
C 2797 2959 2726 2998 2650 3030 
C 2227 3197 1747 3056 1395 2793 
C 954 2466 602 1869 563 1241 
C 538 754 717 375 1024 144 
C 1542 -234 2246 -3 2669 241 
C 2720 273 2797 311 2829 356 
C 2848 388 2874 702 2874 702 
z
M 2829 1850 
L 1082 1850 
C 1229 2216 1510 2581 1888 2722 
C 2176 2831 2560 2786 2733 2498 
C 2848 2305 2854 2062 2829 1850 
z
" transform="scale(0.015625)"/>
      <path id="HFBRMI10-69" d="M 1370 4032 
L 1773 4032 
L 1856 4436 
C 1722 4436 1574 4436 1459 4416 
C 1414 4303 1395 4165 1370 4032 
z
M 1152 3010 
L 512 -32 
C 646 -32 794 -32 909 -13 
L 934 57 
L 1555 3010 
L 1152 3010 
z
" transform="scale(0.015625)"/>
      <path id="HFBRMI10-64" d="M 3322 4448 
L 2938 2624 
L 2931 2624 
C 2880 2765 2714 2912 2586 2976 
C 2170 3201 1677 3028 1338 2739 
C 941 2407 685 1920 602 1415 
C 493 781 704 237 1107 32 
C 1472 -148 1920 6 2221 237 
C 2310 307 2394 391 2470 474 
L 2374 0 
C 2515 0 2656 0 2778 19 
L 2803 89 
C 2867 409 2938 723 3008 1043 
L 3725 4448 
L 3322 4448 
z
M 2810 2494 
C 2829 2456 2861 2405 2867 2353 
C 2874 2289 2842 2206 2829 2142 
C 2797 2001 2560 885 2560 885 
C 2534 731 2483 680 2381 577 
C 2221 410 2016 289 1786 269 
C 1542 250 1338 346 1210 455 
C 973 680 954 1020 998 1321 
C 1062 1802 1254 2296 1683 2565 
C 1984 2770 2579 2892 2810 2494 
z
M 2470 475 
C 2470 475 2477 475 2477 475 
C 2477 468 2470 462 2470 475 
z
" transform="scale(0.015625)"/>
      <path id="HFBRMI10-73" d="M 384 648 
L 237 276 
C 358 202 480 133 614 79 
C 992 -64 1523 -64 1914 83 
C 2214 197 2438 426 2554 725 
C 2643 953 2637 1201 2522 1379 
C 2349 1666 2054 1741 1670 1812 
C 1478 1849 1261 1882 1139 2054 
C 1005 2238 1107 2479 1261 2619 
C 1427 2765 1690 2816 1984 2816 
C 2150 2816 2317 2789 2477 2728 
C 2586 2680 2682 2621 2784 2566 
L 2918 2916 
C 2662 3032 2490 3104 2150 3104 
C 1728 3136 1286 3053 1011 2805 
C 710 2531 544 2008 858 1697 
C 1069 1461 1395 1429 1690 1366 
C 1901 1321 2138 1258 2214 1028 
C 2240 939 2227 843 2195 760 
C 2093 455 1786 302 1382 302 
C 1133 302 890 353 666 462 
C 563 513 474 584 384 648 
z
" transform="scale(0.015625)"/>
      <path id="HFBR17-54" d="M 192 4437 
L 192 4096 
L 2016 4096 
L 2016 0 
L 2464 0 
L 2464 4096 
L 4288 4096 
L 4288 4437 
L 192 4437 
z
" transform="scale(0.015625)"/>
      <path id="HFBR17-6e" d="M 806 2386 
L 800 2386 
L 800 3033 
L 410 3033 
L 410 0 
L 819 0 
L 819 1404 
C 819 1718 800 2040 941 2334 
C 1011 2482 1120 2610 1267 2687 
C 1389 2745 1517 2745 1651 2732 
C 1843 2732 2029 2681 2150 2520 
C 2266 2372 2272 2180 2272 2000 
L 2272 0 
L 2682 0 
L 2682 1719 
C 2682 2040 2714 2392 2560 2681 
C 2438 2912 2202 3021 1952 3053 
C 1824 3072 1690 3072 1562 3047 
C 1229 2976 922 2707 806 2386 
z
" transform="scale(0.015625)"/>
      <path id="HFBR17-3a" d="M 634 3008 
L 634 2507 
L 1133 2507 
L 1133 3008 
L 634 3008 
z
M 634 501 
L 634 0 
L 1133 0 
L 1133 501 
L 634 501 
z
" transform="scale(0.015625)"/>
      <path id="HFBR17-52" d="M 512 4437 
L 512 -32 
L 954 -32 
L 954 2048 
L 2048 2048 
C 2080 2048 2118 2055 2144 2036 
C 2189 2003 2214 1938 2246 1893 
L 3174 479 
L 3411 117 
C 3443 72 3475 -6 3520 -26 
C 3558 -45 3622 -32 3661 -32 
L 3962 -32 
L 2547 2093 
C 2880 2158 3213 2299 3456 2543 
C 3654 2741 3789 2992 3776 3275 
C 3757 3501 3667 3695 3552 3836 
C 3270 4172 2790 4398 2278 4437 
C 2080 4437 1888 4437 1690 4437 
L 512 4437 
z
M 954 2370 
L 954 4096 
L 1862 4096 
C 2426 4096 2957 4032 3226 3646 
C 3405 3381 3392 3021 3187 2770 
C 3117 2680 3027 2609 2931 2557 
C 2605 2370 2227 2370 1862 2370 
L 954 2370 
z
" transform="scale(0.015625)"/>
      <path id="HFBR17-46" d="M 512 4437 
L 512 0 
L 960 0 
L 960 2048 
L 3078 2048 
L 3078 2388 
L 960 2388 
L 960 4096 
L 3354 4096 
L 3354 4437 
L 512 4437 
z
" transform="scale(0.015625)"/>
      <path id="HFBR17-50" d="M 512 4480 
L 512 32 
L 960 32 
L 960 1920 
L 1862 1920 
C 2003 1920 2144 1920 2278 1920 
C 2752 1959 3149 2153 3418 2443 
C 3693 2746 3814 3210 3635 3603 
C 3430 4099 2944 4415 2323 4480 
C 2138 4480 1946 4480 1760 4480 
L 512 4480 
z
M 954 2254 
L 954 4139 
L 1830 4139 
C 2387 4139 2893 4075 3149 3690 
C 3322 3432 3347 3072 3206 2795 
C 3130 2646 3014 2531 2874 2447 
C 2560 2254 2195 2254 1843 2254 
L 954 2254 
z
" transform="scale(0.015625)"/>
      <path id="HFBR17-64" d="M 2278 4460 
L 2278 2648 
C 2157 2783 2035 2911 1869 2988 
C 1299 3226 749 2918 467 2410 
C 141 1806 179 1009 570 443 
C 845 51 1299 -141 1779 32 
C 1965 103 2189 289 2266 456 
L 2272 456 
L 2272 0 
L 2682 0 
L 2682 4460 
L 2278 4460 
z
M 2253 2397 
C 2285 2339 2272 2262 2272 2198 
L 2272 874 
C 2272 726 2266 713 2182 598 
C 2067 424 1888 302 1677 283 
C 1370 257 1056 405 877 656 
C 774 803 717 983 685 1163 
C 672 1234 672 1298 666 1369 
C 627 1793 717 2294 1088 2564 
C 1152 2609 1222 2641 1293 2673 
C 1664 2815 2074 2776 2253 2397 
z
" transform="scale(0.015625)"/>
      <path id="HFBRMI10-47" d="M 4006 2132 
L 2701 2132 
L 2598 2119 
C 2560 2023 2541 1907 2522 1792 
L 3526 1792 
C 3494 1689 3475 1580 3456 1471 
C 3411 1260 3258 529 3251 509 
C 3226 464 3149 452 3104 439 
C 2598 291 1926 214 1485 541 
C 1318 657 1210 791 1107 984 
C 902 1369 890 1837 979 2252 
C 1178 3111 1837 3969 2739 4148 
C 3117 4225 3571 4148 3834 4020 
C 3974 3950 4090 3847 4218 3757 
L 4390 4205 
C 4230 4292 4064 4372 3891 4425 
C 3514 4544 3002 4544 2598 4441 
C 1638 4198 870 3391 589 2454 
C 442 1981 422 1449 608 981 
C 704 711 877 488 1082 315 
C 1587 -96 2266 -96 2874 40 
C 3002 72 3539 213 3610 284 
C 3635 316 3635 387 3648 432 
L 4006 2132 
z
" transform="scale(0.015625)"/>
      <path id="HFBRMI10-75" d="M 1158 3008 
C 1126 2802 1075 2605 1030 2399 
C 986 2195 730 979 698 831 
C 659 634 608 358 704 192 
C 800 -13 1043 -64 1248 -64 
C 1613 -64 1971 70 2253 294 
C 2342 364 2419 448 2496 537 
L 2381 -19 
C 2515 -19 2662 -19 2778 0 
L 2803 70 
L 3424 3008 
L 3014 3008 
C 2989 2847 2650 1293 2630 1191 
C 2566 903 2509 743 2310 544 
C 2074 308 1760 211 1434 243 
C 1312 243 1158 262 1094 384 
C 1050 461 1062 564 1075 647 
C 1101 807 1139 967 1171 1128 
C 1197 1262 1562 2956 1568 3008 
L 1158 3008 
z
" transform="scale(0.015625)"/>
      <path id="HFBRMI10-6c" d="M 1453 4448 
L 512 0 
C 646 0 794 0 909 19 
L 934 89 
C 998 409 1069 723 1139 1043 
L 1856 4448 
L 1453 4448 
z
" transform="scale(0.015625)"/>
      <path id="HFBRMI10-66" d="M 819 3009 
L 755 2688 
L 1306 2688 
C 1107 1792 922 871 730 -32 
C 864 -32 1011 -32 1126 -13 
L 1146 32 
C 1286 720 1440 1389 1581 2077 
C 1632 2270 1651 2495 1715 2675 
L 1779 2688 
L 2502 2688 
L 2566 3009 
L 1766 3009 
C 1824 3195 1850 3393 1888 3579 
C 1907 3669 1920 3765 1958 3842 
C 2112 4111 2541 4208 2931 4144 
C 3021 4124 3110 4092 3200 4073 
L 3270 4432 
C 3040 4477 2790 4503 2554 4471 
C 2125 4413 1690 4118 1536 3714 
C 1478 3560 1389 3105 1389 3105 
C 1389 3079 1382 3034 1357 3021 
C 1325 2996 1248 3009 1210 3009 
L 819 3009 
z
" transform="scale(0.015625)"/>
      <path id="HFBRMI10-72" d="M 1382 2213 
L 1376 2213 
L 1542 3015 
L 1158 3015 
L 518 0 
L 806 0 
C 864 0 934 -19 934 64 
C 947 103 954 147 960 186 
L 1069 680 
C 1107 866 1254 1591 1293 1726 
C 1363 1931 1485 2123 1638 2271 
C 1862 2489 2195 2688 2566 2688 
C 2598 2688 2662 2688 2682 2714 
C 2707 2740 2746 2982 2765 3066 
C 2336 3066 1946 2854 1651 2559 
C 1574 2482 1421 2309 1382 2213 
z
" transform="scale(0.015625)"/>
      <path id="HFBRMI10-63" d="M 2918 725 
C 2842 679 2778 621 2707 576 
C 2541 465 2368 380 2176 334 
C 1888 256 1619 256 1376 377 
C 1011 576 954 1038 1011 1409 
C 1101 1960 1402 2550 1965 2736 
C 2266 2832 2656 2794 2912 2685 
C 3027 2634 3123 2557 3226 2493 
L 3360 2847 
C 3226 2921 3091 2994 2944 3037 
C 2643 3136 2144 3136 1869 3039 
C 1203 2788 704 2118 602 1415 
C 531 951 653 494 960 219 
C 1485 -243 2291 -12 2746 276 
C 2784 302 2842 328 2867 366 
C 2886 398 2906 642 2918 725 
z
" transform="scale(0.015625)"/>
      <path id="HFBR17-1" d="M 230 0 
L 4141 0 
C 4102 147 4032 288 3981 429 
L 2458 4397 
C 2451 4422 2445 4454 2419 4467 
C 2394 4493 2330 4480 2298 4480 
L 2086 4480 
C 1997 4480 1939 4499 1920 4410 
C 1485 3328 1088 2208 659 1120 
L 390 422 
C 333 282 269 141 230 0 
z
M 2157 4032 
C 2266 3635 2426 3290 2554 2912 
L 3501 422 
L 800 422 
C 1254 1619 1722 2816 2157 4032 
z
" transform="scale(0.015625)"/>
      <path id="HFBR17-2d" d="M 26 1665 
L 26 1344 
L 1811 1344 
L 1811 1665 
L 26 1665 
z
" transform="scale(0.015625)"/>
      <path id="HFBR17-76" d="M 45 3040 
C 77 2912 269 2405 282 2373 
C 346 2194 1107 39 1126 19 
C 1146 -13 1203 0 1235 0 
L 1459 0 
C 1542 0 1594 -19 1613 58 
C 1818 597 2566 2733 2675 3040 
L 2278 3040 
C 1971 2175 1658 1308 1370 423 
L 704 2317 
C 608 2547 550 2809 442 3021 
C 326 3040 179 3040 45 3040 
z
" transform="scale(0.015625)"/>
      <path id="HFBR17-73" d="M 198 617 
C 186 527 166 444 154 354 
C 141 283 122 251 186 219 
C 448 65 762 -19 1133 -51 
C 1549 -90 2074 7 2278 418 
C 2336 534 2368 662 2374 791 
C 2400 1253 2035 1549 1722 1658 
C 1370 1793 890 1748 646 2018 
C 518 2166 512 2385 634 2539 
C 890 2899 1715 2744 2042 2584 
C 2093 2558 2138 2526 2195 2513 
L 2253 2860 
C 1952 2995 1690 3072 1274 3072 
C 915 3072 589 2989 384 2783 
C 179 2571 109 2217 230 1948 
C 346 1690 589 1523 851 1440 
C 1229 1305 1658 1369 1907 1061 
C 2048 881 2022 611 1862 450 
C 1555 167 902 270 544 424 
C 422 476 314 553 198 617 
z
" transform="scale(0.015625)"/>
      <path id="HFBR17-66" d="M 678 3009 
L 128 3009 
L 128 2688 
L 678 2688 
L 678 -32 
L 1082 -32 
L 1082 2688 
L 1875 2688 
L 1875 3009 
L 1075 3009 
L 1075 3570 
C 1075 3660 1056 3771 1094 3861 
C 1229 4144 1683 4196 2054 4132 
C 2131 4119 2202 4093 2278 4080 
L 2278 4441 
C 1843 4512 1363 4512 1005 4219 
C 947 4168 896 4118 851 4053 
C 717 3888 678 3704 678 3417 
L 678 3009 
z
" transform="scale(0.015625)"/>
      <path id="HFBR17-47" d="M 3974 2132 
L 2560 2132 
L 2560 1792 
L 3565 1792 
L 3565 614 
C 3565 582 3571 537 3552 511 
C 3533 473 3450 460 3411 447 
C 3117 364 2682 280 2336 344 
C 1869 421 1472 730 1229 1134 
C 742 1929 832 3044 1498 3710 
C 1696 3910 1939 4064 2240 4134 
C 2656 4237 3142 4134 3450 3987 
C 3590 3922 3712 3832 3840 3749 
L 3917 4198 
C 3744 4275 3578 4352 3392 4409 
C 3110 4486 2822 4512 2534 4512 
C 1773 4512 1184 4039 870 3586 
C 403 2884 346 1940 723 1186 
C 934 746 1280 421 1715 197 
C 2253 -64 2886 -64 3450 98 
C 3526 117 3949 251 3968 311 
C 3974 331 3974 358 3974 378 
L 3974 2132 
z
" transform="scale(0.015625)"/>
      <path id="HFBR17-6f" d="M 685 2693 
C 115 2127 51 1144 544 508 
C 614 411 698 328 794 257 
C 1030 64 1376 -77 1779 -32 
C 2419 45 2861 566 2995 1112 
C 3174 1877 2797 2731 2093 3001 
C 1542 3226 992 3001 685 2693 
z
M 2285 2519 
C 2592 2242 2650 1799 2624 1407 
C 2605 1105 2522 790 2310 565 
C 1965 192 1325 192 954 552 
C 762 758 646 1053 627 1407 
C 595 1927 723 2480 1235 2686 
C 1613 2853 2048 2731 2285 2519 
z
" transform="scale(0.015625)"/>
      <path id="HFBR17-4c" d="M 512 4448 
L 512 0 
L 3168 0 
L 3168 341 
L 960 341 
L 960 4448 
L 512 4448 
z
" transform="scale(0.015625)"/>
      <path id="HFBR17-63" d="M 2714 720 
C 2592 630 2483 533 2349 456 
C 2048 296 1587 219 1242 379 
C 742 636 608 1260 678 1774 
C 691 1877 710 1979 742 2076 
C 883 2494 1235 2821 1811 2757 
C 2118 2731 2272 2680 2515 2545 
C 2560 2519 2598 2487 2650 2474 
C 2656 2551 2675 2635 2688 2712 
C 2707 2815 2707 2828 2611 2873 
C 2541 2905 2470 2943 2394 2969 
C 2099 3098 1613 3136 1280 3040 
C 826 2911 486 2519 339 2082 
C 269 1883 250 1671 250 1459 
C 256 784 717 122 1389 -13 
C 1760 -90 2189 19 2445 154 
C 2509 186 2701 302 2733 360 
C 2752 392 2714 720 2714 720 
z
" transform="scale(0.015625)"/>
     </defs>
     <use xlink:href="#HFBRMI10-53" transform="scale(0.996264)"/>
     <use xlink:href="#HFBR17-2e" transform="translate(67.00897 0) scale(0.996264)"/>
     <use xlink:href="#HFBRMI10-6f" transform="translate(136.913211 0) scale(0.996264)"/>
     <use xlink:href="#HFBRMI10-6e" transform="translate(196.216489 0) scale(0.996264)"/>
     <use xlink:href="#HFBRMI10-65" transform="translate(250.217021 0) scale(0.996264)"/>
     <use xlink:href="#HFBRMI10-69" transform="translate(303.179726 0) scale(0.996264)"/>
     <use xlink:href="#HFBRMI10-64" transform="translate(335.599048 0) scale(0.996264)"/>
     <use xlink:href="#HFBRMI10-65" transform="translate(396.658238 0) scale(0.996264)"/>
     <use xlink:href="#HFBRMI10-6e" transform="translate(449.620944 0) scale(0.996264)"/>
     <use xlink:href="#HFBRMI10-73" transform="translate(503.621475 0) scale(0.996264)"/>
     <use xlink:href="#HFBRMI10-69" transform="translate(551.977098 0) scale(0.996264)"/>
     <use xlink:href="#HFBRMI10-73" transform="translate(584.396419 0) scale(0.996264)"/>
     <use xlink:href="#HFBR17-54" transform="translate(664.217254 0) scale(0.996264)"/>
     <use xlink:href="#HFBR17-6e" transform="translate(733.955431 0) scale(0.996264)"/>
     <use xlink:href="#HFBR17-37" transform="translate(782.107928 0) scale(0.996264)"/>
     <use xlink:href="#HFBR17-3a" transform="translate(832.751146 0) scale(0.996264)"/>
     <use xlink:href="#HFBR17-3a" transform="translate(860.148269 0) scale(0.996264)"/>
     <use xlink:href="#HFBR17-6d" transform="translate(887.545393 0) scale(0.996264)"/>
     <use xlink:href="#HFBR17-52" transform="translate(964.755519 0) scale(0.996264)"/>
     <use xlink:href="#HFBR17-46" transform="translate(1028.474641 0) scale(0.996264)"/>
     <use xlink:href="#HFBR17-50" transform="translate(1084.306698 0) scale(0.996264)"/>
     <use xlink:href="#HFBR17-61" transform="translate(1178.660817 0) scale(0.996264)"/>
     <use xlink:href="#HFBR17-6e" transform="translate(1225.1529 0) scale(0.996264)"/>
     <use xlink:href="#HFBR17-64" transform="translate(1273.305397 0) scale(0.996264)"/>
     <use xlink:href="#HFBRMI10-47" transform="translate(1352.923105 0) scale(0.996264)"/>
     <use xlink:href="#HFBR17-2e" transform="translate(1427.143238 0) scale(0.996264)"/>
     <use xlink:href="#HFBRMI10-73" transform="translate(1497.047479 0) scale(0.996264)"/>
     <use xlink:href="#HFBRMI10-75" transform="translate(1545.403103 0) scale(0.996264)"/>
     <use xlink:href="#HFBRMI10-6c" transform="translate(1601.756581 0) scale(0.996264)"/>
     <use xlink:href="#HFBRMI10-66" transform="translate(1633.758324 0) scale(0.996264)"/>
     <use xlink:href="#HFBRMI10-75" transform="translate(1687.691482 0) scale(0.996264)"/>
     <use xlink:href="#HFBRMI10-72" transform="translate(1744.04496 0) scale(0.996264)"/>
     <use xlink:href="#HFBRMI10-72" transform="translate(1789.951576 0) scale(0.996264)"/>
     <use xlink:href="#HFBRMI10-65" transform="translate(1835.858192 0) scale(0.996264)"/>
     <use xlink:href="#HFBRMI10-64" transform="translate(1888.820898 0) scale(0.996264)"/>
     <use xlink:href="#HFBRMI10-75" transform="translate(1949.880088 0) scale(0.996264)"/>
     <use xlink:href="#HFBRMI10-63" transform="translate(2006.233567 0) scale(0.996264)"/>
     <use xlink:href="#HFBRMI10-65" transform="translate(2061.563008 0) scale(0.996264)"/>
     <use xlink:href="#HFBRMI10-6e" transform="translate(2114.525714 0) scale(0.996264)"/>
     <use xlink:href="#HFBRMI10-73" transform="translate(2168.526245 0) scale(0.996264)"/>
     <use xlink:href="#HFBR17-1" transform="translate(2248.34708 0) scale(0.996264)"/>
     <use xlink:href="#HFBR17-31" transform="translate(2316.424842 0) scale(0.996264)"/>
     <use xlink:href="#HFBR17-36" transform="translate(2367.06806 0) scale(0.996264)"/>
     <use xlink:href="#HFBR17-32" transform="translate(2417.711277 0) scale(0.996264)"/>
     <use xlink:href="#HFBR17-30" transform="translate(2468.354495 0) scale(0.996264)"/>
     <use xlink:href="#HFBR17-2d" transform="translate(2518.997713 0) scale(0.996264)"/>
     <use xlink:href="#HFBR17-31" transform="translate(2552.206387 0) scale(0.996264)"/>
     <use xlink:href="#HFBR17-36" transform="translate(2602.849605 0) scale(0.996264)"/>
     <use xlink:href="#HFBR17-32" transform="translate(2653.492822 0) scale(0.996264)"/>
     <use xlink:href="#HFBR17-34" transform="translate(2704.13604 0) scale(0.996264)"/>
     <use xlink:href="#HFBR17-54" transform="translate(2786.24447 0) scale(0.996264)"/>
     <use xlink:href="#HFBR17-6e" transform="translate(2855.982646 0) scale(0.996264)"/>
     <use xlink:href="#HFBR17-37" transform="translate(2904.135143 0) scale(0.996264)"/>
     <use xlink:href="#HFBR17-3a" transform="translate(2954.778361 0) scale(0.996264)"/>
     <use xlink:href="#HFBR17-3a" transform="translate(2982.175485 0) scale(0.996264)"/>
     <use xlink:href="#HFBR17-76" transform="translate(3009.572608 0) scale(0.996264)"/>
     <use xlink:href="#HFBR17-73" transform="translate(3051.913646 0) scale(0.996264)"/>
     <use xlink:href="#HFBR17-66" transform="translate(3090.352675 0) scale(0.996264)"/>
     <use xlink:href="#HFBR17-47" transform="translate(3120.655619 0) scale(0.996264)"/>
     <use xlink:href="#HFBR17-46" transform="translate(3188.733381 0) scale(0.996264)"/>
     <use xlink:href="#HFBR17-50" transform="translate(3244.565439 0) scale(0.996264)"/>
     <use xlink:href="#HFBR17-30" transform="translate(3307.454346 0) scale(0.996264)"/>
     <use xlink:href="#HFBR17-6f" transform="translate(3389.562775 0) scale(0.996264)"/>
     <use xlink:href="#HFBR17-6e" transform="translate(3440.205993 0) scale(0.996264)"/>
     <use xlink:href="#HFBR17-4c" transform="translate(3519.823702 0) scale(0.996264)"/>
     <use xlink:href="#HFBR17-61" transform="translate(3572.75003 0) scale(0.996264)"/>
     <use xlink:href="#HFBR17-63" transform="translate(3619.242112 0) scale(0.996264)"/>
     <use xlink:href="#HFBR17-74" transform="translate(3664.07378 0) scale(0.996264)"/>
     <use xlink:href="#HFBR17-61" transform="translate(3700.188168 0) scale(0.996264)"/>
     <use xlink:href="#HFBR17-74" transform="translate(3746.68025 0) scale(0.996264)"/>
     <use xlink:href="#HFBR17-65" transform="translate(3782.794638 0) scale(0.996264)"/>
    </g>
   </g>
  </g>
 </g>
 <defs>
  <clipPath id="p0c43156a1d">
   <rect x="48.430894" y="21.502195" width="390.6" height="146.88"/>
  </clipPath>
 </defs>
</svg>
