<?xml version="1.0" encoding="utf-8" standalone="no"?>
<!DOCTYPE svg PUBLIC "-//W3C//DTD SVG 1.1//EN"
  "http://www.w3.org/Graphics/SVG/1.1/DTD/svg11.dtd">
<svg xmlns:xlink="http://www.w3.org/1999/xlink" width="443.175694pt" height="231.260799pt" viewBox="0 0 443.175694 231.260799" xmlns="http://www.w3.org/2000/svg" version="1.1">
 <metadata>
  <rdf:RDF xmlns:dc="http://purl.org/dc/elements/1.1/" xmlns:cc="http://creativecommons.org/ns#" xmlns:rdf="http://www.w3.org/1999/02/22-rdf-syntax-ns#">
   <cc:Work>
    <dc:type rdf:resource="http://purl.org/dc/dcmitype/StillImage"/>
    <dc:date>2023-12-08T17:57:34.853976</dc:date>
    <dc:format>image/svg+xml</dc:format>
    <dc:creator>
     <cc:Agent>
      <dc:title>Matplotlib v3.7.0, https://matplotlib.org/</dc:title>
     </cc:Agent>
    </dc:creator>
   </cc:Work>
  </rdf:RDF>
 </metadata>
 <defs>
  <style type="text/css">*{stroke-linejoin: round; stroke-linecap: butt}</style>
 </defs>
 <g id="figure_1">
  <g id="patch_1">
   <path d="M 0 231.260799 
L 443.175694 231.260799 
L 443.175694 0 
L 0 0 
z
" style="fill: #222222"/>
  </g>
  <g id="axes_1">
   <g id="patch_2">
    <path d="M 45.375694 168.382195 
L 435.975694 168.382195 
L 435.975694 21.502195 
L 45.375694 21.502195 
z
" style="fill: #222222"/>
   </g>
   <g id="matplotlib.axis_1">
    <g id="xtick_1">
     <g id="line2d_1">
      <defs>
       <path id="m2fb1f19c09" d="M 0 0 
L 0 3.5 
" style="stroke: #ffffff; stroke-width: 0.8"/>
      </defs>
      <g>
       <use xlink:href="#m2fb1f19c09" x="88.720246" y="168.382195" style="fill: #ffffff; stroke: #ffffff; stroke-width: 0.8"/>
      </g>
     </g>
     <g id="text_1">
      <!-- $\mathdefault{2023{-}09{-}16}$ -->
      <g style="fill: #ffffff" transform="translate(38.231952 210.043896) rotate(-30) scale(0.1 -0.1)">
       <defs>
        <path id="HFBR17-32" d="M 467 2942 
C 557 3302 710 3711 1075 3872 
C 1229 3936 1395 3949 1562 3936 
C 1875 3910 2182 3782 2374 3526 
C 2515 3333 2566 3096 2541 2866 
C 2464 2198 1811 1718 1389 1359 
C 1146 1154 454 500 454 500 
L 346 397 
C 288 340 282 340 282 224 
L 282 0 
L 2970 0 
L 2970 360 
L 653 360 
C 858 559 1709 1313 1824 1403 
C 2195 1706 2611 2008 2835 2446 
C 3085 2948 2976 3580 2554 3953 
C 2298 4179 1946 4288 1606 4288 
C 1293 4288 973 4224 723 4026 
C 531 3865 371 3628 282 3384 
C 262 3346 230 3282 237 3237 
C 243 3199 282 3167 301 3141 
C 352 3077 403 3000 467 2942 
z
" transform="scale(0.015625)"/>
        <path id="HFBR17-30" d="M 947 4087 
C 762 3959 634 3785 538 3586 
C 307 3136 282 2609 282 2037 
C 282 1317 410 656 768 276 
C 1107 -77 1645 -167 2099 19 
C 2381 129 2586 366 2714 623 
C 2944 1080 2970 1626 2970 2191 
C 2970 2371 2963 2551 2944 2731 
C 2899 3162 2752 3637 2515 3901 
C 2125 4332 1427 4428 947 4087 
z
M 2234 3721 
C 2534 3400 2560 2783 2560 2198 
L 2560 1851 
C 2560 1555 2509 1170 2445 951 
C 2355 649 2208 431 1914 296 
C 1555 167 1184 289 979 572 
C 704 938 691 1587 691 2159 
C 691 2699 698 3297 960 3650 
C 1248 4036 1869 4100 2234 3721 
z
" transform="scale(0.015625)"/>
        <path id="HFBR17-33" d="M 518 3246 
C 570 3323 608 3407 666 3484 
C 800 3664 986 3805 1197 3889 
C 1530 4024 2016 4024 2278 3726 
C 2509 3461 2413 3047 2202 2802 
C 2010 2576 1760 2466 1389 2466 
C 1280 2466 1178 2434 1069 2434 
L 1069 2112 
L 1510 2112 
C 1882 2112 2125 2055 2330 1836 
C 2682 1463 2650 801 2259 461 
C 2061 294 1786 242 1530 261 
C 1030 300 589 564 294 975 
C 262 911 262 821 250 750 
C 230 647 230 647 294 564 
C 480 313 845 82 1133 -2 
C 1645 -156 2240 -86 2637 306 
C 2714 384 2784 467 2842 557 
C 3078 930 3085 1418 2822 1778 
C 2714 1926 2573 2042 2413 2132 
C 2304 2196 2176 2260 2048 2273 
C 2419 2447 2765 2741 2829 3223 
C 2886 3672 2624 3948 2355 4108 
C 1939 4352 1395 4352 966 4139 
C 768 4043 589 3902 454 3728 
C 429 3696 333 3587 333 3535 
C 333 3503 358 3471 378 3445 
L 518 3246 
z
" transform="scale(0.015625)"/>
        <path id="HFBRSY10-0" d="M 627 1797 
C 512 1759 499 1586 627 1554 
C 659 1541 698 1548 736 1548 
L 4141 1548 
C 4218 1548 4339 1522 4403 1586 
C 4474 1656 4435 1784 4333 1804 
C 4256 1816 4166 1804 4090 1804 
L 730 1804 
C 698 1804 659 1810 627 1797 
z
" transform="scale(0.015625)"/>
        <path id="HFBR17-39" d="M 2528 2109 
C 2528 2109 2534 2109 2534 2109 
C 2534 2032 2528 1948 2528 1871 
C 2515 1363 2381 762 1946 444 
C 1818 341 1619 256 1427 256 
C 1082 205 800 370 602 502 
L 435 205 
C 710 -8 1126 -168 1613 -59 
C 2048 37 2400 372 2618 751 
C 2950 1335 3034 2035 2906 2850 
C 2822 3429 2573 3987 2054 4199 
C 1773 4315 1414 4315 1139 4193 
C 870 4063 640 3838 486 3586 
C 346 3348 294 3078 294 2807 
C 294 2575 320 2350 397 2130 
C 518 1827 762 1479 1050 1383 
C 1158 1344 1267 1344 1382 1344 
C 1722 1344 2048 1498 2285 1742 
C 2362 1820 2496 2000 2528 2109 
z
M 1562 3968 
C 1850 3968 2131 3852 2298 3602 
C 2374 3480 2419 3337 2451 3196 
C 2547 2823 2560 2412 2349 2077 
C 2214 1864 1971 1665 1677 1665 
C 1466 1665 1235 1691 1062 1825 
C 806 2023 717 2311 717 2733 
C 717 3110 730 3405 934 3648 
C 1075 3840 1254 3929 1562 3968 
z
" transform="scale(0.015625)"/>
        <path id="HFBR17-31" d="M 621 3841 
L 621 3520 
C 973 3520 1216 3584 1498 3706 
L 1498 321 
L 659 321 
L 659 0 
L 2752 0 
L 2752 321 
L 1914 321 
L 1914 4288 
C 1760 4288 1786 4247 1664 4152 
C 1402 3950 1037 3841 621 3841 
z
" transform="scale(0.015625)"/>
        <path id="HFBR17-36" d="M 723 2088 
L 717 2088 
C 717 2673 819 3355 1318 3728 
C 1594 3928 1965 4030 2445 3915 
C 2547 3889 2643 3850 2739 3825 
L 2739 4050 
C 2739 4075 2746 4120 2726 4146 
C 2682 4204 2323 4262 2310 4262 
C 1754 4326 1389 4204 1050 3915 
C 640 3561 403 3041 326 2514 
C 256 2090 314 1408 397 1074 
C 531 579 787 142 1261 -25 
C 1542 -128 1888 -128 2157 1 
C 2374 105 2554 286 2694 480 
C 2918 790 2976 1166 2950 1547 
C 2938 1735 2912 1923 2835 2097 
C 2714 2376 2509 2667 2246 2796 
C 2125 2848 1997 2848 1869 2848 
C 1530 2848 1210 2700 973 2455 
C 870 2352 768 2222 723 2088 
z
M 1562 2529 
C 1805 2548 2061 2510 2246 2336 
C 2490 2105 2534 1777 2534 1460 
C 2534 1246 2541 1025 2477 823 
C 2438 719 2387 629 2330 544 
C 2189 356 2010 264 1715 225 
C 1427 225 1139 340 973 584 
C 870 725 819 899 787 1065 
C 749 1238 723 1417 736 1591 
C 768 2047 1088 2465 1562 2529 
z
" transform="scale(0.015625)"/>
       </defs>
       <use xlink:href="#HFBR17-32" transform="scale(0.996264)"/>
       <use xlink:href="#HFBR17-30" transform="translate(50.643218 0) scale(0.996264)"/>
       <use xlink:href="#HFBR17-32" transform="translate(101.286436 0) scale(0.996264)"/>
       <use xlink:href="#HFBR17-33" transform="translate(151.929653 0) scale(0.996264)"/>
       <use xlink:href="#HFBRSY10-0" transform="translate(202.572871 0) scale(0.996264)"/>
       <use xlink:href="#HFBR17-30" transform="translate(280.060339 0) scale(0.996264)"/>
       <use xlink:href="#HFBR17-39" transform="translate(330.703557 0) scale(0.996264)"/>
       <use xlink:href="#HFBRSY10-0" transform="translate(381.346775 0) scale(0.996264)"/>
       <use xlink:href="#HFBR17-31" transform="translate(458.834242 0) scale(0.996264)"/>
       <use xlink:href="#HFBR17-36" transform="translate(509.47746 0) scale(0.996264)"/>
      </g>
     </g>
    </g>
    <g id="xtick_2">
     <g id="line2d_2">
      <g>
       <use xlink:href="#m2fb1f19c09" x="157.55736" y="168.382195" style="fill: #ffffff; stroke: #ffffff; stroke-width: 0.8"/>
      </g>
     </g>
     <g id="text_2">
      <!-- $\mathdefault{2023{-}09{-}17}$ -->
      <g style="fill: #ffffff" transform="translate(107.069066 210.043896) rotate(-30) scale(0.1 -0.1)">
       <defs>
        <path id="HFBR17-37" d="M 230 4200 
L 230 3840 
L 2739 3840 
L 2502 3608 
C 2291 3383 2099 3144 1926 2887 
C 1350 2017 1037 980 1037 -64 
L 1466 -64 
C 1466 877 1702 1817 2150 2648 
C 2368 3067 2598 3369 2899 3723 
C 2938 3762 2995 3807 3014 3858 
C 3027 3890 3021 3935 3021 3975 
L 3021 4200 
L 230 4200 
z
" transform="scale(0.015625)"/>
       </defs>
       <use xlink:href="#HFBR17-32" transform="scale(0.996264)"/>
       <use xlink:href="#HFBR17-30" transform="translate(50.643218 0) scale(0.996264)"/>
       <use xlink:href="#HFBR17-32" transform="translate(101.286436 0) scale(0.996264)"/>
       <use xlink:href="#HFBR17-33" transform="translate(151.929653 0) scale(0.996264)"/>
       <use xlink:href="#HFBRSY10-0" transform="translate(202.572871 0) scale(0.996264)"/>
       <use xlink:href="#HFBR17-30" transform="translate(280.060339 0) scale(0.996264)"/>
       <use xlink:href="#HFBR17-39" transform="translate(330.703557 0) scale(0.996264)"/>
       <use xlink:href="#HFBRSY10-0" transform="translate(381.346775 0) scale(0.996264)"/>
       <use xlink:href="#HFBR17-31" transform="translate(458.834242 0) scale(0.996264)"/>
       <use xlink:href="#HFBR17-37" transform="translate(509.47746 0) scale(0.996264)"/>
      </g>
     </g>
    </g>
    <g id="xtick_3">
     <g id="line2d_3">
      <g>
       <use xlink:href="#m2fb1f19c09" x="226.394475" y="168.382195" style="fill: #ffffff; stroke: #ffffff; stroke-width: 0.8"/>
      </g>
     </g>
     <g id="text_3">
      <!-- $\mathdefault{2023{-}09{-}18}$ -->
      <g style="fill: #ffffff" transform="translate(175.90618 210.043896) rotate(-30) scale(0.1 -0.1)">
       <defs>
        <path id="HFBR17-38" d="M 1197 2304 
L 1197 2298 
C 800 2182 467 1964 307 1590 
C 141 1198 256 722 538 413 
C 838 91 1248 -64 1683 -64 
C 2323 -64 2938 410 3014 1071 
C 3027 1169 3021 1273 3008 1370 
C 2893 1870 2528 2168 2054 2298 
C 2106 2317 2163 2330 2214 2349 
C 2483 2459 2707 2619 2848 2876 
C 3059 3288 2854 3770 2509 4033 
C 2163 4297 1696 4367 1274 4277 
C 768 4168 288 3738 320 3185 
C 333 2992 416 2831 512 2716 
C 659 2536 947 2343 1197 2304 
z
M 1523 4000 
C 1805 4000 2157 3968 2362 3749 
C 2605 3486 2618 3010 2374 2740 
C 2221 2573 1997 2489 1773 2470 
C 1459 2444 1101 2496 877 2740 
C 627 3016 646 3518 915 3775 
C 1082 3929 1306 3980 1523 4000 
z
M 1517 2144 
C 1818 2144 2144 2073 2362 1852 
C 2445 1762 2509 1652 2547 1537 
C 2656 1200 2605 774 2355 515 
C 2182 341 1946 276 1709 257 
C 1421 257 1088 327 883 548 
C 602 857 544 1498 877 1860 
C 1043 2034 1280 2125 1517 2144 
z
" transform="scale(0.015625)"/>
       </defs>
       <use xlink:href="#HFBR17-32" transform="scale(0.996264)"/>
       <use xlink:href="#HFBR17-30" transform="translate(50.643218 0) scale(0.996264)"/>
       <use xlink:href="#HFBR17-32" transform="translate(101.286436 0) scale(0.996264)"/>
       <use xlink:href="#HFBR17-33" transform="translate(151.929653 0) scale(0.996264)"/>
       <use xlink:href="#HFBRSY10-0" transform="translate(202.572871 0) scale(0.996264)"/>
       <use xlink:href="#HFBR17-30" transform="translate(280.060339 0) scale(0.996264)"/>
       <use xlink:href="#HFBR17-39" transform="translate(330.703557 0) scale(0.996264)"/>
       <use xlink:href="#HFBRSY10-0" transform="translate(381.346775 0) scale(0.996264)"/>
       <use xlink:href="#HFBR17-31" transform="translate(458.834242 0) scale(0.996264)"/>
       <use xlink:href="#HFBR17-38" transform="translate(509.47746 0) scale(0.996264)"/>
      </g>
     </g>
    </g>
    <g id="xtick_4">
     <g id="line2d_4">
      <g>
       <use xlink:href="#m2fb1f19c09" x="295.231589" y="168.382195" style="fill: #ffffff; stroke: #ffffff; stroke-width: 0.8"/>
      </g>
     </g>
     <g id="text_4">
      <!-- $\mathdefault{2023{-}09{-}19}$ -->
      <g style="fill: #ffffff" transform="translate(244.743295 210.043896) rotate(-30) scale(0.1 -0.1)">
       <use xlink:href="#HFBR17-32" transform="scale(0.996264)"/>
       <use xlink:href="#HFBR17-30" transform="translate(50.643218 0) scale(0.996264)"/>
       <use xlink:href="#HFBR17-32" transform="translate(101.286436 0) scale(0.996264)"/>
       <use xlink:href="#HFBR17-33" transform="translate(151.929653 0) scale(0.996264)"/>
       <use xlink:href="#HFBRSY10-0" transform="translate(202.572871 0) scale(0.996264)"/>
       <use xlink:href="#HFBR17-30" transform="translate(280.060339 0) scale(0.996264)"/>
       <use xlink:href="#HFBR17-39" transform="translate(330.703557 0) scale(0.996264)"/>
       <use xlink:href="#HFBRSY10-0" transform="translate(381.346775 0) scale(0.996264)"/>
       <use xlink:href="#HFBR17-31" transform="translate(458.834242 0) scale(0.996264)"/>
       <use xlink:href="#HFBR17-39" transform="translate(509.47746 0) scale(0.996264)"/>
      </g>
     </g>
    </g>
    <g id="xtick_5">
     <g id="line2d_5">
      <g>
       <use xlink:href="#m2fb1f19c09" x="364.068704" y="168.382195" style="fill: #ffffff; stroke: #ffffff; stroke-width: 0.8"/>
      </g>
     </g>
     <g id="text_5">
      <!-- $\mathdefault{2023{-}09{-}20}$ -->
      <g style="fill: #ffffff" transform="translate(313.580409 210.043896) rotate(-30) scale(0.1 -0.1)">
       <use xlink:href="#HFBR17-32" transform="scale(0.996264)"/>
       <use xlink:href="#HFBR17-30" transform="translate(50.643218 0) scale(0.996264)"/>
       <use xlink:href="#HFBR17-32" transform="translate(101.286436 0) scale(0.996264)"/>
       <use xlink:href="#HFBR17-33" transform="translate(151.929653 0) scale(0.996264)"/>
       <use xlink:href="#HFBRSY10-0" transform="translate(202.572871 0) scale(0.996264)"/>
       <use xlink:href="#HFBR17-30" transform="translate(280.060339 0) scale(0.996264)"/>
       <use xlink:href="#HFBR17-39" transform="translate(330.703557 0) scale(0.996264)"/>
       <use xlink:href="#HFBRSY10-0" transform="translate(381.346775 0) scale(0.996264)"/>
       <use xlink:href="#HFBR17-32" transform="translate(458.834242 0) scale(0.996264)"/>
       <use xlink:href="#HFBR17-30" transform="translate(509.47746 0) scale(0.996264)"/>
      </g>
     </g>
    </g>
    <g id="xtick_6">
     <g id="line2d_6">
      <g>
       <use xlink:href="#m2fb1f19c09" x="432.905818" y="168.382195" style="fill: #ffffff; stroke: #ffffff; stroke-width: 0.8"/>
      </g>
     </g>
     <g id="text_6">
      <!-- $\mathdefault{2023{-}09{-}21}$ -->
      <g style="fill: #ffffff" transform="translate(382.417524 210.043896) rotate(-30) scale(0.1 -0.1)">
       <use xlink:href="#HFBR17-32" transform="scale(0.996264)"/>
       <use xlink:href="#HFBR17-30" transform="translate(50.643218 0) scale(0.996264)"/>
       <use xlink:href="#HFBR17-32" transform="translate(101.286436 0) scale(0.996264)"/>
       <use xlink:href="#HFBR17-33" transform="translate(151.929653 0) scale(0.996264)"/>
       <use xlink:href="#HFBRSY10-0" transform="translate(202.572871 0) scale(0.996264)"/>
       <use xlink:href="#HFBR17-30" transform="translate(280.060339 0) scale(0.996264)"/>
       <use xlink:href="#HFBR17-39" transform="translate(330.703557 0) scale(0.996264)"/>
       <use xlink:href="#HFBRSY10-0" transform="translate(381.346775 0) scale(0.996264)"/>
       <use xlink:href="#HFBR17-32" transform="translate(458.834242 0) scale(0.996264)"/>
       <use xlink:href="#HFBR17-31" transform="translate(509.47746 0) scale(0.996264)"/>
      </g>
     </g>
    </g>
    <g id="text_7">
     <!-- Date -->
     <g style="fill: #ffffff" transform="translate(230.298046 222.400369) scale(0.1 -0.1)">
      <defs>
       <path id="HFBR17-44" d="M 512 4480 
L 512 0 
L 1805 0 
C 2010 0 2214 0 2413 19 
C 2925 71 3366 321 3661 629 
C 4486 1483 4480 2952 3667 3819 
C 3373 4133 2976 4384 2477 4448 
C 2234 4480 1984 4480 1741 4480 
L 512 4480 
z
M 954 340 
L 954 4132 
L 1779 4132 
C 1952 4132 2125 4132 2298 4119 
C 2586 4087 2867 3991 3104 3823 
C 3622 3464 3840 2827 3840 2217 
C 3840 1703 3699 1176 3322 809 
C 3066 572 2720 398 2304 353 
C 2138 340 1965 340 1798 340 
L 954 340 
z
" transform="scale(0.015625)"/>
       <path id="HFBR17-61" d="M 506 2497 
C 614 2551 704 2630 813 2683 
C 986 2762 1165 2816 1357 2816 
C 1446 2822 1549 2835 1638 2816 
C 1798 2790 1939 2693 2035 2557 
C 2131 2401 2170 2265 2170 2014 
L 2170 1729 
C 1862 1729 1555 1703 1261 1625 
C 890 1541 486 1352 352 1014 
C 218 690 358 261 646 66 
C 787 -32 954 -32 1120 -19 
C 1389 0 1658 65 1888 208 
C 1997 272 2106 357 2170 467 
L 2176 467 
L 2176 13 
L 2579 13 
L 2579 1721 
C 2579 1908 2598 2109 2560 2297 
C 2522 2555 2362 2769 2176 2918 
C 1958 3086 1709 3143 1376 3118 
C 1069 3118 832 3040 602 2929 
C 570 2916 506 2895 486 2857 
C 467 2830 480 2785 480 2752 
C 493 2667 499 2582 506 2497 
z
M 2170 1536 
L 2170 1048 
C 2170 900 2176 765 2093 637 
C 2022 534 1926 463 1824 412 
C 1459 225 902 283 742 592 
C 614 816 749 1080 934 1228 
C 1210 1440 1747 1536 2170 1536 
z
" transform="scale(0.015625)"/>
       <path id="HFBR17-74" d="M 691 3872 
L 691 3009 
L 70 3009 
L 70 2688 
L 685 2688 
L 685 961 
C 685 677 666 335 851 97 
C 960 -45 1107 -83 1331 -64 
C 1517 -64 1702 -25 1875 42 
C 1933 68 2144 161 2170 207 
C 2182 233 2099 518 2099 518 
L 1946 401 
C 1747 278 1350 149 1184 382 
C 1037 582 1075 880 1075 1112 
L 1075 2688 
L 2067 2688 
L 2067 3009 
L 1075 3009 
L 1075 3872 
L 691 3872 
z
" transform="scale(0.015625)"/>
       <path id="HFBR17-65" d="M 2675 700 
C 2528 591 2483 533 2298 436 
C 1907 224 1446 224 1114 459 
C 794 689 608 1065 608 1600 
L 2720 1600 
C 2720 2075 2611 2487 2342 2776 
C 2048 3065 1587 3155 1197 3033 
C 1050 2988 915 2911 794 2814 
C 390 2487 218 1966 224 1458 
C 237 790 691 122 1363 -20 
C 1715 -91 2086 -13 2400 147 
C 2458 179 2669 295 2694 353 
C 2714 385 2675 700 2675 700 
z
M 2381 1850 
L 640 1850 
C 717 2319 1101 2814 1619 2756 
C 2042 2718 2266 2416 2349 2037 
C 2362 1972 2368 1915 2381 1850 
z
" transform="scale(0.015625)"/>
      </defs>
      <use xlink:href="#HFBR17-44" transform="scale(0.996264)"/>
      <use xlink:href="#HFBR17-61" transform="translate(71.606187 0) scale(0.996264)"/>
      <use xlink:href="#HFBR17-74" transform="translate(118.098269 0) scale(0.996264)"/>
      <use xlink:href="#HFBR17-65" transform="translate(154.212657 0) scale(0.996264)"/>
     </g>
    </g>
   </g>
   <g id="matplotlib.axis_2">
    <g id="ytick_1">
     <g id="line2d_7">
      <defs>
       <path id="m1bc7de42e0" d="M 0 0 
L -3.5 0 
" style="stroke: #ffffff; stroke-width: 0.8"/>
      </defs>
      <g>
       <use xlink:href="#m1bc7de42e0" x="45.375694" y="162.918719" style="fill: #ffffff; stroke: #ffffff; stroke-width: 0.8"/>
      </g>
     </g>
     <g id="text_8">
      <!-- $\mathdefault{0.00}$ -->
      <g style="fill: #ffffff" transform="translate(19.778928 166.377968) scale(0.1 -0.1)">
       <defs>
        <path id="HFBRMI10-3a" d="M 685 500 
L 685 0 
L 1184 0 
L 1184 500 
L 685 500 
z
" transform="scale(0.015625)"/>
       </defs>
       <use xlink:href="#HFBR17-30" transform="scale(0.996264)"/>
       <use xlink:href="#HFBRMI10-3a" transform="translate(50.643218 0) scale(0.996264)"/>
       <use xlink:href="#HFBR17-30" transform="translate(79.700665 0) scale(0.996264)"/>
       <use xlink:href="#HFBR17-30" transform="translate(130.343883 0) scale(0.996264)"/>
      </g>
     </g>
    </g>
    <g id="ytick_2">
     <g id="line2d_8">
      <g>
       <use xlink:href="#m1bc7de42e0" x="45.375694" y="124.498336" style="fill: #ffffff; stroke: #ffffff; stroke-width: 0.8"/>
      </g>
     </g>
     <g id="text_9">
      <!-- $\mathdefault{0.01}$ -->
      <g style="fill: #ffffff" transform="translate(19.778928 127.957585) scale(0.1 -0.1)">
       <use xlink:href="#HFBR17-30" transform="scale(0.996264)"/>
       <use xlink:href="#HFBRMI10-3a" transform="translate(50.643218 0) scale(0.996264)"/>
       <use xlink:href="#HFBR17-30" transform="translate(79.700665 0) scale(0.996264)"/>
       <use xlink:href="#HFBR17-31" transform="translate(130.343883 0) scale(0.996264)"/>
      </g>
     </g>
    </g>
    <g id="ytick_3">
     <g id="line2d_9">
      <g>
       <use xlink:href="#m1bc7de42e0" x="45.375694" y="86.077952" style="fill: #ffffff; stroke: #ffffff; stroke-width: 0.8"/>
      </g>
     </g>
     <g id="text_10">
      <!-- $\mathdefault{0.02}$ -->
      <g style="fill: #ffffff" transform="translate(19.778928 89.537201) scale(0.1 -0.1)">
       <use xlink:href="#HFBR17-30" transform="scale(0.996264)"/>
       <use xlink:href="#HFBRMI10-3a" transform="translate(50.643218 0) scale(0.996264)"/>
       <use xlink:href="#HFBR17-30" transform="translate(79.700665 0) scale(0.996264)"/>
       <use xlink:href="#HFBR17-32" transform="translate(130.343883 0) scale(0.996264)"/>
      </g>
     </g>
    </g>
    <g id="ytick_4">
     <g id="line2d_10">
      <g>
       <use xlink:href="#m1bc7de42e0" x="45.375694" y="47.657569" style="fill: #ffffff; stroke: #ffffff; stroke-width: 0.8"/>
      </g>
     </g>
     <g id="text_11">
      <!-- $\mathdefault{0.03}$ -->
      <g style="fill: #ffffff" transform="translate(19.778928 51.116818) scale(0.1 -0.1)">
       <use xlink:href="#HFBR17-30" transform="scale(0.996264)"/>
       <use xlink:href="#HFBRMI10-3a" transform="translate(50.643218 0) scale(0.996264)"/>
       <use xlink:href="#HFBR17-30" transform="translate(79.700665 0) scale(0.996264)"/>
       <use xlink:href="#HFBR17-33" transform="translate(130.343883 0) scale(0.996264)"/>
      </g>
     </g>
    </g>
    <g id="text_12">
     <!-- mA -->
     <g style="fill: #ffffff" transform="translate(14.118498 102.331082) rotate(-90) scale(0.1 -0.1)">
      <defs>
       <path id="HFBR17-6d" d="M 806 2391 
L 800 2391 
L 800 3033 
L 410 3033 
L 410 0 
L 819 0 
L 819 1411 
C 819 1725 800 2040 941 2328 
C 1062 2578 1274 2777 1651 2738 
C 1843 2738 2035 2687 2157 2525 
C 2272 2377 2278 2185 2278 2004 
L 2278 0 
L 2688 0 
L 2688 1411 
C 2688 1725 2669 2040 2810 2328 
C 2931 2578 3142 2777 3520 2738 
C 3712 2738 3904 2687 4026 2525 
C 4141 2377 4147 2185 4147 2004 
L 4147 0 
L 4557 0 
L 4557 1700 
C 4557 2008 4595 2354 4461 2636 
C 4326 2899 4109 3040 3757 3040 
C 3552 3059 3347 3028 3162 2934 
C 2938 2811 2771 2608 2669 2385 
C 2624 2597 2573 2741 2432 2880 
C 2285 3012 2086 3072 1894 3072 
C 1427 3110 1133 2916 934 2624 
C 883 2552 832 2475 806 2391 
z
" transform="scale(0.015625)"/>
       <path id="HFBR17-41" d="M 134 6 
L 422 6 
L 538 19 
C 730 435 864 909 1037 1344 
C 1670 1344 2362 1344 2963 1344 
L 3014 1260 
C 3123 931 3251 614 3366 291 
C 3398 193 3430 97 3482 19 
C 3622 0 3789 0 3942 0 
C 3834 314 2349 4301 2304 4409 
C 2298 4435 2285 4473 2253 4480 
C 2214 4486 2176 4480 2138 4480 
L 1926 4480 
C 1830 4480 1792 4492 1766 4391 
C 1741 4326 134 6 134 6 
z
M 2010 4043 
C 2278 3246 2566 2462 2848 1678 
L 1165 1678 
L 1722 3207 
L 2010 4043 
z
" transform="scale(0.015625)"/>
      </defs>
      <use xlink:href="#HFBR17-6d" transform="scale(0.996264)"/>
      <use xlink:href="#HFBR17-41" transform="translate(77.210126 0) scale(0.996264)"/>
     </g>
    </g>
   </g>
   <g id="line2d_11">
    <path d="M 63.13024 145.597295 
L 63.321454 155.559675 
L 63.608275 156.643199 
L 64.086311 157.537848 
L 64.277525 157.080553 
L 65.711632 158.463419 
L 66.380881 158.935936 
L 67.623774 159.586215 
L 71.161236 160.616593 
L 71.830486 160.753396 
L 72.308522 160.862338 
L 74.794306 161.361481 
L 74.985521 161.404201 
L 76.132806 161.566067 
L 76.419627 161.645954 
L 76.802056 161.705831 
L 77.088877 159.812759 
L 78.044948 156.24797 
L 78.714198 154.333966 
L 79.383447 152.932042 
L 80.435125 151.43059 
L 80.817554 150.995687 
L 81.104375 150.746829 
L 82.634089 150.034279 
L 85.119874 149.628256 
L 85.88473 149.65181 
L 86.936409 149.70422 
L 87.89248 149.853473 
L 88.083694 149.839576 
L 90.378264 150.07689 
L 91.334335 149.412735 
L 91.621157 148.98151 
L 91.907978 147.826166 
L 92.003585 147.013482 
L 92.099192 144.693287 
L 92.194799 139.466046 
L 92.290406 139.683611 
L 92.577228 141.875843 
L 93.15087 144.190947 
L 94.584977 147.441636 
L 95.349834 148.417497 
L 96.78394 149.726358 
L 97.070761 149.85866 
L 97.835618 150.239988 
L 98.12244 150.388791 
L 98.504868 150.497103 
L 98.696082 150.548056 
L 98.887296 150.569985 
L 99.652153 150.768042 
L 99.843367 150.775062 
L 100.130189 150.915915 
L 100.608224 150.930891 
L 100.990653 150.942411 
L 101.75551 150.989206 
L 102.137938 150.918976 
L 102.424759 150.920199 
L 103.189616 150.77402 
L 103.572045 150.724375 
L 104.432508 150.596797 
L 105.388579 150.373979 
L 105.866615 150.29716 
L 106.535865 150.163225 
L 107.0139 150.086603 
L 107.491936 149.95023 
L 111.31622 148.83424 
L 112.941541 148.184171 
L 113.323969 148.051215 
L 114.088826 147.694818 
L 114.662469 147.353773 
L 114.853683 147.278909 
L 114.94929 146.965495 
L 115.140504 147.164921 
L 115.427325 147.024896 
L 115.905361 146.71128 
L 116.670218 146.264931 
L 117.148253 145.96417 
L 117.435075 145.819439 
L 118.199931 145.251355 
L 118.58236 145.032611 
L 119.442824 144.4679 
L 120.016466 144.010567 
L 121.737394 142.716419 
L 122.311037 142.249661 
L 124.031965 140.795121 
L 124.51 140.343358 
L 124.892429 140.04642 
L 126.135321 138.921361 
L 127.186999 138.023107 
L 127.569427 137.662291 
L 128.716713 136.662012 
L 129.194748 136.217308 
L 138.277423 128.281894 
L 138.564244 128.064963 
L 138.851066 127.843782 
L 139.329101 127.436218 
L 140.763208 126.299649 
L 143.153385 124.508891 
L 150.132704 119.865497 
L 150.419525 119.6984 
L 150.801954 119.508594 
L 151.375596 119.216489 
L 151.662418 119.035941 
L 152.140453 118.762488 
L 152.618489 118.507987 
L 154.435024 117.628486 
L 155.295487 117.211135 
L 156.155951 116.858636 
L 157.20763 116.415204 
L 157.303237 117.549342 
L 157.398844 117.527497 
L 158.163701 116.559747 
L 159.406593 116.280661 
L 159.693414 116.283084 
L 160.17145 116.160097 
L 160.553878 116.095221 
L 161.414342 115.875072 
L 161.796771 115.842623 
L 168.202446 114.189147 
L 168.967303 113.914504 
L 169.540946 113.802999 
L 180.822584 109.970809 
L 181.30062 109.583886 
L 182.065476 109.272979 
L 185.889761 108.042298 
L 186.272189 107.849034 
L 190.096473 106.17263 
L 190.478902 105.983274 
L 191.339365 105.598976 
L 196.406542 103.300446 
L 197.267006 102.841871 
L 205.489217 99.048116 
L 205.584824 99.4888 
L 205.776038 99.005392 
L 207.496966 98.415399 
L 210.460786 97.047451 
L 211.034429 96.805492 
L 211.32125 96.620144 
L 211.512464 96.615266 
L 211.608071 96.693375 
L 211.799286 96.590957 
L 211.9905 96.599345 
L 215.62357 95.094867 
L 217.535712 94.093342 
L 217.822533 93.925114 
L 218.013747 93.853965 
L 218.58739 93.48302 
L 218.969818 93.344138 
L 219.830282 92.851371 
L 220.117104 92.727879 
L 220.499532 92.545586 
L 223.654566 90.822196 
L 223.845781 90.773568 
L 238.569275 82.342809 
L 239.04731 82.047028 
L 239.525346 81.818113 
L 240.672631 81.052075 
L 241.246266 80.758783 
L 241.915515 80.334524 
L 243.445229 79.421067 
L 244.879335 78.512497 
L 245.166157 78.379833 
L 246.026621 77.844661 
L 247.173906 77.102739 
L 247.747549 76.766461 
L 249.086048 75.938808 
L 249.850905 75.524628 
L 250.137726 75.330897 
L 250.424547 75.189872 
L 250.806976 74.94807 
L 251.476226 74.61718 
L 252.049868 74.189488 
L 252.719118 73.791807 
L 252.910332 74.032508 
L 253.675189 73.321825 
L 254.822474 72.563477 
L 255.109296 72.420201 
L 256.925831 71.350685 
L 257.59508 70.942407 
L 258.168723 70.528419 
L 259.029187 70.073546 
L 259.316008 69.894841 
L 261.132543 68.703363 
L 261.514971 68.525152 
L 262.853471 67.696721 
L 263.140292 67.445115 
L 263.331506 67.346851 
L 264.19197 66.795799 
L 264.765613 66.552364 
L 265.626077 66.02515 
L 266.104112 65.777203 
L 266.390934 65.616705 
L 266.964576 65.26666 
L 269.641575 63.549471 
L 270.597646 62.989738 
L 271.075682 62.634325 
L 271.362503 62.472869 
L 272.031753 62.127622 
L 272.605395 61.665619 
L 273.752681 60.982431 
L 274.039502 60.81214 
L 274.230716 60.651077 
L 275.09118 60.190637 
L 275.473609 59.952722 
L 277.576965 58.684626 
L 277.863786 58.48962 
L 278.915464 57.921681 
L 279.3935 57.644282 
L 279.584714 57.598011 
L 280.06275 57.344723 
L 280.731999 56.932234 
L 281.305642 56.470615 
L 281.974892 56.064319 
L 285.416747 54.355527 
L 285.99039 54.028959 
L 286.850854 53.616859 
L 287.233282 53.397484 
L 287.711318 53.045336 
L 287.998139 52.902512 
L 289.049817 52.313175 
L 289.336639 52.170307 
L 289.719067 52.047234 
L 290.005888 51.855494 
L 290.483924 51.554224 
L 291.535602 50.934826 
L 292.109245 50.665811 
L 293.160923 49.997024 
L 293.638958 49.771228 
L 294.499422 49.338333 
L 294.595029 49.493097 
L 294.977458 49.341601 
L 295.168672 49.313694 
L 295.359886 49.219038 
L 295.646707 49.18901 
L 298.228099 48.057645 
L 301.478741 46.358908 
L 301.765562 46.221011 
L 302.81724 45.746789 
L 303.008454 45.602899 
L 303.295276 45.639116 
L 303.773311 45.408576 
L 304.15574 45.154741 
L 305.016204 44.807893 
L 305.972275 44.321671 
L 306.163489 44.221028 
L 306.832739 43.868047 
L 307.310774 43.706769 
L 308.362452 43.257643 
L 308.649273 43.087981 
L 308.936095 42.954202 
L 309.318523 42.763913 
L 309.509737 42.643947 
L 309.796559 42.580704 
L 310.370201 42.359322 
L 310.561416 42.275906 
L 310.75263 42.159446 
L 311.135058 42.052003 
L 311.995522 41.638944 
L 312.186736 41.611665 
L 312.569165 41.333356 
L 312.664772 41.770972 
L 312.855986 41.512313 
L 313.525236 41.394216 
L 314.003271 41.273724 
L 314.481307 41.106311 
L 315.819806 40.590796 
L 318.209984 39.638741 
L 318.401198 39.527502 
L 318.688019 39.312716 
L 319.070448 39.144477 
L 319.357269 39.002571 
L 319.548483 38.925909 
L 319.739697 38.841324 
L 320.408947 38.585232 
L 320.695769 38.464252 
L 320.886983 38.558105 
L 321.173804 38.470153 
L 325.189302 36.498839 
L 326.145373 36.179547 
L 326.814623 35.939668 
L 326.91023 35.976166 
L 327.388266 35.672054 
L 327.866301 35.42224 
L 328.726765 35.127037 
L 331.499371 34.185996 
L 331.786193 34.046854 
L 331.977407 33.96485 
L 332.264228 33.862996 
L 332.455442 33.837629 
L 334.17637 33.300456 
L 334.750013 33.219091 
L 335.132441 33.131012 
L 335.228048 33.652283 
L 335.419262 33.381273 
L 335.706084 33.354837 
L 335.897298 33.449497 
L 339.147939 32.708098 
L 339.339154 32.793001 
L 339.912796 32.774299 
L 340.199618 32.749099 
L 340.964474 32.47919 
L 341.155689 32.474782 
L 341.44251 32.439325 
L 341.729331 32.31921 
L 342.016153 32.227204 
L 342.972224 31.941543 
L 343.163438 31.906628 
L 343.450259 31.800702 
L 345.936044 31.296495 
L 346.987722 31.189832 
L 347.178936 31.124221 
L 347.848186 31.019568 
L 348.995471 30.629567 
L 349.282292 30.736141 
L 350.812006 30.196631 
L 351.00322 30.150295 
L 352.150506 29.958393 
L 352.724148 29.6924 
L 352.915362 29.78761 
L 353.871433 29.627823 
L 354.540683 29.633376 
L 355.687968 29.389527 
L 356.548432 29.378645 
L 358.26936 29.166937 
L 358.651789 29.176442 
L 359.512253 29.092299 
L 359.703467 29.05287 
L 360.085895 29.012551 
L 360.850752 28.90428 
L 361.615609 28.895441 
L 362.667287 28.613173 
L 363.336537 28.585675 
L 363.623358 28.615306 
L 364.388215 28.588698 
L 364.675036 28.619316 
L 364.961857 28.573318 
L 365.248679 28.48737 
L 366.969607 28.379863 
L 367.256428 28.346258 
L 368.690534 28.327774 
L 368.881749 28.365072 
L 369.455391 28.32876 
L 369.742213 28.387357 
L 369.933427 28.33958 
L 370.985105 28.322515 
L 374.809389 28.291755 
L 375.383032 28.196652 
L 375.861067 28.346566 
L 376.052281 28.347838 
L 376.530317 28.492021 
L 377.10396 28.567721 
L 377.295174 28.518569 
L 377.581995 28.562082 
L 377.773209 28.572015 
L 378.060031 28.630304 
L 378.346852 28.670814 
L 380.737029 28.881442 
L 381.215065 28.963615 
L 381.597493 28.994161 
L 385.612992 29.617864 
L 386.377849 29.770857 
L 386.855884 29.89636 
L 387.238313 29.931571 
L 388.289991 30.113991 
L 388.863633 30.302061 
L 389.62849 30.467299 
L 390.871382 30.233321 
L 391.827453 30.345813 
L 392.496703 30.61225 
L 393.070346 30.869906 
L 393.643988 31.150281 
L 394.217631 31.354119 
L 394.600059 31.511413 
L 395.173702 31.709368 
L 395.938559 31.728918 
L 396.320987 31.808644 
L 397.372665 32.092509 
L 398.902379 32.840782 
L 399.284808 32.933589 
L 400.145271 33.308176 
L 400.336486 33.292352 
L 400.718914 33.50785 
L 402.535449 34.130026 
L 403.682734 34.738949 
L 404.351984 35.06012 
L 404.543198 35.179747 
L 405.021234 36.223567 
L 405.594876 36.732741 
L 407.220197 37.361885 
L 407.411411 37.347809 
L 407.79384 37.621444 
L 407.985054 37.692152 
L 408.271875 37.929342 
L 410.08841 39.044189 
L 410.566446 39.599524 
L 411.331303 39.947655 
L 411.618124 40.01349 
L 412.287374 40.396401 
L 413.147838 40.839178 
L 414.008301 41.883666 
L 414.295123 42.14434 
L 414.39073 42.321416 
L 414.677551 43.215676 
L 415.633622 44.834101 
L 416.589693 45.304531 
L 417.163336 45.635028 
L 418.0238 46.143814 
L 418.221149 46.313998 
L 418.221149 46.313998 
" clip-path="url(#p53e139296d)" style="fill: none; stroke: #ff8c00; stroke-width: 1.5; stroke-linecap: square"/>
   </g>
   <g id="patch_3">
    <path d="M 45.375694 168.382195 
L 45.375694 21.502195 
" style="fill: none; stroke: #ffffff; stroke-width: 0.8; stroke-linejoin: miter; stroke-linecap: square"/>
   </g>
   <g id="patch_4">
    <path d="M 45.375694 168.382195 
L 435.975694 168.382195 
" style="fill: none; stroke: #ffffff; stroke-width: 0.8; stroke-linejoin: miter; stroke-linecap: square"/>
   </g>
   <g id="text_13">
    <!-- $S$. $oneidensis$ Tn7::mRFP on Lactate -->
    <g style="fill: #ffffff" transform="translate(140.559294 15.502195) scale(0.12 -0.12)">
     <defs>
      <path id="HFBRMI10-53" d="M 544 766 
L 371 316 
C 499 228 634 140 774 73 
C 1357 -192 2106 -192 2701 108 
C 3245 388 3738 973 3616 1615 
C 3533 1978 3328 2213 3008 2360 
C 2893 2411 2771 2436 2650 2468 
C 2490 2512 2003 2627 1894 2678 
C 1702 2767 1536 2926 1491 3136 
C 1421 3474 1677 3778 1946 3951 
C 2234 4135 2573 4192 2912 4192 
C 3226 4192 3443 4093 3661 3940 
C 3725 3894 3776 3834 3840 3787 
L 4013 4237 
C 3846 4327 3686 4416 3507 4468 
C 2854 4647 2131 4525 1658 4166 
C 1280 3883 966 3414 1082 2919 
C 1120 2759 1190 2636 1286 2527 
C 1581 2199 2029 2142 2432 2039 
C 2547 2007 2662 1981 2771 1936 
C 2970 1839 3136 1672 3194 1454 
C 3296 1030 2976 632 2630 426 
C 2112 125 1434 202 922 484 
C 832 535 749 593 666 657 
C 621 696 589 734 544 766 
z
" transform="scale(0.015625)"/>
      <path id="HFBR17-2e" d="M 634 501 
L 634 0 
L 1133 0 
L 1133 501 
L 634 501 
z
" transform="scale(0.015625)"/>
      <path id="HFBRMI10-6f" d="M 1901 3020 
C 1197 2789 678 2109 563 1391 
C 499 968 595 494 928 205 
C 1120 32 1402 -64 1754 -64 
C 2618 19 3322 782 3437 1629 
C 3494 2071 3386 2552 3034 2847 
C 2765 3058 2368 3174 1901 3020 
z
M 2835 2572 
C 3053 2367 3085 2040 3046 1757 
C 2976 1161 2682 533 2080 327 
C 1824 250 1555 250 1331 366 
C 998 545 928 956 966 1302 
C 1018 1796 1210 2315 1645 2591 
C 1965 2803 2541 2867 2835 2572 
z
" transform="scale(0.015625)"/>
      <path id="HFBRMI10-6e" d="M 1427 2398 
L 1421 2398 
L 1549 3027 
L 1158 3027 
L 518 0 
L 806 0 
C 864 0 941 -19 941 64 
C 954 109 960 154 973 199 
C 1056 572 1286 1742 1344 1935 
C 1466 2295 1734 2713 2163 2764 
C 2445 2764 2701 2693 2797 2502 
C 2893 2310 2816 2087 2778 1889 
L 2374 0 
L 2675 0 
C 2739 0 2797 -13 2797 71 
C 2835 199 2925 673 2925 673 
L 3213 2026 
C 3264 2270 3322 2565 3187 2796 
C 3072 2988 2854 3052 2643 3071 
C 2541 3084 2438 3084 2336 3065 
C 2054 3014 1792 2847 1606 2635 
C 1542 2565 1466 2488 1427 2398 
z
M 1414 2398 
C 1414 2398 1421 2398 1421 2398 
C 1421 2392 1414 2385 1414 2398 
z
" transform="scale(0.015625)"/>
      <path id="HFBRMI10-65" d="M 2874 702 
C 2778 638 2694 568 2592 510 
C 2291 330 1747 144 1376 356 
C 1235 433 1133 555 1056 702 
C 960 914 928 1119 960 1414 
L 998 1600 
L 3027 1600 
C 3053 1600 3091 1594 3110 1613 
C 3162 1651 3174 1998 3174 2004 
C 3187 2331 3142 2697 2861 2915 
C 2797 2959 2726 2998 2650 3030 
C 2227 3197 1747 3056 1395 2793 
C 954 2466 602 1869 563 1241 
C 538 754 717 375 1024 144 
C 1542 -234 2246 -3 2669 241 
C 2720 273 2797 311 2829 356 
C 2848 388 2874 702 2874 702 
z
M 2829 1850 
L 1082 1850 
C 1229 2216 1510 2581 1888 2722 
C 2176 2831 2560 2786 2733 2498 
C 2848 2305 2854 2062 2829 1850 
z
" transform="scale(0.015625)"/>
      <path id="HFBRMI10-69" d="M 1370 4032 
L 1773 4032 
L 1856 4436 
C 1722 4436 1574 4436 1459 4416 
C 1414 4303 1395 4165 1370 4032 
z
M 1152 3010 
L 512 -32 
C 646 -32 794 -32 909 -13 
L 934 57 
L 1555 3010 
L 1152 3010 
z
" transform="scale(0.015625)"/>
      <path id="HFBRMI10-64" d="M 3322 4448 
L 2938 2624 
L 2931 2624 
C 2880 2765 2714 2912 2586 2976 
C 2170 3201 1677 3028 1338 2739 
C 941 2407 685 1920 602 1415 
C 493 781 704 237 1107 32 
C 1472 -148 1920 6 2221 237 
C 2310 307 2394 391 2470 474 
L 2374 0 
C 2515 0 2656 0 2778 19 
L 2803 89 
C 2867 409 2938 723 3008 1043 
L 3725 4448 
L 3322 4448 
z
M 2810 2494 
C 2829 2456 2861 2405 2867 2353 
C 2874 2289 2842 2206 2829 2142 
C 2797 2001 2560 885 2560 885 
C 2534 731 2483 680 2381 577 
C 2221 410 2016 289 1786 269 
C 1542 250 1338 346 1210 455 
C 973 680 954 1020 998 1321 
C 1062 1802 1254 2296 1683 2565 
C 1984 2770 2579 2892 2810 2494 
z
M 2470 475 
C 2470 475 2477 475 2477 475 
C 2477 468 2470 462 2470 475 
z
" transform="scale(0.015625)"/>
      <path id="HFBRMI10-73" d="M 384 648 
L 237 276 
C 358 202 480 133 614 79 
C 992 -64 1523 -64 1914 83 
C 2214 197 2438 426 2554 725 
C 2643 953 2637 1201 2522 1379 
C 2349 1666 2054 1741 1670 1812 
C 1478 1849 1261 1882 1139 2054 
C 1005 2238 1107 2479 1261 2619 
C 1427 2765 1690 2816 1984 2816 
C 2150 2816 2317 2789 2477 2728 
C 2586 2680 2682 2621 2784 2566 
L 2918 2916 
C 2662 3032 2490 3104 2150 3104 
C 1728 3136 1286 3053 1011 2805 
C 710 2531 544 2008 858 1697 
C 1069 1461 1395 1429 1690 1366 
C 1901 1321 2138 1258 2214 1028 
C 2240 939 2227 843 2195 760 
C 2093 455 1786 302 1382 302 
C 1133 302 890 353 666 462 
C 563 513 474 584 384 648 
z
" transform="scale(0.015625)"/>
      <path id="HFBR17-54" d="M 192 4437 
L 192 4096 
L 2016 4096 
L 2016 0 
L 2464 0 
L 2464 4096 
L 4288 4096 
L 4288 4437 
L 192 4437 
z
" transform="scale(0.015625)"/>
      <path id="HFBR17-6e" d="M 806 2386 
L 800 2386 
L 800 3033 
L 410 3033 
L 410 0 
L 819 0 
L 819 1404 
C 819 1718 800 2040 941 2334 
C 1011 2482 1120 2610 1267 2687 
C 1389 2745 1517 2745 1651 2732 
C 1843 2732 2029 2681 2150 2520 
C 2266 2372 2272 2180 2272 2000 
L 2272 0 
L 2682 0 
L 2682 1719 
C 2682 2040 2714 2392 2560 2681 
C 2438 2912 2202 3021 1952 3053 
C 1824 3072 1690 3072 1562 3047 
C 1229 2976 922 2707 806 2386 
z
" transform="scale(0.015625)"/>
      <path id="HFBR17-3a" d="M 634 3008 
L 634 2507 
L 1133 2507 
L 1133 3008 
L 634 3008 
z
M 634 501 
L 634 0 
L 1133 0 
L 1133 501 
L 634 501 
z
" transform="scale(0.015625)"/>
      <path id="HFBR17-52" d="M 512 4437 
L 512 -32 
L 954 -32 
L 954 2048 
L 2048 2048 
C 2080 2048 2118 2055 2144 2036 
C 2189 2003 2214 1938 2246 1893 
L 3174 479 
L 3411 117 
C 3443 72 3475 -6 3520 -26 
C 3558 -45 3622 -32 3661 -32 
L 3962 -32 
L 2547 2093 
C 2880 2158 3213 2299 3456 2543 
C 3654 2741 3789 2992 3776 3275 
C 3757 3501 3667 3695 3552 3836 
C 3270 4172 2790 4398 2278 4437 
C 2080 4437 1888 4437 1690 4437 
L 512 4437 
z
M 954 2370 
L 954 4096 
L 1862 4096 
C 2426 4096 2957 4032 3226 3646 
C 3405 3381 3392 3021 3187 2770 
C 3117 2680 3027 2609 2931 2557 
C 2605 2370 2227 2370 1862 2370 
L 954 2370 
z
" transform="scale(0.015625)"/>
      <path id="HFBR17-46" d="M 512 4437 
L 512 0 
L 960 0 
L 960 2048 
L 3078 2048 
L 3078 2388 
L 960 2388 
L 960 4096 
L 3354 4096 
L 3354 4437 
L 512 4437 
z
" transform="scale(0.015625)"/>
      <path id="HFBR17-50" d="M 512 4480 
L 512 32 
L 960 32 
L 960 1920 
L 1862 1920 
C 2003 1920 2144 1920 2278 1920 
C 2752 1959 3149 2153 3418 2443 
C 3693 2746 3814 3210 3635 3603 
C 3430 4099 2944 4415 2323 4480 
C 2138 4480 1946 4480 1760 4480 
L 512 4480 
z
M 954 2254 
L 954 4139 
L 1830 4139 
C 2387 4139 2893 4075 3149 3690 
C 3322 3432 3347 3072 3206 2795 
C 3130 2646 3014 2531 2874 2447 
C 2560 2254 2195 2254 1843 2254 
L 954 2254 
z
" transform="scale(0.015625)"/>
      <path id="HFBR17-6f" d="M 685 2693 
C 115 2127 51 1144 544 508 
C 614 411 698 328 794 257 
C 1030 64 1376 -77 1779 -32 
C 2419 45 2861 566 2995 1112 
C 3174 1877 2797 2731 2093 3001 
C 1542 3226 992 3001 685 2693 
z
M 2285 2519 
C 2592 2242 2650 1799 2624 1407 
C 2605 1105 2522 790 2310 565 
C 1965 192 1325 192 954 552 
C 762 758 646 1053 627 1407 
C 595 1927 723 2480 1235 2686 
C 1613 2853 2048 2731 2285 2519 
z
" transform="scale(0.015625)"/>
      <path id="HFBR17-4c" d="M 512 4448 
L 512 0 
L 3168 0 
L 3168 341 
L 960 341 
L 960 4448 
L 512 4448 
z
" transform="scale(0.015625)"/>
      <path id="HFBR17-63" d="M 2714 720 
C 2592 630 2483 533 2349 456 
C 2048 296 1587 219 1242 379 
C 742 636 608 1260 678 1774 
C 691 1877 710 1979 742 2076 
C 883 2494 1235 2821 1811 2757 
C 2118 2731 2272 2680 2515 2545 
C 2560 2519 2598 2487 2650 2474 
C 2656 2551 2675 2635 2688 2712 
C 2707 2815 2707 2828 2611 2873 
C 2541 2905 2470 2943 2394 2969 
C 2099 3098 1613 3136 1280 3040 
C 826 2911 486 2519 339 2082 
C 269 1883 250 1671 250 1459 
C 256 784 717 122 1389 -13 
C 1760 -90 2189 19 2445 154 
C 2509 186 2701 302 2733 360 
C 2752 392 2714 720 2714 720 
z
" transform="scale(0.015625)"/>
     </defs>
     <use xlink:href="#HFBRMI10-53" transform="scale(0.996264)"/>
     <use xlink:href="#HFBR17-2e" transform="translate(67.00897 0) scale(0.996264)"/>
     <use xlink:href="#HFBRMI10-6f" transform="translate(136.913211 0) scale(0.996264)"/>
     <use xlink:href="#HFBRMI10-6e" transform="translate(196.216489 0) scale(0.996264)"/>
     <use xlink:href="#HFBRMI10-65" transform="translate(250.217021 0) scale(0.996264)"/>
     <use xlink:href="#HFBRMI10-69" transform="translate(303.179726 0) scale(0.996264)"/>
     <use xlink:href="#HFBRMI10-64" transform="translate(335.599048 0) scale(0.996264)"/>
     <use xlink:href="#HFBRMI10-65" transform="translate(396.658238 0) scale(0.996264)"/>
     <use xlink:href="#HFBRMI10-6e" transform="translate(449.620944 0) scale(0.996264)"/>
     <use xlink:href="#HFBRMI10-73" transform="translate(503.621475 0) scale(0.996264)"/>
     <use xlink:href="#HFBRMI10-69" transform="translate(551.977098 0) scale(0.996264)"/>
     <use xlink:href="#HFBRMI10-73" transform="translate(584.396419 0) scale(0.996264)"/>
     <use xlink:href="#HFBR17-54" transform="translate(664.217254 0) scale(0.996264)"/>
     <use xlink:href="#HFBR17-6e" transform="translate(733.955431 0) scale(0.996264)"/>
     <use xlink:href="#HFBR17-37" transform="translate(782.107928 0) scale(0.996264)"/>
     <use xlink:href="#HFBR17-3a" transform="translate(832.751146 0) scale(0.996264)"/>
     <use xlink:href="#HFBR17-3a" transform="translate(860.148269 0) scale(0.996264)"/>
     <use xlink:href="#HFBR17-6d" transform="translate(887.545393 0) scale(0.996264)"/>
     <use xlink:href="#HFBR17-52" transform="translate(964.755519 0) scale(0.996264)"/>
     <use xlink:href="#HFBR17-46" transform="translate(1028.474641 0) scale(0.996264)"/>
     <use xlink:href="#HFBR17-50" transform="translate(1084.306698 0) scale(0.996264)"/>
     <use xlink:href="#HFBR17-6f" transform="translate(1178.660817 0) scale(0.996264)"/>
     <use xlink:href="#HFBR17-6e" transform="translate(1229.304035 0) scale(0.996264)"/>
     <use xlink:href="#HFBR17-4c" transform="translate(1308.921744 0) scale(0.996264)"/>
     <use xlink:href="#HFBR17-61" transform="translate(1361.848072 0) scale(0.996264)"/>
     <use xlink:href="#HFBR17-63" transform="translate(1408.340154 0) scale(0.996264)"/>
     <use xlink:href="#HFBR17-74" transform="translate(1453.171821 0) scale(0.996264)"/>
     <use xlink:href="#HFBR17-61" transform="translate(1489.286209 0) scale(0.996264)"/>
     <use xlink:href="#HFBR17-74" transform="translate(1535.778292 0) scale(0.996264)"/>
     <use xlink:href="#HFBR17-65" transform="translate(1571.89268 0) scale(0.996264)"/>
    </g>
   </g>
  </g>
 </g>
 <defs>
  <clipPath id="p53e139296d">
   <rect x="45.375694" y="21.502195" width="390.6" height="146.88"/>
  </clipPath>
 </defs>
</svg>
