<?xml version="1.0" encoding="utf-8" standalone="no"?>
<!DOCTYPE svg PUBLIC "-//W3C//DTD SVG 1.1//EN"
  "http://www.w3.org/Graphics/SVG/1.1/DTD/svg11.dtd">
<svg xmlns:xlink="http://www.w3.org/1999/xlink" width="703.372277pt" height="238.871763pt" viewBox="0 0 703.372277 238.871763" xmlns="http://www.w3.org/2000/svg" version="1.1">
 <metadata>
  <rdf:RDF xmlns:dc="http://purl.org/dc/elements/1.1/" xmlns:cc="http://creativecommons.org/ns#" xmlns:rdf="http://www.w3.org/1999/02/22-rdf-syntax-ns#">
   <cc:Work>
    <dc:type rdf:resource="http://purl.org/dc/dcmitype/StillImage"/>
    <dc:date>2023-12-11T10:15:31.151503</dc:date>
    <dc:format>image/svg+xml</dc:format>
    <dc:creator>
     <cc:Agent>
      <dc:title>Matplotlib v3.7.0, https://matplotlib.org/</dc:title>
     </cc:Agent>
    </dc:creator>
   </cc:Work>
  </rdf:RDF>
 </metadata>
 <defs>
  <style type="text/css">*{stroke-linejoin: round; stroke-linecap: butt}</style>
 </defs>
 <g id="figure_1">
  <g id="patch_1">
   <path d="M 0 238.871763 
L 703.372277 238.871763 
L 703.372277 0 
L 0 0 
z
" style="fill: #222222"/>
  </g>
  <g id="axes_1">
   <g id="patch_2">
    <path d="M 156.386139 172.53327 
L 546.986139 172.53327 
L 546.986139 25.65327 
L 156.386139 25.65327 
z
" style="fill: #222222"/>
   </g>
   <g id="matplotlib.axis_1">
    <g id="xtick_1">
     <g id="line2d_1">
      <defs>
       <path id="ma6dfaea5de" d="M 0 0 
L 0 9 
" style="stroke: #ffffff; stroke-width: 1.875"/>
      </defs>
      <g>
       <use xlink:href="#ma6dfaea5de" x="174.140684" y="172.53327" style="fill: #ffffff; stroke: #ffffff; stroke-width: 1.875"/>
      </g>
     </g>
     <g id="text_1">
      <!-- $\mathdefault{0}$ -->
      <g style="fill: #ffffff" transform="translate(165.296964 199.234434) rotate(-30) scale(0.165 -0.165)">
       <defs>
        <path id="HFBR17-30" d="M 947 4087 
C 762 3959 634 3785 538 3586 
C 307 3136 282 2609 282 2037 
C 282 1317 410 656 768 276 
C 1107 -77 1645 -167 2099 19 
C 2381 129 2586 366 2714 623 
C 2944 1080 2970 1626 2970 2191 
C 2970 2371 2963 2551 2944 2731 
C 2899 3162 2752 3637 2515 3901 
C 2125 4332 1427 4428 947 4087 
z
M 2234 3721 
C 2534 3400 2560 2783 2560 2198 
L 2560 1851 
C 2560 1555 2509 1170 2445 951 
C 2355 649 2208 431 1914 296 
C 1555 167 1184 289 979 572 
C 704 938 691 1587 691 2159 
C 691 2699 698 3297 960 3650 
C 1248 4036 1869 4100 2234 3721 
z
" transform="scale(0.015625)"/>
       </defs>
       <use xlink:href="#HFBR17-30" transform="scale(0.996264)"/>
      </g>
     </g>
    </g>
    <g id="xtick_2">
     <g id="line2d_2">
      <g>
       <use xlink:href="#ma6dfaea5de" x="232.166738" y="172.53327" style="fill: #ffffff; stroke: #ffffff; stroke-width: 1.875"/>
      </g>
     </g>
     <g id="text_2">
      <!-- $\mathdefault{20}$ -->
      <g style="fill: #ffffff" transform="translate(215.84916 203.549467) rotate(-30) scale(0.165 -0.165)">
       <defs>
        <path id="HFBR17-32" d="M 467 2942 
C 557 3302 710 3711 1075 3872 
C 1229 3936 1395 3949 1562 3936 
C 1875 3910 2182 3782 2374 3526 
C 2515 3333 2566 3096 2541 2866 
C 2464 2198 1811 1718 1389 1359 
C 1146 1154 454 500 454 500 
L 346 397 
C 288 340 282 340 282 224 
L 282 0 
L 2970 0 
L 2970 360 
L 653 360 
C 858 559 1709 1313 1824 1403 
C 2195 1706 2611 2008 2835 2446 
C 3085 2948 2976 3580 2554 3953 
C 2298 4179 1946 4288 1606 4288 
C 1293 4288 973 4224 723 4026 
C 531 3865 371 3628 282 3384 
C 262 3346 230 3282 237 3237 
C 243 3199 282 3167 301 3141 
C 352 3077 403 3000 467 2942 
z
" transform="scale(0.015625)"/>
       </defs>
       <use xlink:href="#HFBR17-32" transform="scale(0.996264)"/>
       <use xlink:href="#HFBR17-30" transform="translate(50.643218 0) scale(0.996264)"/>
      </g>
     </g>
    </g>
    <g id="xtick_3">
     <g id="line2d_3">
      <g>
       <use xlink:href="#ma6dfaea5de" x="290.192791" y="172.53327" style="fill: #ffffff; stroke: #ffffff; stroke-width: 1.875"/>
      </g>
     </g>
     <g id="text_3">
      <!-- $\mathdefault{40}$ -->
      <g style="fill: #ffffff" transform="translate(273.875213 203.549467) rotate(-30) scale(0.165 -0.165)">
       <defs>
        <path id="HFBR17-34" d="M 134 1152 
L 1984 1152 
L 1984 0 
L 2387 0 
L 2387 1152 
L 3117 1152 
L 3117 1493 
L 2387 1493 
L 2387 4254 
L 2042 4254 
C 1926 4254 1894 4261 1843 4164 
C 1587 3745 237 1649 192 1591 
C 141 1500 134 1507 134 1372 
L 134 1152 
z
M 2003 3896 
L 2003 1493 
L 550 1493 
C 595 1583 659 1666 717 1756 
C 1037 2251 1798 3427 1958 3794 
C 1978 3826 1984 3864 2003 3896 
z
" transform="scale(0.015625)"/>
       </defs>
       <use xlink:href="#HFBR17-34" transform="scale(0.996264)"/>
       <use xlink:href="#HFBR17-30" transform="translate(50.643218 0) scale(0.996264)"/>
      </g>
     </g>
    </g>
    <g id="xtick_4">
     <g id="line2d_4">
      <g>
       <use xlink:href="#ma6dfaea5de" x="348.218844" y="172.53327" style="fill: #ffffff; stroke: #ffffff; stroke-width: 1.875"/>
      </g>
     </g>
     <g id="text_4">
      <!-- $\mathdefault{60}$ -->
      <g style="fill: #ffffff" transform="translate(331.901267 203.549467) rotate(-30) scale(0.165 -0.165)">
       <defs>
        <path id="HFBR17-36" d="M 723 2088 
L 717 2088 
C 717 2673 819 3355 1318 3728 
C 1594 3928 1965 4030 2445 3915 
C 2547 3889 2643 3850 2739 3825 
L 2739 4050 
C 2739 4075 2746 4120 2726 4146 
C 2682 4204 2323 4262 2310 4262 
C 1754 4326 1389 4204 1050 3915 
C 640 3561 403 3041 326 2514 
C 256 2090 314 1408 397 1074 
C 531 579 787 142 1261 -25 
C 1542 -128 1888 -128 2157 1 
C 2374 105 2554 286 2694 480 
C 2918 790 2976 1166 2950 1547 
C 2938 1735 2912 1923 2835 2097 
C 2714 2376 2509 2667 2246 2796 
C 2125 2848 1997 2848 1869 2848 
C 1530 2848 1210 2700 973 2455 
C 870 2352 768 2222 723 2088 
z
M 1562 2529 
C 1805 2548 2061 2510 2246 2336 
C 2490 2105 2534 1777 2534 1460 
C 2534 1246 2541 1025 2477 823 
C 2438 719 2387 629 2330 544 
C 2189 356 2010 264 1715 225 
C 1427 225 1139 340 973 584 
C 870 725 819 899 787 1065 
C 749 1238 723 1417 736 1591 
C 768 2047 1088 2465 1562 2529 
z
" transform="scale(0.015625)"/>
       </defs>
       <use xlink:href="#HFBR17-36" transform="scale(0.996264)"/>
       <use xlink:href="#HFBR17-30" transform="translate(50.643218 0) scale(0.996264)"/>
      </g>
     </g>
    </g>
    <g id="xtick_5">
     <g id="line2d_5">
      <g>
       <use xlink:href="#ma6dfaea5de" x="406.244898" y="172.53327" style="fill: #ffffff; stroke: #ffffff; stroke-width: 1.875"/>
      </g>
     </g>
     <g id="text_5">
      <!-- $\mathdefault{80}$ -->
      <g style="fill: #ffffff" transform="translate(389.92732 203.549467) rotate(-30) scale(0.165 -0.165)">
       <defs>
        <path id="HFBR17-38" d="M 1197 2304 
L 1197 2298 
C 800 2182 467 1964 307 1590 
C 141 1198 256 722 538 413 
C 838 91 1248 -64 1683 -64 
C 2323 -64 2938 410 3014 1071 
C 3027 1169 3021 1273 3008 1370 
C 2893 1870 2528 2168 2054 2298 
C 2106 2317 2163 2330 2214 2349 
C 2483 2459 2707 2619 2848 2876 
C 3059 3288 2854 3770 2509 4033 
C 2163 4297 1696 4367 1274 4277 
C 768 4168 288 3738 320 3185 
C 333 2992 416 2831 512 2716 
C 659 2536 947 2343 1197 2304 
z
M 1523 4000 
C 1805 4000 2157 3968 2362 3749 
C 2605 3486 2618 3010 2374 2740 
C 2221 2573 1997 2489 1773 2470 
C 1459 2444 1101 2496 877 2740 
C 627 3016 646 3518 915 3775 
C 1082 3929 1306 3980 1523 4000 
z
M 1517 2144 
C 1818 2144 2144 2073 2362 1852 
C 2445 1762 2509 1652 2547 1537 
C 2656 1200 2605 774 2355 515 
C 2182 341 1946 276 1709 257 
C 1421 257 1088 327 883 548 
C 602 857 544 1498 877 1860 
C 1043 2034 1280 2125 1517 2144 
z
" transform="scale(0.015625)"/>
       </defs>
       <use xlink:href="#HFBR17-38" transform="scale(0.996264)"/>
       <use xlink:href="#HFBR17-30" transform="translate(50.643218 0) scale(0.996264)"/>
      </g>
     </g>
    </g>
    <g id="xtick_6">
     <g id="line2d_6">
      <g>
       <use xlink:href="#ma6dfaea5de" x="464.270951" y="172.53327" style="fill: #ffffff; stroke: #ffffff; stroke-width: 1.875"/>
      </g>
     </g>
     <g id="text_6">
      <!-- $\mathdefault{100}$ -->
      <g style="fill: #ffffff" transform="translate(440.479516 207.864501) rotate(-30) scale(0.165 -0.165)">
       <defs>
        <path id="HFBR17-31" d="M 621 3841 
L 621 3520 
C 973 3520 1216 3584 1498 3706 
L 1498 321 
L 659 321 
L 659 0 
L 2752 0 
L 2752 321 
L 1914 321 
L 1914 4288 
C 1760 4288 1786 4247 1664 4152 
C 1402 3950 1037 3841 621 3841 
z
" transform="scale(0.015625)"/>
       </defs>
       <use xlink:href="#HFBR17-31" transform="scale(0.996264)"/>
       <use xlink:href="#HFBR17-30" transform="translate(50.643218 0) scale(0.996264)"/>
       <use xlink:href="#HFBR17-30" transform="translate(101.286436 0) scale(0.996264)"/>
      </g>
     </g>
    </g>
    <g id="xtick_7">
     <g id="line2d_7">
      <g>
       <use xlink:href="#ma6dfaea5de" x="522.297004" y="172.53327" style="fill: #ffffff; stroke: #ffffff; stroke-width: 1.875"/>
      </g>
     </g>
     <g id="text_7">
      <!-- $\mathdefault{120}$ -->
      <g style="fill: #ffffff" transform="translate(498.505569 207.864501) rotate(-30) scale(0.165 -0.165)">
       <use xlink:href="#HFBR17-31" transform="scale(0.996264)"/>
       <use xlink:href="#HFBR17-32" transform="translate(50.643218 0) scale(0.996264)"/>
       <use xlink:href="#HFBR17-30" transform="translate(101.286436 0) scale(0.996264)"/>
      </g>
     </g>
    </g>
    <g id="text_8">
     <!-- Time (h) -->
     <g style="fill: #ffffff" transform="translate(318.518175 227.686707) scale(0.18 -0.18)">
      <defs>
       <path id="HFBR17-54" d="M 192 4437 
L 192 4096 
L 2016 4096 
L 2016 0 
L 2464 0 
L 2464 4096 
L 4288 4096 
L 4288 4437 
L 192 4437 
z
" transform="scale(0.015625)"/>
       <path id="HFBR17-69" d="M 410 4480 
L 410 4075 
L 813 4075 
L 813 4480 
L 410 4480 
z
M 410 3033 
L 410 0 
L 813 0 
L 813 3033 
L 410 3033 
z
" transform="scale(0.015625)"/>
       <path id="HFBR17-6d" d="M 806 2391 
L 800 2391 
L 800 3033 
L 410 3033 
L 410 0 
L 819 0 
L 819 1411 
C 819 1725 800 2040 941 2328 
C 1062 2578 1274 2777 1651 2738 
C 1843 2738 2035 2687 2157 2525 
C 2272 2377 2278 2185 2278 2004 
L 2278 0 
L 2688 0 
L 2688 1411 
C 2688 1725 2669 2040 2810 2328 
C 2931 2578 3142 2777 3520 2738 
C 3712 2738 3904 2687 4026 2525 
C 4141 2377 4147 2185 4147 2004 
L 4147 0 
L 4557 0 
L 4557 1700 
C 4557 2008 4595 2354 4461 2636 
C 4326 2899 4109 3040 3757 3040 
C 3552 3059 3347 3028 3162 2934 
C 2938 2811 2771 2608 2669 2385 
C 2624 2597 2573 2741 2432 2880 
C 2285 3012 2086 3072 1894 3072 
C 1427 3110 1133 2916 934 2624 
C 883 2552 832 2475 806 2391 
z
" transform="scale(0.015625)"/>
       <path id="HFBR17-65" d="M 2675 700 
C 2528 591 2483 533 2298 436 
C 1907 224 1446 224 1114 459 
C 794 689 608 1065 608 1600 
L 2720 1600 
C 2720 2075 2611 2487 2342 2776 
C 2048 3065 1587 3155 1197 3033 
C 1050 2988 915 2911 794 2814 
C 390 2487 218 1966 224 1458 
C 237 790 691 122 1363 -20 
C 1715 -91 2086 -13 2400 147 
C 2458 179 2669 295 2694 353 
C 2714 385 2675 700 2675 700 
z
M 2381 1850 
L 640 1850 
C 717 2319 1101 2814 1619 2756 
C 2042 2718 2266 2416 2349 2037 
C 2362 1972 2368 1915 2381 1850 
z
" transform="scale(0.015625)"/>
       <path id="HFBR17-28" d="M 2189 -1408 
C 2138 -1350 2074 -1298 2016 -1247 
C 1965 -1202 1920 -1151 1875 -1099 
C 1235 -392 902 739 954 1941 
C 979 2596 1107 3264 1414 3856 
C 1555 4119 1798 4492 2016 4678 
C 2074 4730 2138 4781 2189 4839 
L 1978 4839 
C 1946 4839 1901 4845 1869 4833 
C 1792 4794 1600 4601 1574 4575 
C 960 3959 595 3027 544 1941 
C 512 1163 640 372 986 -322 
C 1139 -630 1344 -913 1587 -1157 
C 1651 -1221 1792 -1363 1869 -1401 
C 1901 -1414 1946 -1408 1978 -1408 
L 2189 -1408 
z
" transform="scale(0.015625)"/>
       <path id="HFBR17-68" d="M 410 4460 
L 410 0 
L 819 0 
L 819 1407 
C 819 1722 800 2044 941 2339 
C 1011 2487 1120 2616 1267 2693 
C 1389 2751 1517 2751 1651 2738 
C 1843 2738 2029 2687 2150 2525 
C 2266 2377 2272 2185 2272 2004 
L 2272 0 
L 2682 0 
L 2682 1742 
C 2682 2063 2714 2416 2554 2706 
C 2426 2924 2202 3027 1965 3059 
C 1837 3072 1709 3072 1581 3053 
C 1350 3009 1152 2882 998 2710 
C 928 2627 845 2526 819 2417 
L 813 2417 
L 813 4460 
L 410 4460 
z
" transform="scale(0.015625)"/>
       <path id="HFBR17-29" d="M 320 4839 
C 371 4781 435 4730 493 4678 
C 544 4633 589 4582 634 4530 
C 1190 3888 1510 3014 1555 1941 
C 1587 1144 1466 315 1101 -405 
C 979 -656 819 -894 634 -1099 
C 589 -1151 544 -1202 493 -1247 
C 435 -1298 371 -1350 320 -1408 
L 531 -1408 
C 563 -1408 608 -1414 640 -1401 
C 717 -1363 909 -1170 934 -1144 
C 1549 -527 1914 405 1965 1491 
C 1997 2268 1869 3059 1523 3753 
C 1370 4061 1165 4344 922 4588 
C 858 4653 717 4794 640 4833 
C 608 4845 563 4839 531 4839 
L 320 4839 
z
" transform="scale(0.015625)"/>
      </defs>
      <use xlink:href="#HFBR17-54" transform="scale(0.996264)"/>
      <use xlink:href="#HFBR17-69" transform="translate(69.738177 0) scale(0.996264)"/>
      <use xlink:href="#HFBR17-6d" transform="translate(88.833136 0) scale(0.996264)"/>
      <use xlink:href="#HFBR17-65" transform="translate(166.043262 0) scale(0.996264)"/>
      <use xlink:href="#HFBR17-28" transform="translate(242.340141 0) scale(0.996264)"/>
      <use xlink:href="#HFBR17-68" transform="translate(281.36035 0) scale(0.996264)"/>
      <use xlink:href="#HFBR17-29" transform="translate(329.512847 0) scale(0.996264)"/>
     </g>
    </g>
   </g>
   <g id="matplotlib.axis_2">
    <g id="ytick_1">
     <g id="line2d_8">
      <defs>
       <path id="ma4761b49e9" d="M 0 0 
L -9 0 
" style="stroke: #ffffff; stroke-width: 1.875"/>
      </defs>
      <g>
       <use xlink:href="#ma4761b49e9" x="156.386139" y="165.901961" style="fill: #ffffff; stroke: #ffffff; stroke-width: 1.875"/>
      </g>
     </g>
     <g id="text_9">
      <!-- $\mathdefault{0.0}$ -->
      <g style="fill: #ffffff" transform="translate(121.83153 171.609721) scale(0.165 -0.165)">
       <defs>
        <path id="HFBRMI10-3a" d="M 685 500 
L 685 0 
L 1184 0 
L 1184 500 
L 685 500 
z
" transform="scale(0.015625)"/>
       </defs>
       <use xlink:href="#HFBR17-30" transform="scale(0.996264)"/>
       <use xlink:href="#HFBRMI10-3a" transform="translate(50.643218 0) scale(0.996264)"/>
       <use xlink:href="#HFBR17-30" transform="translate(79.700665 0) scale(0.996264)"/>
      </g>
     </g>
    </g>
    <g id="ytick_2">
     <g id="line2d_9">
      <g>
       <use xlink:href="#ma4761b49e9" x="156.386139" y="112.049105" style="fill: #ffffff; stroke: #ffffff; stroke-width: 1.875"/>
      </g>
     </g>
     <g id="text_10">
      <!-- $\mathdefault{0.5}$ -->
      <g style="fill: #ffffff" transform="translate(121.83153 117.756866) scale(0.165 -0.165)">
       <defs>
        <path id="HFBR17-35" d="M 538 4245 
L 538 1949 
L 781 1949 
C 813 1949 858 1943 883 1956 
C 915 1975 934 2020 954 2046 
C 998 2103 1050 2148 1101 2193 
C 1331 2386 1773 2463 2067 2315 
C 2470 2123 2547 1614 2515 1216 
C 2496 964 2419 733 2272 585 
C 1933 224 1363 224 947 435 
C 742 538 570 699 442 891 
L 435 891 
C 416 859 269 634 269 595 
C 269 569 288 550 301 531 
C 493 306 742 132 1030 36 
C 1600 -144 2240 -3 2643 460 
C 3123 1019 3059 1930 2502 2417 
C 2336 2572 2106 2681 1830 2706 
C 1459 2758 1126 2578 928 2411 
L 928 3904 
L 2746 3904 
L 2746 4245 
L 538 4245 
z
" transform="scale(0.015625)"/>
       </defs>
       <use xlink:href="#HFBR17-30" transform="scale(0.996264)"/>
       <use xlink:href="#HFBRMI10-3a" transform="translate(50.643218 0) scale(0.996264)"/>
       <use xlink:href="#HFBR17-35" transform="translate(79.700665 0) scale(0.996264)"/>
      </g>
     </g>
    </g>
    <g id="ytick_3">
     <g id="line2d_10">
      <g>
       <use xlink:href="#ma4761b49e9" x="156.386139" y="58.19625" style="fill: #ffffff; stroke: #ffffff; stroke-width: 1.875"/>
      </g>
     </g>
     <g id="text_11">
      <!-- $\mathdefault{1.0}$ -->
      <g style="fill: #ffffff" transform="translate(121.83153 63.90401) scale(0.165 -0.165)">
       <use xlink:href="#HFBR17-31" transform="scale(0.996264)"/>
       <use xlink:href="#HFBRMI10-3a" transform="translate(50.643218 0) scale(0.996264)"/>
       <use xlink:href="#HFBR17-30" transform="translate(79.700665 0) scale(0.996264)"/>
      </g>
     </g>
    </g>
    <g id="text_12">
     <!-- mA -->
     <g style="fill: #ffffff" transform="translate(114.842738 111.758224) rotate(-90) scale(0.18 -0.18)">
      <defs>
       <path id="HFBR17-41" d="M 134 6 
L 422 6 
L 538 19 
C 730 435 864 909 1037 1344 
C 1670 1344 2362 1344 2963 1344 
L 3014 1260 
C 3123 931 3251 614 3366 291 
C 3398 193 3430 97 3482 19 
C 3622 0 3789 0 3942 0 
C 3834 314 2349 4301 2304 4409 
C 2298 4435 2285 4473 2253 4480 
C 2214 4486 2176 4480 2138 4480 
L 1926 4480 
C 1830 4480 1792 4492 1766 4391 
C 1741 4326 134 6 134 6 
z
M 2010 4043 
C 2278 3246 2566 2462 2848 1678 
L 1165 1678 
L 1722 3207 
L 2010 4043 
z
" transform="scale(0.015625)"/>
      </defs>
      <use xlink:href="#HFBR17-6d" transform="scale(0.996264)"/>
      <use xlink:href="#HFBR17-41" transform="translate(77.210126 0) scale(0.996264)"/>
     </g>
    </g>
   </g>
   <g id="patch_3">
    <path d="M 156.386139 172.53327 
L 156.386139 25.65327 
" style="fill: none; stroke: #ffffff; stroke-width: 1.875; stroke-linejoin: miter; stroke-linecap: square"/>
   </g>
   <g id="patch_4">
    <path d="M 156.386139 172.53327 
L 546.986139 172.53327 
" style="fill: none; stroke: #ffffff; stroke-width: 1.875; stroke-linejoin: miter; stroke-linecap: square"/>
   </g>
   <g id="text_13">
    <!-- $S$. $oneidensis$ Tn7::mRFP and $G$. $sulfurreducens$ $\Delta$1620-1624 Tn7::vsfGFP0 on Lactate -->
    <g style="fill: #ffffff" transform="translate(7.2 19.65327) scale(0.18 -0.18)">
     <defs>
      <path id="HFBRMI10-53" d="M 544 766 
L 371 316 
C 499 228 634 140 774 73 
C 1357 -192 2106 -192 2701 108 
C 3245 388 3738 973 3616 1615 
C 3533 1978 3328 2213 3008 2360 
C 2893 2411 2771 2436 2650 2468 
C 2490 2512 2003 2627 1894 2678 
C 1702 2767 1536 2926 1491 3136 
C 1421 3474 1677 3778 1946 3951 
C 2234 4135 2573 4192 2912 4192 
C 3226 4192 3443 4093 3661 3940 
C 3725 3894 3776 3834 3840 3787 
L 4013 4237 
C 3846 4327 3686 4416 3507 4468 
C 2854 4647 2131 4525 1658 4166 
C 1280 3883 966 3414 1082 2919 
C 1120 2759 1190 2636 1286 2527 
C 1581 2199 2029 2142 2432 2039 
C 2547 2007 2662 1981 2771 1936 
C 2970 1839 3136 1672 3194 1454 
C 3296 1030 2976 632 2630 426 
C 2112 125 1434 202 922 484 
C 832 535 749 593 666 657 
C 621 696 589 734 544 766 
z
" transform="scale(0.015625)"/>
      <path id="HFBR17-2e" d="M 634 501 
L 634 0 
L 1133 0 
L 1133 501 
L 634 501 
z
" transform="scale(0.015625)"/>
      <path id="HFBRMI10-6f" d="M 1901 3020 
C 1197 2789 678 2109 563 1391 
C 499 968 595 494 928 205 
C 1120 32 1402 -64 1754 -64 
C 2618 19 3322 782 3437 1629 
C 3494 2071 3386 2552 3034 2847 
C 2765 3058 2368 3174 1901 3020 
z
M 2835 2572 
C 3053 2367 3085 2040 3046 1757 
C 2976 1161 2682 533 2080 327 
C 1824 250 1555 250 1331 366 
C 998 545 928 956 966 1302 
C 1018 1796 1210 2315 1645 2591 
C 1965 2803 2541 2867 2835 2572 
z
" transform="scale(0.015625)"/>
      <path id="HFBRMI10-6e" d="M 1427 2398 
L 1421 2398 
L 1549 3027 
L 1158 3027 
L 518 0 
L 806 0 
C 864 0 941 -19 941 64 
C 954 109 960 154 973 199 
C 1056 572 1286 1742 1344 1935 
C 1466 2295 1734 2713 2163 2764 
C 2445 2764 2701 2693 2797 2502 
C 2893 2310 2816 2087 2778 1889 
L 2374 0 
L 2675 0 
C 2739 0 2797 -13 2797 71 
C 2835 199 2925 673 2925 673 
L 3213 2026 
C 3264 2270 3322 2565 3187 2796 
C 3072 2988 2854 3052 2643 3071 
C 2541 3084 2438 3084 2336 3065 
C 2054 3014 1792 2847 1606 2635 
C 1542 2565 1466 2488 1427 2398 
z
M 1414 2398 
C 1414 2398 1421 2398 1421 2398 
C 1421 2392 1414 2385 1414 2398 
z
" transform="scale(0.015625)"/>
      <path id="HFBRMI10-65" d="M 2874 702 
C 2778 638 2694 568 2592 510 
C 2291 330 1747 144 1376 356 
C 1235 433 1133 555 1056 702 
C 960 914 928 1119 960 1414 
L 998 1600 
L 3027 1600 
C 3053 1600 3091 1594 3110 1613 
C 3162 1651 3174 1998 3174 2004 
C 3187 2331 3142 2697 2861 2915 
C 2797 2959 2726 2998 2650 3030 
C 2227 3197 1747 3056 1395 2793 
C 954 2466 602 1869 563 1241 
C 538 754 717 375 1024 144 
C 1542 -234 2246 -3 2669 241 
C 2720 273 2797 311 2829 356 
C 2848 388 2874 702 2874 702 
z
M 2829 1850 
L 1082 1850 
C 1229 2216 1510 2581 1888 2722 
C 2176 2831 2560 2786 2733 2498 
C 2848 2305 2854 2062 2829 1850 
z
" transform="scale(0.015625)"/>
      <path id="HFBRMI10-69" d="M 1370 4032 
L 1773 4032 
L 1856 4436 
C 1722 4436 1574 4436 1459 4416 
C 1414 4303 1395 4165 1370 4032 
z
M 1152 3010 
L 512 -32 
C 646 -32 794 -32 909 -13 
L 934 57 
L 1555 3010 
L 1152 3010 
z
" transform="scale(0.015625)"/>
      <path id="HFBRMI10-64" d="M 3322 4448 
L 2938 2624 
L 2931 2624 
C 2880 2765 2714 2912 2586 2976 
C 2170 3201 1677 3028 1338 2739 
C 941 2407 685 1920 602 1415 
C 493 781 704 237 1107 32 
C 1472 -148 1920 6 2221 237 
C 2310 307 2394 391 2470 474 
L 2374 0 
C 2515 0 2656 0 2778 19 
L 2803 89 
C 2867 409 2938 723 3008 1043 
L 3725 4448 
L 3322 4448 
z
M 2810 2494 
C 2829 2456 2861 2405 2867 2353 
C 2874 2289 2842 2206 2829 2142 
C 2797 2001 2560 885 2560 885 
C 2534 731 2483 680 2381 577 
C 2221 410 2016 289 1786 269 
C 1542 250 1338 346 1210 455 
C 973 680 954 1020 998 1321 
C 1062 1802 1254 2296 1683 2565 
C 1984 2770 2579 2892 2810 2494 
z
M 2470 475 
C 2470 475 2477 475 2477 475 
C 2477 468 2470 462 2470 475 
z
" transform="scale(0.015625)"/>
      <path id="HFBRMI10-73" d="M 384 648 
L 237 276 
C 358 202 480 133 614 79 
C 992 -64 1523 -64 1914 83 
C 2214 197 2438 426 2554 725 
C 2643 953 2637 1201 2522 1379 
C 2349 1666 2054 1741 1670 1812 
C 1478 1849 1261 1882 1139 2054 
C 1005 2238 1107 2479 1261 2619 
C 1427 2765 1690 2816 1984 2816 
C 2150 2816 2317 2789 2477 2728 
C 2586 2680 2682 2621 2784 2566 
L 2918 2916 
C 2662 3032 2490 3104 2150 3104 
C 1728 3136 1286 3053 1011 2805 
C 710 2531 544 2008 858 1697 
C 1069 1461 1395 1429 1690 1366 
C 1901 1321 2138 1258 2214 1028 
C 2240 939 2227 843 2195 760 
C 2093 455 1786 302 1382 302 
C 1133 302 890 353 666 462 
C 563 513 474 584 384 648 
z
" transform="scale(0.015625)"/>
      <path id="HFBR17-6e" d="M 806 2386 
L 800 2386 
L 800 3033 
L 410 3033 
L 410 0 
L 819 0 
L 819 1404 
C 819 1718 800 2040 941 2334 
C 1011 2482 1120 2610 1267 2687 
C 1389 2745 1517 2745 1651 2732 
C 1843 2732 2029 2681 2150 2520 
C 2266 2372 2272 2180 2272 2000 
L 2272 0 
L 2682 0 
L 2682 1719 
C 2682 2040 2714 2392 2560 2681 
C 2438 2912 2202 3021 1952 3053 
C 1824 3072 1690 3072 1562 3047 
C 1229 2976 922 2707 806 2386 
z
" transform="scale(0.015625)"/>
      <path id="HFBR17-37" d="M 230 4200 
L 230 3840 
L 2739 3840 
L 2502 3608 
C 2291 3383 2099 3144 1926 2887 
C 1350 2017 1037 980 1037 -64 
L 1466 -64 
C 1466 877 1702 1817 2150 2648 
C 2368 3067 2598 3369 2899 3723 
C 2938 3762 2995 3807 3014 3858 
C 3027 3890 3021 3935 3021 3975 
L 3021 4200 
L 230 4200 
z
" transform="scale(0.015625)"/>
      <path id="HFBR17-3a" d="M 634 3008 
L 634 2507 
L 1133 2507 
L 1133 3008 
L 634 3008 
z
M 634 501 
L 634 0 
L 1133 0 
L 1133 501 
L 634 501 
z
" transform="scale(0.015625)"/>
      <path id="HFBR17-52" d="M 512 4437 
L 512 -32 
L 954 -32 
L 954 2048 
L 2048 2048 
C 2080 2048 2118 2055 2144 2036 
C 2189 2003 2214 1938 2246 1893 
L 3174 479 
L 3411 117 
C 3443 72 3475 -6 3520 -26 
C 3558 -45 3622 -32 3661 -32 
L 3962 -32 
L 2547 2093 
C 2880 2158 3213 2299 3456 2543 
C 3654 2741 3789 2992 3776 3275 
C 3757 3501 3667 3695 3552 3836 
C 3270 4172 2790 4398 2278 4437 
C 2080 4437 1888 4437 1690 4437 
L 512 4437 
z
M 954 2370 
L 954 4096 
L 1862 4096 
C 2426 4096 2957 4032 3226 3646 
C 3405 3381 3392 3021 3187 2770 
C 3117 2680 3027 2609 2931 2557 
C 2605 2370 2227 2370 1862 2370 
L 954 2370 
z
" transform="scale(0.015625)"/>
      <path id="HFBR17-46" d="M 512 4437 
L 512 0 
L 960 0 
L 960 2048 
L 3078 2048 
L 3078 2388 
L 960 2388 
L 960 4096 
L 3354 4096 
L 3354 4437 
L 512 4437 
z
" transform="scale(0.015625)"/>
      <path id="HFBR17-50" d="M 512 4480 
L 512 32 
L 960 32 
L 960 1920 
L 1862 1920 
C 2003 1920 2144 1920 2278 1920 
C 2752 1959 3149 2153 3418 2443 
C 3693 2746 3814 3210 3635 3603 
C 3430 4099 2944 4415 2323 4480 
C 2138 4480 1946 4480 1760 4480 
L 512 4480 
z
M 954 2254 
L 954 4139 
L 1830 4139 
C 2387 4139 2893 4075 3149 3690 
C 3322 3432 3347 3072 3206 2795 
C 3130 2646 3014 2531 2874 2447 
C 2560 2254 2195 2254 1843 2254 
L 954 2254 
z
" transform="scale(0.015625)"/>
      <path id="HFBR17-61" d="M 506 2497 
C 614 2551 704 2630 813 2683 
C 986 2762 1165 2816 1357 2816 
C 1446 2822 1549 2835 1638 2816 
C 1798 2790 1939 2693 2035 2557 
C 2131 2401 2170 2265 2170 2014 
L 2170 1729 
C 1862 1729 1555 1703 1261 1625 
C 890 1541 486 1352 352 1014 
C 218 690 358 261 646 66 
C 787 -32 954 -32 1120 -19 
C 1389 0 1658 65 1888 208 
C 1997 272 2106 357 2170 467 
L 2176 467 
L 2176 13 
L 2579 13 
L 2579 1721 
C 2579 1908 2598 2109 2560 2297 
C 2522 2555 2362 2769 2176 2918 
C 1958 3086 1709 3143 1376 3118 
C 1069 3118 832 3040 602 2929 
C 570 2916 506 2895 486 2857 
C 467 2830 480 2785 480 2752 
C 493 2667 499 2582 506 2497 
z
M 2170 1536 
L 2170 1048 
C 2170 900 2176 765 2093 637 
C 2022 534 1926 463 1824 412 
C 1459 225 902 283 742 592 
C 614 816 749 1080 934 1228 
C 1210 1440 1747 1536 2170 1536 
z
" transform="scale(0.015625)"/>
      <path id="HFBR17-64" d="M 2278 4460 
L 2278 2648 
C 2157 2783 2035 2911 1869 2988 
C 1299 3226 749 2918 467 2410 
C 141 1806 179 1009 570 443 
C 845 51 1299 -141 1779 32 
C 1965 103 2189 289 2266 456 
L 2272 456 
L 2272 0 
L 2682 0 
L 2682 4460 
L 2278 4460 
z
M 2253 2397 
C 2285 2339 2272 2262 2272 2198 
L 2272 874 
C 2272 726 2266 713 2182 598 
C 2067 424 1888 302 1677 283 
C 1370 257 1056 405 877 656 
C 774 803 717 983 685 1163 
C 672 1234 672 1298 666 1369 
C 627 1793 717 2294 1088 2564 
C 1152 2609 1222 2641 1293 2673 
C 1664 2815 2074 2776 2253 2397 
z
" transform="scale(0.015625)"/>
      <path id="HFBRMI10-47" d="M 4006 2132 
L 2701 2132 
L 2598 2119 
C 2560 2023 2541 1907 2522 1792 
L 3526 1792 
C 3494 1689 3475 1580 3456 1471 
C 3411 1260 3258 529 3251 509 
C 3226 464 3149 452 3104 439 
C 2598 291 1926 214 1485 541 
C 1318 657 1210 791 1107 984 
C 902 1369 890 1837 979 2252 
C 1178 3111 1837 3969 2739 4148 
C 3117 4225 3571 4148 3834 4020 
C 3974 3950 4090 3847 4218 3757 
L 4390 4205 
C 4230 4292 4064 4372 3891 4425 
C 3514 4544 3002 4544 2598 4441 
C 1638 4198 870 3391 589 2454 
C 442 1981 422 1449 608 981 
C 704 711 877 488 1082 315 
C 1587 -96 2266 -96 2874 40 
C 3002 72 3539 213 3610 284 
C 3635 316 3635 387 3648 432 
L 4006 2132 
z
" transform="scale(0.015625)"/>
      <path id="HFBRMI10-75" d="M 1158 3008 
C 1126 2802 1075 2605 1030 2399 
C 986 2195 730 979 698 831 
C 659 634 608 358 704 192 
C 800 -13 1043 -64 1248 -64 
C 1613 -64 1971 70 2253 294 
C 2342 364 2419 448 2496 537 
L 2381 -19 
C 2515 -19 2662 -19 2778 0 
L 2803 70 
L 3424 3008 
L 3014 3008 
C 2989 2847 2650 1293 2630 1191 
C 2566 903 2509 743 2310 544 
C 2074 308 1760 211 1434 243 
C 1312 243 1158 262 1094 384 
C 1050 461 1062 564 1075 647 
C 1101 807 1139 967 1171 1128 
C 1197 1262 1562 2956 1568 3008 
L 1158 3008 
z
" transform="scale(0.015625)"/>
      <path id="HFBRMI10-6c" d="M 1453 4448 
L 512 0 
C 646 0 794 0 909 19 
L 934 89 
C 998 409 1069 723 1139 1043 
L 1856 4448 
L 1453 4448 
z
" transform="scale(0.015625)"/>
      <path id="HFBRMI10-66" d="M 819 3009 
L 755 2688 
L 1306 2688 
C 1107 1792 922 871 730 -32 
C 864 -32 1011 -32 1126 -13 
L 1146 32 
C 1286 720 1440 1389 1581 2077 
C 1632 2270 1651 2495 1715 2675 
L 1779 2688 
L 2502 2688 
L 2566 3009 
L 1766 3009 
C 1824 3195 1850 3393 1888 3579 
C 1907 3669 1920 3765 1958 3842 
C 2112 4111 2541 4208 2931 4144 
C 3021 4124 3110 4092 3200 4073 
L 3270 4432 
C 3040 4477 2790 4503 2554 4471 
C 2125 4413 1690 4118 1536 3714 
C 1478 3560 1389 3105 1389 3105 
C 1389 3079 1382 3034 1357 3021 
C 1325 2996 1248 3009 1210 3009 
L 819 3009 
z
" transform="scale(0.015625)"/>
      <path id="HFBRMI10-72" d="M 1382 2213 
L 1376 2213 
L 1542 3015 
L 1158 3015 
L 518 0 
L 806 0 
C 864 0 934 -19 934 64 
C 947 103 954 147 960 186 
L 1069 680 
C 1107 866 1254 1591 1293 1726 
C 1363 1931 1485 2123 1638 2271 
C 1862 2489 2195 2688 2566 2688 
C 2598 2688 2662 2688 2682 2714 
C 2707 2740 2746 2982 2765 3066 
C 2336 3066 1946 2854 1651 2559 
C 1574 2482 1421 2309 1382 2213 
z
" transform="scale(0.015625)"/>
      <path id="HFBRMI10-63" d="M 2918 725 
C 2842 679 2778 621 2707 576 
C 2541 465 2368 380 2176 334 
C 1888 256 1619 256 1376 377 
C 1011 576 954 1038 1011 1409 
C 1101 1960 1402 2550 1965 2736 
C 2266 2832 2656 2794 2912 2685 
C 3027 2634 3123 2557 3226 2493 
L 3360 2847 
C 3226 2921 3091 2994 2944 3037 
C 2643 3136 2144 3136 1869 3039 
C 1203 2788 704 2118 602 1415 
C 531 951 653 494 960 219 
C 1485 -243 2291 -12 2746 276 
C 2784 302 2842 328 2867 366 
C 2886 398 2906 642 2918 725 
z
" transform="scale(0.015625)"/>
      <path id="HFBR17-1" d="M 230 0 
L 4141 0 
C 4102 147 4032 288 3981 429 
L 2458 4397 
C 2451 4422 2445 4454 2419 4467 
C 2394 4493 2330 4480 2298 4480 
L 2086 4480 
C 1997 4480 1939 4499 1920 4410 
C 1485 3328 1088 2208 659 1120 
L 390 422 
C 333 282 269 141 230 0 
z
M 2157 4032 
C 2266 3635 2426 3290 2554 2912 
L 3501 422 
L 800 422 
C 1254 1619 1722 2816 2157 4032 
z
" transform="scale(0.015625)"/>
      <path id="HFBR17-2d" d="M 26 1665 
L 26 1344 
L 1811 1344 
L 1811 1665 
L 26 1665 
z
" transform="scale(0.015625)"/>
      <path id="HFBR17-76" d="M 45 3040 
C 77 2912 269 2405 282 2373 
C 346 2194 1107 39 1126 19 
C 1146 -13 1203 0 1235 0 
L 1459 0 
C 1542 0 1594 -19 1613 58 
C 1818 597 2566 2733 2675 3040 
L 2278 3040 
C 1971 2175 1658 1308 1370 423 
L 704 2317 
C 608 2547 550 2809 442 3021 
C 326 3040 179 3040 45 3040 
z
" transform="scale(0.015625)"/>
      <path id="HFBR17-73" d="M 198 617 
C 186 527 166 444 154 354 
C 141 283 122 251 186 219 
C 448 65 762 -19 1133 -51 
C 1549 -90 2074 7 2278 418 
C 2336 534 2368 662 2374 791 
C 2400 1253 2035 1549 1722 1658 
C 1370 1793 890 1748 646 2018 
C 518 2166 512 2385 634 2539 
C 890 2899 1715 2744 2042 2584 
C 2093 2558 2138 2526 2195 2513 
L 2253 2860 
C 1952 2995 1690 3072 1274 3072 
C 915 3072 589 2989 384 2783 
C 179 2571 109 2217 230 1948 
C 346 1690 589 1523 851 1440 
C 1229 1305 1658 1369 1907 1061 
C 2048 881 2022 611 1862 450 
C 1555 167 902 270 544 424 
C 422 476 314 553 198 617 
z
" transform="scale(0.015625)"/>
      <path id="HFBR17-66" d="M 678 3009 
L 128 3009 
L 128 2688 
L 678 2688 
L 678 -32 
L 1082 -32 
L 1082 2688 
L 1875 2688 
L 1875 3009 
L 1075 3009 
L 1075 3570 
C 1075 3660 1056 3771 1094 3861 
C 1229 4144 1683 4196 2054 4132 
C 2131 4119 2202 4093 2278 4080 
L 2278 4441 
C 1843 4512 1363 4512 1005 4219 
C 947 4168 896 4118 851 4053 
C 717 3888 678 3704 678 3417 
L 678 3009 
z
" transform="scale(0.015625)"/>
      <path id="HFBR17-47" d="M 3974 2132 
L 2560 2132 
L 2560 1792 
L 3565 1792 
L 3565 614 
C 3565 582 3571 537 3552 511 
C 3533 473 3450 460 3411 447 
C 3117 364 2682 280 2336 344 
C 1869 421 1472 730 1229 1134 
C 742 1929 832 3044 1498 3710 
C 1696 3910 1939 4064 2240 4134 
C 2656 4237 3142 4134 3450 3987 
C 3590 3922 3712 3832 3840 3749 
L 3917 4198 
C 3744 4275 3578 4352 3392 4409 
C 3110 4486 2822 4512 2534 4512 
C 1773 4512 1184 4039 870 3586 
C 403 2884 346 1940 723 1186 
C 934 746 1280 421 1715 197 
C 2253 -64 2886 -64 3450 98 
C 3526 117 3949 251 3968 311 
C 3974 331 3974 358 3974 378 
L 3974 2132 
z
" transform="scale(0.015625)"/>
      <path id="HFBR17-6f" d="M 685 2693 
C 115 2127 51 1144 544 508 
C 614 411 698 328 794 257 
C 1030 64 1376 -77 1779 -32 
C 2419 45 2861 566 2995 1112 
C 3174 1877 2797 2731 2093 3001 
C 1542 3226 992 3001 685 2693 
z
M 2285 2519 
C 2592 2242 2650 1799 2624 1407 
C 2605 1105 2522 790 2310 565 
C 1965 192 1325 192 954 552 
C 762 758 646 1053 627 1407 
C 595 1927 723 2480 1235 2686 
C 1613 2853 2048 2731 2285 2519 
z
" transform="scale(0.015625)"/>
      <path id="HFBR17-4c" d="M 512 4448 
L 512 0 
L 3168 0 
L 3168 341 
L 960 341 
L 960 4448 
L 512 4448 
z
" transform="scale(0.015625)"/>
      <path id="HFBR17-63" d="M 2714 720 
C 2592 630 2483 533 2349 456 
C 2048 296 1587 219 1242 379 
C 742 636 608 1260 678 1774 
C 691 1877 710 1979 742 2076 
C 883 2494 1235 2821 1811 2757 
C 2118 2731 2272 2680 2515 2545 
C 2560 2519 2598 2487 2650 2474 
C 2656 2551 2675 2635 2688 2712 
C 2707 2815 2707 2828 2611 2873 
C 2541 2905 2470 2943 2394 2969 
C 2099 3098 1613 3136 1280 3040 
C 826 2911 486 2519 339 2082 
C 269 1883 250 1671 250 1459 
C 256 784 717 122 1389 -13 
C 1760 -90 2189 19 2445 154 
C 2509 186 2701 302 2733 360 
C 2752 392 2714 720 2714 720 
z
" transform="scale(0.015625)"/>
      <path id="HFBR17-74" d="M 691 3872 
L 691 3009 
L 70 3009 
L 70 2688 
L 685 2688 
L 685 961 
C 685 677 666 335 851 97 
C 960 -45 1107 -83 1331 -64 
C 1517 -64 1702 -25 1875 42 
C 1933 68 2144 161 2170 207 
C 2182 233 2099 518 2099 518 
L 1946 401 
C 1747 278 1350 149 1184 382 
C 1037 582 1075 880 1075 1112 
L 1075 2688 
L 2067 2688 
L 2067 3009 
L 1075 3009 
L 1075 3872 
L 691 3872 
z
" transform="scale(0.015625)"/>
     </defs>
     <use xlink:href="#HFBRMI10-53" transform="scale(0.996264)"/>
     <use xlink:href="#HFBR17-2e" transform="translate(67.00897 0) scale(0.996264)"/>
     <use xlink:href="#HFBRMI10-6f" transform="translate(136.913211 0) scale(0.996264)"/>
     <use xlink:href="#HFBRMI10-6e" transform="translate(196.216489 0) scale(0.996264)"/>
     <use xlink:href="#HFBRMI10-65" transform="translate(250.217021 0) scale(0.996264)"/>
     <use xlink:href="#HFBRMI10-69" transform="translate(303.179726 0) scale(0.996264)"/>
     <use xlink:href="#HFBRMI10-64" transform="translate(335.599048 0) scale(0.996264)"/>
     <use xlink:href="#HFBRMI10-65" transform="translate(396.658238 0) scale(0.996264)"/>
     <use xlink:href="#HFBRMI10-6e" transform="translate(449.620944 0) scale(0.996264)"/>
     <use xlink:href="#HFBRMI10-73" transform="translate(503.621475 0) scale(0.996264)"/>
     <use xlink:href="#HFBRMI10-69" transform="translate(551.977098 0) scale(0.996264)"/>
     <use xlink:href="#HFBRMI10-73" transform="translate(584.396419 0) scale(0.996264)"/>
     <use xlink:href="#HFBR17-54" transform="translate(664.217254 0) scale(0.996264)"/>
     <use xlink:href="#HFBR17-6e" transform="translate(733.955431 0) scale(0.996264)"/>
     <use xlink:href="#HFBR17-37" transform="translate(782.107928 0) scale(0.996264)"/>
     <use xlink:href="#HFBR17-3a" transform="translate(832.751146 0) scale(0.996264)"/>
     <use xlink:href="#HFBR17-3a" transform="translate(860.148269 0) scale(0.996264)"/>
     <use xlink:href="#HFBR17-6d" transform="translate(887.545393 0) scale(0.996264)"/>
     <use xlink:href="#HFBR17-52" transform="translate(964.755519 0) scale(0.996264)"/>
     <use xlink:href="#HFBR17-46" transform="translate(1028.474641 0) scale(0.996264)"/>
     <use xlink:href="#HFBR17-50" transform="translate(1084.306698 0) scale(0.996264)"/>
     <use xlink:href="#HFBR17-61" transform="translate(1178.660817 0) scale(0.996264)"/>
     <use xlink:href="#HFBR17-6e" transform="translate(1225.1529 0) scale(0.996264)"/>
     <use xlink:href="#HFBR17-64" transform="translate(1273.305397 0) scale(0.996264)"/>
     <use xlink:href="#HFBRMI10-47" transform="translate(1352.923105 0) scale(0.996264)"/>
     <use xlink:href="#HFBR17-2e" transform="translate(1427.143238 0) scale(0.996264)"/>
     <use xlink:href="#HFBRMI10-73" transform="translate(1497.047479 0) scale(0.996264)"/>
     <use xlink:href="#HFBRMI10-75" transform="translate(1545.403103 0) scale(0.996264)"/>
     <use xlink:href="#HFBRMI10-6c" transform="translate(1601.756581 0) scale(0.996264)"/>
     <use xlink:href="#HFBRMI10-66" transform="translate(1633.758324 0) scale(0.996264)"/>
     <use xlink:href="#HFBRMI10-75" transform="translate(1687.691482 0) scale(0.996264)"/>
     <use xlink:href="#HFBRMI10-72" transform="translate(1744.04496 0) scale(0.996264)"/>
     <use xlink:href="#HFBRMI10-72" transform="translate(1789.951576 0) scale(0.996264)"/>
     <use xlink:href="#HFBRMI10-65" transform="translate(1835.858192 0) scale(0.996264)"/>
     <use xlink:href="#HFBRMI10-64" transform="translate(1888.820898 0) scale(0.996264)"/>
     <use xlink:href="#HFBRMI10-75" transform="translate(1949.880088 0) scale(0.996264)"/>
     <use xlink:href="#HFBRMI10-63" transform="translate(2006.233567 0) scale(0.996264)"/>
     <use xlink:href="#HFBRMI10-65" transform="translate(2061.563008 0) scale(0.996264)"/>
     <use xlink:href="#HFBRMI10-6e" transform="translate(2114.525714 0) scale(0.996264)"/>
     <use xlink:href="#HFBRMI10-73" transform="translate(2168.526245 0) scale(0.996264)"/>
     <use xlink:href="#HFBR17-1" transform="translate(2248.34708 0) scale(0.996264)"/>
     <use xlink:href="#HFBR17-31" transform="translate(2316.424842 0) scale(0.996264)"/>
     <use xlink:href="#HFBR17-36" transform="translate(2367.06806 0) scale(0.996264)"/>
     <use xlink:href="#HFBR17-32" transform="translate(2417.711277 0) scale(0.996264)"/>
     <use xlink:href="#HFBR17-30" transform="translate(2468.354495 0) scale(0.996264)"/>
     <use xlink:href="#HFBR17-2d" transform="translate(2518.997713 0) scale(0.996264)"/>
     <use xlink:href="#HFBR17-31" transform="translate(2552.206387 0) scale(0.996264)"/>
     <use xlink:href="#HFBR17-36" transform="translate(2602.849605 0) scale(0.996264)"/>
     <use xlink:href="#HFBR17-32" transform="translate(2653.492822 0) scale(0.996264)"/>
     <use xlink:href="#HFBR17-34" transform="translate(2704.13604 0) scale(0.996264)"/>
     <use xlink:href="#HFBR17-54" transform="translate(2786.24447 0) scale(0.996264)"/>
     <use xlink:href="#HFBR17-6e" transform="translate(2855.982646 0) scale(0.996264)"/>
     <use xlink:href="#HFBR17-37" transform="translate(2904.135143 0) scale(0.996264)"/>
     <use xlink:href="#HFBR17-3a" transform="translate(2954.778361 0) scale(0.996264)"/>
     <use xlink:href="#HFBR17-3a" transform="translate(2982.175485 0) scale(0.996264)"/>
     <use xlink:href="#HFBR17-76" transform="translate(3009.572608 0) scale(0.996264)"/>
     <use xlink:href="#HFBR17-73" transform="translate(3051.913646 0) scale(0.996264)"/>
     <use xlink:href="#HFBR17-66" transform="translate(3090.352675 0) scale(0.996264)"/>
     <use xlink:href="#HFBR17-47" transform="translate(3120.655619 0) scale(0.996264)"/>
     <use xlink:href="#HFBR17-46" transform="translate(3188.733381 0) scale(0.996264)"/>
     <use xlink:href="#HFBR17-50" transform="translate(3244.565439 0) scale(0.996264)"/>
     <use xlink:href="#HFBR17-30" transform="translate(3307.454346 0) scale(0.996264)"/>
     <use xlink:href="#HFBR17-6f" transform="translate(3389.562775 0) scale(0.996264)"/>
     <use xlink:href="#HFBR17-6e" transform="translate(3440.205993 0) scale(0.996264)"/>
     <use xlink:href="#HFBR17-4c" transform="translate(3519.823702 0) scale(0.996264)"/>
     <use xlink:href="#HFBR17-61" transform="translate(3572.75003 0) scale(0.996264)"/>
     <use xlink:href="#HFBR17-63" transform="translate(3619.242112 0) scale(0.996264)"/>
     <use xlink:href="#HFBR17-74" transform="translate(3664.07378 0) scale(0.996264)"/>
     <use xlink:href="#HFBR17-61" transform="translate(3700.188168 0) scale(0.996264)"/>
     <use xlink:href="#HFBR17-74" transform="translate(3746.68025 0) scale(0.996264)"/>
     <use xlink:href="#HFBR17-65" transform="translate(3782.794638 0) scale(0.996264)"/>
    </g>
   </g>
   <g id="line2d_11">
    <path d="M 174.140684 165.631737 
L 174.430814 165.738552 
L 176.171596 165.791158 
L 183.424853 165.845914 
L 189.420878 165.757918 
L 193.385992 165.626822 
L 202.18661 165.416372 
L 202.38003 165.21042 
L 203.153711 165.251802 
L 206.248434 165.274243 
L 212.051039 165.127578 
L 228.201624 164.202933 
L 240.096965 163.2065 
L 246.963381 162.395004 
L 252.379146 161.583934 
L 259.438983 160.268375 
L 269.883672 157.765424 
L 276.459958 155.889634 
L 277.523769 155.538654 
L 283.616505 153.541498 
L 287.001358 152.381012 
L 291.836862 150.622501 
L 293.094094 150.189105 
L 294.157905 149.692107 
L 305.472985 144.976336 
L 305.666405 144.905341 
L 316.497935 140.032334 
L 317.078196 139.731875 
L 317.851876 139.402709 
L 318.335427 139.146685 
L 318.915687 138.847339 
L 321.62357 137.516087 
L 322.20383 137.179334 
L 322.590671 137.010897 
L 322.784091 137.03092 
L 324.524872 136.203836 
L 325.105133 135.887061 
L 325.588683 135.69114 
L 326.362364 135.280233 
L 326.749205 135.092599 
L 327.232755 134.826932 
L 327.329465 134.922571 
L 327.716305 134.596002 
L 328.780116 134.241519 
L 329.940637 133.631339 
L 330.134058 133.653049 
L 330.424188 133.537017 
L 330.811028 133.357926 
L 331.487999 132.89931 
L 332.35839 132.470108 
L 333.22878 132.00031 
L 333.615621 131.932003 
L 333.809041 131.869266 
L 334.002461 131.959116 
L 335.356402 131.50372 
L 336.516924 131.197583 
L 337.870865 130.570177 
L 339.128096 130.260541 
L 339.321516 130.181184 
L 339.514936 130.207434 
L 340.675457 129.650714 
L 340.868878 129.607476 
L 342.029399 129.143056 
L 342.803079 129.004322 
L 343.28663 128.964698 
L 343.77018 128.845644 
L 345.414252 128.334936 
L 345.897802 128.181308 
L 348.218844 127.646718 
L 348.895815 127.488285 
L 349.766206 127.335599 
L 350.443176 127.129253 
L 350.926727 126.965607 
L 351.313567 126.944335 
L 351.410277 127.077112 
L 351.700407 126.830367 
L 352.764218 126.569952 
L 353.054349 126.521861 
L 353.441189 126.467439 
L 354.02145 126.41199 
L 354.408282 126.273418 
L 354.698412 126.248761 
L 355.858933 126.059534 
L 356.149064 125.997087 
L 357.406295 125.958391 
L 357.599715 126.097297 
L 359.050366 125.799685 
L 359.340496 125.655346 
L 359.630627 125.51981 
L 360.017467 125.246084 
L 360.307597 124.855438 
L 360.597728 124.745284 
L 360.887858 124.64635 
L 361.081278 124.564672 
L 361.274698 124.966058 
L 361.468118 124.992092 
L 361.758249 124.955089 
L 363.01548 124.386126 
L 363.30561 124.741695 
L 364.659551 124.58458 
L 364.852972 124.326513 
L 365.239812 124.150082 
L 365.723362 124.083575 
L 365.916782 124.014956 
L 366.206913 122.956637 
L 366.497043 122.647377 
L 367.270724 122.782448 
L 367.754274 122.93598 
L 369.011505 122.95709 
L 369.495056 122.803621 
L 370.655577 122.708958 
L 371.139127 122.548614 
L 371.332547 122.708251 
L 371.912808 122.545264 
L 372.202938 122.326015 
L 372.493069 122.279435 
L 372.879909 122.17673 
L 373.073329 122.087403 
L 373.363459 121.999355 
L 373.460169 121.931991 
L 373.65359 121.641779 
L 374.13714 121.495233 
L 374.717401 121.217735 
L 374.910821 121.177437 
L 375.200951 121.064679 
L 375.684501 120.864285 
L 376.748312 120.520334 
L 377.328573 120.264852 
L 377.812123 120.145651 
L 378.392384 120.084209 
L 379.166065 119.868971 
L 379.649615 119.739832 
L 380.616716 119.465427 
L 381.680527 118.966183 
L 381.873947 119.055555 
L 382.744338 118.534147 
L 382.937758 118.381129 
L 383.324599 118.559796 
L 383.518019 118.291694 
L 383.614729 118.308943 
L 383.808149 118.469352 
L 385.35551 118.036934 
L 386.612742 117.559329 
L 386.902872 116.964307 
L 386.999582 116.941414 
L 387.193002 117.226209 
L 387.579842 117.06386 
L 387.966683 116.869747 
L 388.546943 116.546069 
L 389.127204 116.411896 
L 389.320624 116.476448 
L 390.384435 116.204501 
L 390.964696 116.116546 
L 392.415347 115.614545 
L 392.608767 115.654765 
L 393.382448 115.16366 
L 393.575868 115.022797 
L 393.865998 114.822333 
L 394.059418 115.099098 
L 394.736389 115.127246 
L 395.219939 114.979552 
L 395.41336 114.994327 
L 395.60678 114.798543 
L 395.8002 114.863838 
L 396.18704 114.946862 
L 397.057431 114.947974 
L 398.121242 115.20563 
L 398.508082 115.167637 
L 398.798213 115.083844 
L 399.088343 115.036996 
L 399.281763 114.855907 
L 399.668604 114.678104 
L 400.442284 114.114304 
L 400.635704 114.660343 
L 400.829125 114.682748 
L 401.119255 114.590915 
L 401.602805 114.505308 
L 402.376486 114.259886 
L 402.569906 114.001486 
L 402.666616 113.620842 
L 402.956747 114.372205 
L 403.633717 114.779588 
L 404.504108 114.835427 
L 405.084369 114.48657 
L 405.277789 114.26178 
L 405.374499 114.437694 
L 405.567919 114.935918 
L 405.858049 114.900831 
L 406.63173 114.657842 
L 407.11528 114.457466 
L 407.405411 114.184939 
L 407.598831 114.918815 
L 407.985671 115.114572 
L 408.469222 115.336659 
L 408.662642 115.645806 
L 409.146192 115.862051 
L 409.436323 115.910431 
L 409.726453 116.070917 
L 410.016583 116.131562 
L 410.500134 116.226323 
L 410.693554 116.144231 
L 410.886974 116.398132 
L 412.047495 116.6808 
L 412.337625 116.345509 
L 412.531045 116.2936 
L 413.304726 115.677455 
L 413.594856 115.641053 
L 416.399449 112.668506 
L 417.46326 111.145355 
L 419.590882 108.952187 
L 419.881012 108.366327 
L 420.654693 107.238168 
L 421.234953 106.358671 
L 421.331663 106.589406 
L 421.428374 106.543458 
L 421.718504 106.398606 
L 423.459285 104.62657 
L 424.136256 103.529928 
L 424.329676 103.848221 
L 426.940849 102.0369 
L 427.134269 101.72424 
L 428.29479 100.969569 
L 428.87505 100.253278 
L 429.261891 100.005134 
L 429.938861 99.343914 
L 430.228992 98.956995 
L 431.002672 98.693721 
L 431.486223 98.47677 
L 432.259904 98.156725 
L 432.936874 97.659383 
L 433.420425 97.265825 
L 433.517135 97.400684 
L 433.807265 97.138955 
L 434.097395 96.62289 
L 434.387525 96.50906 
L 436.225017 94.666188 
L 436.805278 93.847535 
L 437.095408 93.343944 
L 437.288828 93.417096 
L 437.385538 93.411369 
L 437.482248 93.721529 
L 437.578958 93.678749 
L 437.869089 93.486268 
L 438.159219 92.746956 
L 438.642769 92.051961 
L 438.9329 91.497001 
L 439.02961 91.61512 
L 439.22303 91.601833 
L 439.51316 91.452534 
L 439.900001 91.230491 
L 440.383551 90.637314 
L 440.963812 90.25109 
L 441.157232 90.32447 
L 441.447362 90.097887 
L 441.834202 89.746135 
L 442.317753 89.119689 
L 442.801303 88.139704 
L 443.188144 87.735129 
L 443.478274 87.98804 
L 443.574984 87.928529 
L 443.768404 87.728862 
L 444.058534 87.742147 
L 444.445375 87.724722 
L 445.025635 87.261405 
L 445.315766 86.71512 
L 445.509186 86.664926 
L 445.702606 86.373234 
L 446.476287 85.706214 
L 446.669707 85.739793 
L 447.926938 85.113175 
L 449.087459 83.891187 
L 449.184169 83.812945 
L 449.280879 83.474932 
L 449.474299 81.834368 
L 450.05456 80.679836 
L 450.828241 79.973929 
L 451.021661 80.230957 
L 451.215081 80.268713 
L 451.408501 80.406388 
L 451.795341 80.145692 
L 451.988762 80.062593 
L 452.859152 79.272292 
L 452.955863 79.112768 
L 453.149283 79.39785 
L 453.536123 78.899087 
L 453.729543 79.166084 
L 454.019674 78.925481 
L 454.793354 77.657457 
L 454.890064 77.740894 
L 455.083485 78.222503 
L 455.373615 77.938741 
L 455.760455 77.173806 
L 456.050585 77.260535 
L 456.147295 77.51481 
L 456.244006 77.395942 
L 456.534136 76.707124 
L 456.727556 77.22363 
L 457.114396 77.070566 
L 457.501237 76.422165 
L 457.791367 75.955614 
L 458.274917 75.338087 
L 458.468338 75.410502 
L 459.145308 74.727034 
L 459.338728 74.75068 
L 460.499249 74.193099 
L 460.69267 73.927275 
L 460.88609 73.589523 
L 461.17622 74.188335 
L 461.36964 74.211216 
L 461.56306 74.25771 
L 462.240031 74.113339 
L 462.530161 73.523627 
L 462.723582 73.257218 
L 462.917002 73.303388 
L 463.110422 73.221547 
L 463.593972 73.001286 
L 463.884103 72.946293 
L 464.077523 72.928685 
L 464.657783 72.153924 
L 465.238044 71.742053 
L 465.431464 71.936897 
L 466.301855 71.978283 
L 466.495275 71.865895 
L 466.688695 71.833681 
L 466.978825 71.67665 
L 467.752506 70.861708 
L 467.849216 70.889064 
L 468.042636 70.712312 
L 468.332767 70.611875 
L 468.526187 70.393336 
L 468.816317 70.149955 
L 469.203157 69.63564 
L 469.396578 69.849718 
L 470.073548 69.430077 
L 470.653809 69.578358 
L 470.847229 69.469516 
L 471.71762 68.418362 
L 472.00775 68.652924 
L 472.29788 68.527841 
L 472.974851 67.674577 
L 473.071561 67.63933 
L 473.264981 67.77334 
L 473.458401 67.754056 
L 473.651822 67.689099 
L 473.748532 67.62949 
L 473.941952 67.728745 
L 474.425502 67.660246 
L 474.715633 68.005902 
L 475.005763 67.749882 
L 475.295893 67.326443 
L 475.682733 67.815598 
L 475.876154 67.711829 
L 476.166284 67.565409 
L 476.456414 67.55074 
L 476.939965 66.898539 
L 477.616935 65.835362 
L 477.810355 66.12241 
L 478.003776 66.007426 
L 478.293906 66.607474 
L 478.487326 66.54443 
L 478.584036 66.607237 
L 478.777456 66.248775 
L 478.874166 66.342512 
L 478.970876 66.386907 
L 479.067587 66.253582 
L 479.261007 66.690597 
L 479.357717 66.614262 
L 479.551137 66.829884 
L 480.131398 66.620776 
L 480.228108 66.666705 
L 480.518238 66.498673 
L 480.905078 66.674153 
L 481.098498 66.518059 
L 481.388629 66.52704 
L 482.065599 65.794183 
L 482.25902 65.985038 
L 482.45244 65.982323 
L 482.93599 65.853745 
L 483.0327 65.946986 
L 483.22612 65.774606 
L 483.516251 65.900689 
L 483.806381 65.8481 
L 483.999801 65.867184 
L 484.483352 65.679144 
L 484.676772 65.649874 
L 485.063612 65.617862 
L 485.547163 65.726606 
L 485.934003 65.773602 
L 486.417553 65.49033 
L 486.514263 65.332569 
L 486.707684 65.727387 
L 486.804394 65.582568 
L 487.481364 64.298733 
L 487.674784 64.236783 
L 487.771495 64.528149 
L 487.868205 64.478029 
L 488.158335 64.787727 
L 488.545175 64.543974 
L 488.641885 64.62167 
L 488.835306 64.575955 
L 489.028726 64.509277 
L 489.318856 64.094559 
L 490.189247 63.555979 
L 490.285957 63.565202 
L 490.576087 63.221758 
L 490.769507 63.278542 
L 491.156348 63.302936 
L 491.349768 63.2323 
L 491.543188 63.215499 
L 491.930028 62.230273 
L 492.897129 60.857197 
L 493.090549 60.647149 
L 493.28397 60.367716 
L 493.5741 59.15467 
L 493.76752 59.126899 
L 493.96094 59.45207 
L 494.444491 59.358529 
L 494.831331 58.753706 
L 495.024751 58.823393 
L 495.701722 58.154762 
L 496.281982 57.026 
L 496.572113 56.529792 
L 496.765533 56.663979 
L 497.055663 56.010626 
L 497.152373 56.12345 
L 497.345793 56.064849 
L 497.442503 55.629115 
L 497.539214 55.661324 
L 497.829344 55.666812 
L 498.022764 55.673504 
L 498.216184 55.654968 
L 498.796445 55.227929 
L 499.183285 54.847928 
L 500.053676 53.816395 
L 500.343806 53.161795 
L 500.537226 53.362411 
L 500.924067 52.434956 
L 501.697747 52.575579 
L 502.471428 50.674223 
L 502.761558 50.439472 
L 502.954979 50.294017 
L 503.051689 50.496024 
L 503.535239 49.545866 
L 503.631949 49.405003 
L 503.825369 49.432414 
L 503.922079 49.335018 
L 504.01879 49.405662 
L 504.30892 49.067566 
L 504.59905 48.558046 
L 504.69576 48.473566 
L 504.88918 48.030898 
L 505.179311 47.627512 
L 505.759571 46.436764 
L 505.952991 46.547487 
L 506.243122 45.874543 
L 506.436542 45.76127 
L 506.629962 45.904065 
L 506.823382 45.409061 
L 506.920092 45.202048 
L 507.113512 45.572646 
L 507.790483 46.120736 
L 507.887193 45.977571 
L 508.080613 45.364016 
L 508.467454 45.189315 
L 508.757584 45.508326 
L 509.144424 45.166205 
L 509.434554 45.083815 
L 509.627975 45.199944 
L 510.401655 44.847633 
L 510.595076 44.0255 
L 510.691786 44.31805 
L 510.981916 44.119043 
L 511.272046 43.460065 
L 511.368756 43.4664 
L 511.562176 43.78985 
L 511.949017 43.461199 
L 512.239147 43.737448 
L 513.109538 43.21409 
L 513.302958 42.779433 
L 513.496378 42.745633 
L 513.593088 42.779344 
L 513.979929 41.726864 
L 514.173349 41.808975 
L 514.270059 41.634505 
L 514.463479 41.739346 
L 514.850319 41.388406 
L 515.14045 40.634977 
L 515.52729 39.634003 
L 515.72071 40.310002 
L 516.010841 40.132553 
L 516.204261 39.847701 
L 516.300971 39.527897 
L 516.494391 39.716231 
L 516.687811 39.63619 
L 516.881231 39.472593 
L 517.074652 39.618827 
L 517.364782 39.568301 
L 517.654912 39.447975 
L 517.751622 39.455139 
L 517.945042 39.268145 
L 518.428593 39.191865 
L 518.622013 38.928062 
L 519.008853 39.229679 
L 519.395694 38.730271 
L 519.589114 39.183809 
L 519.685824 39.133159 
L 520.169374 39.457544 
L 520.362795 39.488212 
L 520.459505 39.405674 
L 520.652925 38.801089 
L 520.846345 38.925733 
L 521.039765 38.93747 
L 521.233185 38.812971 
L 521.716736 38.761447 
L 521.813446 38.670087 
L 522.103576 37.603475 
L 522.780547 36.305754 
L 522.877257 35.758561 
L 523.264097 36.25703 
L 523.747648 36.419454 
L 523.844358 35.908401 
L 524.037778 32.778869 
L 524.618038 32.510991 
L 525.101589 32.950677 
L 525.295009 32.864732 
L 525.97198 33.328273 
L 526.26211 33.460758 
L 526.45553 33.489494 
L 526.64895 33.150888 
L 526.74566 33.205502 
L 527.035791 33.030373 
L 527.229211 33.125771 
L 527.325921 33.050073 
L 527.519341 33.311508 
L 527.712761 32.867458 
L 527.809471 32.816702 
L 528.002892 33.00394 
L 528.389732 33.358914 
L 528.583152 32.388446 
L 528.873282 32.369666 
L 529.231593 32.743378 
L 529.231593 32.743378 
" clip-path="url(#pd3f237f262)" style="fill: none; stroke: #ff8c00; stroke-width: 2.25; stroke-linecap: round"/>
   </g>
  </g>
 </g>
 <defs>
  <clipPath id="pd3f237f262">
   <rect x="156.386139" y="25.65327" width="390.6" height="146.88"/>
  </clipPath>
 </defs>
</svg>
