<?xml version="1.0" encoding="utf-8" standalone="no"?>
<!DOCTYPE svg PUBLIC "-//W3C//DTD SVG 1.1//EN"
  "http://www.w3.org/Graphics/SVG/1.1/DTD/svg11.dtd">
<svg xmlns:xlink="http://www.w3.org/1999/xlink" width="486.419809pt" height="256.804478pt" viewBox="0 0 486.419809 256.804478" xmlns="http://www.w3.org/2000/svg" version="1.1">
 <metadata>
  <rdf:RDF xmlns:dc="http://purl.org/dc/elements/1.1/" xmlns:cc="http://creativecommons.org/ns#" xmlns:rdf="http://www.w3.org/1999/02/22-rdf-syntax-ns#">
   <cc:Work>
    <dc:type rdf:resource="http://purl.org/dc/dcmitype/StillImage"/>
    <dc:date>2023-12-11T10:31:45.661102</dc:date>
    <dc:format>image/svg+xml</dc:format>
    <dc:creator>
     <cc:Agent>
      <dc:title>Matplotlib v3.7.0, https://matplotlib.org/</dc:title>
     </cc:Agent>
    </dc:creator>
   </cc:Work>
  </rdf:RDF>
 </metadata>
 <defs>
  <style type="text/css">*{stroke-linejoin: round; stroke-linecap: butt}</style>
 </defs>
 <g id="figure_1">
  <g id="patch_1">
   <path d="M 0 256.804478 
L 486.419809 256.804478 
L 486.419809 0 
L 0 0 
z
" style="fill: #222222"/>
  </g>
  <g id="axes_1">
   <g id="patch_2">
    <path d="M 61.196671 190.465985 
L 451.796671 190.465985 
L 451.796671 43.585985 
L 61.196671 43.585985 
z
" style="fill: #222222"/>
   </g>
   <g id="matplotlib.axis_1">
    <g id="xtick_1">
     <g id="line2d_1">
      <defs>
       <path id="m817e078ba9" d="M 0 0 
L 0 9 
" style="stroke: #ffffff; stroke-width: 1.875"/>
      </defs>
      <g>
       <use xlink:href="#m817e078ba9" x="78.951216" y="190.465985" style="fill: #ffffff; stroke: #ffffff; stroke-width: 1.875"/>
      </g>
     </g>
     <g id="text_1">
      <!-- $\mathdefault{0}$ -->
      <g style="fill: #ffffff" transform="translate(70.107496 217.167149) rotate(-30) scale(0.165 -0.165)">
       <defs>
        <path id="HFBR17-30" d="M 947 4087 
C 762 3959 634 3785 538 3586 
C 307 3136 282 2609 282 2037 
C 282 1317 410 656 768 276 
C 1107 -77 1645 -167 2099 19 
C 2381 129 2586 366 2714 623 
C 2944 1080 2970 1626 2970 2191 
C 2970 2371 2963 2551 2944 2731 
C 2899 3162 2752 3637 2515 3901 
C 2125 4332 1427 4428 947 4087 
z
M 2234 3721 
C 2534 3400 2560 2783 2560 2198 
L 2560 1851 
C 2560 1555 2509 1170 2445 951 
C 2355 649 2208 431 1914 296 
C 1555 167 1184 289 979 572 
C 704 938 691 1587 691 2159 
C 691 2699 698 3297 960 3650 
C 1248 4036 1869 4100 2234 3721 
z
" transform="scale(0.015625)"/>
       </defs>
       <use xlink:href="#HFBR17-30" transform="scale(0.996264)"/>
      </g>
     </g>
    </g>
    <g id="xtick_2">
     <g id="line2d_2">
      <g>
       <use xlink:href="#m817e078ba9" x="136.97727" y="190.465985" style="fill: #ffffff; stroke: #ffffff; stroke-width: 1.875"/>
      </g>
     </g>
     <g id="text_2">
      <!-- $\mathdefault{20}$ -->
      <g style="fill: #ffffff" transform="translate(120.659692 221.482183) rotate(-30) scale(0.165 -0.165)">
       <defs>
        <path id="HFBR17-32" d="M 467 2942 
C 557 3302 710 3711 1075 3872 
C 1229 3936 1395 3949 1562 3936 
C 1875 3910 2182 3782 2374 3526 
C 2515 3333 2566 3096 2541 2866 
C 2464 2198 1811 1718 1389 1359 
C 1146 1154 454 500 454 500 
L 346 397 
C 288 340 282 340 282 224 
L 282 0 
L 2970 0 
L 2970 360 
L 653 360 
C 858 559 1709 1313 1824 1403 
C 2195 1706 2611 2008 2835 2446 
C 3085 2948 2976 3580 2554 3953 
C 2298 4179 1946 4288 1606 4288 
C 1293 4288 973 4224 723 4026 
C 531 3865 371 3628 282 3384 
C 262 3346 230 3282 237 3237 
C 243 3199 282 3167 301 3141 
C 352 3077 403 3000 467 2942 
z
" transform="scale(0.015625)"/>
       </defs>
       <use xlink:href="#HFBR17-32" transform="scale(0.996264)"/>
       <use xlink:href="#HFBR17-30" transform="translate(50.643218 0) scale(0.996264)"/>
      </g>
     </g>
    </g>
    <g id="xtick_3">
     <g id="line2d_3">
      <g>
       <use xlink:href="#m817e078ba9" x="195.003323" y="190.465985" style="fill: #ffffff; stroke: #ffffff; stroke-width: 1.875"/>
      </g>
     </g>
     <g id="text_3">
      <!-- $\mathdefault{40}$ -->
      <g style="fill: #ffffff" transform="translate(178.685745 221.482183) rotate(-30) scale(0.165 -0.165)">
       <defs>
        <path id="HFBR17-34" d="M 134 1152 
L 1984 1152 
L 1984 0 
L 2387 0 
L 2387 1152 
L 3117 1152 
L 3117 1493 
L 2387 1493 
L 2387 4254 
L 2042 4254 
C 1926 4254 1894 4261 1843 4164 
C 1587 3745 237 1649 192 1591 
C 141 1500 134 1507 134 1372 
L 134 1152 
z
M 2003 3896 
L 2003 1493 
L 550 1493 
C 595 1583 659 1666 717 1756 
C 1037 2251 1798 3427 1958 3794 
C 1978 3826 1984 3864 2003 3896 
z
" transform="scale(0.015625)"/>
       </defs>
       <use xlink:href="#HFBR17-34" transform="scale(0.996264)"/>
       <use xlink:href="#HFBR17-30" transform="translate(50.643218 0) scale(0.996264)"/>
      </g>
     </g>
    </g>
    <g id="xtick_4">
     <g id="line2d_4">
      <g>
       <use xlink:href="#m817e078ba9" x="253.029376" y="190.465985" style="fill: #ffffff; stroke: #ffffff; stroke-width: 1.875"/>
      </g>
     </g>
     <g id="text_4">
      <!-- $\mathdefault{60}$ -->
      <g style="fill: #ffffff" transform="translate(236.711799 221.482183) rotate(-30) scale(0.165 -0.165)">
       <defs>
        <path id="HFBR17-36" d="M 723 2088 
L 717 2088 
C 717 2673 819 3355 1318 3728 
C 1594 3928 1965 4030 2445 3915 
C 2547 3889 2643 3850 2739 3825 
L 2739 4050 
C 2739 4075 2746 4120 2726 4146 
C 2682 4204 2323 4262 2310 4262 
C 1754 4326 1389 4204 1050 3915 
C 640 3561 403 3041 326 2514 
C 256 2090 314 1408 397 1074 
C 531 579 787 142 1261 -25 
C 1542 -128 1888 -128 2157 1 
C 2374 105 2554 286 2694 480 
C 2918 790 2976 1166 2950 1547 
C 2938 1735 2912 1923 2835 2097 
C 2714 2376 2509 2667 2246 2796 
C 2125 2848 1997 2848 1869 2848 
C 1530 2848 1210 2700 973 2455 
C 870 2352 768 2222 723 2088 
z
M 1562 2529 
C 1805 2548 2061 2510 2246 2336 
C 2490 2105 2534 1777 2534 1460 
C 2534 1246 2541 1025 2477 823 
C 2438 719 2387 629 2330 544 
C 2189 356 2010 264 1715 225 
C 1427 225 1139 340 973 584 
C 870 725 819 899 787 1065 
C 749 1238 723 1417 736 1591 
C 768 2047 1088 2465 1562 2529 
z
" transform="scale(0.015625)"/>
       </defs>
       <use xlink:href="#HFBR17-36" transform="scale(0.996264)"/>
       <use xlink:href="#HFBR17-30" transform="translate(50.643218 0) scale(0.996264)"/>
      </g>
     </g>
    </g>
    <g id="xtick_5">
     <g id="line2d_5">
      <g>
       <use xlink:href="#m817e078ba9" x="311.05543" y="190.465985" style="fill: #ffffff; stroke: #ffffff; stroke-width: 1.875"/>
      </g>
     </g>
     <g id="text_5">
      <!-- $\mathdefault{80}$ -->
      <g style="fill: #ffffff" transform="translate(294.737852 221.482183) rotate(-30) scale(0.165 -0.165)">
       <defs>
        <path id="HFBR17-38" d="M 1197 2304 
L 1197 2298 
C 800 2182 467 1964 307 1590 
C 141 1198 256 722 538 413 
C 838 91 1248 -64 1683 -64 
C 2323 -64 2938 410 3014 1071 
C 3027 1169 3021 1273 3008 1370 
C 2893 1870 2528 2168 2054 2298 
C 2106 2317 2163 2330 2214 2349 
C 2483 2459 2707 2619 2848 2876 
C 3059 3288 2854 3770 2509 4033 
C 2163 4297 1696 4367 1274 4277 
C 768 4168 288 3738 320 3185 
C 333 2992 416 2831 512 2716 
C 659 2536 947 2343 1197 2304 
z
M 1523 4000 
C 1805 4000 2157 3968 2362 3749 
C 2605 3486 2618 3010 2374 2740 
C 2221 2573 1997 2489 1773 2470 
C 1459 2444 1101 2496 877 2740 
C 627 3016 646 3518 915 3775 
C 1082 3929 1306 3980 1523 4000 
z
M 1517 2144 
C 1818 2144 2144 2073 2362 1852 
C 2445 1762 2509 1652 2547 1537 
C 2656 1200 2605 774 2355 515 
C 2182 341 1946 276 1709 257 
C 1421 257 1088 327 883 548 
C 602 857 544 1498 877 1860 
C 1043 2034 1280 2125 1517 2144 
z
" transform="scale(0.015625)"/>
       </defs>
       <use xlink:href="#HFBR17-38" transform="scale(0.996264)"/>
       <use xlink:href="#HFBR17-30" transform="translate(50.643218 0) scale(0.996264)"/>
      </g>
     </g>
    </g>
    <g id="xtick_6">
     <g id="line2d_6">
      <g>
       <use xlink:href="#m817e078ba9" x="369.081483" y="190.465985" style="fill: #ffffff; stroke: #ffffff; stroke-width: 1.875"/>
      </g>
     </g>
     <g id="text_6">
      <!-- $\mathdefault{100}$ -->
      <g style="fill: #ffffff" transform="translate(345.290048 225.797216) rotate(-30) scale(0.165 -0.165)">
       <defs>
        <path id="HFBR17-31" d="M 621 3841 
L 621 3520 
C 973 3520 1216 3584 1498 3706 
L 1498 321 
L 659 321 
L 659 0 
L 2752 0 
L 2752 321 
L 1914 321 
L 1914 4288 
C 1760 4288 1786 4247 1664 4152 
C 1402 3950 1037 3841 621 3841 
z
" transform="scale(0.015625)"/>
       </defs>
       <use xlink:href="#HFBR17-31" transform="scale(0.996264)"/>
       <use xlink:href="#HFBR17-30" transform="translate(50.643218 0) scale(0.996264)"/>
       <use xlink:href="#HFBR17-30" transform="translate(101.286436 0) scale(0.996264)"/>
      </g>
     </g>
    </g>
    <g id="xtick_7">
     <g id="line2d_7">
      <g>
       <use xlink:href="#m817e078ba9" x="427.107536" y="190.465985" style="fill: #ffffff; stroke: #ffffff; stroke-width: 1.875"/>
      </g>
     </g>
     <g id="text_7">
      <!-- $\mathdefault{120}$ -->
      <g style="fill: #ffffff" transform="translate(403.316102 225.797216) rotate(-30) scale(0.165 -0.165)">
       <use xlink:href="#HFBR17-31" transform="scale(0.996264)"/>
       <use xlink:href="#HFBR17-32" transform="translate(50.643218 0) scale(0.996264)"/>
       <use xlink:href="#HFBR17-30" transform="translate(101.286436 0) scale(0.996264)"/>
      </g>
     </g>
    </g>
    <g id="text_8">
     <!-- Time (h) -->
     <g style="fill: #ffffff" transform="translate(223.328708 245.619422) scale(0.18 -0.18)">
      <defs>
       <path id="HFBR17-54" d="M 192 4437 
L 192 4096 
L 2016 4096 
L 2016 0 
L 2464 0 
L 2464 4096 
L 4288 4096 
L 4288 4437 
L 192 4437 
z
" transform="scale(0.015625)"/>
       <path id="HFBR17-69" d="M 410 4480 
L 410 4075 
L 813 4075 
L 813 4480 
L 410 4480 
z
M 410 3033 
L 410 0 
L 813 0 
L 813 3033 
L 410 3033 
z
" transform="scale(0.015625)"/>
       <path id="HFBR17-6d" d="M 806 2391 
L 800 2391 
L 800 3033 
L 410 3033 
L 410 0 
L 819 0 
L 819 1411 
C 819 1725 800 2040 941 2328 
C 1062 2578 1274 2777 1651 2738 
C 1843 2738 2035 2687 2157 2525 
C 2272 2377 2278 2185 2278 2004 
L 2278 0 
L 2688 0 
L 2688 1411 
C 2688 1725 2669 2040 2810 2328 
C 2931 2578 3142 2777 3520 2738 
C 3712 2738 3904 2687 4026 2525 
C 4141 2377 4147 2185 4147 2004 
L 4147 0 
L 4557 0 
L 4557 1700 
C 4557 2008 4595 2354 4461 2636 
C 4326 2899 4109 3040 3757 3040 
C 3552 3059 3347 3028 3162 2934 
C 2938 2811 2771 2608 2669 2385 
C 2624 2597 2573 2741 2432 2880 
C 2285 3012 2086 3072 1894 3072 
C 1427 3110 1133 2916 934 2624 
C 883 2552 832 2475 806 2391 
z
" transform="scale(0.015625)"/>
       <path id="HFBR17-65" d="M 2675 700 
C 2528 591 2483 533 2298 436 
C 1907 224 1446 224 1114 459 
C 794 689 608 1065 608 1600 
L 2720 1600 
C 2720 2075 2611 2487 2342 2776 
C 2048 3065 1587 3155 1197 3033 
C 1050 2988 915 2911 794 2814 
C 390 2487 218 1966 224 1458 
C 237 790 691 122 1363 -20 
C 1715 -91 2086 -13 2400 147 
C 2458 179 2669 295 2694 353 
C 2714 385 2675 700 2675 700 
z
M 2381 1850 
L 640 1850 
C 717 2319 1101 2814 1619 2756 
C 2042 2718 2266 2416 2349 2037 
C 2362 1972 2368 1915 2381 1850 
z
" transform="scale(0.015625)"/>
       <path id="HFBR17-28" d="M 2189 -1408 
C 2138 -1350 2074 -1298 2016 -1247 
C 1965 -1202 1920 -1151 1875 -1099 
C 1235 -392 902 739 954 1941 
C 979 2596 1107 3264 1414 3856 
C 1555 4119 1798 4492 2016 4678 
C 2074 4730 2138 4781 2189 4839 
L 1978 4839 
C 1946 4839 1901 4845 1869 4833 
C 1792 4794 1600 4601 1574 4575 
C 960 3959 595 3027 544 1941 
C 512 1163 640 372 986 -322 
C 1139 -630 1344 -913 1587 -1157 
C 1651 -1221 1792 -1363 1869 -1401 
C 1901 -1414 1946 -1408 1978 -1408 
L 2189 -1408 
z
" transform="scale(0.015625)"/>
       <path id="HFBR17-68" d="M 410 4460 
L 410 0 
L 819 0 
L 819 1407 
C 819 1722 800 2044 941 2339 
C 1011 2487 1120 2616 1267 2693 
C 1389 2751 1517 2751 1651 2738 
C 1843 2738 2029 2687 2150 2525 
C 2266 2377 2272 2185 2272 2004 
L 2272 0 
L 2682 0 
L 2682 1742 
C 2682 2063 2714 2416 2554 2706 
C 2426 2924 2202 3027 1965 3059 
C 1837 3072 1709 3072 1581 3053 
C 1350 3009 1152 2882 998 2710 
C 928 2627 845 2526 819 2417 
L 813 2417 
L 813 4460 
L 410 4460 
z
" transform="scale(0.015625)"/>
       <path id="HFBR17-29" d="M 320 4839 
C 371 4781 435 4730 493 4678 
C 544 4633 589 4582 634 4530 
C 1190 3888 1510 3014 1555 1941 
C 1587 1144 1466 315 1101 -405 
C 979 -656 819 -894 634 -1099 
C 589 -1151 544 -1202 493 -1247 
C 435 -1298 371 -1350 320 -1408 
L 531 -1408 
C 563 -1408 608 -1414 640 -1401 
C 717 -1363 909 -1170 934 -1144 
C 1549 -527 1914 405 1965 1491 
C 1997 2268 1869 3059 1523 3753 
C 1370 4061 1165 4344 922 4588 
C 858 4653 717 4794 640 4833 
C 608 4845 563 4839 531 4839 
L 320 4839 
z
" transform="scale(0.015625)"/>
      </defs>
      <use xlink:href="#HFBR17-54" transform="scale(0.996264)"/>
      <use xlink:href="#HFBR17-69" transform="translate(69.738177 0) scale(0.996264)"/>
      <use xlink:href="#HFBR17-6d" transform="translate(88.833136 0) scale(0.996264)"/>
      <use xlink:href="#HFBR17-65" transform="translate(166.043262 0) scale(0.996264)"/>
      <use xlink:href="#HFBR17-28" transform="translate(242.340141 0) scale(0.996264)"/>
      <use xlink:href="#HFBR17-68" transform="translate(281.36035 0) scale(0.996264)"/>
      <use xlink:href="#HFBR17-29" transform="translate(329.512847 0) scale(0.996264)"/>
     </g>
    </g>
   </g>
   <g id="matplotlib.axis_2">
    <g id="ytick_1">
     <g id="line2d_8">
      <defs>
       <path id="m9aabd05502" d="M 0 0 
L -9 0 
" style="stroke: #ffffff; stroke-width: 1.875"/>
      </defs>
      <g>
       <use xlink:href="#m9aabd05502" x="61.196671" y="183.834677" style="fill: #ffffff; stroke: #ffffff; stroke-width: 1.875"/>
      </g>
     </g>
     <g id="text_9">
      <!-- $\mathdefault{0.0}$ -->
      <g style="fill: #ffffff" transform="translate(26.642062 189.542437) scale(0.165 -0.165)">
       <defs>
        <path id="HFBRMI10-3a" d="M 685 500 
L 685 0 
L 1184 0 
L 1184 500 
L 685 500 
z
" transform="scale(0.015625)"/>
       </defs>
       <use xlink:href="#HFBR17-30" transform="scale(0.996264)"/>
       <use xlink:href="#HFBRMI10-3a" transform="translate(50.643218 0) scale(0.996264)"/>
       <use xlink:href="#HFBR17-30" transform="translate(79.700665 0) scale(0.996264)"/>
      </g>
     </g>
    </g>
    <g id="ytick_2">
     <g id="line2d_9">
      <g>
       <use xlink:href="#m9aabd05502" x="61.196671" y="129.981821" style="fill: #ffffff; stroke: #ffffff; stroke-width: 1.875"/>
      </g>
     </g>
     <g id="text_10">
      <!-- $\mathdefault{0.5}$ -->
      <g style="fill: #ffffff" transform="translate(26.642062 135.689581) scale(0.165 -0.165)">
       <defs>
        <path id="HFBR17-35" d="M 538 4245 
L 538 1949 
L 781 1949 
C 813 1949 858 1943 883 1956 
C 915 1975 934 2020 954 2046 
C 998 2103 1050 2148 1101 2193 
C 1331 2386 1773 2463 2067 2315 
C 2470 2123 2547 1614 2515 1216 
C 2496 964 2419 733 2272 585 
C 1933 224 1363 224 947 435 
C 742 538 570 699 442 891 
L 435 891 
C 416 859 269 634 269 595 
C 269 569 288 550 301 531 
C 493 306 742 132 1030 36 
C 1600 -144 2240 -3 2643 460 
C 3123 1019 3059 1930 2502 2417 
C 2336 2572 2106 2681 1830 2706 
C 1459 2758 1126 2578 928 2411 
L 928 3904 
L 2746 3904 
L 2746 4245 
L 538 4245 
z
" transform="scale(0.015625)"/>
       </defs>
       <use xlink:href="#HFBR17-30" transform="scale(0.996264)"/>
       <use xlink:href="#HFBRMI10-3a" transform="translate(50.643218 0) scale(0.996264)"/>
       <use xlink:href="#HFBR17-35" transform="translate(79.700665 0) scale(0.996264)"/>
      </g>
     </g>
    </g>
    <g id="ytick_3">
     <g id="line2d_10">
      <g>
       <use xlink:href="#m9aabd05502" x="61.196671" y="76.128966" style="fill: #ffffff; stroke: #ffffff; stroke-width: 1.875"/>
      </g>
     </g>
     <g id="text_11">
      <!-- $\mathdefault{1.0}$ -->
      <g style="fill: #ffffff" transform="translate(26.642062 81.836726) scale(0.165 -0.165)">
       <use xlink:href="#HFBR17-31" transform="scale(0.996264)"/>
       <use xlink:href="#HFBRMI10-3a" transform="translate(50.643218 0) scale(0.996264)"/>
       <use xlink:href="#HFBR17-30" transform="translate(79.700665 0) scale(0.996264)"/>
      </g>
     </g>
    </g>
    <g id="text_12">
     <!-- mA -->
     <g style="fill: #ffffff" transform="translate(19.65327 129.69094) rotate(-90) scale(0.18 -0.18)">
      <defs>
       <path id="HFBR17-41" d="M 134 6 
L 422 6 
L 538 19 
C 730 435 864 909 1037 1344 
C 1670 1344 2362 1344 2963 1344 
L 3014 1260 
C 3123 931 3251 614 3366 291 
C 3398 193 3430 97 3482 19 
C 3622 0 3789 0 3942 0 
C 3834 314 2349 4301 2304 4409 
C 2298 4435 2285 4473 2253 4480 
C 2214 4486 2176 4480 2138 4480 
L 1926 4480 
C 1830 4480 1792 4492 1766 4391 
C 1741 4326 134 6 134 6 
z
M 2010 4043 
C 2278 3246 2566 2462 2848 1678 
L 1165 1678 
L 1722 3207 
L 2010 4043 
z
" transform="scale(0.015625)"/>
      </defs>
      <use xlink:href="#HFBR17-6d" transform="scale(0.996264)"/>
      <use xlink:href="#HFBR17-41" transform="translate(77.210126 0) scale(0.996264)"/>
     </g>
    </g>
   </g>
   <g id="patch_3">
    <path d="M 61.196671 190.465985 
L 61.196671 43.585985 
" style="fill: none; stroke: #ffffff; stroke-width: 1.875; stroke-linejoin: miter; stroke-linecap: square"/>
   </g>
   <g id="patch_4">
    <path d="M 61.196671 190.465985 
L 451.796671 190.465985 
" style="fill: none; stroke: #ffffff; stroke-width: 1.875; stroke-linejoin: miter; stroke-linecap: square"/>
   </g>
   <g id="text_13">
    <!-- $S$. $oneidensis$ Tn7::mRFP and  -->
    <g style="fill: #ffffff" transform="translate(137.565534 19.65327) scale(0.18 -0.18)">
     <defs>
      <path id="HFBRMI10-53" d="M 544 766 
L 371 316 
C 499 228 634 140 774 73 
C 1357 -192 2106 -192 2701 108 
C 3245 388 3738 973 3616 1615 
C 3533 1978 3328 2213 3008 2360 
C 2893 2411 2771 2436 2650 2468 
C 2490 2512 2003 2627 1894 2678 
C 1702 2767 1536 2926 1491 3136 
C 1421 3474 1677 3778 1946 3951 
C 2234 4135 2573 4192 2912 4192 
C 3226 4192 3443 4093 3661 3940 
C 3725 3894 3776 3834 3840 3787 
L 4013 4237 
C 3846 4327 3686 4416 3507 4468 
C 2854 4647 2131 4525 1658 4166 
C 1280 3883 966 3414 1082 2919 
C 1120 2759 1190 2636 1286 2527 
C 1581 2199 2029 2142 2432 2039 
C 2547 2007 2662 1981 2771 1936 
C 2970 1839 3136 1672 3194 1454 
C 3296 1030 2976 632 2630 426 
C 2112 125 1434 202 922 484 
C 832 535 749 593 666 657 
C 621 696 589 734 544 766 
z
" transform="scale(0.015625)"/>
      <path id="HFBR17-2e" d="M 634 501 
L 634 0 
L 1133 0 
L 1133 501 
L 634 501 
z
" transform="scale(0.015625)"/>
      <path id="HFBRMI10-6f" d="M 1901 3020 
C 1197 2789 678 2109 563 1391 
C 499 968 595 494 928 205 
C 1120 32 1402 -64 1754 -64 
C 2618 19 3322 782 3437 1629 
C 3494 2071 3386 2552 3034 2847 
C 2765 3058 2368 3174 1901 3020 
z
M 2835 2572 
C 3053 2367 3085 2040 3046 1757 
C 2976 1161 2682 533 2080 327 
C 1824 250 1555 250 1331 366 
C 998 545 928 956 966 1302 
C 1018 1796 1210 2315 1645 2591 
C 1965 2803 2541 2867 2835 2572 
z
" transform="scale(0.015625)"/>
      <path id="HFBRMI10-6e" d="M 1427 2398 
L 1421 2398 
L 1549 3027 
L 1158 3027 
L 518 0 
L 806 0 
C 864 0 941 -19 941 64 
C 954 109 960 154 973 199 
C 1056 572 1286 1742 1344 1935 
C 1466 2295 1734 2713 2163 2764 
C 2445 2764 2701 2693 2797 2502 
C 2893 2310 2816 2087 2778 1889 
L 2374 0 
L 2675 0 
C 2739 0 2797 -13 2797 71 
C 2835 199 2925 673 2925 673 
L 3213 2026 
C 3264 2270 3322 2565 3187 2796 
C 3072 2988 2854 3052 2643 3071 
C 2541 3084 2438 3084 2336 3065 
C 2054 3014 1792 2847 1606 2635 
C 1542 2565 1466 2488 1427 2398 
z
M 1414 2398 
C 1414 2398 1421 2398 1421 2398 
C 1421 2392 1414 2385 1414 2398 
z
" transform="scale(0.015625)"/>
      <path id="HFBRMI10-65" d="M 2874 702 
C 2778 638 2694 568 2592 510 
C 2291 330 1747 144 1376 356 
C 1235 433 1133 555 1056 702 
C 960 914 928 1119 960 1414 
L 998 1600 
L 3027 1600 
C 3053 1600 3091 1594 3110 1613 
C 3162 1651 3174 1998 3174 2004 
C 3187 2331 3142 2697 2861 2915 
C 2797 2959 2726 2998 2650 3030 
C 2227 3197 1747 3056 1395 2793 
C 954 2466 602 1869 563 1241 
C 538 754 717 375 1024 144 
C 1542 -234 2246 -3 2669 241 
C 2720 273 2797 311 2829 356 
C 2848 388 2874 702 2874 702 
z
M 2829 1850 
L 1082 1850 
C 1229 2216 1510 2581 1888 2722 
C 2176 2831 2560 2786 2733 2498 
C 2848 2305 2854 2062 2829 1850 
z
" transform="scale(0.015625)"/>
      <path id="HFBRMI10-69" d="M 1370 4032 
L 1773 4032 
L 1856 4436 
C 1722 4436 1574 4436 1459 4416 
C 1414 4303 1395 4165 1370 4032 
z
M 1152 3010 
L 512 -32 
C 646 -32 794 -32 909 -13 
L 934 57 
L 1555 3010 
L 1152 3010 
z
" transform="scale(0.015625)"/>
      <path id="HFBRMI10-64" d="M 3322 4448 
L 2938 2624 
L 2931 2624 
C 2880 2765 2714 2912 2586 2976 
C 2170 3201 1677 3028 1338 2739 
C 941 2407 685 1920 602 1415 
C 493 781 704 237 1107 32 
C 1472 -148 1920 6 2221 237 
C 2310 307 2394 391 2470 474 
L 2374 0 
C 2515 0 2656 0 2778 19 
L 2803 89 
C 2867 409 2938 723 3008 1043 
L 3725 4448 
L 3322 4448 
z
M 2810 2494 
C 2829 2456 2861 2405 2867 2353 
C 2874 2289 2842 2206 2829 2142 
C 2797 2001 2560 885 2560 885 
C 2534 731 2483 680 2381 577 
C 2221 410 2016 289 1786 269 
C 1542 250 1338 346 1210 455 
C 973 680 954 1020 998 1321 
C 1062 1802 1254 2296 1683 2565 
C 1984 2770 2579 2892 2810 2494 
z
M 2470 475 
C 2470 475 2477 475 2477 475 
C 2477 468 2470 462 2470 475 
z
" transform="scale(0.015625)"/>
      <path id="HFBRMI10-73" d="M 384 648 
L 237 276 
C 358 202 480 133 614 79 
C 992 -64 1523 -64 1914 83 
C 2214 197 2438 426 2554 725 
C 2643 953 2637 1201 2522 1379 
C 2349 1666 2054 1741 1670 1812 
C 1478 1849 1261 1882 1139 2054 
C 1005 2238 1107 2479 1261 2619 
C 1427 2765 1690 2816 1984 2816 
C 2150 2816 2317 2789 2477 2728 
C 2586 2680 2682 2621 2784 2566 
L 2918 2916 
C 2662 3032 2490 3104 2150 3104 
C 1728 3136 1286 3053 1011 2805 
C 710 2531 544 2008 858 1697 
C 1069 1461 1395 1429 1690 1366 
C 1901 1321 2138 1258 2214 1028 
C 2240 939 2227 843 2195 760 
C 2093 455 1786 302 1382 302 
C 1133 302 890 353 666 462 
C 563 513 474 584 384 648 
z
" transform="scale(0.015625)"/>
      <path id="HFBR17-6e" d="M 806 2386 
L 800 2386 
L 800 3033 
L 410 3033 
L 410 0 
L 819 0 
L 819 1404 
C 819 1718 800 2040 941 2334 
C 1011 2482 1120 2610 1267 2687 
C 1389 2745 1517 2745 1651 2732 
C 1843 2732 2029 2681 2150 2520 
C 2266 2372 2272 2180 2272 2000 
L 2272 0 
L 2682 0 
L 2682 1719 
C 2682 2040 2714 2392 2560 2681 
C 2438 2912 2202 3021 1952 3053 
C 1824 3072 1690 3072 1562 3047 
C 1229 2976 922 2707 806 2386 
z
" transform="scale(0.015625)"/>
      <path id="HFBR17-37" d="M 230 4200 
L 230 3840 
L 2739 3840 
L 2502 3608 
C 2291 3383 2099 3144 1926 2887 
C 1350 2017 1037 980 1037 -64 
L 1466 -64 
C 1466 877 1702 1817 2150 2648 
C 2368 3067 2598 3369 2899 3723 
C 2938 3762 2995 3807 3014 3858 
C 3027 3890 3021 3935 3021 3975 
L 3021 4200 
L 230 4200 
z
" transform="scale(0.015625)"/>
      <path id="HFBR17-3a" d="M 634 3008 
L 634 2507 
L 1133 2507 
L 1133 3008 
L 634 3008 
z
M 634 501 
L 634 0 
L 1133 0 
L 1133 501 
L 634 501 
z
" transform="scale(0.015625)"/>
      <path id="HFBR17-52" d="M 512 4437 
L 512 -32 
L 954 -32 
L 954 2048 
L 2048 2048 
C 2080 2048 2118 2055 2144 2036 
C 2189 2003 2214 1938 2246 1893 
L 3174 479 
L 3411 117 
C 3443 72 3475 -6 3520 -26 
C 3558 -45 3622 -32 3661 -32 
L 3962 -32 
L 2547 2093 
C 2880 2158 3213 2299 3456 2543 
C 3654 2741 3789 2992 3776 3275 
C 3757 3501 3667 3695 3552 3836 
C 3270 4172 2790 4398 2278 4437 
C 2080 4437 1888 4437 1690 4437 
L 512 4437 
z
M 954 2370 
L 954 4096 
L 1862 4096 
C 2426 4096 2957 4032 3226 3646 
C 3405 3381 3392 3021 3187 2770 
C 3117 2680 3027 2609 2931 2557 
C 2605 2370 2227 2370 1862 2370 
L 954 2370 
z
" transform="scale(0.015625)"/>
      <path id="HFBR17-46" d="M 512 4437 
L 512 0 
L 960 0 
L 960 2048 
L 3078 2048 
L 3078 2388 
L 960 2388 
L 960 4096 
L 3354 4096 
L 3354 4437 
L 512 4437 
z
" transform="scale(0.015625)"/>
      <path id="HFBR17-50" d="M 512 4480 
L 512 32 
L 960 32 
L 960 1920 
L 1862 1920 
C 2003 1920 2144 1920 2278 1920 
C 2752 1959 3149 2153 3418 2443 
C 3693 2746 3814 3210 3635 3603 
C 3430 4099 2944 4415 2323 4480 
C 2138 4480 1946 4480 1760 4480 
L 512 4480 
z
M 954 2254 
L 954 4139 
L 1830 4139 
C 2387 4139 2893 4075 3149 3690 
C 3322 3432 3347 3072 3206 2795 
C 3130 2646 3014 2531 2874 2447 
C 2560 2254 2195 2254 1843 2254 
L 954 2254 
z
" transform="scale(0.015625)"/>
      <path id="HFBR17-61" d="M 506 2497 
C 614 2551 704 2630 813 2683 
C 986 2762 1165 2816 1357 2816 
C 1446 2822 1549 2835 1638 2816 
C 1798 2790 1939 2693 2035 2557 
C 2131 2401 2170 2265 2170 2014 
L 2170 1729 
C 1862 1729 1555 1703 1261 1625 
C 890 1541 486 1352 352 1014 
C 218 690 358 261 646 66 
C 787 -32 954 -32 1120 -19 
C 1389 0 1658 65 1888 208 
C 1997 272 2106 357 2170 467 
L 2176 467 
L 2176 13 
L 2579 13 
L 2579 1721 
C 2579 1908 2598 2109 2560 2297 
C 2522 2555 2362 2769 2176 2918 
C 1958 3086 1709 3143 1376 3118 
C 1069 3118 832 3040 602 2929 
C 570 2916 506 2895 486 2857 
C 467 2830 480 2785 480 2752 
C 493 2667 499 2582 506 2497 
z
M 2170 1536 
L 2170 1048 
C 2170 900 2176 765 2093 637 
C 2022 534 1926 463 1824 412 
C 1459 225 902 283 742 592 
C 614 816 749 1080 934 1228 
C 1210 1440 1747 1536 2170 1536 
z
" transform="scale(0.015625)"/>
      <path id="HFBR17-64" d="M 2278 4460 
L 2278 2648 
C 2157 2783 2035 2911 1869 2988 
C 1299 3226 749 2918 467 2410 
C 141 1806 179 1009 570 443 
C 845 51 1299 -141 1779 32 
C 1965 103 2189 289 2266 456 
L 2272 456 
L 2272 0 
L 2682 0 
L 2682 4460 
L 2278 4460 
z
M 2253 2397 
C 2285 2339 2272 2262 2272 2198 
L 2272 874 
C 2272 726 2266 713 2182 598 
C 2067 424 1888 302 1677 283 
C 1370 257 1056 405 877 656 
C 774 803 717 983 685 1163 
C 672 1234 672 1298 666 1369 
C 627 1793 717 2294 1088 2564 
C 1152 2609 1222 2641 1293 2673 
C 1664 2815 2074 2776 2253 2397 
z
" transform="scale(0.015625)"/>
     </defs>
     <use xlink:href="#HFBRMI10-53" transform="scale(0.996264)"/>
     <use xlink:href="#HFBR17-2e" transform="translate(67.00897 0) scale(0.996264)"/>
     <use xlink:href="#HFBRMI10-6f" transform="translate(136.913211 0) scale(0.996264)"/>
     <use xlink:href="#HFBRMI10-6e" transform="translate(196.216489 0) scale(0.996264)"/>
     <use xlink:href="#HFBRMI10-65" transform="translate(250.217021 0) scale(0.996264)"/>
     <use xlink:href="#HFBRMI10-69" transform="translate(303.179726 0) scale(0.996264)"/>
     <use xlink:href="#HFBRMI10-64" transform="translate(335.599048 0) scale(0.996264)"/>
     <use xlink:href="#HFBRMI10-65" transform="translate(396.658238 0) scale(0.996264)"/>
     <use xlink:href="#HFBRMI10-6e" transform="translate(449.620944 0) scale(0.996264)"/>
     <use xlink:href="#HFBRMI10-73" transform="translate(503.621475 0) scale(0.996264)"/>
     <use xlink:href="#HFBRMI10-69" transform="translate(551.977098 0) scale(0.996264)"/>
     <use xlink:href="#HFBRMI10-73" transform="translate(584.396419 0) scale(0.996264)"/>
     <use xlink:href="#HFBR17-54" transform="translate(664.217254 0) scale(0.996264)"/>
     <use xlink:href="#HFBR17-6e" transform="translate(733.955431 0) scale(0.996264)"/>
     <use xlink:href="#HFBR17-37" transform="translate(782.107928 0) scale(0.996264)"/>
     <use xlink:href="#HFBR17-3a" transform="translate(832.751146 0) scale(0.996264)"/>
     <use xlink:href="#HFBR17-3a" transform="translate(860.148269 0) scale(0.996264)"/>
     <use xlink:href="#HFBR17-6d" transform="translate(887.545393 0) scale(0.996264)"/>
     <use xlink:href="#HFBR17-52" transform="translate(964.755519 0) scale(0.996264)"/>
     <use xlink:href="#HFBR17-46" transform="translate(1028.474641 0) scale(0.996264)"/>
     <use xlink:href="#HFBR17-50" transform="translate(1084.306698 0) scale(0.996264)"/>
     <use xlink:href="#HFBR17-61" transform="translate(1178.660817 0) scale(0.996264)"/>
     <use xlink:href="#HFBR17-6e" transform="translate(1225.1529 0) scale(0.996264)"/>
     <use xlink:href="#HFBR17-64" transform="translate(1273.305397 0) scale(0.996264)"/>
    </g>
    <!-- $G$. $sulfurreducens$ $\Delta$1620-1624 Tn7::vsfGFP0 on Lactate -->
    <g style="fill: #ffffff" transform="translate(33.773533 37.585985) scale(0.18 -0.18)">
     <defs>
      <path id="HFBRMI10-47" d="M 4006 2132 
L 2701 2132 
L 2598 2119 
C 2560 2023 2541 1907 2522 1792 
L 3526 1792 
C 3494 1689 3475 1580 3456 1471 
C 3411 1260 3258 529 3251 509 
C 3226 464 3149 452 3104 439 
C 2598 291 1926 214 1485 541 
C 1318 657 1210 791 1107 984 
C 902 1369 890 1837 979 2252 
C 1178 3111 1837 3969 2739 4148 
C 3117 4225 3571 4148 3834 4020 
C 3974 3950 4090 3847 4218 3757 
L 4390 4205 
C 4230 4292 4064 4372 3891 4425 
C 3514 4544 3002 4544 2598 4441 
C 1638 4198 870 3391 589 2454 
C 442 1981 422 1449 608 981 
C 704 711 877 488 1082 315 
C 1587 -96 2266 -96 2874 40 
C 3002 72 3539 213 3610 284 
C 3635 316 3635 387 3648 432 
L 4006 2132 
z
" transform="scale(0.015625)"/>
      <path id="HFBRMI10-75" d="M 1158 3008 
C 1126 2802 1075 2605 1030 2399 
C 986 2195 730 979 698 831 
C 659 634 608 358 704 192 
C 800 -13 1043 -64 1248 -64 
C 1613 -64 1971 70 2253 294 
C 2342 364 2419 448 2496 537 
L 2381 -19 
C 2515 -19 2662 -19 2778 0 
L 2803 70 
L 3424 3008 
L 3014 3008 
C 2989 2847 2650 1293 2630 1191 
C 2566 903 2509 743 2310 544 
C 2074 308 1760 211 1434 243 
C 1312 243 1158 262 1094 384 
C 1050 461 1062 564 1075 647 
C 1101 807 1139 967 1171 1128 
C 1197 1262 1562 2956 1568 3008 
L 1158 3008 
z
" transform="scale(0.015625)"/>
      <path id="HFBRMI10-6c" d="M 1453 4448 
L 512 0 
C 646 0 794 0 909 19 
L 934 89 
C 998 409 1069 723 1139 1043 
L 1856 4448 
L 1453 4448 
z
" transform="scale(0.015625)"/>
      <path id="HFBRMI10-66" d="M 819 3009 
L 755 2688 
L 1306 2688 
C 1107 1792 922 871 730 -32 
C 864 -32 1011 -32 1126 -13 
L 1146 32 
C 1286 720 1440 1389 1581 2077 
C 1632 2270 1651 2495 1715 2675 
L 1779 2688 
L 2502 2688 
L 2566 3009 
L 1766 3009 
C 1824 3195 1850 3393 1888 3579 
C 1907 3669 1920 3765 1958 3842 
C 2112 4111 2541 4208 2931 4144 
C 3021 4124 3110 4092 3200 4073 
L 3270 4432 
C 3040 4477 2790 4503 2554 4471 
C 2125 4413 1690 4118 1536 3714 
C 1478 3560 1389 3105 1389 3105 
C 1389 3079 1382 3034 1357 3021 
C 1325 2996 1248 3009 1210 3009 
L 819 3009 
z
" transform="scale(0.015625)"/>
      <path id="HFBRMI10-72" d="M 1382 2213 
L 1376 2213 
L 1542 3015 
L 1158 3015 
L 518 0 
L 806 0 
C 864 0 934 -19 934 64 
C 947 103 954 147 960 186 
L 1069 680 
C 1107 866 1254 1591 1293 1726 
C 1363 1931 1485 2123 1638 2271 
C 1862 2489 2195 2688 2566 2688 
C 2598 2688 2662 2688 2682 2714 
C 2707 2740 2746 2982 2765 3066 
C 2336 3066 1946 2854 1651 2559 
C 1574 2482 1421 2309 1382 2213 
z
" transform="scale(0.015625)"/>
      <path id="HFBRMI10-63" d="M 2918 725 
C 2842 679 2778 621 2707 576 
C 2541 465 2368 380 2176 334 
C 1888 256 1619 256 1376 377 
C 1011 576 954 1038 1011 1409 
C 1101 1960 1402 2550 1965 2736 
C 2266 2832 2656 2794 2912 2685 
C 3027 2634 3123 2557 3226 2493 
L 3360 2847 
C 3226 2921 3091 2994 2944 3037 
C 2643 3136 2144 3136 1869 3039 
C 1203 2788 704 2118 602 1415 
C 531 951 653 494 960 219 
C 1485 -243 2291 -12 2746 276 
C 2784 302 2842 328 2867 366 
C 2886 398 2906 642 2918 725 
z
" transform="scale(0.015625)"/>
      <path id="HFBR17-1" d="M 230 0 
L 4141 0 
C 4102 147 4032 288 3981 429 
L 2458 4397 
C 2451 4422 2445 4454 2419 4467 
C 2394 4493 2330 4480 2298 4480 
L 2086 4480 
C 1997 4480 1939 4499 1920 4410 
C 1485 3328 1088 2208 659 1120 
L 390 422 
C 333 282 269 141 230 0 
z
M 2157 4032 
C 2266 3635 2426 3290 2554 2912 
L 3501 422 
L 800 422 
C 1254 1619 1722 2816 2157 4032 
z
" transform="scale(0.015625)"/>
      <path id="HFBR17-2d" d="M 26 1665 
L 26 1344 
L 1811 1344 
L 1811 1665 
L 26 1665 
z
" transform="scale(0.015625)"/>
      <path id="HFBR17-76" d="M 45 3040 
C 77 2912 269 2405 282 2373 
C 346 2194 1107 39 1126 19 
C 1146 -13 1203 0 1235 0 
L 1459 0 
C 1542 0 1594 -19 1613 58 
C 1818 597 2566 2733 2675 3040 
L 2278 3040 
C 1971 2175 1658 1308 1370 423 
L 704 2317 
C 608 2547 550 2809 442 3021 
C 326 3040 179 3040 45 3040 
z
" transform="scale(0.015625)"/>
      <path id="HFBR17-73" d="M 198 617 
C 186 527 166 444 154 354 
C 141 283 122 251 186 219 
C 448 65 762 -19 1133 -51 
C 1549 -90 2074 7 2278 418 
C 2336 534 2368 662 2374 791 
C 2400 1253 2035 1549 1722 1658 
C 1370 1793 890 1748 646 2018 
C 518 2166 512 2385 634 2539 
C 890 2899 1715 2744 2042 2584 
C 2093 2558 2138 2526 2195 2513 
L 2253 2860 
C 1952 2995 1690 3072 1274 3072 
C 915 3072 589 2989 384 2783 
C 179 2571 109 2217 230 1948 
C 346 1690 589 1523 851 1440 
C 1229 1305 1658 1369 1907 1061 
C 2048 881 2022 611 1862 450 
C 1555 167 902 270 544 424 
C 422 476 314 553 198 617 
z
" transform="scale(0.015625)"/>
      <path id="HFBR17-66" d="M 678 3009 
L 128 3009 
L 128 2688 
L 678 2688 
L 678 -32 
L 1082 -32 
L 1082 2688 
L 1875 2688 
L 1875 3009 
L 1075 3009 
L 1075 3570 
C 1075 3660 1056 3771 1094 3861 
C 1229 4144 1683 4196 2054 4132 
C 2131 4119 2202 4093 2278 4080 
L 2278 4441 
C 1843 4512 1363 4512 1005 4219 
C 947 4168 896 4118 851 4053 
C 717 3888 678 3704 678 3417 
L 678 3009 
z
" transform="scale(0.015625)"/>
      <path id="HFBR17-47" d="M 3974 2132 
L 2560 2132 
L 2560 1792 
L 3565 1792 
L 3565 614 
C 3565 582 3571 537 3552 511 
C 3533 473 3450 460 3411 447 
C 3117 364 2682 280 2336 344 
C 1869 421 1472 730 1229 1134 
C 742 1929 832 3044 1498 3710 
C 1696 3910 1939 4064 2240 4134 
C 2656 4237 3142 4134 3450 3987 
C 3590 3922 3712 3832 3840 3749 
L 3917 4198 
C 3744 4275 3578 4352 3392 4409 
C 3110 4486 2822 4512 2534 4512 
C 1773 4512 1184 4039 870 3586 
C 403 2884 346 1940 723 1186 
C 934 746 1280 421 1715 197 
C 2253 -64 2886 -64 3450 98 
C 3526 117 3949 251 3968 311 
C 3974 331 3974 358 3974 378 
L 3974 2132 
z
" transform="scale(0.015625)"/>
      <path id="HFBR17-6f" d="M 685 2693 
C 115 2127 51 1144 544 508 
C 614 411 698 328 794 257 
C 1030 64 1376 -77 1779 -32 
C 2419 45 2861 566 2995 1112 
C 3174 1877 2797 2731 2093 3001 
C 1542 3226 992 3001 685 2693 
z
M 2285 2519 
C 2592 2242 2650 1799 2624 1407 
C 2605 1105 2522 790 2310 565 
C 1965 192 1325 192 954 552 
C 762 758 646 1053 627 1407 
C 595 1927 723 2480 1235 2686 
C 1613 2853 2048 2731 2285 2519 
z
" transform="scale(0.015625)"/>
      <path id="HFBR17-4c" d="M 512 4448 
L 512 0 
L 3168 0 
L 3168 341 
L 960 341 
L 960 4448 
L 512 4448 
z
" transform="scale(0.015625)"/>
      <path id="HFBR17-63" d="M 2714 720 
C 2592 630 2483 533 2349 456 
C 2048 296 1587 219 1242 379 
C 742 636 608 1260 678 1774 
C 691 1877 710 1979 742 2076 
C 883 2494 1235 2821 1811 2757 
C 2118 2731 2272 2680 2515 2545 
C 2560 2519 2598 2487 2650 2474 
C 2656 2551 2675 2635 2688 2712 
C 2707 2815 2707 2828 2611 2873 
C 2541 2905 2470 2943 2394 2969 
C 2099 3098 1613 3136 1280 3040 
C 826 2911 486 2519 339 2082 
C 269 1883 250 1671 250 1459 
C 256 784 717 122 1389 -13 
C 1760 -90 2189 19 2445 154 
C 2509 186 2701 302 2733 360 
C 2752 392 2714 720 2714 720 
z
" transform="scale(0.015625)"/>
      <path id="HFBR17-74" d="M 691 3872 
L 691 3009 
L 70 3009 
L 70 2688 
L 685 2688 
L 685 961 
C 685 677 666 335 851 97 
C 960 -45 1107 -83 1331 -64 
C 1517 -64 1702 -25 1875 42 
C 1933 68 2144 161 2170 207 
C 2182 233 2099 518 2099 518 
L 1946 401 
C 1747 278 1350 149 1184 382 
C 1037 582 1075 880 1075 1112 
L 1075 2688 
L 2067 2688 
L 2067 3009 
L 1075 3009 
L 1075 3872 
L 691 3872 
z
" transform="scale(0.015625)"/>
     </defs>
     <use xlink:href="#HFBRMI10-47" transform="scale(0.996264)"/>
     <use xlink:href="#HFBR17-2e" transform="translate(74.220133 0) scale(0.996264)"/>
     <use xlink:href="#HFBRMI10-73" transform="translate(144.124374 0) scale(0.996264)"/>
     <use xlink:href="#HFBRMI10-75" transform="translate(192.479997 0) scale(0.996264)"/>
     <use xlink:href="#HFBRMI10-6c" transform="translate(248.833476 0) scale(0.996264)"/>
     <use xlink:href="#HFBRMI10-66" transform="translate(280.835219 0) scale(0.996264)"/>
     <use xlink:href="#HFBRMI10-75" transform="translate(334.768377 0) scale(0.996264)"/>
     <use xlink:href="#HFBRMI10-72" transform="translate(391.121855 0) scale(0.996264)"/>
     <use xlink:href="#HFBRMI10-72" transform="translate(437.028471 0) scale(0.996264)"/>
     <use xlink:href="#HFBRMI10-65" transform="translate(482.935087 0) scale(0.996264)"/>
     <use xlink:href="#HFBRMI10-64" transform="translate(535.897793 0) scale(0.996264)"/>
     <use xlink:href="#HFBRMI10-75" transform="translate(596.956983 0) scale(0.996264)"/>
     <use xlink:href="#HFBRMI10-63" transform="translate(653.310462 0) scale(0.996264)"/>
     <use xlink:href="#HFBRMI10-65" transform="translate(708.639903 0) scale(0.996264)"/>
     <use xlink:href="#HFBRMI10-6e" transform="translate(761.602608 0) scale(0.996264)"/>
     <use xlink:href="#HFBRMI10-73" transform="translate(815.60314 0) scale(0.996264)"/>
     <use xlink:href="#HFBR17-1" transform="translate(895.423975 0) scale(0.996264)"/>
     <use xlink:href="#HFBR17-31" transform="translate(963.501737 0) scale(0.996264)"/>
     <use xlink:href="#HFBR17-36" transform="translate(1014.144954 0) scale(0.996264)"/>
     <use xlink:href="#HFBR17-32" transform="translate(1064.788172 0) scale(0.996264)"/>
     <use xlink:href="#HFBR17-30" transform="translate(1115.43139 0) scale(0.996264)"/>
     <use xlink:href="#HFBR17-2d" transform="translate(1166.074608 0) scale(0.996264)"/>
     <use xlink:href="#HFBR17-31" transform="translate(1199.283282 0) scale(0.996264)"/>
     <use xlink:href="#HFBR17-36" transform="translate(1249.926499 0) scale(0.996264)"/>
     <use xlink:href="#HFBR17-32" transform="translate(1300.569717 0) scale(0.996264)"/>
     <use xlink:href="#HFBR17-34" transform="translate(1351.212935 0) scale(0.996264)"/>
     <use xlink:href="#HFBR17-54" transform="translate(1433.321364 0) scale(0.996264)"/>
     <use xlink:href="#HFBR17-6e" transform="translate(1503.059541 0) scale(0.996264)"/>
     <use xlink:href="#HFBR17-37" transform="translate(1551.212038 0) scale(0.996264)"/>
     <use xlink:href="#HFBR17-3a" transform="translate(1601.855256 0) scale(0.996264)"/>
     <use xlink:href="#HFBR17-3a" transform="translate(1629.252379 0) scale(0.996264)"/>
     <use xlink:href="#HFBR17-76" transform="translate(1656.649503 0) scale(0.996264)"/>
     <use xlink:href="#HFBR17-73" transform="translate(1698.990541 0) scale(0.996264)"/>
     <use xlink:href="#HFBR17-66" transform="translate(1737.42957 0) scale(0.996264)"/>
     <use xlink:href="#HFBR17-47" transform="translate(1767.732514 0) scale(0.996264)"/>
     <use xlink:href="#HFBR17-46" transform="translate(1835.810276 0) scale(0.996264)"/>
     <use xlink:href="#HFBR17-50" transform="translate(1891.642334 0) scale(0.996264)"/>
     <use xlink:href="#HFBR17-30" transform="translate(1954.531241 0) scale(0.996264)"/>
     <use xlink:href="#HFBR17-6f" transform="translate(2036.63967 0) scale(0.996264)"/>
     <use xlink:href="#HFBR17-6e" transform="translate(2087.282888 0) scale(0.996264)"/>
     <use xlink:href="#HFBR17-4c" transform="translate(2166.900597 0) scale(0.996264)"/>
     <use xlink:href="#HFBR17-61" transform="translate(2219.826925 0) scale(0.996264)"/>
     <use xlink:href="#HFBR17-63" transform="translate(2266.319007 0) scale(0.996264)"/>
     <use xlink:href="#HFBR17-74" transform="translate(2311.150675 0) scale(0.996264)"/>
     <use xlink:href="#HFBR17-61" transform="translate(2347.265063 0) scale(0.996264)"/>
     <use xlink:href="#HFBR17-74" transform="translate(2393.757145 0) scale(0.996264)"/>
     <use xlink:href="#HFBR17-65" transform="translate(2429.871533 0) scale(0.996264)"/>
    </g>
   </g>
   <g id="line2d_11">
    <path d="M 78.951216 183.564453 
L 79.241347 183.671267 
L 80.982128 183.723874 
L 88.235385 183.77863 
L 94.23141 183.690634 
L 98.196524 183.559537 
L 106.997142 183.349087 
L 107.190562 183.143135 
L 107.964243 183.184518 
L 111.058966 183.206959 
L 116.861571 183.060293 
L 133.012156 182.135648 
L 144.907497 181.139216 
L 151.773913 180.32772 
L 157.189678 179.51665 
L 164.249515 178.201091 
L 174.694204 175.698139 
L 181.27049 173.82235 
L 182.334301 173.47137 
L 188.427037 171.474214 
L 191.81189 170.313728 
L 196.647395 168.555217 
L 197.904626 168.12182 
L 198.968437 167.624822 
L 210.283517 162.909052 
L 210.476937 162.838057 
L 221.308467 157.96505 
L 221.888728 157.664591 
L 222.662408 157.335424 
L 223.145959 157.079401 
L 223.726219 156.780055 
L 226.434102 155.448803 
L 227.014362 155.11205 
L 227.401203 154.943613 
L 227.594623 154.963636 
L 229.335405 154.136552 
L 229.915665 153.819777 
L 230.399216 153.623856 
L 231.172896 153.212949 
L 231.559737 153.025314 
L 232.043287 152.759647 
L 232.139997 152.855286 
L 232.526838 152.528718 
L 233.590648 152.174234 
L 234.75117 151.564054 
L 234.94459 151.585764 
L 235.23472 151.469732 
L 235.62156 151.290641 
L 236.298531 150.832026 
L 237.168922 150.402823 
L 238.039313 149.933026 
L 238.426153 149.864719 
L 238.619573 149.801982 
L 238.812993 149.891832 
L 240.166935 149.436436 
L 241.327456 149.130298 
L 242.681397 148.502893 
L 243.938628 148.193257 
L 244.132048 148.1139 
L 244.325468 148.140149 
L 245.485989 147.58343 
L 245.67941 147.540192 
L 246.839931 147.075771 
L 247.613611 146.937038 
L 248.097162 146.897413 
L 248.580712 146.77836 
L 250.224784 146.267651 
L 250.708334 146.114024 
L 253.029376 145.579434 
L 253.706347 145.421001 
L 254.576738 145.268314 
L 255.253708 145.061968 
L 255.737259 144.898322 
L 256.124099 144.877051 
L 256.220809 145.009828 
L 256.51094 144.763082 
L 257.574751 144.502667 
L 257.864881 144.454577 
L 258.251721 144.400154 
L 258.831982 144.344705 
L 259.218814 144.206133 
L 259.508944 144.181477 
L 260.669465 143.99225 
L 260.959596 143.929803 
L 262.216827 143.891107 
L 262.410247 144.030012 
L 263.860898 143.732401 
L 264.151029 143.588062 
L 264.441159 143.452526 
L 264.827999 143.1788 
L 265.118129 142.788154 
L 265.40826 142.678 
L 265.69839 142.579065 
L 265.89181 142.497388 
L 266.08523 142.898774 
L 266.278651 142.924808 
L 266.568781 142.887805 
L 267.826012 142.318841 
L 268.116142 142.674411 
L 269.470083 142.517295 
L 269.663504 142.259228 
L 270.050344 142.082797 
L 270.533894 142.016291 
L 270.727315 141.947672 
L 271.017445 140.889353 
L 271.307575 140.580093 
L 272.081256 140.715164 
L 272.564806 140.868695 
L 273.822037 140.889805 
L 274.305588 140.736337 
L 275.466109 140.641674 
L 275.949659 140.48133 
L 276.14308 140.640967 
L 276.72334 140.47798 
L 277.01347 140.258731 
L 277.303601 140.212151 
L 277.690441 140.109446 
L 277.883861 140.020119 
L 278.173991 139.93207 
L 278.270702 139.864707 
L 278.464122 139.574495 
L 278.947672 139.427949 
L 279.527933 139.150451 
L 279.721353 139.110152 
L 280.011483 138.997395 
L 280.495034 138.797001 
L 281.558845 138.45305 
L 282.139105 138.197568 
L 282.622656 138.078366 
L 283.202916 138.016925 
L 283.976597 137.801687 
L 284.460147 137.672548 
L 285.427248 137.398143 
L 286.491059 136.898899 
L 286.684479 136.988271 
L 287.55487 136.466863 
L 287.74829 136.313844 
L 288.135131 136.492512 
L 288.328551 136.22441 
L 288.425261 136.241658 
L 288.618681 136.402068 
L 290.166042 135.96965 
L 291.423274 135.492044 
L 291.713404 134.897023 
L 291.810114 134.87413 
L 292.003534 135.158925 
L 292.390375 134.996576 
L 292.777215 134.802463 
L 293.357475 134.478785 
L 293.937736 134.344612 
L 294.131156 134.409163 
L 295.194967 134.137217 
L 295.775228 134.049262 
L 297.225879 133.54726 
L 297.419299 133.587481 
L 298.19298 133.096376 
L 298.3864 132.955513 
L 298.67653 132.755048 
L 298.86995 133.031813 
L 299.546921 133.059962 
L 300.030472 132.912268 
L 300.223892 132.927043 
L 300.417312 132.731258 
L 300.610732 132.796554 
L 300.997572 132.879577 
L 301.867963 132.88069 
L 302.931774 133.138346 
L 303.318615 133.100353 
L 303.608745 133.01656 
L 303.898875 132.969712 
L 304.092295 132.788623 
L 304.479136 132.61082 
L 305.252816 132.047019 
L 305.446237 132.593059 
L 305.639657 132.615463 
L 305.929787 132.523631 
L 306.413337 132.438024 
L 307.187018 132.192602 
L 307.380438 131.934202 
L 307.477148 131.553558 
L 307.767279 132.304921 
L 308.444249 132.712304 
L 309.31464 132.768143 
L 309.894901 132.419285 
L 310.088321 132.194496 
L 310.185031 132.370409 
L 310.378451 132.868633 
L 310.668581 132.833547 
L 311.442262 132.590557 
L 311.925812 132.390182 
L 312.215943 132.117655 
L 312.409363 132.851531 
L 312.796203 133.047288 
L 313.279754 133.269375 
L 313.473174 133.578521 
L 313.956724 133.794767 
L 314.246855 133.843147 
L 314.536985 134.003632 
L 314.827115 134.064277 
L 315.310666 134.159039 
L 315.504086 134.076946 
L 315.697506 134.330848 
L 316.858027 134.613515 
L 317.148157 134.278225 
L 317.341577 134.226316 
L 318.115258 133.610171 
L 318.405388 133.573768 
L 321.209981 130.601222 
L 322.273792 129.07807 
L 324.401414 126.884903 
L 324.691544 126.299042 
L 325.465225 125.170884 
L 326.045485 124.291387 
L 326.142196 124.522122 
L 326.238906 124.476174 
L 326.529036 124.331322 
L 328.269818 122.559285 
L 328.946788 121.462644 
L 329.140208 121.780937 
L 331.751381 119.969615 
L 331.944801 119.656955 
L 333.105322 118.902284 
L 333.685583 118.185993 
L 334.072423 117.937849 
L 334.749393 117.27663 
L 335.039524 116.88971 
L 335.813204 116.626437 
L 336.296755 116.409486 
L 337.070436 116.089441 
L 337.747406 115.592099 
L 338.230957 115.198541 
L 338.327667 115.3334 
L 338.617797 115.071671 
L 338.907927 114.555606 
L 339.198058 114.441776 
L 341.035549 112.598903 
L 341.61581 111.780251 
L 341.90594 111.27666 
L 342.09936 111.349812 
L 342.19607 111.344084 
L 342.29278 111.654245 
L 342.389491 111.611464 
L 342.679621 111.418984 
L 342.969751 110.679671 
L 343.453301 109.984677 
L 343.743432 109.429717 
L 343.840142 109.547836 
L 344.033562 109.534548 
L 344.323692 109.38525 
L 344.710533 109.163207 
L 345.194083 108.570029 
L 345.774344 108.183806 
L 345.967764 108.257186 
L 346.257894 108.030603 
L 346.644734 107.67885 
L 347.128285 107.052405 
L 347.611835 106.07242 
L 347.998676 105.667845 
L 348.288806 105.920756 
L 348.385516 105.861245 
L 348.578936 105.661578 
L 348.869066 105.674863 
L 349.255907 105.657438 
L 349.836167 105.19412 
L 350.126298 104.647835 
L 350.319718 104.597642 
L 350.513138 104.30595 
L 351.286819 103.63893 
L 351.480239 103.672509 
L 352.73747 103.045891 
L 353.897991 101.823902 
L 353.994701 101.745661 
L 354.091411 101.407647 
L 354.284831 99.767084 
L 354.865092 98.612552 
L 355.638773 97.906645 
L 355.832193 98.163673 
L 356.025613 98.201429 
L 356.219033 98.339103 
L 356.605874 98.078408 
L 356.799294 97.995308 
L 357.669685 97.205008 
L 357.766395 97.045483 
L 357.959815 97.330566 
L 358.346655 96.831803 
L 358.540075 97.0988 
L 358.830206 96.858196 
L 359.603886 95.590172 
L 359.700596 95.67361 
L 359.894017 96.155219 
L 360.184147 95.871457 
L 360.570987 95.106521 
L 360.861117 95.193251 
L 360.957828 95.447525 
L 361.054538 95.328658 
L 361.344668 94.63984 
L 361.538088 95.156346 
L 361.924928 95.003282 
L 362.311769 94.354881 
L 362.601899 93.888329 
L 363.08545 93.270802 
L 363.27887 93.343218 
L 363.95584 92.65975 
L 364.149261 92.683396 
L 365.309782 92.125815 
L 365.503202 91.859991 
L 365.696622 91.522239 
L 365.986752 92.121051 
L 366.180172 92.143931 
L 366.373593 92.190426 
L 367.050563 92.046054 
L 367.340693 91.456343 
L 367.534114 91.189934 
L 367.727534 91.236104 
L 367.920954 91.154263 
L 368.404504 90.934002 
L 368.694635 90.879009 
L 368.888055 90.861401 
L 369.468315 90.086639 
L 370.048576 89.674769 
L 370.241996 89.869613 
L 371.112387 89.910999 
L 371.305807 89.79861 
L 371.499227 89.766396 
L 371.789358 89.609366 
L 372.563038 88.794424 
L 372.659748 88.821779 
L 372.853169 88.645028 
L 373.143299 88.544591 
L 373.336719 88.326051 
L 373.626849 88.082671 
L 374.01369 87.568356 
L 374.20711 87.782434 
L 374.88408 87.362793 
L 375.464341 87.511074 
L 375.657761 87.402231 
L 376.528152 86.351078 
L 376.818282 86.58564 
L 377.108412 86.460556 
L 377.785383 85.607292 
L 377.882093 85.572045 
L 378.075513 85.706056 
L 378.268934 85.686772 
L 378.462354 85.621815 
L 378.559064 85.562206 
L 378.752484 85.66146 
L 379.236034 85.592962 
L 379.526165 85.938618 
L 379.816295 85.682598 
L 380.106425 85.259159 
L 380.493266 85.748314 
L 380.686686 85.644545 
L 380.976816 85.498124 
L 381.266946 85.483456 
L 381.750497 84.831255 
L 382.427467 83.768078 
L 382.620888 84.055126 
L 382.814308 83.940141 
L 383.104438 84.54019 
L 383.297858 84.477146 
L 383.394568 84.539953 
L 383.587988 84.181491 
L 383.684698 84.275227 
L 383.781409 84.319623 
L 383.878119 84.186298 
L 384.071539 84.623313 
L 384.168249 84.546978 
L 384.361669 84.7626 
L 384.94193 84.553491 
L 385.03864 84.599421 
L 385.32877 84.431389 
L 385.71561 84.606868 
L 385.909031 84.450774 
L 386.199161 84.459756 
L 386.876131 83.726899 
L 387.069552 83.917754 
L 387.262972 83.915039 
L 387.746522 83.786461 
L 387.843232 83.879702 
L 388.036652 83.707322 
L 388.326783 83.833404 
L 388.616913 83.780816 
L 388.810333 83.799899 
L 389.293884 83.61186 
L 389.487304 83.58259 
L 389.874144 83.550577 
L 390.357695 83.659322 
L 390.744535 83.706318 
L 391.228085 83.423046 
L 391.324796 83.265285 
L 391.518216 83.660103 
L 391.614926 83.515283 
L 392.291896 82.231448 
L 392.485317 82.169499 
L 392.582027 82.460864 
L 392.678737 82.410744 
L 392.968867 82.720443 
L 393.355707 82.47669 
L 393.452417 82.554385 
L 393.645838 82.50867 
L 393.839258 82.441993 
L 394.129388 82.027275 
L 394.999779 81.488694 
L 395.096489 81.497918 
L 395.386619 81.154474 
L 395.580039 81.211258 
L 395.96688 81.235651 
L 396.1603 81.165016 
L 396.35372 81.148215 
L 396.74056 80.162988 
L 397.707661 78.789912 
L 397.901082 78.579865 
L 398.094502 78.300432 
L 398.384632 77.087385 
L 398.578052 77.059614 
L 398.771472 77.384786 
L 399.255023 77.291245 
L 399.641863 76.686422 
L 399.835283 76.756109 
L 400.512254 76.087477 
L 401.092514 74.958715 
L 401.382645 74.462508 
L 401.576065 74.596695 
L 401.866195 73.943342 
L 401.962905 74.056165 
L 402.156325 73.997564 
L 402.253036 73.56183 
L 402.349746 73.59404 
L 402.639876 73.599527 
L 402.833296 73.60622 
L 403.026716 73.587684 
L 403.606977 73.160645 
L 403.993817 72.780644 
L 404.864208 71.749111 
L 405.154338 71.094511 
L 405.347758 71.295126 
L 405.734599 70.367672 
L 406.508279 70.508294 
L 407.28196 68.606939 
L 407.57209 68.372187 
L 407.765511 68.226733 
L 407.862221 68.42874 
L 408.345771 67.478582 
L 408.442481 67.337719 
L 408.635901 67.365129 
L 408.732612 67.267733 
L 408.829322 67.338378 
L 409.119452 67.000281 
L 409.409582 66.490762 
L 409.506292 66.406281 
L 409.699712 65.963614 
L 409.989843 65.560227 
L 410.570103 64.36948 
L 410.763523 64.480203 
L 411.053654 63.807258 
L 411.247074 63.693986 
L 411.440494 63.836781 
L 411.633914 63.341776 
L 411.730624 63.134764 
L 411.924044 63.505361 
L 412.601015 64.053451 
L 412.697725 63.910287 
L 412.891145 63.296732 
L 413.277986 63.122031 
L 413.568116 63.441042 
L 413.954956 63.098921 
L 414.245087 63.016531 
L 414.438507 63.132659 
L 415.212187 62.780349 
L 415.405608 61.958216 
L 415.502318 62.250766 
L 415.792448 62.051758 
L 416.082578 61.392781 
L 416.179288 61.399115 
L 416.372709 61.722566 
L 416.759549 61.393915 
L 417.049679 61.670163 
L 417.92007 61.146806 
L 418.11349 60.712149 
L 418.30691 60.678349 
L 418.40362 60.71206 
L 418.790461 59.659579 
L 418.983881 59.74169 
L 419.080591 59.56722 
L 419.274011 59.672062 
L 419.660852 59.321122 
L 419.950982 58.567693 
L 420.337822 57.566719 
L 420.531242 58.242717 
L 420.821373 58.065269 
L 421.014793 57.780417 
L 421.111503 57.460613 
L 421.304923 57.648947 
L 421.498343 57.568905 
L 421.691763 57.405309 
L 421.885184 57.551542 
L 422.175314 57.501017 
L 422.465444 57.380691 
L 422.562154 57.387855 
L 422.755574 57.20086 
L 423.239125 57.124581 
L 423.432545 56.860778 
L 423.819385 57.162394 
L 424.206226 56.662987 
L 424.399646 57.116525 
L 424.496356 57.065875 
L 424.979906 57.390259 
L 425.173327 57.420928 
L 425.270037 57.338389 
L 425.463457 56.733805 
L 425.656877 56.858449 
L 425.850297 56.870186 
L 426.043717 56.745687 
L 426.527268 56.694163 
L 426.623978 56.602803 
L 426.914108 55.536191 
L 427.591079 54.23847 
L 427.687789 53.691276 
L 428.074629 54.189746 
L 428.55818 54.35217 
L 428.65489 53.841117 
L 428.84831 50.711585 
L 429.428571 50.443707 
L 429.912121 50.883393 
L 430.105541 50.797447 
L 430.782512 51.260988 
L 431.072642 51.393473 
L 431.266062 51.422209 
L 431.459482 51.083603 
L 431.556193 51.138218 
L 431.846323 50.963088 
L 432.039743 51.058487 
L 432.136453 50.982789 
L 432.329873 51.244223 
L 432.523293 50.800174 
L 432.620003 50.749418 
L 432.813424 50.936656 
L 433.200264 51.29163 
L 433.393684 50.321161 
L 433.683814 50.302381 
L 434.042125 50.676094 
L 434.042125 50.676094 
" clip-path="url(#p4fce1062eb)" style="fill: none; stroke: #ff8c00; stroke-width: 2.25; stroke-linecap: round"/>
   </g>
  </g>
 </g>
 <defs>
  <clipPath id="p4fce1062eb">
   <rect x="61.196671" y="43.585985" width="390.6" height="146.88"/>
  </clipPath>
 </defs>
</svg>
