<?xml version="1.0" encoding="utf-8" standalone="no"?>
<!DOCTYPE svg PUBLIC "-//W3C//DTD SVG 1.1//EN"
  "http://www.w3.org/Graphics/SVG/1.1/DTD/svg11.dtd">
<svg xmlns:xlink="http://www.w3.org/1999/xlink" width="467.626738pt" height="238.871763pt" viewBox="0 0 467.626738 238.871763" xmlns="http://www.w3.org/2000/svg" version="1.1">
 <metadata>
  <rdf:RDF xmlns:dc="http://purl.org/dc/elements/1.1/" xmlns:cc="http://creativecommons.org/ns#" xmlns:rdf="http://www.w3.org/1999/02/22-rdf-syntax-ns#">
   <cc:Work>
    <dc:type rdf:resource="http://purl.org/dc/dcmitype/StillImage"/>
    <dc:date>2023-12-11T10:15:33.161510</dc:date>
    <dc:format>image/svg+xml</dc:format>
    <dc:creator>
     <cc:Agent>
      <dc:title>Matplotlib v3.7.0, https://matplotlib.org/</dc:title>
     </cc:Agent>
    </dc:creator>
   </cc:Work>
  </rdf:RDF>
 </metadata>
 <defs>
  <style type="text/css">*{stroke-linejoin: round; stroke-linecap: butt}</style>
 </defs>
 <g id="figure_1">
  <g id="patch_1">
   <path d="M 0 238.871763 
L 467.626738 238.871763 
L 467.626738 0 
L 0 0 
z
" style="fill: #222222"/>
  </g>
  <g id="axes_1">
   <g id="patch_2">
    <path d="M 69.826738 172.53327 
L 460.426738 172.53327 
L 460.426738 25.65327 
L 69.826738 25.65327 
z
" style="fill: #222222"/>
   </g>
   <g id="matplotlib.axis_1">
    <g id="xtick_1">
     <g id="line2d_1">
      <defs>
       <path id="me3ee1eea04" d="M 0 0 
L 0 9 
" style="stroke: #ffffff; stroke-width: 1.875"/>
      </defs>
      <g>
       <use xlink:href="#me3ee1eea04" x="87.581283" y="172.53327" style="fill: #ffffff; stroke: #ffffff; stroke-width: 1.875"/>
      </g>
     </g>
     <g id="text_1">
      <!-- $\mathdefault{0}$ -->
      <g style="fill: #ffffff" transform="translate(78.737563 199.234434) rotate(-30) scale(0.165 -0.165)">
       <defs>
        <path id="HFBR17-30" d="M 947 4087 
C 762 3959 634 3785 538 3586 
C 307 3136 282 2609 282 2037 
C 282 1317 410 656 768 276 
C 1107 -77 1645 -167 2099 19 
C 2381 129 2586 366 2714 623 
C 2944 1080 2970 1626 2970 2191 
C 2970 2371 2963 2551 2944 2731 
C 2899 3162 2752 3637 2515 3901 
C 2125 4332 1427 4428 947 4087 
z
M 2234 3721 
C 2534 3400 2560 2783 2560 2198 
L 2560 1851 
C 2560 1555 2509 1170 2445 951 
C 2355 649 2208 431 1914 296 
C 1555 167 1184 289 979 572 
C 704 938 691 1587 691 2159 
C 691 2699 698 3297 960 3650 
C 1248 4036 1869 4100 2234 3721 
z
" transform="scale(0.015625)"/>
       </defs>
       <use xlink:href="#HFBR17-30" transform="scale(0.996264)"/>
      </g>
     </g>
    </g>
    <g id="xtick_2">
     <g id="line2d_2">
      <g>
       <use xlink:href="#me3ee1eea04" x="144.945545" y="172.53327" style="fill: #ffffff; stroke: #ffffff; stroke-width: 1.875"/>
      </g>
     </g>
     <g id="text_2">
      <!-- $\mathdefault{20}$ -->
      <g style="fill: #ffffff" transform="translate(128.627968 203.549467) rotate(-30) scale(0.165 -0.165)">
       <defs>
        <path id="HFBR17-32" d="M 467 2942 
C 557 3302 710 3711 1075 3872 
C 1229 3936 1395 3949 1562 3936 
C 1875 3910 2182 3782 2374 3526 
C 2515 3333 2566 3096 2541 2866 
C 2464 2198 1811 1718 1389 1359 
C 1146 1154 454 500 454 500 
L 346 397 
C 288 340 282 340 282 224 
L 282 0 
L 2970 0 
L 2970 360 
L 653 360 
C 858 559 1709 1313 1824 1403 
C 2195 1706 2611 2008 2835 2446 
C 3085 2948 2976 3580 2554 3953 
C 2298 4179 1946 4288 1606 4288 
C 1293 4288 973 4224 723 4026 
C 531 3865 371 3628 282 3384 
C 262 3346 230 3282 237 3237 
C 243 3199 282 3167 301 3141 
C 352 3077 403 3000 467 2942 
z
" transform="scale(0.015625)"/>
       </defs>
       <use xlink:href="#HFBR17-32" transform="scale(0.996264)"/>
       <use xlink:href="#HFBR17-30" transform="translate(50.643218 0) scale(0.996264)"/>
      </g>
     </g>
    </g>
    <g id="xtick_3">
     <g id="line2d_3">
      <g>
       <use xlink:href="#me3ee1eea04" x="202.309807" y="172.53327" style="fill: #ffffff; stroke: #ffffff; stroke-width: 1.875"/>
      </g>
     </g>
     <g id="text_3">
      <!-- $\mathdefault{40}$ -->
      <g style="fill: #ffffff" transform="translate(185.99223 203.549467) rotate(-30) scale(0.165 -0.165)">
       <defs>
        <path id="HFBR17-34" d="M 134 1152 
L 1984 1152 
L 1984 0 
L 2387 0 
L 2387 1152 
L 3117 1152 
L 3117 1493 
L 2387 1493 
L 2387 4254 
L 2042 4254 
C 1926 4254 1894 4261 1843 4164 
C 1587 3745 237 1649 192 1591 
C 141 1500 134 1507 134 1372 
L 134 1152 
z
M 2003 3896 
L 2003 1493 
L 550 1493 
C 595 1583 659 1666 717 1756 
C 1037 2251 1798 3427 1958 3794 
C 1978 3826 1984 3864 2003 3896 
z
" transform="scale(0.015625)"/>
       </defs>
       <use xlink:href="#HFBR17-34" transform="scale(0.996264)"/>
       <use xlink:href="#HFBR17-30" transform="translate(50.643218 0) scale(0.996264)"/>
      </g>
     </g>
    </g>
    <g id="xtick_4">
     <g id="line2d_4">
      <g>
       <use xlink:href="#me3ee1eea04" x="259.67407" y="172.53327" style="fill: #ffffff; stroke: #ffffff; stroke-width: 1.875"/>
      </g>
     </g>
     <g id="text_4">
      <!-- $\mathdefault{60}$ -->
      <g style="fill: #ffffff" transform="translate(243.356492 203.549467) rotate(-30) scale(0.165 -0.165)">
       <defs>
        <path id="HFBR17-36" d="M 723 2088 
L 717 2088 
C 717 2673 819 3355 1318 3728 
C 1594 3928 1965 4030 2445 3915 
C 2547 3889 2643 3850 2739 3825 
L 2739 4050 
C 2739 4075 2746 4120 2726 4146 
C 2682 4204 2323 4262 2310 4262 
C 1754 4326 1389 4204 1050 3915 
C 640 3561 403 3041 326 2514 
C 256 2090 314 1408 397 1074 
C 531 579 787 142 1261 -25 
C 1542 -128 1888 -128 2157 1 
C 2374 105 2554 286 2694 480 
C 2918 790 2976 1166 2950 1547 
C 2938 1735 2912 1923 2835 2097 
C 2714 2376 2509 2667 2246 2796 
C 2125 2848 1997 2848 1869 2848 
C 1530 2848 1210 2700 973 2455 
C 870 2352 768 2222 723 2088 
z
M 1562 2529 
C 1805 2548 2061 2510 2246 2336 
C 2490 2105 2534 1777 2534 1460 
C 2534 1246 2541 1025 2477 823 
C 2438 719 2387 629 2330 544 
C 2189 356 2010 264 1715 225 
C 1427 225 1139 340 973 584 
C 870 725 819 899 787 1065 
C 749 1238 723 1417 736 1591 
C 768 2047 1088 2465 1562 2529 
z
" transform="scale(0.015625)"/>
       </defs>
       <use xlink:href="#HFBR17-36" transform="scale(0.996264)"/>
       <use xlink:href="#HFBR17-30" transform="translate(50.643218 0) scale(0.996264)"/>
      </g>
     </g>
    </g>
    <g id="xtick_5">
     <g id="line2d_5">
      <g>
       <use xlink:href="#me3ee1eea04" x="317.038332" y="172.53327" style="fill: #ffffff; stroke: #ffffff; stroke-width: 1.875"/>
      </g>
     </g>
     <g id="text_5">
      <!-- $\mathdefault{80}$ -->
      <g style="fill: #ffffff" transform="translate(300.720754 203.549467) rotate(-30) scale(0.165 -0.165)">
       <defs>
        <path id="HFBR17-38" d="M 1197 2304 
L 1197 2298 
C 800 2182 467 1964 307 1590 
C 141 1198 256 722 538 413 
C 838 91 1248 -64 1683 -64 
C 2323 -64 2938 410 3014 1071 
C 3027 1169 3021 1273 3008 1370 
C 2893 1870 2528 2168 2054 2298 
C 2106 2317 2163 2330 2214 2349 
C 2483 2459 2707 2619 2848 2876 
C 3059 3288 2854 3770 2509 4033 
C 2163 4297 1696 4367 1274 4277 
C 768 4168 288 3738 320 3185 
C 333 2992 416 2831 512 2716 
C 659 2536 947 2343 1197 2304 
z
M 1523 4000 
C 1805 4000 2157 3968 2362 3749 
C 2605 3486 2618 3010 2374 2740 
C 2221 2573 1997 2489 1773 2470 
C 1459 2444 1101 2496 877 2740 
C 627 3016 646 3518 915 3775 
C 1082 3929 1306 3980 1523 4000 
z
M 1517 2144 
C 1818 2144 2144 2073 2362 1852 
C 2445 1762 2509 1652 2547 1537 
C 2656 1200 2605 774 2355 515 
C 2182 341 1946 276 1709 257 
C 1421 257 1088 327 883 548 
C 602 857 544 1498 877 1860 
C 1043 2034 1280 2125 1517 2144 
z
" transform="scale(0.015625)"/>
       </defs>
       <use xlink:href="#HFBR17-38" transform="scale(0.996264)"/>
       <use xlink:href="#HFBR17-30" transform="translate(50.643218 0) scale(0.996264)"/>
      </g>
     </g>
    </g>
    <g id="xtick_6">
     <g id="line2d_6">
      <g>
       <use xlink:href="#me3ee1eea04" x="374.402594" y="172.53327" style="fill: #ffffff; stroke: #ffffff; stroke-width: 1.875"/>
      </g>
     </g>
     <g id="text_6">
      <!-- $\mathdefault{100}$ -->
      <g style="fill: #ffffff" transform="translate(350.611159 207.864501) rotate(-30) scale(0.165 -0.165)">
       <defs>
        <path id="HFBR17-31" d="M 621 3841 
L 621 3520 
C 973 3520 1216 3584 1498 3706 
L 1498 321 
L 659 321 
L 659 0 
L 2752 0 
L 2752 321 
L 1914 321 
L 1914 4288 
C 1760 4288 1786 4247 1664 4152 
C 1402 3950 1037 3841 621 3841 
z
" transform="scale(0.015625)"/>
       </defs>
       <use xlink:href="#HFBR17-31" transform="scale(0.996264)"/>
       <use xlink:href="#HFBR17-30" transform="translate(50.643218 0) scale(0.996264)"/>
       <use xlink:href="#HFBR17-30" transform="translate(101.286436 0) scale(0.996264)"/>
      </g>
     </g>
    </g>
    <g id="xtick_7">
     <g id="line2d_7">
      <g>
       <use xlink:href="#me3ee1eea04" x="431.766856" y="172.53327" style="fill: #ffffff; stroke: #ffffff; stroke-width: 1.875"/>
      </g>
     </g>
     <g id="text_7">
      <!-- $\mathdefault{120}$ -->
      <g style="fill: #ffffff" transform="translate(407.975421 207.864501) rotate(-30) scale(0.165 -0.165)">
       <use xlink:href="#HFBR17-31" transform="scale(0.996264)"/>
       <use xlink:href="#HFBR17-32" transform="translate(50.643218 0) scale(0.996264)"/>
       <use xlink:href="#HFBR17-30" transform="translate(101.286436 0) scale(0.996264)"/>
      </g>
     </g>
    </g>
    <g id="text_8">
     <!-- Time (h) -->
     <g style="fill: #ffffff" transform="translate(231.958775 227.686707) scale(0.18 -0.18)">
      <defs>
       <path id="HFBR17-54" d="M 192 4437 
L 192 4096 
L 2016 4096 
L 2016 0 
L 2464 0 
L 2464 4096 
L 4288 4096 
L 4288 4437 
L 192 4437 
z
" transform="scale(0.015625)"/>
       <path id="HFBR17-69" d="M 410 4480 
L 410 4075 
L 813 4075 
L 813 4480 
L 410 4480 
z
M 410 3033 
L 410 0 
L 813 0 
L 813 3033 
L 410 3033 
z
" transform="scale(0.015625)"/>
       <path id="HFBR17-6d" d="M 806 2391 
L 800 2391 
L 800 3033 
L 410 3033 
L 410 0 
L 819 0 
L 819 1411 
C 819 1725 800 2040 941 2328 
C 1062 2578 1274 2777 1651 2738 
C 1843 2738 2035 2687 2157 2525 
C 2272 2377 2278 2185 2278 2004 
L 2278 0 
L 2688 0 
L 2688 1411 
C 2688 1725 2669 2040 2810 2328 
C 2931 2578 3142 2777 3520 2738 
C 3712 2738 3904 2687 4026 2525 
C 4141 2377 4147 2185 4147 2004 
L 4147 0 
L 4557 0 
L 4557 1700 
C 4557 2008 4595 2354 4461 2636 
C 4326 2899 4109 3040 3757 3040 
C 3552 3059 3347 3028 3162 2934 
C 2938 2811 2771 2608 2669 2385 
C 2624 2597 2573 2741 2432 2880 
C 2285 3012 2086 3072 1894 3072 
C 1427 3110 1133 2916 934 2624 
C 883 2552 832 2475 806 2391 
z
" transform="scale(0.015625)"/>
       <path id="HFBR17-65" d="M 2675 700 
C 2528 591 2483 533 2298 436 
C 1907 224 1446 224 1114 459 
C 794 689 608 1065 608 1600 
L 2720 1600 
C 2720 2075 2611 2487 2342 2776 
C 2048 3065 1587 3155 1197 3033 
C 1050 2988 915 2911 794 2814 
C 390 2487 218 1966 224 1458 
C 237 790 691 122 1363 -20 
C 1715 -91 2086 -13 2400 147 
C 2458 179 2669 295 2694 353 
C 2714 385 2675 700 2675 700 
z
M 2381 1850 
L 640 1850 
C 717 2319 1101 2814 1619 2756 
C 2042 2718 2266 2416 2349 2037 
C 2362 1972 2368 1915 2381 1850 
z
" transform="scale(0.015625)"/>
       <path id="HFBR17-28" d="M 2189 -1408 
C 2138 -1350 2074 -1298 2016 -1247 
C 1965 -1202 1920 -1151 1875 -1099 
C 1235 -392 902 739 954 1941 
C 979 2596 1107 3264 1414 3856 
C 1555 4119 1798 4492 2016 4678 
C 2074 4730 2138 4781 2189 4839 
L 1978 4839 
C 1946 4839 1901 4845 1869 4833 
C 1792 4794 1600 4601 1574 4575 
C 960 3959 595 3027 544 1941 
C 512 1163 640 372 986 -322 
C 1139 -630 1344 -913 1587 -1157 
C 1651 -1221 1792 -1363 1869 -1401 
C 1901 -1414 1946 -1408 1978 -1408 
L 2189 -1408 
z
" transform="scale(0.015625)"/>
       <path id="HFBR17-68" d="M 410 4460 
L 410 0 
L 819 0 
L 819 1407 
C 819 1722 800 2044 941 2339 
C 1011 2487 1120 2616 1267 2693 
C 1389 2751 1517 2751 1651 2738 
C 1843 2738 2029 2687 2150 2525 
C 2266 2377 2272 2185 2272 2004 
L 2272 0 
L 2682 0 
L 2682 1742 
C 2682 2063 2714 2416 2554 2706 
C 2426 2924 2202 3027 1965 3059 
C 1837 3072 1709 3072 1581 3053 
C 1350 3009 1152 2882 998 2710 
C 928 2627 845 2526 819 2417 
L 813 2417 
L 813 4460 
L 410 4460 
z
" transform="scale(0.015625)"/>
       <path id="HFBR17-29" d="M 320 4839 
C 371 4781 435 4730 493 4678 
C 544 4633 589 4582 634 4530 
C 1190 3888 1510 3014 1555 1941 
C 1587 1144 1466 315 1101 -405 
C 979 -656 819 -894 634 -1099 
C 589 -1151 544 -1202 493 -1247 
C 435 -1298 371 -1350 320 -1408 
L 531 -1408 
C 563 -1408 608 -1414 640 -1401 
C 717 -1363 909 -1170 934 -1144 
C 1549 -527 1914 405 1965 1491 
C 1997 2268 1869 3059 1523 3753 
C 1370 4061 1165 4344 922 4588 
C 858 4653 717 4794 640 4833 
C 608 4845 563 4839 531 4839 
L 320 4839 
z
" transform="scale(0.015625)"/>
      </defs>
      <use xlink:href="#HFBR17-54" transform="scale(0.996264)"/>
      <use xlink:href="#HFBR17-69" transform="translate(69.738177 0) scale(0.996264)"/>
      <use xlink:href="#HFBR17-6d" transform="translate(88.833136 0) scale(0.996264)"/>
      <use xlink:href="#HFBR17-65" transform="translate(166.043262 0) scale(0.996264)"/>
      <use xlink:href="#HFBR17-28" transform="translate(242.340141 0) scale(0.996264)"/>
      <use xlink:href="#HFBR17-68" transform="translate(281.36035 0) scale(0.996264)"/>
      <use xlink:href="#HFBR17-29" transform="translate(329.512847 0) scale(0.996264)"/>
     </g>
    </g>
   </g>
   <g id="matplotlib.axis_2">
    <g id="ytick_1">
     <g id="line2d_8">
      <defs>
       <path id="m4616a29416" d="M 0 0 
L -9 0 
" style="stroke: #ffffff; stroke-width: 1.875"/>
      </defs>
      <g>
       <use xlink:href="#m4616a29416" x="69.826738" y="167.069794" style="fill: #ffffff; stroke: #ffffff; stroke-width: 1.875"/>
      </g>
     </g>
     <g id="text_9">
      <!-- $\mathdefault{0.00}$ -->
      <g style="fill: #ffffff" transform="translate(26.642062 172.777554) scale(0.165 -0.165)">
       <defs>
        <path id="HFBRMI10-3a" d="M 685 500 
L 685 0 
L 1184 0 
L 1184 500 
L 685 500 
z
" transform="scale(0.015625)"/>
       </defs>
       <use xlink:href="#HFBR17-30" transform="scale(0.996264)"/>
       <use xlink:href="#HFBRMI10-3a" transform="translate(50.643218 0) scale(0.996264)"/>
       <use xlink:href="#HFBR17-30" transform="translate(79.700665 0) scale(0.996264)"/>
       <use xlink:href="#HFBR17-30" transform="translate(130.343883 0) scale(0.996264)"/>
      </g>
     </g>
    </g>
    <g id="ytick_2">
     <g id="line2d_9">
      <g>
       <use xlink:href="#m4616a29416" x="69.826738" y="128.64941" style="fill: #ffffff; stroke: #ffffff; stroke-width: 1.875"/>
      </g>
     </g>
     <g id="text_10">
      <!-- $\mathdefault{0.01}$ -->
      <g style="fill: #ffffff" transform="translate(26.642062 134.35717) scale(0.165 -0.165)">
       <use xlink:href="#HFBR17-30" transform="scale(0.996264)"/>
       <use xlink:href="#HFBRMI10-3a" transform="translate(50.643218 0) scale(0.996264)"/>
       <use xlink:href="#HFBR17-30" transform="translate(79.700665 0) scale(0.996264)"/>
       <use xlink:href="#HFBR17-31" transform="translate(130.343883 0) scale(0.996264)"/>
      </g>
     </g>
    </g>
    <g id="ytick_3">
     <g id="line2d_10">
      <g>
       <use xlink:href="#m4616a29416" x="69.826738" y="90.229027" style="fill: #ffffff; stroke: #ffffff; stroke-width: 1.875"/>
      </g>
     </g>
     <g id="text_11">
      <!-- $\mathdefault{0.02}$ -->
      <g style="fill: #ffffff" transform="translate(26.642062 95.936787) scale(0.165 -0.165)">
       <use xlink:href="#HFBR17-30" transform="scale(0.996264)"/>
       <use xlink:href="#HFBRMI10-3a" transform="translate(50.643218 0) scale(0.996264)"/>
       <use xlink:href="#HFBR17-30" transform="translate(79.700665 0) scale(0.996264)"/>
       <use xlink:href="#HFBR17-32" transform="translate(130.343883 0) scale(0.996264)"/>
      </g>
     </g>
    </g>
    <g id="ytick_4">
     <g id="line2d_11">
      <g>
       <use xlink:href="#m4616a29416" x="69.826738" y="51.808644" style="fill: #ffffff; stroke: #ffffff; stroke-width: 1.875"/>
      </g>
     </g>
     <g id="text_12">
      <!-- $\mathdefault{0.03}$ -->
      <g style="fill: #ffffff" transform="translate(26.642062 57.516404) scale(0.165 -0.165)">
       <defs>
        <path id="HFBR17-33" d="M 518 3246 
C 570 3323 608 3407 666 3484 
C 800 3664 986 3805 1197 3889 
C 1530 4024 2016 4024 2278 3726 
C 2509 3461 2413 3047 2202 2802 
C 2010 2576 1760 2466 1389 2466 
C 1280 2466 1178 2434 1069 2434 
L 1069 2112 
L 1510 2112 
C 1882 2112 2125 2055 2330 1836 
C 2682 1463 2650 801 2259 461 
C 2061 294 1786 242 1530 261 
C 1030 300 589 564 294 975 
C 262 911 262 821 250 750 
C 230 647 230 647 294 564 
C 480 313 845 82 1133 -2 
C 1645 -156 2240 -86 2637 306 
C 2714 384 2784 467 2842 557 
C 3078 930 3085 1418 2822 1778 
C 2714 1926 2573 2042 2413 2132 
C 2304 2196 2176 2260 2048 2273 
C 2419 2447 2765 2741 2829 3223 
C 2886 3672 2624 3948 2355 4108 
C 1939 4352 1395 4352 966 4139 
C 768 4043 589 3902 454 3728 
C 429 3696 333 3587 333 3535 
C 333 3503 358 3471 378 3445 
L 518 3246 
z
" transform="scale(0.015625)"/>
       </defs>
       <use xlink:href="#HFBR17-30" transform="scale(0.996264)"/>
       <use xlink:href="#HFBRMI10-3a" transform="translate(50.643218 0) scale(0.996264)"/>
       <use xlink:href="#HFBR17-30" transform="translate(79.700665 0) scale(0.996264)"/>
       <use xlink:href="#HFBR17-33" transform="translate(130.343883 0) scale(0.996264)"/>
      </g>
     </g>
    </g>
    <g id="text_13">
     <!-- mA -->
     <g style="fill: #ffffff" transform="translate(19.65327 111.758224) rotate(-90) scale(0.18 -0.18)">
      <defs>
       <path id="HFBR17-41" d="M 134 6 
L 422 6 
L 538 19 
C 730 435 864 909 1037 1344 
C 1670 1344 2362 1344 2963 1344 
L 3014 1260 
C 3123 931 3251 614 3366 291 
C 3398 193 3430 97 3482 19 
C 3622 0 3789 0 3942 0 
C 3834 314 2349 4301 2304 4409 
C 2298 4435 2285 4473 2253 4480 
C 2214 4486 2176 4480 2138 4480 
L 1926 4480 
C 1830 4480 1792 4492 1766 4391 
C 1741 4326 134 6 134 6 
z
M 2010 4043 
C 2278 3246 2566 2462 2848 1678 
L 1165 1678 
L 1722 3207 
L 2010 4043 
z
" transform="scale(0.015625)"/>
      </defs>
      <use xlink:href="#HFBR17-6d" transform="scale(0.996264)"/>
      <use xlink:href="#HFBR17-41" transform="translate(77.210126 0) scale(0.996264)"/>
     </g>
    </g>
   </g>
   <g id="patch_3">
    <path d="M 69.826738 172.53327 
L 69.826738 25.65327 
" style="fill: none; stroke: #ffffff; stroke-width: 1.875; stroke-linejoin: miter; stroke-linecap: square"/>
   </g>
   <g id="patch_4">
    <path d="M 69.826738 172.53327 
L 460.426738 172.53327 
" style="fill: none; stroke: #ffffff; stroke-width: 1.875; stroke-linejoin: miter; stroke-linecap: square"/>
   </g>
   <g id="text_14">
    <!-- $S$. $oneidensis$ Tn7::mRFP on Lactate -->
    <g style="fill: #ffffff" transform="translate(119.621639 19.65327) scale(0.18 -0.18)">
     <defs>
      <path id="HFBRMI10-53" d="M 544 766 
L 371 316 
C 499 228 634 140 774 73 
C 1357 -192 2106 -192 2701 108 
C 3245 388 3738 973 3616 1615 
C 3533 1978 3328 2213 3008 2360 
C 2893 2411 2771 2436 2650 2468 
C 2490 2512 2003 2627 1894 2678 
C 1702 2767 1536 2926 1491 3136 
C 1421 3474 1677 3778 1946 3951 
C 2234 4135 2573 4192 2912 4192 
C 3226 4192 3443 4093 3661 3940 
C 3725 3894 3776 3834 3840 3787 
L 4013 4237 
C 3846 4327 3686 4416 3507 4468 
C 2854 4647 2131 4525 1658 4166 
C 1280 3883 966 3414 1082 2919 
C 1120 2759 1190 2636 1286 2527 
C 1581 2199 2029 2142 2432 2039 
C 2547 2007 2662 1981 2771 1936 
C 2970 1839 3136 1672 3194 1454 
C 3296 1030 2976 632 2630 426 
C 2112 125 1434 202 922 484 
C 832 535 749 593 666 657 
C 621 696 589 734 544 766 
z
" transform="scale(0.015625)"/>
      <path id="HFBR17-2e" d="M 634 501 
L 634 0 
L 1133 0 
L 1133 501 
L 634 501 
z
" transform="scale(0.015625)"/>
      <path id="HFBRMI10-6f" d="M 1901 3020 
C 1197 2789 678 2109 563 1391 
C 499 968 595 494 928 205 
C 1120 32 1402 -64 1754 -64 
C 2618 19 3322 782 3437 1629 
C 3494 2071 3386 2552 3034 2847 
C 2765 3058 2368 3174 1901 3020 
z
M 2835 2572 
C 3053 2367 3085 2040 3046 1757 
C 2976 1161 2682 533 2080 327 
C 1824 250 1555 250 1331 366 
C 998 545 928 956 966 1302 
C 1018 1796 1210 2315 1645 2591 
C 1965 2803 2541 2867 2835 2572 
z
" transform="scale(0.015625)"/>
      <path id="HFBRMI10-6e" d="M 1427 2398 
L 1421 2398 
L 1549 3027 
L 1158 3027 
L 518 0 
L 806 0 
C 864 0 941 -19 941 64 
C 954 109 960 154 973 199 
C 1056 572 1286 1742 1344 1935 
C 1466 2295 1734 2713 2163 2764 
C 2445 2764 2701 2693 2797 2502 
C 2893 2310 2816 2087 2778 1889 
L 2374 0 
L 2675 0 
C 2739 0 2797 -13 2797 71 
C 2835 199 2925 673 2925 673 
L 3213 2026 
C 3264 2270 3322 2565 3187 2796 
C 3072 2988 2854 3052 2643 3071 
C 2541 3084 2438 3084 2336 3065 
C 2054 3014 1792 2847 1606 2635 
C 1542 2565 1466 2488 1427 2398 
z
M 1414 2398 
C 1414 2398 1421 2398 1421 2398 
C 1421 2392 1414 2385 1414 2398 
z
" transform="scale(0.015625)"/>
      <path id="HFBRMI10-65" d="M 2874 702 
C 2778 638 2694 568 2592 510 
C 2291 330 1747 144 1376 356 
C 1235 433 1133 555 1056 702 
C 960 914 928 1119 960 1414 
L 998 1600 
L 3027 1600 
C 3053 1600 3091 1594 3110 1613 
C 3162 1651 3174 1998 3174 2004 
C 3187 2331 3142 2697 2861 2915 
C 2797 2959 2726 2998 2650 3030 
C 2227 3197 1747 3056 1395 2793 
C 954 2466 602 1869 563 1241 
C 538 754 717 375 1024 144 
C 1542 -234 2246 -3 2669 241 
C 2720 273 2797 311 2829 356 
C 2848 388 2874 702 2874 702 
z
M 2829 1850 
L 1082 1850 
C 1229 2216 1510 2581 1888 2722 
C 2176 2831 2560 2786 2733 2498 
C 2848 2305 2854 2062 2829 1850 
z
" transform="scale(0.015625)"/>
      <path id="HFBRMI10-69" d="M 1370 4032 
L 1773 4032 
L 1856 4436 
C 1722 4436 1574 4436 1459 4416 
C 1414 4303 1395 4165 1370 4032 
z
M 1152 3010 
L 512 -32 
C 646 -32 794 -32 909 -13 
L 934 57 
L 1555 3010 
L 1152 3010 
z
" transform="scale(0.015625)"/>
      <path id="HFBRMI10-64" d="M 3322 4448 
L 2938 2624 
L 2931 2624 
C 2880 2765 2714 2912 2586 2976 
C 2170 3201 1677 3028 1338 2739 
C 941 2407 685 1920 602 1415 
C 493 781 704 237 1107 32 
C 1472 -148 1920 6 2221 237 
C 2310 307 2394 391 2470 474 
L 2374 0 
C 2515 0 2656 0 2778 19 
L 2803 89 
C 2867 409 2938 723 3008 1043 
L 3725 4448 
L 3322 4448 
z
M 2810 2494 
C 2829 2456 2861 2405 2867 2353 
C 2874 2289 2842 2206 2829 2142 
C 2797 2001 2560 885 2560 885 
C 2534 731 2483 680 2381 577 
C 2221 410 2016 289 1786 269 
C 1542 250 1338 346 1210 455 
C 973 680 954 1020 998 1321 
C 1062 1802 1254 2296 1683 2565 
C 1984 2770 2579 2892 2810 2494 
z
M 2470 475 
C 2470 475 2477 475 2477 475 
C 2477 468 2470 462 2470 475 
z
" transform="scale(0.015625)"/>
      <path id="HFBRMI10-73" d="M 384 648 
L 237 276 
C 358 202 480 133 614 79 
C 992 -64 1523 -64 1914 83 
C 2214 197 2438 426 2554 725 
C 2643 953 2637 1201 2522 1379 
C 2349 1666 2054 1741 1670 1812 
C 1478 1849 1261 1882 1139 2054 
C 1005 2238 1107 2479 1261 2619 
C 1427 2765 1690 2816 1984 2816 
C 2150 2816 2317 2789 2477 2728 
C 2586 2680 2682 2621 2784 2566 
L 2918 2916 
C 2662 3032 2490 3104 2150 3104 
C 1728 3136 1286 3053 1011 2805 
C 710 2531 544 2008 858 1697 
C 1069 1461 1395 1429 1690 1366 
C 1901 1321 2138 1258 2214 1028 
C 2240 939 2227 843 2195 760 
C 2093 455 1786 302 1382 302 
C 1133 302 890 353 666 462 
C 563 513 474 584 384 648 
z
" transform="scale(0.015625)"/>
      <path id="HFBR17-6e" d="M 806 2386 
L 800 2386 
L 800 3033 
L 410 3033 
L 410 0 
L 819 0 
L 819 1404 
C 819 1718 800 2040 941 2334 
C 1011 2482 1120 2610 1267 2687 
C 1389 2745 1517 2745 1651 2732 
C 1843 2732 2029 2681 2150 2520 
C 2266 2372 2272 2180 2272 2000 
L 2272 0 
L 2682 0 
L 2682 1719 
C 2682 2040 2714 2392 2560 2681 
C 2438 2912 2202 3021 1952 3053 
C 1824 3072 1690 3072 1562 3047 
C 1229 2976 922 2707 806 2386 
z
" transform="scale(0.015625)"/>
      <path id="HFBR17-37" d="M 230 4200 
L 230 3840 
L 2739 3840 
L 2502 3608 
C 2291 3383 2099 3144 1926 2887 
C 1350 2017 1037 980 1037 -64 
L 1466 -64 
C 1466 877 1702 1817 2150 2648 
C 2368 3067 2598 3369 2899 3723 
C 2938 3762 2995 3807 3014 3858 
C 3027 3890 3021 3935 3021 3975 
L 3021 4200 
L 230 4200 
z
" transform="scale(0.015625)"/>
      <path id="HFBR17-3a" d="M 634 3008 
L 634 2507 
L 1133 2507 
L 1133 3008 
L 634 3008 
z
M 634 501 
L 634 0 
L 1133 0 
L 1133 501 
L 634 501 
z
" transform="scale(0.015625)"/>
      <path id="HFBR17-52" d="M 512 4437 
L 512 -32 
L 954 -32 
L 954 2048 
L 2048 2048 
C 2080 2048 2118 2055 2144 2036 
C 2189 2003 2214 1938 2246 1893 
L 3174 479 
L 3411 117 
C 3443 72 3475 -6 3520 -26 
C 3558 -45 3622 -32 3661 -32 
L 3962 -32 
L 2547 2093 
C 2880 2158 3213 2299 3456 2543 
C 3654 2741 3789 2992 3776 3275 
C 3757 3501 3667 3695 3552 3836 
C 3270 4172 2790 4398 2278 4437 
C 2080 4437 1888 4437 1690 4437 
L 512 4437 
z
M 954 2370 
L 954 4096 
L 1862 4096 
C 2426 4096 2957 4032 3226 3646 
C 3405 3381 3392 3021 3187 2770 
C 3117 2680 3027 2609 2931 2557 
C 2605 2370 2227 2370 1862 2370 
L 954 2370 
z
" transform="scale(0.015625)"/>
      <path id="HFBR17-46" d="M 512 4437 
L 512 0 
L 960 0 
L 960 2048 
L 3078 2048 
L 3078 2388 
L 960 2388 
L 960 4096 
L 3354 4096 
L 3354 4437 
L 512 4437 
z
" transform="scale(0.015625)"/>
      <path id="HFBR17-50" d="M 512 4480 
L 512 32 
L 960 32 
L 960 1920 
L 1862 1920 
C 2003 1920 2144 1920 2278 1920 
C 2752 1959 3149 2153 3418 2443 
C 3693 2746 3814 3210 3635 3603 
C 3430 4099 2944 4415 2323 4480 
C 2138 4480 1946 4480 1760 4480 
L 512 4480 
z
M 954 2254 
L 954 4139 
L 1830 4139 
C 2387 4139 2893 4075 3149 3690 
C 3322 3432 3347 3072 3206 2795 
C 3130 2646 3014 2531 2874 2447 
C 2560 2254 2195 2254 1843 2254 
L 954 2254 
z
" transform="scale(0.015625)"/>
      <path id="HFBR17-6f" d="M 685 2693 
C 115 2127 51 1144 544 508 
C 614 411 698 328 794 257 
C 1030 64 1376 -77 1779 -32 
C 2419 45 2861 566 2995 1112 
C 3174 1877 2797 2731 2093 3001 
C 1542 3226 992 3001 685 2693 
z
M 2285 2519 
C 2592 2242 2650 1799 2624 1407 
C 2605 1105 2522 790 2310 565 
C 1965 192 1325 192 954 552 
C 762 758 646 1053 627 1407 
C 595 1927 723 2480 1235 2686 
C 1613 2853 2048 2731 2285 2519 
z
" transform="scale(0.015625)"/>
      <path id="HFBR17-4c" d="M 512 4448 
L 512 0 
L 3168 0 
L 3168 341 
L 960 341 
L 960 4448 
L 512 4448 
z
" transform="scale(0.015625)"/>
      <path id="HFBR17-61" d="M 506 2497 
C 614 2551 704 2630 813 2683 
C 986 2762 1165 2816 1357 2816 
C 1446 2822 1549 2835 1638 2816 
C 1798 2790 1939 2693 2035 2557 
C 2131 2401 2170 2265 2170 2014 
L 2170 1729 
C 1862 1729 1555 1703 1261 1625 
C 890 1541 486 1352 352 1014 
C 218 690 358 261 646 66 
C 787 -32 954 -32 1120 -19 
C 1389 0 1658 65 1888 208 
C 1997 272 2106 357 2170 467 
L 2176 467 
L 2176 13 
L 2579 13 
L 2579 1721 
C 2579 1908 2598 2109 2560 2297 
C 2522 2555 2362 2769 2176 2918 
C 1958 3086 1709 3143 1376 3118 
C 1069 3118 832 3040 602 2929 
C 570 2916 506 2895 486 2857 
C 467 2830 480 2785 480 2752 
C 493 2667 499 2582 506 2497 
z
M 2170 1536 
L 2170 1048 
C 2170 900 2176 765 2093 637 
C 2022 534 1926 463 1824 412 
C 1459 225 902 283 742 592 
C 614 816 749 1080 934 1228 
C 1210 1440 1747 1536 2170 1536 
z
" transform="scale(0.015625)"/>
      <path id="HFBR17-63" d="M 2714 720 
C 2592 630 2483 533 2349 456 
C 2048 296 1587 219 1242 379 
C 742 636 608 1260 678 1774 
C 691 1877 710 1979 742 2076 
C 883 2494 1235 2821 1811 2757 
C 2118 2731 2272 2680 2515 2545 
C 2560 2519 2598 2487 2650 2474 
C 2656 2551 2675 2635 2688 2712 
C 2707 2815 2707 2828 2611 2873 
C 2541 2905 2470 2943 2394 2969 
C 2099 3098 1613 3136 1280 3040 
C 826 2911 486 2519 339 2082 
C 269 1883 250 1671 250 1459 
C 256 784 717 122 1389 -13 
C 1760 -90 2189 19 2445 154 
C 2509 186 2701 302 2733 360 
C 2752 392 2714 720 2714 720 
z
" transform="scale(0.015625)"/>
      <path id="HFBR17-74" d="M 691 3872 
L 691 3009 
L 70 3009 
L 70 2688 
L 685 2688 
L 685 961 
C 685 677 666 335 851 97 
C 960 -45 1107 -83 1331 -64 
C 1517 -64 1702 -25 1875 42 
C 1933 68 2144 161 2170 207 
C 2182 233 2099 518 2099 518 
L 1946 401 
C 1747 278 1350 149 1184 382 
C 1037 582 1075 880 1075 1112 
L 1075 2688 
L 2067 2688 
L 2067 3009 
L 1075 3009 
L 1075 3872 
L 691 3872 
z
" transform="scale(0.015625)"/>
     </defs>
     <use xlink:href="#HFBRMI10-53" transform="scale(0.996264)"/>
     <use xlink:href="#HFBR17-2e" transform="translate(67.00897 0) scale(0.996264)"/>
     <use xlink:href="#HFBRMI10-6f" transform="translate(136.913211 0) scale(0.996264)"/>
     <use xlink:href="#HFBRMI10-6e" transform="translate(196.216489 0) scale(0.996264)"/>
     <use xlink:href="#HFBRMI10-65" transform="translate(250.217021 0) scale(0.996264)"/>
     <use xlink:href="#HFBRMI10-69" transform="translate(303.179726 0) scale(0.996264)"/>
     <use xlink:href="#HFBRMI10-64" transform="translate(335.599048 0) scale(0.996264)"/>
     <use xlink:href="#HFBRMI10-65" transform="translate(396.658238 0) scale(0.996264)"/>
     <use xlink:href="#HFBRMI10-6e" transform="translate(449.620944 0) scale(0.996264)"/>
     <use xlink:href="#HFBRMI10-73" transform="translate(503.621475 0) scale(0.996264)"/>
     <use xlink:href="#HFBRMI10-69" transform="translate(551.977098 0) scale(0.996264)"/>
     <use xlink:href="#HFBRMI10-73" transform="translate(584.396419 0) scale(0.996264)"/>
     <use xlink:href="#HFBR17-54" transform="translate(664.217254 0) scale(0.996264)"/>
     <use xlink:href="#HFBR17-6e" transform="translate(733.955431 0) scale(0.996264)"/>
     <use xlink:href="#HFBR17-37" transform="translate(782.107928 0) scale(0.996264)"/>
     <use xlink:href="#HFBR17-3a" transform="translate(832.751146 0) scale(0.996264)"/>
     <use xlink:href="#HFBR17-3a" transform="translate(860.148269 0) scale(0.996264)"/>
     <use xlink:href="#HFBR17-6d" transform="translate(887.545393 0) scale(0.996264)"/>
     <use xlink:href="#HFBR17-52" transform="translate(964.755519 0) scale(0.996264)"/>
     <use xlink:href="#HFBR17-46" transform="translate(1028.474641 0) scale(0.996264)"/>
     <use xlink:href="#HFBR17-50" transform="translate(1084.306698 0) scale(0.996264)"/>
     <use xlink:href="#HFBR17-6f" transform="translate(1178.660817 0) scale(0.996264)"/>
     <use xlink:href="#HFBR17-6e" transform="translate(1229.304035 0) scale(0.996264)"/>
     <use xlink:href="#HFBR17-4c" transform="translate(1308.921744 0) scale(0.996264)"/>
     <use xlink:href="#HFBR17-61" transform="translate(1361.848072 0) scale(0.996264)"/>
     <use xlink:href="#HFBR17-63" transform="translate(1408.340154 0) scale(0.996264)"/>
     <use xlink:href="#HFBR17-74" transform="translate(1453.171821 0) scale(0.996264)"/>
     <use xlink:href="#HFBR17-61" transform="translate(1489.286209 0) scale(0.996264)"/>
     <use xlink:href="#HFBR17-74" transform="translate(1535.778292 0) scale(0.996264)"/>
     <use xlink:href="#HFBR17-65" transform="translate(1571.89268 0) scale(0.996264)"/>
    </g>
   </g>
   <g id="line2d_12">
    <path d="M 87.581283 149.74837 
L 87.772498 159.710749 
L 88.059319 160.794274 
L 88.537354 161.688923 
L 88.728569 161.231628 
L 90.162675 162.614494 
L 90.831925 163.087011 
L 92.074817 163.73729 
L 95.61228 164.767668 
L 96.28153 164.904471 
L 96.759565 165.013413 
L 99.24535 165.512555 
L 99.436564 165.555276 
L 100.583849 165.717142 
L 100.870671 165.797028 
L 101.253099 165.856906 
L 101.53992 163.963834 
L 102.495991 160.399044 
L 103.165241 158.485041 
L 103.834491 157.083117 
L 104.886169 155.581665 
L 105.268597 155.146762 
L 105.555419 154.897904 
L 107.085132 154.185354 
L 109.570917 153.77933 
L 110.335774 153.802885 
L 111.387452 153.855295 
L 112.343523 154.004548 
L 112.534737 153.99065 
L 114.829308 154.227964 
L 115.785379 153.56381 
L 116.0722 153.132585 
L 116.359021 151.97724 
L 116.454629 151.164557 
L 116.550236 148.844362 
L 116.645843 143.617121 
L 116.74145 143.834686 
L 117.028271 146.026917 
L 117.601914 148.342022 
L 119.03602 151.59271 
L 119.800877 152.568572 
L 121.234984 153.877432 
L 121.521805 154.009735 
L 122.286662 154.391063 
L 122.573483 154.539866 
L 122.955912 154.648177 
L 123.147126 154.69913 
L 123.33834 154.72106 
L 124.103197 154.919117 
L 124.294411 154.926137 
L 124.581232 155.066989 
L 125.059268 155.081965 
L 125.441696 155.093486 
L 126.206553 155.14028 
L 126.588982 155.070051 
L 126.875803 155.071274 
L 127.64066 154.925094 
L 128.023088 154.87545 
L 128.883552 154.747872 
L 129.839623 154.525054 
L 130.317659 154.448235 
L 130.986908 154.3143 
L 131.464944 154.237678 
L 131.942979 154.101305 
L 135.767263 152.985315 
L 137.392584 152.335246 
L 137.775013 152.20229 
L 138.539869 151.845893 
L 139.113512 151.504848 
L 139.304726 151.429984 
L 139.400333 151.11657 
L 139.591548 151.315995 
L 139.878369 151.175971 
L 140.356404 150.862355 
L 141.121261 150.416006 
L 141.599297 150.115244 
L 141.886118 149.970514 
L 142.650975 149.40243 
L 143.033403 149.183686 
L 143.893867 148.618975 
L 144.46751 148.161642 
L 146.188438 146.867493 
L 146.76208 146.400736 
L 148.483008 144.946196 
L 148.961044 144.494432 
L 149.343472 144.197495 
L 150.586365 143.072436 
L 151.638043 142.174181 
L 152.020471 141.813366 
L 153.167756 140.813087 
L 153.645792 140.368383 
L 162.728467 132.432969 
L 163.015288 132.216038 
L 163.302109 131.994857 
L 163.780145 131.587292 
L 165.214251 130.450723 
L 167.604429 128.659965 
L 174.583747 124.016572 
L 174.870569 123.849475 
L 175.252997 123.659668 
L 175.82664 123.367563 
L 176.113461 123.187016 
L 176.591497 122.913562 
L 177.069532 122.659061 
L 178.886067 121.779561 
L 179.746531 121.362209 
L 180.606995 121.00971 
L 181.658673 120.566279 
L 181.75428 121.700417 
L 181.849887 121.678571 
L 182.614744 120.710822 
L 183.857637 120.431736 
L 184.144458 120.434159 
L 184.622493 120.311172 
L 185.004922 120.246295 
L 185.865386 120.026147 
L 186.247814 119.993697 
L 192.65349 118.340222 
L 193.418347 118.065578 
L 193.991989 117.954073 
L 205.273628 114.121884 
L 205.751663 113.734961 
L 206.51652 113.424054 
L 210.340804 112.193373 
L 210.723233 112.000108 
L 214.547517 110.323705 
L 214.929945 110.134348 
L 215.790409 109.750051 
L 220.857586 107.451521 
L 221.718049 106.992946 
L 229.94026 103.199191 
L 230.035867 103.639875 
L 230.227082 103.156466 
L 231.94801 102.566473 
L 234.91183 101.198526 
L 235.485472 100.956567 
L 235.772294 100.771219 
L 235.963508 100.76634 
L 236.059115 100.84445 
L 236.250329 100.742031 
L 236.441543 100.75042 
L 240.074613 99.245942 
L 241.986755 98.244416 
L 242.273577 98.076189 
L 242.464791 98.005039 
L 243.038434 97.634095 
L 243.420862 97.495213 
L 244.281326 97.002445 
L 244.568147 96.878954 
L 244.950576 96.696661 
L 248.10561 94.973271 
L 248.296824 94.924643 
L 263.020318 86.493884 
L 263.498354 86.198103 
L 263.976389 85.969188 
L 265.123674 85.203149 
L 265.697309 84.909858 
L 266.366559 84.485599 
L 267.896272 83.572142 
L 269.330379 82.663572 
L 269.6172 82.530907 
L 270.477664 81.995736 
L 271.62495 81.253814 
L 272.198592 80.917536 
L 273.537092 80.089882 
L 274.301948 79.675703 
L 274.58877 79.481972 
L 274.875591 79.340947 
L 275.258019 79.099145 
L 275.927269 78.768255 
L 276.500912 78.340562 
L 277.170162 77.942881 
L 277.361376 78.183583 
L 278.126233 77.4729 
L 279.273518 76.714552 
L 279.560339 76.571276 
L 281.376874 75.50176 
L 282.046124 75.093482 
L 282.619766 74.679494 
L 283.48023 74.224621 
L 283.767052 74.045916 
L 285.583587 72.854438 
L 285.966015 72.676227 
L 287.304514 71.847796 
L 287.591336 71.59619 
L 287.78255 71.497926 
L 288.643014 70.946874 
L 289.216657 70.703438 
L 290.07712 70.176225 
L 290.555156 69.928277 
L 290.841977 69.76778 
L 291.41562 69.417734 
L 294.092619 67.700545 
L 295.04869 67.140812 
L 295.526725 66.7854 
L 295.813547 66.623944 
L 296.482796 66.278697 
L 297.056439 65.816694 
L 298.203724 65.133505 
L 298.490546 64.963215 
L 298.68176 64.802152 
L 299.542224 64.341711 
L 299.924652 64.103797 
L 302.028008 62.8357 
L 302.31483 62.640695 
L 303.366508 62.072756 
L 303.844543 61.795356 
L 304.035758 61.749086 
L 304.513793 61.495797 
L 305.183043 61.083308 
L 305.756685 60.62169 
L 306.425935 60.215394 
L 309.867791 58.506601 
L 310.441434 58.180034 
L 311.301897 57.767934 
L 311.684326 57.548559 
L 312.162361 57.19641 
L 312.449183 57.053586 
L 313.500861 56.46425 
L 313.787682 56.321382 
L 314.170111 56.198309 
L 314.456932 56.006569 
L 314.934967 55.705299 
L 315.986646 55.085901 
L 316.560288 54.816886 
L 317.611966 54.148099 
L 318.090002 53.922303 
L 318.950466 53.489408 
L 319.046073 53.644172 
L 319.428501 53.492675 
L 319.619715 53.464768 
L 319.81093 53.370112 
L 320.097751 53.340084 
L 322.679143 52.20872 
L 325.929784 50.509983 
L 326.216606 50.372086 
L 327.268284 49.897864 
L 327.459498 49.753974 
L 327.746319 49.790191 
L 328.224355 49.559651 
L 328.606783 49.305816 
L 329.467247 48.958968 
L 330.423318 48.472746 
L 330.614532 48.372103 
L 331.283782 48.019121 
L 331.761818 47.857844 
L 332.813496 47.408717 
L 333.100317 47.239055 
L 333.387138 47.105277 
L 333.769567 46.914987 
L 333.960781 46.795022 
L 334.247602 46.731778 
L 334.821245 46.510397 
L 335.012459 46.426981 
L 335.203673 46.310521 
L 335.586102 46.203078 
L 336.446566 45.790019 
L 336.63778 45.76274 
L 337.020208 45.48443 
L 337.115815 45.922047 
L 337.30703 45.663387 
L 337.976279 45.545291 
L 338.454315 45.424799 
L 338.93235 45.257386 
L 340.27085 44.74187 
L 342.661027 43.789815 
L 342.852242 43.678576 
L 343.139063 43.463791 
L 343.521491 43.295551 
L 343.808313 43.153646 
L 343.999527 43.076983 
L 344.190741 42.992398 
L 344.859991 42.736307 
L 345.146812 42.615326 
L 345.338026 42.70918 
L 345.624848 42.621228 
L 349.640346 40.649914 
L 350.596417 40.330622 
L 351.265667 40.090743 
L 351.361274 40.12724 
L 351.839309 39.823129 
L 352.317345 39.573314 
L 353.177809 39.278112 
L 355.950415 38.33707 
L 356.237236 38.197929 
L 356.42845 38.115925 
L 356.715272 38.014071 
L 356.906486 37.988704 
L 358.627414 37.451531 
L 359.201056 37.370166 
L 359.583485 37.282087 
L 359.679092 37.803357 
L 359.870306 37.532347 
L 360.157127 37.505911 
L 360.348342 37.600572 
L 363.598983 36.859172 
L 363.790197 36.944075 
L 364.36384 36.925374 
L 364.650661 36.900174 
L 365.415518 36.630265 
L 365.606732 36.625857 
L 365.893554 36.5904 
L 366.180375 36.470284 
L 366.467196 36.378279 
L 367.423267 36.092618 
L 367.614481 36.057703 
L 367.901303 35.951777 
L 370.387087 35.447569 
L 371.438766 35.340907 
L 371.62998 35.275296 
L 372.299229 35.170643 
L 373.446515 34.780642 
L 373.733336 34.887216 
L 375.26305 34.347706 
L 375.454264 34.301369 
L 376.601549 34.109468 
L 377.175192 33.843474 
L 377.366406 33.938685 
L 378.322477 33.778898 
L 378.991727 33.784451 
L 380.139012 33.540602 
L 380.999476 33.52972 
L 382.720404 33.318012 
L 383.102832 33.327517 
L 383.963296 33.243374 
L 384.15451 33.203945 
L 384.536939 33.163626 
L 385.301796 33.055354 
L 386.066652 33.046516 
L 387.118331 32.764248 
L 387.78758 32.736749 
L 388.074402 32.766381 
L 388.839258 32.739773 
L 389.12608 32.770391 
L 389.412901 32.724393 
L 389.699722 32.638445 
L 391.42065 32.530938 
L 391.707471 32.497332 
L 393.141578 32.478849 
L 393.332792 32.516146 
L 393.906435 32.479835 
L 394.193256 32.538432 
L 394.38447 32.490655 
L 395.436149 32.47359 
L 399.260433 32.442829 
L 399.834075 32.347727 
L 400.312111 32.49764 
L 400.503325 32.498913 
L 400.981361 32.643096 
L 401.555003 32.718796 
L 401.746217 32.669644 
L 402.033039 32.713157 
L 402.224253 32.72309 
L 402.511074 32.781379 
L 402.797895 32.821888 
L 405.188073 33.032516 
L 405.666109 33.11469 
L 406.048537 33.145236 
L 410.064035 33.768939 
L 410.828892 33.921932 
L 411.306928 34.047435 
L 411.689356 34.082645 
L 412.741034 34.265066 
L 413.314677 34.453136 
L 414.079534 34.618374 
L 415.322426 34.384395 
L 416.278497 34.496887 
L 416.947747 34.763325 
L 417.521389 35.020981 
L 418.095032 35.301356 
L 418.668675 35.505194 
L 419.051103 35.662488 
L 419.624746 35.860442 
L 420.389603 35.879993 
L 420.772031 35.959719 
L 421.823709 36.243584 
L 423.353423 36.991857 
L 423.735851 37.084664 
L 424.596315 37.459251 
L 424.787529 37.443426 
L 425.169958 37.658925 
L 426.986493 38.281101 
L 428.133778 38.890024 
L 428.803028 39.211194 
L 428.994242 39.330822 
L 429.472277 40.374642 
L 430.04592 40.883816 
L 431.671241 41.512959 
L 431.862455 41.498884 
L 432.244883 41.772519 
L 432.436098 41.843227 
L 432.722919 42.080417 
L 434.539454 43.195264 
L 435.017489 43.750599 
L 435.782346 44.098729 
L 436.069167 44.164564 
L 436.738417 44.547475 
L 437.598881 44.990252 
L 438.459345 46.034741 
L 438.746166 46.295415 
L 438.841773 46.472491 
L 439.128595 47.366751 
L 440.084666 48.985176 
L 441.040737 49.455605 
L 441.614379 49.786103 
L 442.474843 50.294889 
L 442.672192 50.465073 
L 442.672192 50.465073 
" clip-path="url(#p1ab742b1ba)" style="fill: none; stroke: #ff8c00; stroke-width: 2.25; stroke-linecap: round"/>
   </g>
  </g>
 </g>
 <defs>
  <clipPath id="p1ab742b1ba">
   <rect x="69.826738" y="25.65327" width="390.6" height="146.88"/>
  </clipPath>
 </defs>
</svg>
